<?xml version="1.0" encoding="UTF-8" standalone="no"?><!DOCTYPE svg PUBLIC "-//W3C//DTD SVG 1.1//EN" "http://www.w3.org/Graphics/SVG/1.1/DTD/svg11.dtd"><svg width="100%" height="100%" viewBox="0 0 1920 1080" version="1.1" xmlns="http://www.w3.org/2000/svg" xmlns:xlink="http://www.w3.org/1999/xlink" xml:space="preserve" xmlns:serif="http://www.serif.com/" style="fill-rule:evenodd;clip-rule:evenodd;stroke-linecap:round;stroke-linejoin:round;stroke-miterlimit:1.5;"><g id="Stream"><g opacity="0.25"><path d="M0,412.942c407.542,6.356 647.599,232.238 991.017,178.373c309.621,-48.564 603.305,-222.457 928.983,-144.915l0,202.119c-305.374,-65.581 -518.41,-19.473 -874.383,43.932c-398.841,71.041 -680.278,-82.475 -1045.62,-71.034l0,-208.475Z" style="fill:url(#_Linear1);"/><path d="M1920,436.4c-325.678,-77.542 -619.362,96.351 -928.983,144.915c-343.418,53.865 -583.474,-172.016 -991.017,-178.373l0,-20c407.542,6.356 647.599,232.238 991.017,178.373c309.621,-48.564 603.305,-222.457 928.983,-144.915l0,20Z" style="fill:url(#_Linear2);"/><path d="M1920,676.912c-305.374,-65.581 -518.41,-19.473 -874.383,43.932c-398.841,71.041 -680.278,-82.474 -1045.62,-71.034l0,-208.474l0,190.081c365.339,-11.441 646.776,142.075 1045.62,71.034c355.973,-63.405 569.009,-109.513 874.383,-43.932l0,18.393Z" style="fill:url(#_Linear3);"/></g></g><rect id="Particles" x="74.798" y="234.658" width="1762.1" height="684.231" style="fill:none;"/><clipPath id="_clip4"><rect id="Particles1" serif:id="Particles" x="74.798" y="234.658" width="1762.1" height="684.231"/></clipPath><g clip-path="url(#_clip4)"><g id="Bubble"><path d="M1619.14,668.062c2.569,-3.271 7.311,-3.841 10.583,-1.272c3.271,2.569 3.841,7.311 1.272,10.583c-2.569,3.271 -7.311,3.842 -10.583,1.272c-3.271,-2.569 -3.842,-7.311 -1.272,-10.583Z" style="fill:#f6714f;fill-opacity:0.6;"/><path d="M1619.61,675.318c-0.915,-2.008 -0.705,-4.445 0.75,-6.298c1.456,-1.853 3.774,-2.634 5.941,-2.221c-1.822,0.491 -3.506,1.552 -4.76,3.148c-1.254,1.597 -1.885,3.485 -1.931,5.371Z" style="fill:#ffdfc2;"/></g><g id="Bubble1" serif:id="Bubble"><path d="M281.203,477.213c2.846,-3.624 8.098,-4.255 11.722,-1.409c3.623,2.846 4.254,8.098 1.409,11.721c-2.846,3.624 -8.098,4.255 -11.722,1.409c-3.623,-2.845 -4.255,-8.098 -1.409,-11.721Z" style="fill:#f6714f;fill-opacity:0.6;"/><path d="M281.723,485.249c-1.013,-2.223 -0.781,-4.923 0.831,-6.975c1.612,-2.053 4.179,-2.918 6.58,-2.46c-2.018,0.543 -3.883,1.719 -5.272,3.487c-1.389,1.768 -2.089,3.859 -2.139,5.948Z" style="fill:#ffdfc2;"/></g><g id="Bubble2" serif:id="Bubble"><path d="M1036.02,682.111c4.466,-5.687 12.708,-6.677 18.395,-2.211c5.686,4.466 6.677,12.708 2.211,18.395c-4.466,5.686 -12.709,6.677 -18.395,2.211c-5.687,-4.466 -6.677,-12.709 -2.211,-18.395Z" style="fill:#f6714f;fill-opacity:0.6;"/><path d="M1036.83,694.723c-1.591,-3.49 -1.227,-7.726 1.303,-10.947c2.53,-3.222 6.559,-4.579 10.326,-3.861c-3.166,0.853 -6.094,2.698 -8.273,5.473c-2.179,2.775 -3.278,6.056 -3.356,9.335Z" style="fill:#ffdfc2;"/></g><g id="Bubble3" serif:id="Bubble"><path d="M1251.24,522.976c3.772,-4.802 10.733,-5.639 15.535,-1.867c4.803,3.771 5.639,10.732 1.868,15.535c-3.772,4.802 -10.733,5.639 -15.535,1.867c-4.802,-3.771 -5.639,-10.732 -1.868,-15.535Z" style="fill:#f6714f;fill-opacity:0.6;"/><path d="M1251.93,533.627c-1.344,-2.947 -1.036,-6.524 1.1,-9.245c2.137,-2.72 5.54,-3.867 8.721,-3.26c-2.674,0.72 -5.146,2.278 -6.987,4.622c-1.84,2.343 -2.768,5.114 -2.834,7.883Z" style="fill:#ffdfc2;"/></g><g id="Bubble4" serif:id="Bubble"><path d="M1768.8,517.179c5.865,-7.468 16.691,-8.77 24.159,-2.904c7.469,5.866 8.77,16.691 2.905,24.16c-5.866,7.468 -16.691,8.77 -24.16,2.904c-7.468,-5.866 -8.77,-16.691 -2.904,-24.16Z" style="fill:#f6714f;fill-opacity:0.6;"/><path d="M1769.87,533.743c-2.089,-4.583 -1.611,-10.146 1.712,-14.377c3.323,-4.231 8.614,-6.014 13.562,-5.071c-4.159,1.121 -8.004,3.544 -10.866,7.188c-2.863,3.645 -4.305,7.954 -4.408,12.26Z" style="fill:#ffdfc2;"/></g><g id="Bubble5" serif:id="Bubble"><path d="M98.569,676.562c5.899,-7.511 16.787,-8.82 24.298,-2.921c7.511,5.899 8.82,16.787 2.921,24.298c-5.899,7.511 -16.787,8.82 -24.298,2.921c-7.511,-5.899 -8.82,-16.787 -2.921,-24.298Z" style="fill:#f6714f;fill-opacity:0.6;"/><path d="M99.647,693.22c-2.101,-4.609 -1.62,-10.204 1.722,-14.459c3.342,-4.255 8.664,-6.048 13.64,-5.1c-4.183,1.127 -8.05,3.564 -10.928,7.229c-2.879,3.666 -4.33,8 -4.434,12.33Z" style="fill:#ffdfc2;"/></g><g id="Ring"><circle id="Ring1" serif:id="Ring" cx="1446.2" cy="615.865" r="14.238" style="fill:none;stroke:#fba780;stroke-width:5px;"/></g><g id="Ring2" serif:id="Ring"><circle id="Ring3" serif:id="Ring" cx="385.316" cy="663.068" r="14.238" style="fill:none;stroke:#fba780;stroke-width:5px;"/></g><g id="Ring4" serif:id="Ring"><circle id="Ring5" serif:id="Ring" cx="175.906" cy="356.861" r="14.238" style="fill:none;stroke:#fba780;stroke-width:5px;"/></g><g id="Ring6" serif:id="Ring"><circle id="Ring7" serif:id="Ring" cx="1819.62" cy="363.024" r="8.546" style="fill:none;stroke:#fba780;stroke-width:5px;"/></g><g id="Ring8" serif:id="Ring"><circle id="Ring9" serif:id="Ring" cx="660.815" cy="561.87" r="9.903" style="fill:none;stroke:#fba780;stroke-width:5px;"/></g><path d="M117.094,478.977l0.002,-0.246c0.005,-0.033 0.012,-0.066 0.021,-0.099c0.072,-0.273 0.143,-0.435 0.505,-0.604l24.725,-9.64c0.291,-0.092 0.612,-0.017 0.875,0.192c0.015,0.011 0.03,0.023 0.045,0.035c0.235,0.176 0.403,0.435 0.448,0.731c0.011,0.075 0.01,0.095 0.012,0.171l0,27.71c-0.003,0.072 -0.009,0.138 -0.018,0.197c-0.218,2.272 -2.799,4.529 -6.318,5.33c-4.038,0.918 -7.793,-0.428 -8.379,-3.004c-0.586,-2.576 2.217,-5.414 6.256,-6.332c2.338,-0.532 4.58,-0.305 6.168,0.48l0,-16.001l-0.007,0.027l-22.045,8.595l0,20.199c-0.003,0.073 -0.009,0.138 -0.017,0.197c-0.219,2.272 -2.8,4.53 -6.319,5.33c-4.038,0.919 -7.793,-0.427 -8.379,-3.004c-0.586,-2.576 2.217,-5.413 6.256,-6.332c2.338,-0.532 4.58,-0.304 6.168,0.481l0,-24.164c0,0 0,-0.209 0,-0.209c0,0 0,-0.009 0,-0.009l0.001,-0.031Zm2.29,3.646l0,1.436l22.045,-8.595l0,-1.435l-22.045,8.594Z" style="fill:#d2a2db;"/><path d="M1561.07,448.263l0.001,-0.314c0.007,-0.042 0.016,-0.084 0.027,-0.126c0.093,-0.349 0.183,-0.555 0.645,-0.771l31.554,-12.303c0.372,-0.118 0.782,-0.021 1.117,0.245c0.02,0.015 0.039,0.029 0.058,0.044c0.299,0.226 0.514,0.555 0.571,0.934c0.014,0.096 0.012,0.12 0.016,0.217l0,35.364c-0.005,0.093 -0.013,0.177 -0.023,0.252c-0.278,2.9 -3.572,5.781 -8.063,6.802c-5.155,1.172 -9.946,-0.545 -10.694,-3.833c-0.748,-3.288 2.83,-6.909 7.984,-8.082c2.983,-0.678 5.845,-0.388 7.872,0.614l0,-20.421l-0.01,0.034l-28.133,10.969l0,25.779c-0.005,0.092 -0.012,0.176 -0.023,0.251c-0.278,2.9 -3.572,5.781 -8.063,6.802c-5.154,1.172 -9.946,-0.545 -10.694,-3.833c-0.747,-3.288 2.83,-6.909 7.984,-8.081c2.984,-0.679 5.845,-0.389 7.872,0.613l0,-30.839c0,0 0,-0.266 0,-0.266c0,0 0,-0.011 0,-0.011l0.002,-0.04Zm2.922,4.654l0,1.832l28.133,-10.969l0,-1.832l-28.133,10.969Z" style="fill:#d2a2db;"/><path d="M688.708,708.224l0.001,-0.238c0.005,-0.032 0.011,-0.064 0.018,-0.096c0.061,-0.264 0.121,-0.421 0.427,-0.584l20.879,-9.329c0.245,-0.09 0.517,-0.017 0.739,0.186c0.013,0.01 0.025,0.021 0.038,0.033c0.198,0.171 0.34,0.421 0.377,0.707c0.01,0.073 0.009,0.092 0.011,0.166l0,26.816c-0.003,0.07 -0.008,0.133 -0.015,0.191c-0.184,2.198 -2.364,4.383 -5.335,5.157c-3.411,0.889 -6.581,-0.413 -7.076,-2.907c-0.495,-2.493 1.872,-5.239 5.283,-6.127c1.974,-0.515 3.867,-0.295 5.208,0.465l0,-15.485l-0.006,0.026l-18.615,8.317l0,19.548c-0.003,0.07 -0.008,0.133 -0.015,0.191c-0.184,2.199 -2.364,4.383 -5.335,5.158c-3.411,0.888 -6.581,-0.414 -7.076,-2.907c-0.495,-2.494 1.872,-5.239 5.283,-6.128c1.974,-0.515 3.867,-0.295 5.208,0.465l0,-23.384c0,0 0,-0.202 0,-0.202c0,0 0,-0.009 0,-0.009l0.001,-0.03Zm1.934,3.529l0,1.389l18.615,-8.317l0,-1.39l-18.615,8.318Z" style="fill:#d2a2db;"/><path d="M248.836,773.126c-0.004,0.082 -0.011,0.155 -0.02,0.222c-0.245,2.553 -3.146,5.09 -7.101,5.99c-4.539,1.032 -8.759,-0.481 -9.417,-3.376c-0.659,-2.896 2.492,-6.085 7.031,-7.117c2.627,-0.598 5.147,-0.342 6.932,0.54l0,-27.392c0,0 0,-0.01 0,-0.01c0.011,-0.296 0.039,-0.344 0.089,-0.47c0.134,-0.342 0.417,-0.603 0.763,-0.73c0.142,-0.06 0.292,-0.09 0.44,-0.085c0.03,0 0.061,0 0.092,0.001c0.585,0.066 1.09,0.515 1.177,1.092c0.013,0.085 0.011,0.106 0.014,0.192l0,31.143Z" style="fill:#e76c99;"/><path d="M1819.62,748.536c-0.005,0.098 -0.013,0.186 -0.024,0.266c-0.295,3.072 -3.784,6.124 -8.542,7.206c-5.461,1.242 -10.537,-0.578 -11.329,-4.061c-0.792,-3.483 2.998,-7.319 8.458,-8.561c3.161,-0.719 6.192,-0.412 8.339,0.65l0,-32.953c0,0 0,-0.012 0,-0.012c0.014,-0.356 0.048,-0.414 0.107,-0.566c0.162,-0.41 0.502,-0.725 0.918,-0.878c0.172,-0.072 0.352,-0.107 0.529,-0.101c0.037,-0.001 0.074,-0.001 0.111,0c0.704,0.08 1.311,0.62 1.416,1.314c0.015,0.102 0.014,0.128 0.017,0.231l0,37.465Z" style="fill:#e76c99;"/><path d="M371.078,391.92c-0.003,0.051 -0.007,0.097 -0.013,0.139c-0.154,1.602 -1.974,3.194 -4.456,3.759c-2.848,0.648 -5.496,-0.302 -5.909,-2.119c-0.414,-1.817 1.563,-3.818 4.412,-4.466c1.648,-0.375 3.23,-0.215 4.35,0.339l0,-17.189c0,0 0,-0.007 0,-0.007c0.007,-0.185 0.025,-0.216 0.056,-0.295c0.084,-0.214 0.261,-0.378 0.478,-0.458c0.09,-0.038 0.184,-0.056 0.277,-0.053c0.019,0 0.038,0 0.057,0.001c0.367,0.041 0.684,0.323 0.739,0.685c0.008,0.053 0.007,0.067 0.009,0.12l0,19.544Z" style="fill:#e76c99;"/><path d="M1712.27,252.4c0.25,-0.199 0.555,-0.27 0.831,-0.183l23.472,9.152c0.344,0.16 0.411,0.314 0.48,0.573c0.008,0.031 0.015,0.063 0.02,0.094l0.002,0.47l0,25.779c0.158,2.316 -2.407,4.739 -6.005,5.557c-3.834,0.872 -7.398,-0.406 -7.955,-2.852c-0.556,-2.446 2.105,-5.139 5.939,-6.011c2.215,-0.504 4.339,-0.29 5.846,0.451l0,-16.001l-20.927,-8.159l0,18.302c-0.004,0.069 -0.009,0.131 -0.017,0.187c-0.207,2.157 -2.657,4.3 -5.998,5.06c-3.834,0.872 -7.398,-0.406 -7.955,-2.852c-0.556,-2.446 2.105,-5.139 5.939,-6.011c2.219,-0.505 4.348,-0.289 5.856,0.456l0,-23.138c0.019,-0.363 0.2,-0.677 0.472,-0.874Zm1.703,6.535l20.927,8.159l0,-1.363l-20.927,-8.159l0,1.363Z" style="fill:#f4bfec;"/></g><defs><linearGradient id="_Linear1" x1="0" y1="0" x2="1" y2="0" gradientUnits="userSpaceOnUse" gradientTransform="matrix(1920,0,0,1920,8.88178e-16,478.211)"><stop offset="0" style="stop-color:#f6714f;stop-opacity:1"/><stop offset="0.2" style="stop-color:#f6714f;stop-opacity:1"/><stop offset="1" style="stop-color:#b446f6;stop-opacity:1"/></linearGradient><linearGradient id="_Linear2" x1="0" y1="0" x2="1" y2="0" gradientUnits="userSpaceOnUse" gradientTransform="matrix(1920,0,0,1329.97,8.88178e-16,428.153)"><stop offset="0" style="stop-color:#f6714f;stop-opacity:1"/><stop offset="0.2" style="stop-color:#f6714f;stop-opacity:1"/><stop offset="1" style="stop-color:#b446f6;stop-opacity:1"/></linearGradient><linearGradient id="_Linear3" x1="0" y1="0" x2="1" y2="0" gradientUnits="userSpaceOnUse" gradientTransform="matrix(1920,0,0,1920,0,506.604)"><stop offset="0" style="stop-color:#f6714f;stop-opacity:1"/><stop offset="0.2" style="stop-color:#f6714f;stop-opacity:1"/><stop offset="1" style="stop-color:#b446f6;stop-opacity:1"/></linearGradient></defs></svg>