<?xml version="1.0" encoding="utf-8"?>
<!-- Generator: Adobe Illustrator 16.0.0, SVG Export Plug-In . SVG Version: 6.00 Build 0)  -->
<!DOCTYPE svg PUBLIC "-//W3C//DTD SVG 1.1 Tiny//EN" "http://www.w3.org/Graphics/SVG/1.1/DTD/svg11-tiny.dtd">
<svg version="1.1" baseProfile="tiny" xmlns="http://www.w3.org/2000/svg" xmlns:xlink="http://www.w3.org/1999/xlink" x="0px"
	 y="0px" width="423.838px" height="423.838px" viewBox="0 0 423.838 423.838" xml:space="preserve">
	<g id="Icon">
		<circle fill="#EB594F" cx="211.917" cy="211.918" r="211.919"/>
		<g>
			<g>
				<path fill="#B84F4F" d="M193.938,101.249c2.267,0.713,4.313,1.765,6.655,2.432c-3.215,2.949-8.291,3.282-11.447,6.755
					c-2.414,2.658-6.082,7.537-5.94,11.466c6.282-2.737,14.003-4.33,20.993-3.861c-6.563,5.874-12.068,11.331-13.086,20.51
					c-1.038,9.357,1.908,18.376,3.641,27.007c3.278-1.219,4.132-9.027,4.974-12.076c1.263-4.552,2.336-8.945,4.502-13.247
					c1.995-3.965,5.334-6.002,8.786-8.516c2.939-2.14,5.807-4.427,8.88-6.42l-0.134-0.134c0.546-0.352,1.083-0.714,1.644-1.043
					c3.041-1.778,6.284-3.701,9.56-5.411c-1.883-1.88-4.02-3.86-6.563-4.722c-0.295-0.091-0.592-0.178-0.897-0.235
					c0.013,0.002,0.025,0.004,0.038,0.005c-0.1-0.022-0.195-0.058-0.297-0.077c3.303,0.408,6.241,1.103,9.253,1.978
					c0.925,0.266,1.858,0.55,2.809,0.848l3.943-1.125c-4.388-10.875-13.429-21.952-24.669-27.142
					c-3.627-1.638-7.477-2.664-11.474-2.866c0.177-0.024,0.358-0.045,0.537-0.067c-2.025-0.161-4.087-0.125-6.18,0.158
					c-7.316,0.99-15.066,7.428-18.878,13.485c3.638,0.099,7.505,1.021,11.043,1.689C192.435,100.791,193.197,101.004,193.938,101.249
					z"/>
				<path fill="#B84F4F" d="M236.976,233.912l2.821-1.811c0.104-0.088,0.094-0.101,0.309-0.244c2.369-1.588,9.12-4.217,17.774-3.079
					c4.175,0.549,10.528,2.195,15.231,7.158c0.756-2.978,0.641-7.69,0.846-10.784c0.645-9.738-0.364-21.746-3.953-30.211
					c-3.313-7.819-11.702-13.849-20.386-10.958c-9.304,3.092-12.474,12.291-13.765,21.236
					C234.633,213.662,233.049,226.153,236.976,233.912z"/>
				<path fill="#B84F4F" d="M276.222,138.072c1.462,3.067,2.967,6.129,4.478,9.193l-0.627-1.673
					c27.466-8.309,34.576-21.653,47.42-31.363c0.47,0.024,3.226,0.513,3.663,0.844c0.239,4.746-2.813,10.868-5.258,14.838
					c-3.006,4.882-6.265,6.253-9.767,9.484c4.813-0.612,12.862-0.42,17.322-3.521c0.436,4.572-4.781,9.955-7.887,12.958
					c-1.954,1.893-4.55,4.464-7.182,5.776c-2.413,1.2-5.796,2.569-7.889,4.647c4.135-0.587,6.417,4.169,10.705,4.789
					c-6.999,7.967-20.272,4.486-29.304,7.603c1.604,4.367,2.88,8.814,4.702,13.01c2.339,5.387,1.355,6.699,3.943,11.959
					c5.13-5.708,12.963-10.145,18.123-15.559c5.407-5.674,8.206-8.679,12.855-15.172c8.272-11.56,11.043-18.128,13.246-30.151
					c1.059-5.771,0.372-15.777-0.467-21.691c-0.913-6.457-4.1-11.572-8.327-16.107c-1.722-1.078-6.368-1.8-7.823-1.736
					c-5.711,0.246-8.946,2.197-14.189,4.404c-4.959,2.087-9.352,6.962-13.71,9.965c-9.595,6.611-17.062,16.57-29.899,16.714
					l2.396,4.367C273.804,133.643,275.225,135.979,276.222,138.072z"/>
				<path fill="#B84F4F" d="M152.363,205.328c0,9.363,0.313,18.08,0.357,27.242c3.338-4.324,8.678-6.519,13.031-6.711
					c7.196-0.318,12.992,1.154,17.613,3.675c1.106,0.604,1.956,1.014,2.828,1.556l3.73,2.772c1.37-5.663,0.18-12.682,0.754-18.509
					c0.622-6.309-0.363-12.138-1.889-18.116c-1.599-6.245-3.894-11.72-9.465-14.94c-5.629-3.254-12.451-3.786-17.955-0.011
					C153.822,187.462,152.363,196.635,152.363,205.328z"/>
				<path fill="#B84F4F" d="M87.393,155.818c2.592,4.707,4.336,9.029,8.545,12.416c9.667,7.776,21.59,10.577,31.26,18.299
					l2.254-4.507c0.453-2.117,0.807-4.184,1.585-6.302c2.022-5.49,3.798-10.551,6.083-15.431c-0.11,0.048-0.217,0.099-0.346,0.136
					c-1.258,0.364-3.389,0.227-4.703,0.198c-2.901-0.062-6.385-0.553-9.234-1.094c-3.381-0.645-6.251-1.733-9.125-3.806
					c-1.655-1.193-7.341-4.798-6.891-7.226c2.744-0.274,6.809-0.181,9.482-0.469c2.367-0.256,5.686-0.097,7.823-1.137
					c-2.38,0.011-4.965-0.723-7.442-0.928c-2.003-0.168-4.063-0.155-5.969-0.8c-3.841-1.297-7.768-3.344-10.146-6.573
					c-4.812-6.535-8.559-11.392-5.862-15.53c1.702-2.614,2.629,0.741,8.168,2.806c2.004,0.745,4.603,1.882,7.957,2.007
					c-1.665-2.007-4.906-6.254-6.03-9.288c-1.063-2.862-1.986-5.729-2.729-8.682c-0.788-3.135-1.316-6.298-1.023-9.588
					c0.196-2.197,0.952-8.357,3.423-3.925c2.791,5.008,4.3,10.641,7.748,15.387c3.233,4.451,8.27,6.677,12.399,10.098
					c4.363,3.62,8.839,7.791,13.71,10.705c2.462,1.476,6.061,1.731,8.958,2.16c3.139,0.465,6.595,0.475,9.74,0.002
					c3.018-3.317,7.627-8.219,8.049-12.39c-5.853-2.011-11.605-4.728-17.597-6.73c-10.673-3.566-20.106-12.229-27.325-21.13
					c-6.626-8.169-16.021-18.733-27.908-13.988C81.77,84.692,79.621,97.248,76.958,107.28c-1.548,5.84-0.573,12.539,0.011,18.405
					c0.553,5.532,1.082,10.988,2.997,16.141C81.786,146.733,84.89,151.272,87.393,155.818z"/>
				<path fill="#B84F4F" d="M251.879,337.47c0.414-3.979-0.504-7.656-2.537-10.67c-1.189-1.769-5.43,0.977-4.998-1.54
					c0.281-2.686,0.174-5.43,0.547-8.199c0.365-2.699,1.884-5.449,2.787-8.026c0.938-2.662,1.92-5.989,3.281-8.467
					c2.687-4.888,10.707-7.977,15.562-8.589c1.589-0.199,6.044-0.684,8.952-4.298c1.406,1.262,3.053,2.265,4.303,3.213
					c1.773,1.347,6.561,4.397,7.029,7.117c0.022,0.243,0.031,0.491,0.027,0.747c0.038-0.244,0.436-0.752,0.393-1.004
					c-0.334-3.91-3.895-6.27-6.99-8.604c-1.18-0.889-2.524-1.89-3.704-2.905c0.842-1.27,1.258-2.476,1.495-4.412
					c0.465-3.794,1.363-6.947,1.611-10.123c4.863,0.101,10.691,0.461,13.11,0.942c7.06,1.4,12.538,3.958,14.847,3.957
					c-5.492-5.673-14.318-6.515-22.184-7.61c-1.883-0.264-3.814-0.337-5.77-0.282c-0.139-1.695-0.538-3.45-1.374-5.362
					c-1.619-3.708-3.968-6.748-6.193-9.063c0.231-0.084,0.456-0.163,0.672-0.241c4.528-1.607,8.456-3.45,13.243-4.227
					c4.807-0.779,9.438-1.525,14.367-0.783c2.349,0.355,11.603,3.535,12.93,2.262c-0.963-0.741-1.978-1.507-3.057-2.11
					c-7.565-4.225-20.076-1.35-27.916-0.203c-3.962,0.579-8.456,1.441-12.41,3.217c-1.86-1.652-3.391-2.699-3.937-3.071
					c-8.172-5.562-19.828-5.437-23.947,1.001c-0.651,0.095-1.385,0.282-2.231,0.598c-8.346,3.116-17.82,2.623-26.762,1.628
					c-4.209-0.469-8.834-0.866-12.952-1.683c-0.053-0.009-0.101-0.015-0.153-0.024c-7.351-9.593-24.123-8.614-32.743-5.238
					c-3.478,1.36-6.268,3.198-8.553,5.299c-1.425-0.768-2.858-1.453-4.257-1.961c-8.564-3.112-19.813-2.521-28.736-3.374
					c-4.025-0.383-8.906-0.342-12.528,1.001c9.377,0.704,18.443,2.601,28.087,2.601c5.889,0,10.979,1.117,15.662,3.509
					c-2.597,2.887-4.395,6.137-5.713,9.341c-3.475-0.394-6.908-0.456-9.668-0.456c-9.816,0-16.503,2.5-24.854,6.979
					c-3.477,1.867-10.701,3.073-12.077,7.571c4.097-2.328,8.148-3.658,12.407-5.254c4.093-1.533,7.279-3.708,11.572-4.782
					c4.673-1.17,9.273-2.472,14.255-2.261c2.392,0.103,4.944,0.329,7.425,0.702c-0.472,1.364-0.877,2.703-1.227,3.975
					c-0.914,3.331-0.905,7.385,0.288,11.257c-0.256,0.137-0.52,0.272-0.747,0.407c-6.432,3.782-10.747,8.321-10.381,16.014
					c2.469,0.586,2.51-5.237,3.393-6.994c1.363-2.711,4.031-4.54,6.708-5.922c0.632-0.325,1.302-0.667,1.991-1.007
					c1.95,4.228,5.482,7.973,11.037,9.918c6.338,2.22,15.068,0.866,18.048,1.009c2.103,0.099,2.591,0.187,3.577,2.099
					c0.625,1.221,1.247,2.527,1.865,3.768c2.668,5.371,5.543,10.664,7.287,16.454c0.838,2.786,2.383,6.195,2.555,9.188
					c0.086,1.489-0.004,3.526-1.535,3.965c-1.025,0.294-2.709-0.785-3.956-0.83c-5.331-0.192-4.192,7.901-2.844,13.409
					L251.879,337.47z"/>
			</g>
		</g>
		<g>
			<path fill="#934343" d="M241.298,336.693c-4.393,1.057-10.894,2.595-15.401,2.629c-12.957,0.095-16.495-2.272-24.853-3.896
				l-5.758-0.8c0,10.182,2.505,24.101,12.845,29.009c10.316,4.899,24.727,4.403,33.731-2.337c4.494-3.364,7.793-6.068,9.378-11.666
				c1.148-4.046,2.401-11.849,0.696-16.064C248.417,333.463,244.846,335.84,241.298,336.693z"/>
			<path fill="#934343" d="M214.252,324.925c-3.001,0.736-8.85,4.279-7.323,8.388c1.087,2.922,9.408,3.217,12.409,3.647
				c4.77,0.686,8.094,1.603,12.944-0.343c3.794-1.524,7.416-3.943,11.268-5.275l-1.407-2.255c-4.86-3.29-6.849-6.109-13.225-3.661
				C223.837,327.379,219.934,323.53,214.252,324.925z"/>
			<path fill="#934343" d="M246.136,269.131c-1.402,4.205-6.02,8.094-9.001,11.283c-3.583,3.831-8.346,5.437-12.459,8.389
				l-1.693-0.14c3.254,1.43,6.49,3.424,9.855,4.64c0.859,0.31,1.738,0.567,2.627,0.805c0.626,3.25,1.907,6.723,2.545,9.72
				c0.788,3.693,0.096,7.889,1.078,10.006c3.16,0.201,4.92-5.062,6.622-9.442c0.932-2.388,2.218-4.223,2.842-5.44
				c0.37-0.719,0.647-1.318,0.837-1.837c7.513,1.624,12.552,1.355,20.924-0.704c9.089-2.238,9.836-10.372,9.86-19.156
				c0.013-4.681-1.726-8.346-5.015-11.628c-2.652-2.642-5.245-6.173-8.296-8.021c-2.228-1.352-4.767-1.473-6.972-2.604
				c0,0-3.977,0.184-9.606,1.177C253.685,258.095,250.077,266.739,246.136,269.131z M272.848,282.981
				c0.036-0.861,0.037-1.613,0.82-2.093c1.004-0.615,1.178,0.289,1.998,0.494l0.093,2.817c-0.7,0.689-0.921,1.308-2.065,0.943
				C272.643,284.809,272.809,283.975,272.848,282.981z M266.156,265.209c0.639-0.462,2.07-0.97,2.77-0.282
				c1.273,1.257-1.445,4.02-2.65,4.533l-1.034-1.974C264.989,266.299,265.229,265.873,266.156,265.209z M263.772,273.707l-1.222-2.16
				C265.341,268.725,266.119,273.939,263.772,273.707z M262.921,281.971c0.663-0.932,1.951-0.698,2.255,0.376
				c0.278,0.979,0.176,2.367,0.28,3.381c0.101,1.003-0.412,2.011-1.313,2.465c-1.732,0.874-1.693-0.799-1.693-1.994L262.921,281.971z
				M252.096,277.064l0.846-3.755c0.774-0.5,2.248-0.321,2.627,0.379c0.412,0.76,0.358,2.243,0.19,3.094
				c-0.183,0.921-0.831,1.761-1.785,1.974C252.732,279.032,251.975,278.278,252.096,277.064z M248.433,283.641
				c1.396,0.066,1.929-0.041,2.701,1.223c0.737,1.212,0.138,1.656-1.104,2.087c-1.11,0.385-2.332,0.536-3.475,0.818l-0.375-2.815
				C246.07,283.463,247.327,283.586,248.433,283.641z"/>
			<path fill="#934343" d="M192.891,256.732c3.262-0.525,6.053-0.934,9.122-0.781c-5.478-2.011-11.604-3.226-18.467-3.207
				c-1.854,0.006-3.925,1.446-5.696,1.908c-2.092,0.547-4.052,0.821-5.915,1.96c-3.831,2.336-6.462,6.218-8.741,9.928
				c-4.717,7.681-7.264,14.585-1.979,22.903c5.218,8.221,14.218,9.285,23.46,8.358c4.722-0.47,9.242-1.305,13.95-1.73
				c1.914,3.047,4.214,5.43,5.487,9.078c0.796,2.277,1.511,10.192,4.576,7.105c2.103-2.117,1.543-7.371,2.396-10.217
				c0.925-3.084,2.838-6.654,2.627-10.033c2.039-0.771,4.489-1.806,6.972-3.546c-3.319-0.471-6.727-3.112-9.604-4.656
				c-3.357-1.802-6.693-3.065-9.433-5.784c-2.569-2.553-4.976-5.774-6.253-9.232c-0.855-2.323-4.406-8.996-2.618-11.541
				C192.809,257.072,192.848,256.9,192.891,256.732z M171.438,285.705c-1.141,0.213-2.3-0.954-2.916-1.88l-1.501-1.597
				c0.625-0.916,1.999-0.272,2.812-0.086c0.814,0.184,2.639,0.129,3.174,0.952C173.74,284.221,172.467,285.511,171.438,285.705z
				M172.959,277.154l-2.253-2.817c-0.368-1.102,0.037-2.231,1.146-2.514c1.518-0.386,1.146,0.9,1.693,1.836
				c0.496,0.848,1.667,1.1,1.673,2.181C175.223,277.046,173.9,277.091,172.959,277.154z M176.223,271.62
				c-0.199-3.2,1.341-5.411,4.739-4.742c1.327,3.293-0.633,5.136-3.331,6.714L176.223,271.62z M179.603,284.914
				c-2.271-2.321-0.463-4.308,2.253-4.844l2.536,2.817C184.846,285.832,181.388,286.737,179.603,284.914z M188.053,274.718
				l-0.844-3.098C189.183,269.605,189.193,273.517,188.053,274.718z M192.643,285.31c-0.475,0.446-1.232,0.557-1.865,0.489
				l-0.751-2.067c0.149-0.267,0.354-0.545,0.562-0.76C191.767,283.325,192.223,284.071,192.643,285.31z"/>
			<path fill="#934343" d="M351.745,169.149c5.987-8.516,8.133-21.345,10.291-31.757c2.541-12.272-1.554-22.798-6.929-33.617
				c-5.022-10.104-10.461-14.302-21.43-16.094c-11.479-1.873-16.662,3.454-25.54,10.853c-7.015,5.843-15.577,13.137-23.665,17.653
				c-7.709,4.3-18.208,7.097-27.008,6.365c-16.26-1.352-16.77-22.512-29.091-29.442c-4.703-2.646-11.874-2.781-17.53-2.001
				c16.504,0.832,30.544,15.639,36.369,30.076l-3.943,1.126c-4.04-1.271-7.724-2.291-12.029-2.823
				c3.057,0.577,5.545,2.866,7.703,5.021c-3.269,1.706-6.504,3.625-9.54,5.399c-3.771,2.21-7.151,4.996-10.651,7.545
				c-3.453,2.513-6.791,4.55-8.787,8.516c-2.166,4.302-3.239,8.694-4.502,13.247c-0.842,3.049-1.695,10.856-4.974,12.076
				c-1.732-8.632-4.679-17.649-3.641-27.008c1.018-9.179,6.523-14.636,13.087-20.51c-6.991-0.469-14.711,1.124-20.994,3.861
				c-0.142-3.929,3.527-8.807,5.941-11.466c3.155-3.473,8.231-3.805,11.447-6.755c-3.003-0.855-5.516-2.351-8.636-2.94
				c-2.308-0.438-4.753-0.977-7.187-1.33c1.742,2.354,6.461,3.677,10.525,4.451c-6.707,7.041-12.584,13.527-23.025,10.762
				c-5.037-1.333-9.16-3.59-14.275-4.675c-5.334-1.13-9.885-2.883-14.479-5.84c-12.873-8.288-20.241-24.426-34.621-30.52
				c-17.444-7.392-30.696,5.622-37.31,20.524c-5.413,12.198-3.691,21.646-2.236,34.577c1.246,11.105,4.469,19.791,8.999,30.031
				c5.317,12.028,10.997,20.016,21.053,27.062c3.839,2.692,7.469,5.682,11.349,8.313c2.983,2.023,12.402,5.112,13.821,8.188
				c3.093,6.713-5.459,15.917-10.881,18.034c-8.192,3.2-17.347,5.357-24.638,9.956c-1.609,1.014-3.188,2.314-4.694,3.792
				c-0.004,0.003-0.009,0.009-0.015,0.015c-1.134,1.112-2.226,2.324-3.258,3.598c-0.02,0.024-0.039,0.049-0.059,0.073
				c-0.496,0.616-0.98,1.245-1.447,1.884c-0.039,0.054-0.076,0.108-0.115,0.164c-0.909,1.255-1.753,2.539-2.517,3.822
				c-0.058,0.097-0.116,0.191-0.172,0.289c-0.354,0.604-0.688,1.204-1.007,1.8c-0.058,0.112-0.113,0.222-0.172,0.334
				c-0.316,0.61-0.619,1.216-0.892,1.81c-5.188,11.28-8.88,33.613-3.568,26.546c8.145-10.84,33.372-12.147,31.667-11.264
				c-1.706,0.883-9.957,5.021-14.195,9.083c-0.203,0.183-0.416,0.348-0.613,0.539c-1.647,1.582-3.096,3.249-4.389,4.987
				c-0.795,1.023-1.566,2.074-2.298,3.18c-3.178,4.793-4.711,10.626-5.883,16.102c-0.571,2.661-1.897,6.204-1.568,9.142
				c0.36,3.194,1.27,9.438,6.665,9.476c3.424-6.511,13.251-10.518,19.815-11.729c12.959-2.396,22.026,2.979,22.026,2.979
				c0.752,0.574,1.444,1.219,2.061,1.951l0.704,1.831c-9.41,5.741-11.408,12.254-10.054,23.575
				c8.129-1.258,15.267-7.234,23.577-8.926c8.071-1.646,16.81,2.111,24.285,6.198c1.646,0.9,3.185,1.578,4.716,2.198
				c2.205,0.912,4.506,1.77,6.613,2.603c0.674,0.283,1.406,0.58,2.158,0.879c2.093,0.878,6.996,2.729,9.832,3.837
				c-1.348-5.508-2.486-13.602,2.844-13.409c1.247,0.045,2.932,1.124,3.956,0.831c1.531-0.439,1.621-2.476,1.535-3.966
				c-0.172-2.993-1.716-6.402-2.555-9.188c-1.743-5.789-4.619-11.082-7.287-16.454c-0.618-1.239-1.239-2.547-1.865-3.768
				c-0.985-1.912-1.475-2-3.577-2.099c-2.979-0.142-11.71,1.212-18.047-1.009c-5.555-1.945-9.087-5.69-11.038-9.917
				c-0.689,0.34-1.359,0.681-1.99,1.006c-2.678,1.382-5.346,3.211-6.709,5.922c-0.883,1.758-0.924,7.581-3.393,6.994
				c-0.366-7.691,3.949-12.23,10.382-16.014c0.228-0.134,0.49-0.271,0.746-0.407c-1.193-3.872-1.202-7.926-0.287-11.256
				c0.349-1.271,0.754-2.61,1.227-3.976c-2.481-0.373-5.033-0.6-7.426-0.702c-4.98-0.211-9.582,1.091-14.255,2.262
				c-4.292,1.073-7.479,3.248-11.572,4.781c-4.259,1.597-8.311,2.926-12.406,5.254c1.376-4.498,8.6-5.704,12.076-7.571
				c8.352-4.479,15.037-6.979,24.854-6.979c2.76,0,6.193,0.062,9.668,0.455c1.317-3.204,3.115-6.454,5.713-9.341
				c-4.685-2.392-9.774-3.508-15.663-3.508c-9.644,0-18.71-1.897-28.087-2.602c3.623-1.342,8.503-1.383,12.528-1
				c8.923,0.853,20.173,0.261,28.736,3.373c1.398,0.508,2.833,1.193,4.257,1.961c2.285-2.101,5.075-3.938,8.554-5.299
				c8.62-3.376,25.392-4.354,32.743,5.239c0.052,0.009,0.101,0.015,0.152,0.023c4.119,0.816,8.744,1.214,12.952,1.683
				c8.941,0.995,18.417,1.488,26.763-1.628c0.846-0.315,1.58-0.502,2.231-0.598c4.118-6.438,15.774-6.563,23.946-1.001
				c0.546,0.372,2.076,1.419,3.937,3.071c3.954-1.775,8.448-2.638,12.41-3.217c7.84-1.146,20.351-4.021,27.917,0.204
				c1.079,0.603,2.093,1.368,3.056,2.109c-1.327,1.273-10.58-1.906-12.929-2.261c-4.93-0.743-9.562,0.004-14.367,0.782
				c-4.787,0.776-8.716,2.619-13.244,4.227c-0.216,0.079-0.44,0.157-0.672,0.241c2.226,2.315,4.574,5.354,6.193,9.063
				c0.836,1.912,1.236,3.667,1.374,5.362c1.955-0.054,3.888,0.019,5.77,0.282c7.866,1.096,16.691,1.938,22.185,7.61
				c-2.31,0.002-7.787-2.557-14.848-3.956c-2.419-0.482-8.246-0.843-13.11-0.943c-0.248,3.176-1.146,6.329-1.611,10.123
				c-0.237,1.937-0.653,3.143-1.495,4.412c1.18,1.016,2.524,2.017,3.704,2.905c3.096,2.334,6.656,4.693,6.99,8.604
				c0.043,0.252-0.354,0.76-0.392,1.005c0.004-0.256-0.006-0.505-0.028-0.747c-0.469-2.721-5.256-5.771-7.029-7.117
				c-1.249-0.949-2.896-1.951-4.302-3.214c-2.909,3.615-7.364,4.099-8.953,4.298c-4.854,0.613-12.875,3.701-15.562,8.589
				c-1.361,2.478-2.344,5.805-3.28,8.468c-0.904,2.576-2.422,5.326-2.788,8.026c-0.373,2.769-0.265,5.514-0.547,8.198
				c-0.432,2.517,3.809-0.228,4.998,1.54c2.033,3.014,2.952,6.691,2.537,10.671c0.911-0.843,1.877-1.608,2.919-2.25
				c8.745-5.549,20.058-8.523,29.812-11.556c6.399-1.992,14.046-4.812,20.815-4.568c8.173,0.297,16.369,3.291,24.144,3.902
				c1.472-8.604-5.269-22.043-14.283-28.944c17.467-3.381,21.054,7.501,30,15.407c6.765-13.014,3.278-19.511-0.42-29.07
				c-3.585-9.264-14.483-16.749-24.087-20.706c4.513-3.524,12.502-1.814,18.525-0.22c4.484,2.306,8.438,5.389,13.9,8.688
				c0.619-13.933,0.985-27.412-9.469-37.481c-6.122-5.896-13.545-10.512-21.648-13.126c-7.457-2.406-17.521,0.223-19.74-9.016
				c7.967-7.434,17.976-13.005,25.449-20.471C341.262,186.072,345.785,177.624,351.745,169.149z M153.022,140.482
				c-2.897-0.43-6.495-0.686-8.958-2.16c-4.871-2.915-9.347-7.086-13.71-10.706c-4.13-3.421-9.165-5.646-12.399-10.098
				c-3.448-4.746-4.957-10.379-7.748-15.386c-2.471-4.433-3.227,1.727-3.422,3.924c-0.294,3.29,0.234,6.453,1.022,9.588
				c0.743,2.953,1.667,5.819,2.729,8.682c1.124,3.034,4.365,7.282,6.031,9.289c-3.355-0.125-5.954-1.263-7.958-2.007
				c-5.539-2.065-6.466-5.421-8.168-2.807c-2.696,4.14,1.051,8.995,5.862,15.53c2.379,3.23,6.305,5.276,10.146,6.574
				c1.906,0.644,3.966,0.631,5.97,0.799c2.478,0.205,5.062,0.939,7.441,0.928c-2.138,1.04-5.455,0.882-7.822,1.138
				c-2.674,0.287-6.738,0.194-9.483,0.468c-0.45,2.428,5.235,6.033,6.892,7.227c2.873,2.072,5.743,3.16,9.124,3.805
				c2.85,0.541,6.333,1.032,9.235,1.094c1.314,0.028,3.444,0.166,4.703-0.197c0.129-0.038,0.234-0.088,0.345-0.137
				c-2.285,4.881-4.061,9.94-6.083,15.432c-0.778,2.117-1.131,4.184-1.585,6.301l-2.253,4.508c-9.67-7.723-21.594-10.523-31.261-18.3
				c-4.209-3.387-5.952-7.709-8.544-12.416c-2.504-4.546-5.607-9.085-7.428-13.991c-1.915-5.153-2.443-10.609-2.996-16.142
				c-0.584-5.866-1.559-12.565-0.012-18.405c2.663-10.032,4.812-22.588,15.288-26.771c11.888-4.745,21.282,5.82,27.909,13.988
				c7.218,8.9,16.652,17.563,27.324,21.13c5.992,2.004,11.744,4.72,17.598,6.73c-0.422,4.172-5.032,9.072-8.049,12.391
				C159.617,140.956,156.161,140.947,153.022,140.482z M196.414,221.09c-0.575,5.827,0.615,12.845-0.755,18.508l-3.73-2.772
				c-0.872-0.541-1.722-0.952-2.828-1.556c-4.621-2.521-10.417-3.993-17.612-3.674c-4.354,0.192-9.694,2.386-13.032,6.71
				c-0.045-9.161-0.356-17.879-0.356-27.242c0-8.693,1.458-17.866,9.005-23.042c5.504-3.775,12.326-3.243,17.956,0.012
				c5.57,3.221,7.865,8.694,9.464,14.94C196.05,208.951,197.035,214.78,196.414,221.09z M279.692,230.888
				c-0.205,3.094-0.089,7.807-0.846,10.784c-4.703-4.963-11.057-6.609-15.231-7.158c-8.654-1.137-15.405,1.492-17.774,3.079
				c-0.215,0.144-0.204,0.156-0.308,0.244l-2.822,1.812c-3.926-7.76-2.343-20.251-1.121-28.693c1.29-8.945,4.46-18.145,13.764-21.236
				c8.684-2.891,17.072,3.139,20.387,10.958C279.328,209.142,280.337,221.149,279.692,230.888z M306.278,202.352
				c-2.588-5.26-1.604-6.572-3.943-11.959c-1.822-4.195-3.098-8.643-4.701-13.01c9.03-3.116,22.304,0.364,29.304-7.603
				c-4.289-0.62-6.57-5.375-10.706-4.789c2.093-2.078,5.476-3.446,7.889-4.647c2.632-1.313,5.228-3.883,7.183-5.776
				c3.104-3.002,8.321-8.385,7.887-12.958c-4.461,3.102-12.51,2.909-17.323,3.521c3.503-3.231,6.761-4.602,9.767-9.484
				c2.444-3.97,5.497-10.092,5.258-14.838c-0.437-0.33-3.192-0.819-3.663-0.844c-12.844,9.711-19.954,23.055-47.42,31.363
				l0.627,1.673c-1.511-3.063-3.015-6.126-4.478-9.193c-0.996-2.093-2.418-4.429-3.475-6.423l-2.395-4.367
				c12.838-0.144,20.304-10.103,29.898-16.714c4.358-3.003,8.752-7.877,13.711-9.965c5.242-2.207,8.478-4.158,14.189-4.404
				c1.454-0.063,6.102,0.659,7.822,1.736c4.228,4.535,7.415,9.651,8.328,16.107c0.838,5.915,1.525,15.921,0.467,21.691
				c-2.203,12.024-4.975,18.593-13.247,30.151c-4.649,6.494-7.448,9.498-12.854,15.172
				C319.241,192.208,311.408,196.644,306.278,202.352z"/>
		</g>
		<g>
			<path fill="#FDEADC" d="M235.563,330.958c-4.394,1.057-10.895,2.595-15.401,2.628c-12.958,0.096-16.496-2.271-24.853-3.896
				l-5.758-0.799c0,10.182,2.505,24.101,12.845,29.009c10.315,4.899,24.726,4.402,33.731-2.338c4.493-3.364,7.793-6.067,9.378-11.665
				c1.147-4.046,2.401-11.849,0.696-16.064C242.682,327.728,239.109,330.104,235.563,330.958z"/>
			<path fill="#FDEADC" d="M208.516,319.189c-3,0.735-8.85,4.279-7.322,8.387c1.087,2.922,9.408,3.217,12.408,3.648
				c4.771,0.686,8.094,1.602,12.945-0.344c3.793-1.523,7.416-3.943,11.268-5.274l-1.408-2.255c-4.859-3.29-6.848-6.109-13.225-3.662
				C218.102,321.643,214.197,317.795,208.516,319.189z"/>
			<path fill="#FDEADC" d="M240.4,263.396c-1.402,4.205-6.02,8.094-9.002,11.283c-3.582,3.831-8.346,5.437-12.459,8.389l-1.693-0.141
				c3.255,1.431,6.49,3.425,9.856,4.64c0.859,0.311,1.738,0.568,2.627,0.805c0.626,3.251,1.906,6.724,2.545,9.721
				c0.788,3.692,0.096,7.888,1.077,10.005c3.161,0.202,4.92-5.062,6.623-9.441c0.932-2.388,2.218-4.224,2.842-5.44
				c0.369-0.719,0.647-1.318,0.836-1.838c7.514,1.625,12.553,1.356,20.925-0.703c9.089-2.239,9.835-10.372,9.86-19.156
				c0.013-4.681-1.726-8.346-5.016-11.628c-2.651-2.643-5.244-6.173-8.295-8.021c-2.228-1.352-4.768-1.473-6.973-2.604
				c0,0-3.977,0.183-9.605,1.176C247.949,252.359,244.342,261.004,240.4,263.396z M267.112,277.245
				c0.036-0.86,0.037-1.612,0.819-2.093c1.005-0.614,1.179,0.29,1.998,0.495l0.094,2.817c-0.7,0.688-0.921,1.307-2.065,0.942
				C266.907,279.073,267.073,278.239,267.112,277.245z M260.421,259.473c0.639-0.461,2.07-0.969,2.769-0.281
				c1.273,1.256-1.445,4.02-2.649,4.533l-1.034-1.974C259.254,260.563,259.493,260.138,260.421,259.473z M258.037,267.972
				l-1.222-2.16C259.604,262.988,260.384,268.203,258.037,267.972z M257.186,276.235c0.662-0.932,1.951-0.698,2.255,0.375
				c0.278,0.98,0.176,2.368,0.28,3.382c0.101,1.002-0.412,2.011-1.313,2.465c-1.732,0.873-1.693-0.8-1.693-1.994L257.186,276.235z
				M246.359,271.329l0.846-3.755c0.775-0.5,2.248-0.321,2.627,0.379c0.413,0.76,0.359,2.242,0.191,3.094
				c-0.184,0.921-0.831,1.761-1.785,1.974C246.996,273.297,246.238,272.542,246.359,271.329z M242.696,277.904
				c1.397,0.067,1.929-0.041,2.702,1.224c0.737,1.211,0.138,1.655-1.104,2.087c-1.111,0.385-2.332,0.536-3.475,0.818l-0.375-2.816
				C240.335,277.728,241.592,277.851,242.696,277.904z"/>
			<path fill="#FDEADC" d="M187.154,250.996c3.262-0.524,6.054-0.934,9.123-0.78c-5.479-2.011-11.604-3.227-18.467-3.208
				c-1.854,0.006-3.925,1.447-5.697,1.908c-2.091,0.548-4.051,0.822-5.914,1.961c-3.832,2.336-6.463,6.217-8.742,9.927
				c-4.716,7.682-7.263,14.586-1.979,22.903c5.218,8.221,14.217,9.285,23.459,8.359c4.723-0.471,9.242-1.305,13.951-1.73
				c1.914,3.047,4.214,5.429,5.487,9.077c0.796,2.278,1.511,10.192,4.576,7.106c2.103-2.117,1.542-7.371,2.396-10.217
				c0.924-3.084,2.838-6.654,2.627-10.033c2.039-0.771,4.488-1.806,6.972-3.546c-3.319-0.471-6.728-3.112-9.604-4.656
				c-3.356-1.802-6.693-3.066-9.433-5.784c-2.569-2.553-4.976-5.775-6.253-9.233c-0.854-2.322-4.406-8.995-2.617-11.54
				C187.072,251.336,187.111,251.164,187.154,250.996z M165.702,279.97c-1.141,0.213-2.3-0.954-2.917-1.88l-1.5-1.597
				c0.625-0.917,1.999-0.272,2.812-0.086c0.813,0.183,2.638,0.129,3.174,0.952C168.004,278.485,166.73,279.775,165.702,279.97z
				M167.224,271.418l-2.253-2.817c-0.368-1.102,0.037-2.23,1.146-2.513c1.518-0.387,1.146,0.9,1.693,1.835
				c0.496,0.848,1.667,1.101,1.672,2.181C169.486,271.311,168.165,271.354,167.224,271.418z M170.487,265.885
				c-0.2-3.2,1.341-5.411,4.739-4.743c1.327,3.294-0.634,5.137-3.331,6.715L170.487,265.885z M173.867,279.178
				c-2.271-2.32-0.463-4.307,2.253-4.843l2.536,2.817C179.109,280.097,175.652,281.002,173.867,279.178z M182.317,268.981
				l-0.844-3.097C183.447,263.87,183.458,267.781,182.317,268.981z M186.906,279.574c-0.474,0.445-1.232,0.556-1.865,0.488
				l-0.75-2.066c0.149-0.267,0.354-0.545,0.562-0.76C186.031,277.589,186.486,278.336,186.906,279.574z"/>
			<path fill="#FEEADC" d="M346.01,163.414c5.987-8.517,8.133-21.345,10.291-31.758c2.541-12.272-1.554-22.797-6.929-33.616
				c-5.022-10.104-10.461-14.302-21.431-16.095c-11.479-1.872-16.661,3.454-25.539,10.854c-7.015,5.842-15.577,13.137-23.666,17.653
				c-7.709,4.3-18.207,7.097-27.007,6.365c-16.261-1.353-16.771-22.512-29.091-29.442c-4.703-2.646-11.875-2.782-17.53-2.002
				c16.503,0.833,30.544,15.639,36.369,30.077l-3.943,1.126c-4.04-1.271-7.724-2.291-12.029-2.823
				c3.056,0.577,5.545,2.866,7.703,5.021c-3.269,1.707-6.505,3.626-9.54,5.399c-3.772,2.211-7.151,4.997-10.652,7.545
				c-3.452,2.514-6.791,4.551-8.786,8.516c-2.166,4.302-3.239,8.695-4.502,13.247c-0.842,3.049-1.695,10.857-4.974,12.076
				c-1.732-8.631-4.679-17.649-3.641-27.007c1.018-9.179,6.523-14.636,13.086-20.51c-6.99-0.469-14.711,1.124-20.993,3.861
				c-0.142-3.929,3.526-8.808,5.94-11.466c3.156-3.473,8.232-3.806,11.447-6.755c-3.002-0.855-5.516-2.351-8.635-2.941
				c-2.308-0.437-4.754-0.977-7.187-1.329c1.742,2.354,6.46,3.677,10.524,4.451c-6.706,7.041-12.584,13.527-23.024,10.762
				c-5.038-1.333-9.16-3.59-14.276-4.675c-5.334-1.13-9.884-2.883-14.479-5.841c-12.873-8.287-20.241-24.425-34.621-30.519
				c-17.444-7.392-30.697,5.621-37.311,20.524c-5.412,12.197-3.69,21.646-2.236,34.576c1.247,11.105,4.47,19.791,9,30.032
				c5.316,12.027,10.996,20.015,21.053,27.062c3.839,2.692,7.469,5.682,11.348,8.313c2.984,2.023,12.403,5.111,13.822,8.188
				c3.092,6.712-5.459,15.917-10.881,18.034c-8.193,3.2-17.348,5.356-24.639,9.955c-1.609,1.014-3.187,2.315-4.693,3.792
				c-0.004,0.004-0.01,0.01-0.016,0.016c-1.133,1.112-2.225,2.324-3.258,3.598c-0.019,0.024-0.039,0.048-0.058,0.072
				c-0.497,0.616-0.98,1.245-1.447,1.884c-0.039,0.055-0.076,0.108-0.115,0.165c-0.909,1.254-1.753,2.539-2.517,3.821
				c-0.059,0.098-0.116,0.192-0.172,0.29c-0.355,0.603-0.689,1.204-1.007,1.8c-0.058,0.111-0.114,0.222-0.172,0.334
				c-0.317,0.61-0.62,1.216-0.893,1.809c-5.188,11.281-8.88,33.613-3.567,26.547c8.144-10.841,33.372-12.147,31.667-11.265
				c-1.706,0.884-9.957,5.021-14.195,9.084c-0.203,0.183-0.416,0.347-0.614,0.539c-1.646,1.582-3.096,3.249-4.388,4.987
				c-0.795,1.023-1.566,2.074-2.298,3.18c-3.178,4.793-4.711,10.625-5.884,16.102c-0.571,2.66-1.896,6.204-1.568,9.141
				c0.36,3.195,1.271,9.438,6.666,9.476c3.424-6.51,13.251-10.517,19.815-11.729c12.959-2.396,22.025,2.978,22.025,2.978
				c0.753,0.575,1.445,1.22,2.062,1.951l0.704,1.832c-9.41,5.741-11.408,12.254-10.055,23.575c8.129-1.258,15.268-7.234,23.578-8.927
				c8.07-1.645,16.809,2.112,24.284,6.199c1.647,0.899,3.186,1.577,4.717,2.197c2.205,0.913,4.505,1.771,6.613,2.603
				c0.674,0.284,1.405,0.581,2.158,0.88c2.093,0.877,6.996,2.729,9.832,3.837c-1.349-5.508-2.487-13.602,2.844-13.409
				c1.247,0.045,2.931,1.124,3.956,0.83c1.531-0.438,1.621-2.476,1.535-3.965c-0.172-2.993-1.717-6.402-2.555-9.188
				c-1.744-5.79-4.619-11.083-7.287-16.454c-0.618-1.24-1.24-2.547-1.865-3.768c-0.986-1.912-1.475-2-3.577-2.099
				c-2.979-0.143-11.71,1.211-18.048-1.009c-5.555-1.945-9.087-5.69-11.037-9.918c-0.689,0.34-1.359,0.682-1.991,1.007
				c-2.677,1.382-5.345,3.211-6.708,5.922c-0.883,1.757-0.924,7.58-3.393,6.994c-0.366-7.692,3.949-12.231,10.381-16.014
				c0.228-0.135,0.491-0.271,0.747-0.407c-1.193-3.872-1.202-7.926-0.288-11.257c0.35-1.271,0.755-2.61,1.227-3.975
				c-2.48-0.373-5.033-0.6-7.425-0.702c-4.981-0.211-9.582,1.091-14.255,2.261c-4.293,1.074-7.479,3.249-11.572,4.782
				c-4.259,1.596-8.311,2.926-12.407,5.254c1.376-4.498,8.601-5.704,12.077-7.571c8.351-4.479,15.037-6.979,24.854-6.979
				c2.76,0,6.193,0.063,9.668,0.456c1.318-3.204,3.116-6.454,5.713-9.341c-4.684-2.392-9.773-3.509-15.662-3.509
				c-9.644,0-18.71-1.896-28.087-2.601c3.622-1.343,8.503-1.384,12.528-1.001c8.923,0.854,20.172,0.262,28.736,3.374
				c1.398,0.508,2.832,1.193,4.257,1.961c2.285-2.101,5.075-3.938,8.553-5.299c8.62-3.376,25.393-4.354,32.743,5.238
				c0.053,0.01,0.101,0.016,0.153,0.024c4.118,0.816,8.743,1.214,12.952,1.683c8.941,0.995,18.416,1.488,26.762-1.628
				c0.847-0.315,1.58-0.503,2.231-0.598c4.119-6.438,15.775-6.563,23.947-1.001c0.546,0.372,2.076,1.419,3.937,3.071
				c3.954-1.775,8.448-2.638,12.41-3.217c7.84-1.146,20.351-4.021,27.916,0.203c1.079,0.604,2.094,1.369,3.057,2.11
				c-1.327,1.273-10.581-1.906-12.93-2.262c-4.929-0.742-9.561,0.004-14.367,0.783c-4.787,0.776-8.715,2.619-13.243,4.227
				c-0.216,0.078-0.44,0.157-0.672,0.241c2.226,2.314,4.574,5.354,6.193,9.063c0.836,1.912,1.235,3.667,1.374,5.362
				c1.955-0.055,3.887,0.019,5.77,0.282c7.865,1.096,16.691,1.938,22.184,7.61c-2.309,0.001-7.787-2.557-14.847-3.957
				c-2.419-0.481-8.247-0.842-13.11-0.942c-0.248,3.176-1.146,6.329-1.611,10.123c-0.237,1.937-0.653,3.143-1.495,4.412
				c1.18,1.016,2.524,2.017,3.704,2.905c3.096,2.334,6.656,4.693,6.99,8.604c0.043,0.252-0.354,0.76-0.393,1.004
				c0.004-0.256-0.005-0.504-0.027-0.747c-0.469-2.72-5.256-5.771-7.029-7.117c-1.25-0.948-2.896-1.951-4.303-3.213
				c-2.908,3.614-7.363,4.099-8.952,4.298c-4.854,0.612-12.875,3.701-15.562,8.589c-1.361,2.478-2.344,5.805-3.281,8.467
				c-0.903,2.577-2.422,5.327-2.787,8.026c-0.373,2.77-0.266,5.514-0.547,8.199c-0.432,2.517,3.809-0.229,4.998,1.54
				c2.033,3.014,2.951,6.691,2.537,10.67c0.911-0.842,1.877-1.607,2.918-2.25c8.746-5.549,20.059-8.522,29.812-11.555
				c6.4-1.992,14.046-4.812,20.816-4.569c8.172,0.297,16.368,3.292,24.144,3.902c1.471-8.604-5.27-22.043-14.283-28.943
				c17.466-3.381,21.053,7.5,30,15.407c6.764-13.014,3.278-19.511-0.42-29.07c-3.585-9.265-14.483-16.75-24.088-20.706
				c4.514-3.525,12.502-1.814,18.525-0.22c4.484,2.306,8.439,5.388,13.9,8.688c0.62-13.933,0.986-27.413-9.468-37.482
				c-6.122-5.896-13.546-10.511-21.648-13.125c-7.458-2.407-17.521,0.222-19.741-9.017c7.967-7.433,17.977-13.004,25.45-20.471
				C335.525,180.337,340.05,171.889,346.01,163.414z M147.287,134.746c-2.897-0.429-6.496-0.685-8.958-2.16
				c-4.871-2.914-9.347-7.085-13.71-10.705c-4.13-3.421-9.166-5.646-12.399-10.098c-3.448-4.746-4.957-10.379-7.748-15.387
				c-2.471-4.433-3.227,1.728-3.423,3.925c-0.293,3.29,0.235,6.453,1.023,9.588c0.743,2.953,1.667,5.819,2.729,8.682
				c1.124,3.034,4.365,7.281,6.03,9.288c-3.354-0.125-5.953-1.262-7.957-2.007c-5.539-2.064-6.466-5.42-8.168-2.806
				c-2.696,4.139,1.051,8.995,5.862,15.53c2.378,3.229,6.305,5.276,10.146,6.573c1.906,0.645,3.966,0.632,5.969,0.8
				c2.478,0.205,5.063,0.938,7.442,0.928c-2.138,1.04-5.456,0.881-7.823,1.137c-2.674,0.288-6.738,0.194-9.482,0.469
				c-0.45,2.428,5.235,6.032,6.891,7.226c2.874,2.072,5.744,3.161,9.125,3.806c2.85,0.541,6.333,1.032,9.234,1.094
				c1.314,0.028,3.445,0.166,4.703-0.198c0.129-0.037,0.235-0.088,0.346-0.136c-2.285,4.88-4.061,9.94-6.083,15.431
				c-0.778,2.118-1.132,4.185-1.585,6.302l-2.254,4.507c-9.67-7.722-21.593-10.522-31.26-18.299
				c-4.209-3.387-5.953-7.709-8.545-12.416c-2.503-4.546-5.606-9.085-7.427-13.992c-1.915-5.152-2.444-10.608-2.997-16.141
				c-0.584-5.866-1.559-12.565-0.011-18.405c2.663-10.032,4.812-22.588,15.288-26.771c11.887-4.745,21.282,5.819,27.908,13.988
				c7.219,8.9,16.652,17.563,27.325,21.13c5.991,2.003,11.744,4.72,17.597,6.73c-0.422,4.171-5.031,9.072-8.049,12.39
				C153.882,135.221,150.426,135.211,147.287,134.746z M190.678,215.354c-0.574,5.827,0.616,12.846-0.754,18.509l-3.73-2.772
				c-0.872-0.542-1.722-0.952-2.828-1.556c-4.621-2.521-10.417-3.993-17.613-3.675c-4.354,0.192-9.693,2.387-13.031,6.711
				c-0.045-9.162-0.357-17.879-0.357-27.242c0-8.693,1.459-17.866,9.006-23.042c5.504-3.775,12.326-3.243,17.955,0.011
				c5.571,3.221,7.866,8.695,9.465,14.94C190.314,203.216,191.3,209.045,190.678,215.354z M273.957,225.152
				c-0.205,3.094-0.09,7.807-0.846,10.784c-4.703-4.963-11.057-6.609-15.231-7.158c-8.654-1.138-15.405,1.491-17.774,3.079
				c-0.215,0.144-0.204,0.156-0.309,0.244l-2.821,1.811c-3.927-7.759-2.343-20.25-1.122-28.692
				c1.291-8.945,4.461-18.145,13.765-21.236c8.684-2.891,17.072,3.139,20.386,10.958
				C273.593,203.406,274.602,215.414,273.957,225.152z M300.543,196.616c-2.588-5.26-1.604-6.572-3.943-11.959
				c-1.822-4.195-3.098-8.643-4.702-13.01c9.031-3.116,22.305,0.364,29.304-7.603c-4.288-0.62-6.57-5.376-10.705-4.789
				c2.093-2.078,5.476-3.447,7.889-4.647c2.632-1.313,5.228-3.884,7.182-5.776c3.105-3.003,8.322-8.386,7.887-12.958
				c-4.46,3.102-12.51,2.909-17.322,3.521c3.502-3.231,6.761-4.603,9.767-9.484c2.444-3.97,5.497-10.092,5.258-14.838
				c-0.438-0.331-3.193-0.819-3.663-0.844c-12.844,9.71-19.954,23.055-47.42,31.363l0.627,1.673
				c-1.511-3.064-3.016-6.126-4.478-9.193c-0.997-2.094-2.418-4.43-3.475-6.423l-2.396-4.367
				c12.838-0.144,20.305-10.103,29.899-16.714c4.358-3.003,8.751-7.878,13.71-9.965c5.243-2.207,8.479-4.158,14.189-4.404
				c1.455-0.063,6.102,0.658,7.823,1.736c4.228,4.535,7.414,9.65,8.327,16.107c0.839,5.914,1.525,15.92,0.467,21.691
				c-2.203,12.023-4.974,18.592-13.246,30.151c-4.649,6.493-7.448,9.498-12.855,15.172
				C313.506,186.472,305.673,190.908,300.543,196.616z"/>
		</g>
	</g>
</svg>