<?xml version="1.0" encoding="utf-8"?>
<!-- Generator: Adobe Illustrator 16.0.0, SVG Export Plug-In . SVG Version: 6.00 Build 0)  -->
<!DOCTYPE svg PUBLIC "-//W3C//DTD SVG 1.1 Tiny//EN" "http://www.w3.org/Graphics/SVG/1.1/DTD/svg11-tiny.dtd">
<svg version="1.1" baseProfile="tiny" xmlns="http://www.w3.org/2000/svg" xmlns:xlink="http://www.w3.org/1999/xlink" x="0px"
	 y="0px" width="256px" height="256px" viewBox="0 0 256 256" xml:space="preserve">
	<g id="NoSmoking">
		<circle fill="#EFBBAF" cx="128" cy="128" r="128"/>
		<circle fill="none" stroke="#C87957" stroke-width="17" stroke-miterlimit="10" cx="132" cy="132" r="81.115"/>
		<circle fill="none" stroke="#A44C24" stroke-width="17" stroke-miterlimit="10" cx="128" cy="128" r="81.115"/>
		<path fill="#C97A58" d="M216.898,114.889c7.604,0,13.768,6.164,13.768,13.768v6.688c0,7.603-6.163,13.767-13.768,13.767H47.102
			c-7.604,0-13.768-6.164-13.768-13.767v-6.688c0-7.604,6.164-13.768,13.768-13.768H216.898z"/>
		<g>
			<rect x="130.016" y="110.889" fill="#FFF5E2" width="74.952" height="34.223"/>
			<g>
				<path fill="#EA8C1B" d="M130.016,110.889H43.102c-7.604,0-13.768,6.164-13.768,13.768v6.688c0,7.603,6.164,13.767,13.768,13.767
					h86.914V110.889z"/>
				<path fill="#EA8C1B" d="M212.898,110.889h-7.931v34.223h7.931c7.604,0,13.768-6.164,13.768-13.767v-6.688
					C226.666,117.052,220.503,110.889,212.898,110.889z"/>
			</g>
		</g>
		<line fill="none" stroke="#A44C24" stroke-width="17" stroke-miterlimit="10" x1="74.754" y1="66.809" x2="181.203" y2="189.229"/>
		<path fill="#C87957" d="M211.708,106.96c-26.559-32.723-82.121,23.927-87.351-52.865c0,0,2.48-6.333,7.149-1.207
			c26.921,46.84,55.629-0.6,85.05,53.253C215.167,109.927,211.708,106.96,211.708,106.96z"/>
		<path fill="#FFF5E2" d="M207.708,102.96c-26.559-32.723-82.121,23.927-87.351-52.865c0,0,2.48-6.333,7.149-1.207
			c26.921,46.84,55.629-0.6,85.05,53.253C211.167,105.927,207.708,102.96,207.708,102.96z"/>
	</g>
</svg>