<?xml version="1.0" encoding="utf-8"?>
<!-- Generator: Adobe Illustrator 16.0.0, SVG Export Plug-In . SVG Version: 6.00 Build 0)  -->
<!DOCTYPE svg PUBLIC "-//W3C//DTD SVG 1.1 Tiny//EN" "http://www.w3.org/Graphics/SVG/1.1/DTD/svg11-tiny.dtd">
<svg version="1.1" baseProfile="tiny" xmlns="http://www.w3.org/2000/svg" xmlns:xlink="http://www.w3.org/1999/xlink" x="0px"
	 y="0px" width="256px" height="256px" viewBox="0 0 256 256" xml:space="preserve">
	<g id="Time">
		<circle fill="#CFE6D4" cx="128" cy="128" r="128"/>
		<g>
			<polyline fill="none" stroke="#8FAA8F" stroke-width="14" stroke-linecap="round" stroke-miterlimit="10" points="149.736,158.51 
				132,132 132,79.667 		"/>
			<g>
				<path fill="none" stroke="#8FAA8F" stroke-width="17" stroke-linecap="round" stroke-miterlimit="10" d="M82.471,197.081
					c13.746,10.479,30.911,16.7,49.529,16.7c45.166,0,81.781-36.615,81.781-81.781c0-45.167-36.615-81.781-81.781-81.781"/>
				<g>
					<polygon fill="#8FAA8F" points="78.543,222.726 88.173,201.558 110.095,193.794 60.027,170.863 				"/>
				</g>
			</g>
			
				<path fill="none" stroke="#8FAA8F" stroke-width="17" stroke-linecap="round" stroke-miterlimit="10" stroke-dasharray="20,24" d="
				M131.111,50.241C86.356,50.72,50.219,87.132,50.219,132c0,13.75,3.409,26.698,9.405,38.072"/>
		</g>
		<polyline fill="none" stroke="#4F774F" stroke-width="14" stroke-linecap="round" stroke-miterlimit="10" points="145.736,154.51 
			128,128 128,75.667 	"/>
		<g>
			<path fill="none" stroke="#4F774F" stroke-width="17" stroke-linecap="round" stroke-miterlimit="10" d="M78.471,193.081
				c13.746,10.479,30.911,16.7,49.529,16.7c45.166,0,81.781-36.615,81.781-81.781c0-45.167-36.615-81.781-81.781-81.781"/>
			<g>
				<polygon fill="#4F774F" points="74.543,218.726 84.173,197.558 106.095,189.794 56.027,166.863 			"/>
			</g>
		</g>
		<path fill="none" stroke="#4F774F" stroke-width="17" stroke-linecap="round" stroke-miterlimit="10" stroke-dasharray="20,24" d="
			M127.111,46.241C82.356,46.72,46.219,83.132,46.219,128c0,13.75,3.409,26.698,9.405,38.072"/>
	</g>
</svg>