<?xml version="1.0" encoding="utf-8"?>
<!-- Generator: Adobe Illustrator 16.0.0, SVG Export Plug-In . SVG Version: 6.00 Build 0)  -->
<!DOCTYPE svg PUBLIC "-//W3C//DTD SVG 1.1 Tiny//EN" "http://www.w3.org/Graphics/SVG/1.1/DTD/svg11-tiny.dtd">
<svg version="1.1" baseProfile="tiny" xmlns="http://www.w3.org/2000/svg" xmlns:xlink="http://www.w3.org/1999/xlink" x="0px"
	 y="0px" width="380.522px" height="471.204px" viewBox="0 0 380.522 471.204" xml:space="preserve">
	<g id="Kiste__x28_hinten_x29_">
		<path fill="#3F2C16" d="M70.43,468.167c4.225,1.882,18.833-0.771,28.666,0.565c9.3,1.265,19.352,1.56,28.903,1.076
			c17.557-0.889,31.673,1.117,48.866,1.258c11.199,0.092,20.527,0.051,29.693,0c8.752-0.048,18.135-0.495,27.258,0
			c9.062,0.491,5.875-0.549,14.589-0.221c4.717,0.178,8.374,0.463,13.172-2.525c3.524-2.194,5.226-5.068,8.366-7.816
			c12.063-10.554,21.137-17.063,33.313-29.482c6.457-6.587,13.844-9.577,18.051-16.372c4.493-7.258,10.563-10.959-8.451-10.959
			c-18.822,0-39.679,1.633-58.428,0.605c-17.626-0.966-36.963-1.026-55.127-0.106c-18.418,0.933-36.085-2.201-53.873-2.18
			c-10.214,0.013-7.697-2.313-19.013,7.8c-5.591,4.995-12.304,10.996-17.694,16.404c-7.146,7.171-18.813,15.553-25.615,22.858
			C78.406,454.121,66.204,466.286,70.43,468.167z"/>
		<path fill="#4B2E14" d="M75.736,381.615c1.557-3.401,7.566-8.196,10.971-10.256c4.172-2.524,9-8.12,12.74-11.288
			c6.675-5.654,10.957-8.674,17.754-14.522c6.521-5.612,12.631-11.686,18.83-17.553c3.025-2.864,6.449-5.551,9.666-8.337
			c1.547-1.34,3.776-5.323,9.018-9.313c0.518,6.05,0.404,12.197,1.066,18.26c0.627,5.747-0.41,16.013,1.283,21.501
			c-13.35,14.132-29.273,20.993-42.867,33.623c-6.257,5.813-12.596,11.864-18.758,17.755c-2.953,2.822-6.647,5.389-9.574,8.412
			c-2.352,2.429-5.484,6.973-9.035,8.235c-0.337-5.518-2.06-10.572-1.723-16.049c0.344-5.612,1.063-11.585,1.008-17.271
			L75.736,381.615z"/>
		<path fill="#4B2E14" d="M80.398,452.032c0-5.392-2.029-14.265,0.584-19.095c1.539-2.844,5.62-6.154,7.982-8.681
			c2.879-3.079,5.424-6.243,8.359-9.322c6.127-6.425,13.932-11.929,20.73-17.779c6.542-5.629,9.49-9.675,16.676-14.678
			c3.454-2.403,9.005-8.059,12.594-10.393c2.9-1.887,6.023-3.837,9.74-3.959c0.375,6.034,1.283,10.01,1.666,16.142
			c0.236,3.792,1.375,10.289-0.334,13.709c-1.585,3.172-8.115,5.348-11.424,7.463c-4.024,2.573-7.152,6.017-10.9,8.876
			c-3.961,3.022-7.064,6.692-11.008,9.748c-7.82,6.058-11.816,11.202-20.334,16.942c-3.908,2.634-9.613,10.221-13.332,13.177
			c-3.89,3.093-8.653,5.7-11.751,9.145L80.398,452.032z"/>
		<path fill="#4B2E14" d="M144.453,368.296c4.201-1.486,6.809-1.517,11.285-1.517c4.688,0,9.449-1.231,14.09-0.807
			c9.46,0.869,23.48,0.807,33.119,0.807c18.182,0,34.267,1.65,52.396,0.808c17.465-0.813,34.834,0.146,52.027,1.941
			c3.324,0.347,7.271-0.786,10.256-0.053c3.408,0.838,2.059,6.812,2.059,10.213c0,7.509,1.133,14.972,0.725,22.275
			c-3.702,1.316-15.247,0.609-19.009,0.067c-4.198-0.605-28.151,1.216-37.424,1.323c-18.943,0.221-32.817-1.609-51.794-1.613
			c-9.465-0.001-18.446,1.345-27.914,1.345c-8.985,0-17.941-0.693-26.735-1.615c-3.219-0.338-6.485-0.37-9.749-0.536
			c-3.543-0.181-4.533-3.146-4.875-6.724c-0.652-6.82-0.514-13.773-0.514-20.707L144.453,368.296z"/>
		<path fill="#4B2E14" d="M144.705,313.801c-0.686,1.512,0.236,3.883,0.258,5.647c0.023,1.967-0.068,3.744-0.251,5.647
			c-0.374,3.887-0.174,8.007,0.007,11.819c0.134,2.815-0.461,9.302,1.971,11.118c2.086,1.56,9.668,0.18,12.133-0.078
			c4.047-0.425,8.513-0.207,12.561,0c5.049,0.258,10-0.695,14.943-1.285c4.172-0.498,8.602,0.523,12.771,0.747
			c4.296,0.229,8.504,0.27,12.829,0.27c9.277,0,18.04-1.214,27.259-1.674c8.765-0.438,17.477,1.836,26.364,1.942
			c8.837,0.105,16.694,0.088,25.657,0.538c8.73,0.438,19.069,3.839,27.709,2.42c4.707-0.773,4.659-8.658,3.848-12.908
			c-0.853-4.475-1.367-8.229-1.539-12.909c-0.15-4.101,0.799-9.503-3.849-9.95c-2.175-0.21-10.14-0.335-12.059-0.552
			c-8.756-0.993-17.775,0.373-26.626-0.518c-8.097-0.815-16.812-0.275-25.2-0.275c-8.95,0-17.547-1.548-26.427-1.09
			c-9.083,0.469-17.277-1.149-26.163-1.614c-4.856-0.253-9.357,0.055-14.119,0.538c-4.418,0.449-22.147,0.126-26.412-0.538
			c-4.181-0.649-9.151-0.392-13.355-1.599L144.705,313.801z"/>
		<path fill="#4B2E14" d="M75.381,328.592c-0.216,5.274,0.938,10.662,1.26,15.867c0.318,5.141-2.232,10.739-0.186,15.578
			c7.121-7.285,15.725-13.361,23.917-20.412c6.729-5.791,14.003-10.877,21.001-16.406c7.512-5.934,13.933-12.416,22.1-17.964
			c3.924-2.665,8.404-4.182,12.16-7.118c3.998-3.129,3.997-6.608,3.748-10.96c-0.498-8.735-1.582-17.485-1.309-26.522
			c-7.193,1.745-14.904,9.246-20.708,13.016c-6.58,4.274-12.526,9.089-18.909,13.582c-7.672,5.4-14.156,12.13-23.057,16.665
			c-4.469,2.277-8.15,4.688-12.107,7.396c-3.371,2.308-5.735,6.419-9.576,8.135L75.381,328.592z"/>
		<path fill="#4B2E14" d="M144.963,264.252c0,3.969,0.138,3.901-0.714,7.595c-0.872,3.782-1.137,7.785-0.319,11.565
			c0.861,3.986,2.26,6.214,5.202,8.801c2.901,2.551,6.79,1.96,10.712,1.956c17.286-0.022,35.229-0.471,52.34,1.345
			c17.115,1.815,35.105,3.371,52.396,1.613c8.885-0.902,17.859-0.807,26.883-0.807c4.29,0,8.618-0.155,12.834,0.263
			c4.262,0.422,7.912,1.822,12.311,0.752c5.064-1.233,3.764-5.417,3.078-9.89c-0.307-2.01-1.08-3.782-1.283-5.917
			c-0.214-2.243,0.26-4.454,0.257-6.723c-0.005-4.178,0.729-9.526-3.393-10.967c-3.544-1.238-8.223-1.215-11.995-1.41
			c-17.305-0.896-34.147-1.07-51.576-1.07c-8.886,0-17.603,0-26.427,0c-8.931,0-18.004,0.152-26.883-0.274
			c-4.67-0.225-8.889-0.696-13.398-1.354c-4.235-0.615-8.888,0.01-13.085-0.778c-4.402-0.826-11.289,0.128-15.65-0.551
			c-3.621-0.563-6.203,0.074-9.494,2.441L144.963,264.252z"/>
		<path fill="#3F2C14" d="M154.776,253.561c-4.046,1.807-7.142,4.924-9.909,7.852c-2.078,2.2-2.2,2.81-1.758,5.325
			c0.361,2.051,0.334,4.266,0.334,6.454c0,8.955-0.627,17.959-0.074,26.894c0.289,4.666-1.33,8.657-1.601,13.178
			c-0.273,4.561,0.285,9.154,0.008,13.716c-0.549,9.018,0.667,17.862,0.667,26.893c0,8.866,0.333,17.766,0.333,26.624
			c0,4.591-0.333,8.876-0.333,13.447c0,3.174-1.543,10.63,0.686,13.162c0.092,0.105-0.019,0.614,0.031,0.78
			c7.366-0.082,20.23-3.647,22.199-8.833c3.309-8.711,1.989-22.951,2-32.07c0.012-9.496-1.096-19.009,0.074-28.506
			c1.08-8.764,0.594-17.955,0.594-26.894c0-9.232,0-18.467,0-27.7c0-4.506,1.057-9.993,1.594-14.32
			c0.271-2.197-0.17-5.605-0.012-7.866c0.197-2.797-2.342-3.057-4.5-5.244c-2.507-2.54-3.69-3.269-8.166-2.891H154.776z"/>
		<path fill="#3F2C14" d="M72.777,467.899c4.656,0.027,9.514-1.034,13.938,0.422c1.689-1.354-0.41-4.823-0.271-6.876
			c0.297-4.418,1.015-7.475,1.166-11.767c0.174-4.915-0.021-9.564,1-13.716c2.051-8.323-1.592-16.674-1-25.817
			c0.563-8.674-0.416-17.128,0.168-26.422c0.532-8.494,1.166-17.821,1.666-26.354c0.543-9.286,2.212-18.028,2.926-27.432
			c0.165-2.176,0.416-4.282,1.002-6.244c0.758-2.544,0.646-3.052-0.835-5.648c-2.087-3.656-4.24-9.422-8.074-12.081
			c-2.341,1.869-5.065,3.55-8.077,4.807c-6.165,2.569-11.383,2.061-12.275,8.611c-0.586,4.301,2.74,11.105,3.25,15.329
			c1.06,8.771-1.203,16.146,1.01,24.54c2.324,8.817-0.26,15.003-0.26,24.271c0,8.849,0.82,18.845,0.25,27.835
			c-0.577,9.112,1.627,20.548,1.066,29.649c-0.535,8.692-1.637,18.825,2.684,26.624L72.777,467.899z"/>
		<path fill="#3F2C14" d="M325.809,407.658c-1.018-4.137,0.74-8.286,0.489-12.371c-0.292-4.756,0.272-10.233,0.826-14.865
			c1.039-8.679,1.265-17.974,0.759-26.609c-0.556-9.468,0.484-18.961,1.575-28.172c1.118-9.433-0.649-18.572-0.649-27.976
			c0-9.5-2.346-18.343-2.333-27.699c0.006-4.642-2.981-7.682-8.659-8.875c-4.605-0.967-11.158-2.463-15.99-1.605
			c-6.018,1.067-0.018,4.295,10.004,15.104c1.505,8.635,0.983,12.469,1.645,21.194c0.633,8.348-0.333,13.484-0.333,22.59
			c0,9.023-0.333,20.446-0.333,29.583c0,9.262,1.463,20.386,0.325,29.588c-0.952,7.705-2.781,16.543-1.325,24.467
			c0.622,3.383,3.937,6.925,5.926,9.748c1.204,1.708,1.559,3.259,3.982,2.294c1.531-0.608,2.708-3.296,3.425-4.512L325.809,407.658z"
			/>
	</g>
	<g id="Schwanz">
		<path fill="#EA8735" d="M163.809,282.941c-9.554,3.387-13.127-16.986-14.316-22.684c-2.115-10.144-4.131-18.951-9.609-28.065
			c-4.957-8.246-8.74-16.193-15.406-23.251c-6.881-7.284-14.104-13.402-23.666-17.767c-9.512-4.341-20.807-10.222-31.02-11.216
			c-11.421-1.111-24.156-1.153-34.656,2.909c-19.5,7.542-38.203,26.378-32.992,49.074c2.369,10.323,13.34,17.176,23.333,17.667
			c6.165,0.303,11.025,0.784,16.407-2.251c4.381-2.47,8.16-6.04,11-10.334c2.861-4.327,5.146-9.025,7.528-13.423
			c1.046-1.932,2.327-4.741,4.397-5.917c2.736-1.553,6.002-1.205,8.658-1.025c8.154,0.554,20.654,4.866,28.676,13.616
			c6.402,6.985,12.75,13.339,14,22.167c0.874,6.179,2.028,12.313,1.5,18c-0.667,7.166-0.584,14.25,0,19
			c1.477,12.025,5.833,16.5,13.508,24.093c7.432,7.354,12.765,16.138,24.009,11.406c4.427-1.862,8.223-6.015,11.893-9.083
			c4.219-3.526,7.881-7.527,9.998-12.602c2.329-5.58,5.443-28.155-6.907-23.647L163.809,282.941z"/>
		<path fill="#271C14" d="M112.219,242.108c-2.87-7.289-12.789-8.293-15.463-14.927c1.713-0.338,3.288-0.711,4.9-1.159
			c-0.957-1.645-2.82-2.73-2.861-4.839c2.313,0.154,4.594-0.386,6.848-0.625c0.128-2.683-0.827-4.863-0.86-7.373
			c2.241,0.219,4.069,1.051,6.36,0.847c0.143-2.63-0.227-5.338,0.651-7.849c2.689,0.082,6.187-0.081,8.925,0.424
			c3.508,0.647,3.413,1.927,5.976,3.998c3.57,2.886,11.231,4.917,11.6,10.428c1.285,0.305,1.983,1.097,2.872,1.474
			c-2.336,0.165-2.322,4.079-4.246,4.607c-2.051,0.562-4.279-2.969-3.752-4.174c0.662-1.513-1.514,3.722-1.525,3.764
			c-1.145,4.283-6.638,5.663-10.849,5.478c0.303,0.913-0.091,1.868,0.374,2.812c-1.681,0.643-3.582,0.793-5.374,0.688
			c-0.153,0.487-0.372,2.048-0.352,2.423c0.114,0.52,0.743,2.219,0.942,2.502L112.219,242.108z"/>
		<path fill="#271C14" d="M71.475,216.941c1-1.495,2.428-2.984,3.15-4.625c-1.758-0.733-2.977-2.144-4.437-3.4
			c1.14-1.221,3.019-1.89,4.129-3.096c1.229-1.336,0.601-1.666-0.634-2.713c-1.778-1.508-3.727-4.008-4.528-6.141
			c2.448-0.127,4.124-0.093,6.298-1.222c-0.352-2.195-3.514-5.629-5.469-6.674c1.527-1.452,5.347-2.224,3.027-4.675
			c-0.793-0.838-1.853-1.246-2.75-1.908c-0.986-0.729-1.546-1.718-2.444-2.512c5.524-0.347,11.276,1.433,16.491,2.788
			c1.424,0.369,2.857,1.276,4.334,1.715c1.315,0.391,2.719,0.669,4.004,1.135c2.283,0.827,4.48,1.573,6.361,3.287
			c1.469,1.339,3.771,3.701,0.301,3.708c-2.65,0.006-5.336-0.331-7.979,0.021c0.314,2.316,3.429,4.4,4.127,6.625
			c-4.303-1.64-2.045,4.618-1.162,6.32c-1.371,0.097-5.439-0.585-5.994,1.03c-0.164,0.481,0.557,2.245,0.637,2.837
			c0.127,0.93,0.121,1.801,0.513,2.624c-1.653,1.302-3.757,0.686-5.466,1.751c-1.41,0.879-1.135,1.042-0.5,2.624
			c0.37,0.925,0.814,1.697,1.266,2.68c-1.545-0.216-2.886-0.266-4.441-0.678c-1.494-0.396-2.875-1.427-4.586-1.256L71.475,216.941z"
			/>
		<path fill="#271C14" d="M132.55,298.069c2.013,0.202,3.995,1.361,5.837,1.858c0.131-2.254,0.045-4.617,0.174-6.871
			c2.188,0.418,4.532,1.315,6.85,0.334c-2.095-4.753,1.932-4.403,5.773-4.241c-0.145-1.871,0.806-4,0.806-4s1.433,1.521,3.245,2.208
			c-1.25-4.5,0.074-6.083,2.988-5.31c-0.9-0.788,2.966,4.502,4.586,5.727c0.344,6.216,0.918,11.65-4.008,16.835
			c-3.4,3.58-6.758,13.103-11.242,15.165c-8.029,3.692-18-3.625-21.361-16.379c1.607,0.797,3.35,1.437,5.08,1.862
			C131.635,304.719,133.613,298.176,132.55,298.069z"/>
		<path fill="#271C14" d="M116.809,280.274c2.145,0.4,4.56,1.19,5.086,3.438c1.413-0.365,1.973-1.887,3.038-2.34
			c1.327-0.564,2.141-1.229,3.374-1.707c1.476-0.572,2.279,0.464,3.877-0.381c0.885-0.469,1.727-3.231,2.627-4.06
			c1.297,1.017,2.387,1.824,3.885,2.873c1.375-2.121,3.137-4.352,4.101-6.637c1.602,1.141,5.608,1.1,7.462,1.936
			c5.347-5.877-3.381-18.58-3.533-24.942c-0.76,0.546-3.431,1.689-4.292,2.743c-0.919-1.377-2.3-2.417-3.511-3.359
			c-0.711,2.438-2.092,4.279-3.711,6.361c-1.477-0.938-2.776-2.284-4.266-3.373c-1.213,1.918-2.252,3.692-3.762,5.373
			c-1.725-0.923-3.428-2.083-5.291-2.35c-0.936,4.448-4.303,1.71-7.546,1.815c2.716,0.05,2.87,9.55,2.962,12.609L116.809,280.274z"/>
		<path fill="#271C14" d="M62.809,217.774c-0.018-1.809,0.015-3.641-0.076-5.424c-2.697-0.055-4.973-0.851-7.748-0.552
			c2.568-2.311,3.756-5.363,5.772-7.95c-3.147,1.83-5.759-0.554-8.896-1.171c2.026-2.149,4.604-2.798,2.933-5.414
			c-1.223-1.913-5.945-2.496-7.783-2.99c1.404-0.945,2.729-2.139,3.747-3.387c-1.79-0.594-7.384-0.157-8.347-1.713
			c-1.104-1.783,1.655-5.732,2.349-7.286c-5.871-2.678-16.138,3.78-21.284,6.554c-7.059,3.805-12.293,9.257-17.303,15.222
			c-8.146,9.7-8.988,27.551,2.087,38.585c10.021,9.983,27.395,9.189,35.575,4.651c6.537-3.625,14.668-15.551,15.975-22.625
			L62.809,217.774z"/>
	</g>
	<g id="Tiger__x28_Border_x29_">
		<path fill="#583717" d="M231.617,251.973c-1.707,3.782-6.103,6.589-7.887,10.176c-2.851,5.727,5.994,5.017,10.303,7.165
			c3.711,1.85,7.062,5.999,9.854,8.794c3.41,3.412,4.579,7.307,10.393,8.248c5.921,0.958,11.467,0.395,17.41,0.788
			c5.961,0.396,15.09-3.904,16.745,1.066c1.31,3.934-3.862,15.196-6.084,18.824c-2.058,3.358-6.036,6.22-8.175,9.661
			c-2.349,3.779-1.247,9.061-1.775,13.355c-1.131,9.152-1.999,22.512-1.999,31.967c4.485-4.119,28.362-7.375,28.203-5.487
			c-0.222,2.657,4.578,1.996,3.998,6.766c-1.243,10.229-11.165,10.747-10.538,15.317c0.638,4.642-1.373,22.533-4.74,28.584
			c-4.068,7.307-6.193,21.101-13.85,26.782c-7.751,5.75-9.959,14.663-20.219,18.605c-11.806,4.536-13.412,2.563-26.871,5.014
			c-6.8,1.238-29.447,3.962-37.176,3.836c-6.018-0.1-19.526,0.54-27.848-1.812c-5.924-1.675-13.725-5.755-16.39-10.018
			c-2.249-3.596-7.862-7.245-9.727-11.188c-3.968-8.381-5.665-17.352-7.809-25.969c-1.121-4.508-2.611-8.908-2.852-13.633
			c-0.24-4.73,0.533-9.535,1.058-14.278c0.563-5.093,2.65-9.066,3.206-14.138c0.509-4.632,0.349-9.423,0.356-14.192
			c0.015-9.8-0.641-19.815,0-29.566c0.677-10.328,3.612-18.04,9.604-27.057c4.839-7.286,13.119-14.512,19.896-20.902
			c3.021-2.849,8.623-6.62,10.571-10.008c1.925-3.341-2.881-8.58-4.243-11.65L231.617,251.973z"/>
	</g>
	<g id="Tiger__x28_Grund_x29_">
		<path fill="#EA8735" d="M221.818,258.141c-2.675,5.42,5.623,4.75,9.665,6.781c3.481,1.75,6.624,5.679,9.243,8.323
			c3.199,3.229,4.296,6.916,9.749,7.806c5.555,0.907,10.758,0.374,16.333,0.747c5.593,0.374,14.156-3.695,15.709,1.009
			c1.229,3.723-3.623,14.383-5.708,17.816c-1.93,3.178-5.663,5.886-7.669,9.144c-2.203,3.576-1.169,8.576-1.666,12.64
			c-1.06,8.662-1.874,21.306-1.874,30.255c4.208-3.899,26.606-6.979,26.458-5.194c-0.209,2.516,4.294,1.889,3.75,6.404
			c-1.166,9.682-10.475,10.171-9.886,14.497c0.599,4.394-1.288,21.326-4.447,27.053c-3.815,6.915-5.811,19.972-12.992,25.347
			c-7.271,5.443-9.343,13.879-18.968,17.61c-11.075,4.294-12.582,2.425-25.207,4.745c-6.38,1.172-27.625,3.749-34.875,3.63
			c-5.646-0.093-18.318,0.512-26.125-1.714c-5.558-1.586-12.875-5.446-15.375-9.48c-2.109-3.403-7.375-6.857-9.125-10.589
			c-3.721-7.934-5.313-16.424-7.324-24.579c-1.053-4.267-2.451-8.431-2.676-12.902c-0.226-4.479,0.5-9.024,0.992-13.514
			c0.529-4.821,2.486-8.582,3.008-13.38c0.477-4.385,0.326-8.919,0.334-13.433c0.014-9.275-0.6-18.755,0-27.983
			c0.635-9.774,3.389-17.074,9.008-25.607c4.541-6.896,12.309-13.734,18.666-19.782c2.836-2.697,8.09-6.267,9.918-9.472
			c1.805-3.163-2.703-8.12-3.981-11.026L221.818,258.141"/>
		<path fill="#271C14" d="M162.476,377c7.563-1.436,17.861-4.915,23.025-9.311c-0.552,3.264,2.943,5.595,2.259,8.733
			c-6.278,1.52-12.187-0.855-18.284,1.115L162.476,377z"/>
		<path fill="#271C14" d="M216.956,270.771c2.061-3.067,5.298-4.839,7.147-7.98c4.018,0.67,5.747,0.956,8.038,2.491
			c-2.023,0.919-5.754,3.151-7.778,3.936c-2.135,0.828-3.82,2.5-6.407,2.36L216.956,270.771z"/>
		<path fill="#E5BDA8" d="M175.309,294.573c2.311-11.695,13.985-19.394,26.475-23.811c15.191-5.374,31.179,4.557,36.889,15.359
			c1.944,3.68,3.53,7.507,5.072,11.214c-4.55-0.827-9.104-5.67-14.272-4.699c6.317,3.94,7.987,9.374,10.948,14.845
			c2.927,5.41,8.921,10.621,5.277,16.549c-2.55,4.147-3.643,3.772-2.279,8.374c0.978,3.299,1.185,6.364-0.111,9.768
			c-2.194,5.766-6.223,11.811-3.623,18.154c1.031,2.516,5.162,5.508,4.649,8.066c-0.327,1.63-2.937,2.35-3.549,4.037
			c-0.604,1.667,0.726,3.192,0.536,4.839c-0.386,3.343-1.598,6.154-1.539,9.592c0.075,4.427,2.895,7.867,3.527,12.192
			c0.393,2.687,0.038,7.559-1,10.085c-1.63,3.965-4.276,3.431-9.337,2.431c-8.252-1.631-17.007-5.418-24.286-8.383
			c-12.876-5.245-20.003-16.712-25.016-27.035c-2.938-6.05-3.592-12.674-4.876-19.03c-1.376-6.813,0.606-12.936,1.015-19.787
			c0.906-15.236-3.039-35.63,9.313-48.042c-3.372,0.998-7.165,1.565-9.313,4.071L175.309,294.573z"/>
		<path fill="#271C14" d="M185.705,276.014c-1.253-2.092-9.459-14.085-14.618-13.308c-0.033,0.804-0.31,2.015-2.701,4.497
			c-1.665,1.729,2.885,3.341,4.507,4.796C175.577,274.408,184.338,273.731,185.705,276.014z"/>
		<path fill="#271C14" d="M260.476,299.547c0.157-4.178-4.136-6.74-5.136-17.278c-0.143-1.507,7.45-0.774,11.469-0.471
			c0.256,4.703-3.455,9.562-4.333,13.984L260.476,299.547z"/>
		<path fill="#271C14" d="M129.15,379.581c10.693-4.839,25.564-8.69,36.373-9.329c-9.809-0.622-31.93-9.887-34.564-1.716
			C129.59,372.781,129.15,379.581,129.15,379.581z"/>
		<path fill="#271C14" d="M173.569,287.379c-6.833-0.538-10.478-8.717-16.417-8.943c-3.334-0.127-5.736,4.365-7.527,5.967
			c-1.755,1.57-2.844,3.051-3.938,4.334c7.369-0.093,14.419,1.125,21.549-0.281L173.569,287.379z"/>
		<path fill="#271B15" d="M179.142,433.744c-1.575-0.009-2.38,0.316-3.629-0.673c-1.203-0.952-1.215-1.999-1.367-3.229
			c-0.216-1.746,0.236-4.069,2.802-4.652c0.646,1.043,0.352,1.708,0.361,2.772c0.011,1.12,0.64,2.063,1,3.094L179.142,433.744z"/>
		<path fill="#271B15" d="M195.371,430.652c-1.969-0.54-1.57-0.984-1.563-2.959c0.004-0.842,0.607-2.956,1.804-3.472
			c0.821-0.158,3.211,4.134,2.363,6.431H195.371z"/>
		<path fill="#271B15" d="M220.041,430.114c-0.693,0.018-2.075-0.193-2.403-0.763c-0.412-0.717,0.131-1.51,0.041-2.251
			c-0.089-0.733-0.082-1.162-0.384-1.817c-0.45-0.975,0.479-1.375,1.318-1.151c1.108,0.293,1.906,1.432,2.373,2.338
			c0.245,0.476,0.143,1.05,0.208,1.561c0.065,0.51,0.164,1.16-0.055,1.641L220.041,430.114z"/>
		<path fill="#E2A879" d="M167.178,436.007c-1.536-3.208,3.027-6.269,5.979-7.937c2.108-1.19,4.42-1.663,6.902-1.104
			c2.243,0.504,3.254,1.794,4.469,3.464c0.124-0.137,1.77-1.865,2.654-2.334c0.976-0.518,2.062-0.881,3.127-1.02
			c2.059-0.27,4.077-0.567,6.25-0.563c4.431,0.01,8.184,0.531,9.507,4.832c0.219-1.128,0.085-1.382,1.146-2.089
			c3.849-2.564,7.934-3.633,12.729-3.428c1.854,0.08,4.378,0.492,6.146,0.996c1.906,0.542,3.49,2.433,4.622,3.839
			c2.006,2.494,3.812,7.688-0.18,9.271c-3.774,1.497-8.296,2.319-12.348,2.967c-2.145,0.343-4.311,0.23-6.497,0.452
			c-2.204,0.225-4.409,0.924-6.625,1.017c-4.497,0.189-9.002-0.178-13.375-0.559c-4.932-0.43-10.12-0.967-15-1.677
			C176.684,442.135,169.712,441.299,167.178,436.007z"/>
		<path fill="#271B15" d="M145.475,432.4c1.776-3.328,8.617-4.541,12.5-5.479c4.742-1.146,8.299-3.683,11.984-6.176
			c-2.072,3.483-4.761,6.943-5.947,10.58c-1.273,3.903-5.371,7.712-9.703,9.546c-5.095,2.157-6.228-4.41-7.834-6.723L145.475,432.4z"
			/>
		<path fill="#271B15" d="M268.684,420.432c-3.27-1.38-2.688-5.635-4.094-7.967c-0.791-1.312-2.135-2.099-3.281-3.148
			c-1.223-1.121-1.806-2.389-2.365-3.78c1.466,1.48,4.623,0.863,6.618,1.378c2.445,0.633,4.259,2.309,5.337,3.96
			c0.494,0.756,0.794,1.507,1.188,2.296c0.331,0.663,1.07,1.24,1.222,1.917c0.235,1.06-1.333,2.721-2.091,3.557
			c-0.373,0.411-0.833,0.746-1.159,1.183L268.684,420.432z"/>
		<path fill="#EA8735" d="M221.818,258.141"/>
		<path fill="#E2A979" d="M289.625,380.833c-1.172,0.97-1.697,4.49-1.75,5.958c-0.075,2.077-1.664,5.088-2.5,6.938
			c-1.715,3.791-5.792,7.561-13.136,5.331c-2.017-0.612-1.556-5.288-1.739-7.31c-0.176-1.935-0.476-4.924,0.75-6.75
			c1.102-1.641,5.109-1.168,6.715-2.118c1.622-0.959,3.222-1.968,4.907-2.747c1.188-0.548,6.773-3.736,6.753-0.844V380.833z"/>
	</g>
	<g id="Kiste__x28_vorn_x29_">
		<path fill="#3F2C14" d="M258.143,316.759c-4.145-1.829-12.444-1.545-16.758-0.337c-4.916,1.377-11.053,1.367-12.891,5.984
			c-1.867,4.689,0.033,10.022,0.314,14.791c0.282,4.797,1.516,9.683,1.334,14.522c-0.172,4.576-1.649,8.719-1.982,13.251
			c-0.34,4.61-0.706,9.517-0.685,14.18c0.043,9.261,0.667,18.617,0.667,27.969c0,18.849-2.705,38.324,0.648,56.744
			c0.254,1.394,0.601,2.933,1.067,4.264c2.18-0.256,4.119,1.73,6.617,1.922c2.771,0.213,5.324-0.405,7.982,0.015
			c5.146,0.812,10.102,2.195,14.416-1.019c4.456-3.317,1.602-3.434,1.277-13.256c-0.14-4.237-0.45-8.898-1.509-13.171
			c-1.1-4.439-0.508-8.874-1-13.716c-0.462-4.547,0.832-8.445,0.833-13.184c0.002-8.873-0.667-17.867-0.667-26.887
			c0-18.438-2.176-36.908-1-55.4c0.338-5.306,2-10.221,2-15.598L258.143,316.759z"/>
		<path fill="#664627" d="M77.804,322.892c10.259,0,17.774,1.128,27.944,1.128c8.092,0,15.162,1.883,23.218,1.883
			c7.589,0,14.558-1.354,22.354-1.345c4.963,0.007,9.718-1.38,14.762-1.09c3.988,0.229,7.823,1.427,11.724,2.113
			c7.923,1.395,15.226,0.064,23.321,0.053c4.046-0.007,8.024,0.519,12.071,0.747c4.126,0.232,7.888-0.904,11.837-0.956
			c2.686-0.036,5.695-0.104,8.43,0.209c2.978,0.341,4.313,1.169,6.55,3.005c0.438,8.86,0.729,17.52,0.722,26.577
			c-0.002,2.51,0.681,4.097-0.683,5.647c-1.004,1.142-3.446,2.054-4.78,2.36c-3.699,0.849-7.94-0.224-11.609-0.209
			c-3.76,0.016-7.313,1.568-11.154,1.613c-3.932,0.046-7.558-0.312-11.383-0.537c-3.954-0.234-7.912,0.032-11.838,0.269
			c-1.868,0.112-3.584,0.631-5.462,0.537c-1.778-0.088-3.521-0.811-5.458-0.806c-3.974,0.01-7.762,1.102-11.616,0.597
			c-4.032-0.526-7.843-1.378-12.063-1.135c-7.682,0.442-16.089,0.894-23.498-1.284c-3.311-0.973-7.754-1.438-11.104-0.86
			c-3.941,0.681-7.619,2.145-11.837,2.145c-7.669,0-15.384-1.702-22.992-0.813c-2.921,0.342-4.756,1.317-6.829-1.606
			c-2.086-2.945-2.219-7.292-2.219-11.08c-0.001-4.277-0.588-8.34-0.406-12.639c0.17-3.979,0.913-7.963,1.088-11.833L77.804,322.892z
			"/>
		<path fill="#664627" d="M77.064,380.496c4.635-0.193,8.631-2.167,13.431-1.607c3.945,0.46,7.794,1.104,11.837,1.339
			c8.014,0.466,16.156,0.279,24.13,0.269c7.753-0.01,15.456,1.59,22.991,0.256c3.883-0.688,7.563-0.139,11.383,0.282
			c3.69,0.406,7.515,0.537,11.381,0.537c4.042,0,7.679-0.828,11.609-1.075c4.282-0.269,8.326,1.088,12.521,1.075
			c7.721-0.023,15.48-0.075,22.815-1.016c3.903-0.5,7.825,0.869,11.56,0.216c1.751-0.307,3.566-0.896,5.462-0.544
			c2.499,0.464,2.33,2.028,2.555,4.841c0.693,8.702,2.344,17.331,3.086,26.086c0.189,2.231,0.146,4.463,0.329,6.663
			c0.247,2.986-0.149,3.4-2.781,3.557c-3.991,0.236-8.099,0.504-12.067,0.269c-4.116-0.243-7.841-1.022-12.063-0.807
			c-4.252,0.218-7.8,0.54-11.838,1.626c-15.815,4.253-31.305-1.892-47.121-1.895c-7.566-0.002-15.524,1.151-22.998-0.262
			c-8.096-1.532-16.084-1.327-24.352-1.352c-8.137-0.025-16.102-0.275-24.13,0.537c-1.997,0.201-3.528,0.76-5.054-0.794
			c-1.668-1.698-2.01-4.314-2.231-6.677c-0.427-4.543-0.942-8.953-1.138-13.506c-0.175-4.081-0.298-7.518,0.228-11.295
			L77.064,380.496z"/>
		<path fill="#664627" d="M240.281,434.282c-15.575,1.208-31.405,0.538-47.132,0.538c-15.618,0-31.41-0.584-46.883-0.537
			c-7.567,0.024-15.177,0.896-22.765-0.001c-7.191-0.849-14.516-1.172-21.854-1.613c-3.965-0.238-7.934,0.206-11.836,0.269
			c-4.032,0.065-7.483-0.855-8.373,5.109c-0.645,4.33,0.311,8.874,0.645,12.896c0.357,4.327-0.621,9.336-0.018,13.46
			c0.076,0.516-0.035,1.056,0.04,1.567c6.938,3.872,15.905,0.097,23.413,1.451c3.47,0.626,7.396,2.073,10.926,1.821
			c3.754-0.267,7.34-1.741,11.16-2.145c7.232-0.763,15.279,0.275,22.303,1.825c3.916,0.863,8.098,0.49,11.838,1.605
			c3.925,1.17,7.471-0.017,11.387-0.463c15.879-1.813,31.548,1.746,47.572,0.791c3.895-0.232,7.658-0.813,11.558-0.807
			c2.699,0.005,8.595,0.346,9.853-2.688c1.558-3.761-0.173-9.189-0.467-12.909c-0.354-4.453-0.456-8.972-0.456-13.446
			c0-1.075,0-2.151,0-3.228L240.281,434.282z"/>
		<path fill="#664627" d="M255.142,468.974c-1.411-3.444-0.553-8.509-1-12.108c-0.46-3.703-0.09-7.711-0.333-11.557
			c-0.271-4.282-1.507-8.234,2.91-11.362c3.626-2.568,7.938-7.232,11.423-9.985c6.698-5.295,12.294-9.201,18.252-15.288
			c6.013-6.143,12.11-12.256,19.065-17.623c3.581-2.763,6.316-6.067,9.275-9.271c2.409-2.607,5.271-7.543,9.017-8.779
			c0.663,5.899-0.229,12.701-0.942,18.521c-0.511,4.173-0.606,8.848-0.341,13.178c0.146,2.389,0.747,4.092-0.901,6.261
			c-1.267,1.668-3.152,3.038-4.425,4.766c-4.906,6.66-13.268,12.053-20.649,18.071c-6.572,5.36-11.78,12.232-17.885,18.017
			c-6.694,6.345-12.992,12.072-19.733,17.231L255.142,468.974z"/>
		<path fill="#664627" d="M250.476,416.264c0.671-0.829-0.075-3.625,0.018-4.827c0.137-1.778,0.532-3.326,0.648-5.124
			c0.231-3.565-0.055-7.267-0.259-10.757c-0.215-3.66-2.403-9.878-0.759-13.178c0.86-1.725,3.399-2.849,5.025-4.033
			c1.596-1.162,3.298-2.647,5.066-4.034c6.731-5.277,13.104-11.457,19.843-16.742c7.29-5.717,15.032-11.203,21.75-17.412
			c3.609-3.335,7.515-6.264,11.249-9.485c2.508-2.163,5.57-7.128,9.017-8.238c0.662,8.001-0.112,16.543-0.599,24.447
			c-0.251,4.077,1.227,9.335-0.899,12.969c-2.056,3.515-7.184,5.612-10.436,8.478c-3.39,2.988-7.453,5.1-11.081,7.813
			c-3.197,2.393-6.679,5.55-9.86,8.456c-3.091,2.822-5.273,6.247-8.049,9.347c-2.882,3.218-6.648,5.612-10.258,8.134
			c-3.683,2.573-7.091,5.591-10.083,8.814c-2.637,2.842-5.339,7.674-9.001,9.407L250.476,416.264z"/>
		<path fill="#664627" d="M248.142,358.712c1.359-2.975-0.473-6.634-0.666-9.682c-0.217-3.416,0.458-6.616,0.665-9.95
			c0.262-4.228-1.596-8.986,0.927-12.654c2.323-3.378,6.242-5.704,9.667-8.382c6.631-5.184,12.718-11.177,18.659-16.868
			c6.642-6.363,15.081-11.595,22.99-17.03c6.828-4.694,12.569-12.242,20.358-16.035c1.057,3.896,0.92,5.782,0.399,9.942
			c-0.487,3.898,0.907,9.479,0.667,13.427c-0.203,3.335-0.004,9.348-2.26,12.101c-2.442,2.981-6.833,4.84-9.999,7.263
			c-3.646,2.79-6.401,5.687-9.324,8.948c-3.035,3.388-6.688,5.884-10.417,8.8c-6.869,5.371-13.798,10.429-20.398,15.861
			c-6.747,5.554-13.381,11.803-20.935,16.949L248.142,358.712z"/>
	</g>
	<g id="Pfoten">
		<path fill="#271B15" d="M312.055,325.563c0.492,1.24-0.129,2.592-0.644,3.431c-0.32,0.521-2.284,2.273-1.028,2.583
			c1.578,0.16,2.897-2.006,3.279-2.631c0.613-1.002,1.431-2.28,0.629-3.228L312.055,325.563z"/>
		<path fill="#E2A879" d="M274.809,280.858c1.461-0.173,2.619-0.921,4.009-1.243c1.272-0.296,2.712-0.536,3.992-0.639
			c2.716-0.218,5.803-0.336,8.536-0.136c2.713,0.2,5.477,0.992,7.963,1.712c2.49,0.719,5.173,1.268,7.658,2.054
			c2.158,0.683,4.776,1.506,6.388,2.921c1.687,1.479,2.78,3.454,4.421,5.042c3.197,3.096,4.655,7.36,6.579,10.997
			c2.034,3.847,2.735,8.821,1.958,13.042c-0.43,2.332-1.788,3.797-2.962,5.813c-1.205,2.068-2.202,3.837-3.579,5.722
			c-1.814,2.482-6.05,3.504-9.328,4.295c-4.183,1.01-7.068,0.336-10.438-1.465c-0.226-3.105,1.763-4.624,3.767-6.969
			c1.868-2.186,1.937-5.421,0.196-7.752c0.04,2.088,0.757,4.25,0.18,6.276c-0.532,1.868-2.172,3.855-3.459,5.506
			c-1.499,1.921-3.38,3.294-6.084,3.738c-2.783,0.457-6.432,0.926-9.104-0.205c-1.908-0.807-5.125-1.739-5.982-3.53
			c-0.903-1.888,1.103-4.041,1.125-6.051c0.021-1.911-1.395-4.373-2.875-5.89c-1.592-1.63-6.163-1.674-8.495-1.404
			c-3.149,0.364-5.221,1.686-8.612,1.485c1.051-0.881,1.735-2.297,2.123-3.442c-1.967-0.626-3.497-2.318-3.777-3.902
			c1.293-0.487,3.348-1.043,4.339-1.739c1.778-1.248,0.582-1.945-0.685-2.961c2.164-0.639,5.065-2.102,3.954-4.197
			c1.42-0.667,5.827-0.12,4.54-2.556c-0.432-0.816-1.873-0.872-1.812-1.86c0.059-0.945,1.616-1.166,2.341-1.472
			c1.327-0.56,1.359-0.3,1-1.644c-0.373-1.396-0.914-1.332,0.759-2.185c0.627-0.319,2.206-0.48,2.582-1.003
			c0.397-0.551-0.137-1.505,0.093-2.167c-1.783-0.064-0.716-1.499,0.025-2.011c0.736-0.509,2.229-1.133,3.156-1.402
			c-0.61-0.456-1.786-0.97-2.656-0.645L274.809,280.858z"/>
		<path fill="#E2A879" d="M314.125,352.375c-0.768-2.861-5.892-6.406-9.125-7.813c-3.511-1.527-7.012-2.426-11.644-2.258
			c-0.446,0.288-0.935,0.567-1.355,0.696c-0.837,0.254-1.729-0.044-2.459-0.41c-0.305,0.036-0.604,0.077-0.9,0.12
			c-0.26,0.121-0.515,0.241-0.684,0.456c-0.244,0.311-1.324,2.062-1.759,2.263c-0.37,0.172-1.769,0.427-2.188,0.313
			c-0.501-0.137-0.229,0.508-0.73,0.443c-0.161,0.047-1.48-0.18-1.645-0.13c-0.15,0.505,0.374,1.46-0.256,1.573
			c-0.542,0.097-0.755-0.316-1.404-0.358c0.203-0.557-0.81-0.184-0.902-0.152c-0.016,0.525,0.533,2.065,0.5,2.563
			c-0.897-0.063-1.019-0.842-1.901-1.058c-0.441-0.107-0.897-0.162-1.356-0.213c-0.474,0.134-0.947,0.266-1.415,0.392
			c-0.417,0.589-0.867,1.202-1.412,1.672c-0.738,0.638-2.593,0.627-3.333,0.055c-0.051,0.025-0.1,0.049-0.151,0.075
			c-0.015,0.955-0.102,1.887,0.577,2.695c-0.971-0.001-4.178,0.452-5.004-0.167c-0.039,0.024-0.078,0.05-0.117,0.075
			c-0.544,1.086,2.878,2.652,2.331,3.045c-0.258,0.186-1.096,0.027-1.459,0.042c-0.699,0.027-0.931,0.215-1.583,0.458
			c-0.036,0.833,1.462,1.576,1.296,2.423c-1.317,0.134-2.518-0.4-3.819,0.004c-0.024,0.022-0.05,0.042-0.075,0.064
			c-0.175,0.859,0.747,1.479,0.411,2.365c-0.301,0.797-1.684,0.689-2.609,0.734c-0.023,0.096-0.051,0.189-0.065,0.287
			c-0.4,2.584-0.861,5.002-0.667,6.569c0.431,3.472,4.567,0.174,7.362,3.052c2.802,2.884-1.916,9.583,5.72,10.84
			c2.574,0.424,5.027,0.554,7.523-0.47c2.017-0.827,4.341-3.204,5.257-5.787c0.661-1.864,3.042-10.458,0.841-9.833
			c2.326,0,0.479,7.998,5.368,9.083c4.619,1.026,8.218-0.74,11-4.278c1.322-1.683,1.427-3.756,1.46-5.563
			c0.036-1.95,0.831-6.868-1.752-8.659c3.813,1.479-0.533,8.966,8.688,8.3c3.743-0.271,5.038-3.813,4.875-6.634
			C315.465,357.599,314.54,353.921,314.125,352.375z"/>
		<path fill="#E2A879" d="M210.139,318.601c-0.775-2.937-1.887-5.911-4.521-8.108l-3.523-3.221c-0.908-1.338-2.016-2.497-3.26-3.522
			c-0.258,0.138-0.582,0.239-1.004,0.284c-0.12-0.39-0.697-1.278-1.302-1.936c-0.492-0.307-0.995-0.601-1.515-0.876
			c-1.864,0.71-4.445-0.302-4.476-1.948c-0.063-0.023-0.127-0.047-0.189-0.068c-0.774,0.35-2.269,0.907-3.013,0.79
			c-1.005-0.159-0.569-0.549-1.631-1.324c-1.258,0.399-1.703,0.938-3.424,0.461c-0.181-0.358-1.265-0.963-2.204-1.674
			c-1.515,0.699-1.383,1.004-2.8,0.165c-0.979-0.581-1.836-0.869-2.203-1.776c-0.746,0.563-2.972,1.607-3.897,1.579
			c-0.866-0.027-3.146-1.275-3.439-1.859c-0.71,0.623-1.856,0.306-2.46,1.013c-0.688-0.243-2.369-0.253-2.446-0.833
			c-1.062,0.645-2.772,1.03-4.077,1.322c-0.958,0.213-3.392-0.676-4.285-1.379c-0.4,0.729-0.951,1.758-1.688,2.132
			c-0.951,0.021-2.094-0.937-2.848-1.346c-0.719,0.457-2.327,1.811-3.222,1.936c-1.008,0.142-1.738-0.893-2.575-1.375
			c-0.027,0.005-0.055,0.008-0.082,0.013c-0.664,0.896-1.907,2.562-2.934,2.74c-0.484,0.085-1.039-0.211-1.616-0.067
			c-0.474,0.118-0.833,0.44-1.234,0.655c-0.698,0.374-1.716,0.71-2.734,0.793c-0.455,0.318-0.915,0.636-1.396,0.951
			c-2.455,1.607-5.405,3.15-7.407,5.35c-2.236,2.455-3.918,5.035-5.633,7.76c-3.377,5.366-6.25,10.394-2.342,16.259
			c3.57,5.359,14.229,7.573,21.272,6.487c5.854-0.902,8.929-7.329,8.786-12.264c0.193,3.974,0.568,6.283,1.885,8.473
			c1.273,2.116,5.082,4.328,7.924,4.929c6.979,1.475,15.819,2.024,21.632-1.896c3.282-2.214,2.22-8.877,1.874-13.196
			c0.698,2.803,0.55,7.555,1.99,9.815c1.782,2.799,5.124,3.227,9.332,3.716c7.46,0.869,13.592-3.96,15.213-9.434
			C209.642,324.827,211.047,322.04,210.139,318.601z"/>
		<path fill="#271B15" d="M130.365,332.334c-2.327,2.228-0.818,6.189,0.455,8.438c0.232-1.586,0.192-2.938,1.145-4.364
			c0.91-1.361,2.13-2.345,0.205-3.544L130.365,332.334z"/>
		<path fill="#271B15" d="M165.261,334.298c0.471,2.47,1.543,5.171,0.751,7.766c2.103,0.813,4.662-7.262,1.617-8.06L165.261,334.298z
			"/>
		<path fill="#271B15" d="M196.276,332.334c1.071,0.547,1.214,2.762,1.087,3.803c-0.168,1.366-0.829,2.631-1.108,3.986
			c-1.453-0.963-1.039-2.776-1.505-4.081c-0.235-0.66-0.61-1.368-0.975-1.976c-0.547-0.91-0.615-0.971,0.38-1.638L196.276,332.334z"
			/>
		<path fill="#271B15" d="M292.187,325.63c-0.583,1.077-0.106,1.647-0.674,2.746c-0.565,1.093-1.512,0.944-1.772,2.889
			c4.003-0.428,4.668-3.572,4.925-4.85c-0.218-0.025-1.021-0.786-1.101-0.853L292.187,325.63z"/>
		<path fill="#271B15" d="M277.208,378.345c-0.138,1.056,0.674,1.583,0.644,2.648c0.071,1.849-0.767,2.363-1.054,3.322
			c3.126,1.121,4.771-5.163,2.696-6.778L277.208,378.345z"/>
		<path fill="#271B15" d="M297.166,371.355c-0.11,1.807,0.884,3.589,0.673,5.469c1.394,0.227,2.359-1.418,2.591-2.304
			c0.364-1.396,0.286-2.318-0.542-3.462c-0.198-0.024-1.273-0.354-1.479-0.336L297.166,371.355z"/>
		<path fill="#271B15" d="M311.35,366.778c0.175-1.052-0.645-2.901-0.641-3.98c0.003-0.775,0.077-2.159,1.703-0.884
			c1.717,1.345,0.789,4.441-0.485,5.794L311.35,366.778z"/>
	</g>
	<g id="Kopf">
		<path fill="#583717" d="M228.371,263.607c0.847-2.248,4.727-11.638,4.485-16.282c8.272-5.203,18.976-7.99,28.202-10.836
			c6.055-1.866,12.324-3.456,18.728-3.227c7.729,0.275,15.232,2.59,22.589,3.159c1.391-8.066-3.771-21.225-12.297-27.696
			c14.75,0.737,15.423,9.929,23.889,17.343c6.398-12.203,6.18-20.326,2.68-29.29c-3.393-8.686-12.289-16.569-21.373-20.279
			c4.269-3.305,8.481,0.543,14.179,2.038c4.242,2.16,7.681,6.677,12.847,9.77c1.593-12.583,3.11-25.261-5.31-37.261
			c-4.599-6.554-12.812-11.608-20.478-14.059c-7.057-2.255-13.283-0.483-18.257-7.125c7.537-6.969,16.763-11.383,23.833-18.383
			c7.313-7.241,11.417-17.304,17.055-25.249c5.664-7.985,7.693-20.015,9.734-29.778c2.405-11.508-1.469-21.376-6.553-31.521
			c-4.753-9.475-9.898-13.41-20.273-15.089c-10.859-1.757-15.763,3.236-24.162,10.174c-6.636,5.48-14.734,12.318-22.387,16.553
			c-7.291,4.033-17.222,6.653-25.546,5.967c-15.384-1.266-15.867-21.107-27.521-27.604c-5.215-2.909-13.647-2.587-19.204-1.432
			c-4.347,0.903-12.855,4.109-15.793,7.594c-4.762,5.652,2.976,8.134,9.133,9.294c-6.344,6.603-11.904,12.683-21.783,10.091
			c-4.764-1.25-8.663-3.366-13.502-4.383c-5.048-1.061-9.352-2.704-13.697-5.476C115.41,22.849,108.439,7.718,94.836,2.004
			C78.334-4.926,65.798,7.275,59.543,21.248c-5.12,11.438-3.492,20.296-2.117,32.422c1.182,10.413,4.229,18.558,8.513,28.16
			c5.032,11.278,10.304,21.328,19.817,27.936c3.632,2.523,6.435,3.97,10.105,6.437c2.824,1.896,11.826,6.081,13.168,8.966
			c2.927,6.294-4.528,12.433-9.656,14.417c-7.75,3-16.41,5.021-23.309,9.334c-5.59,3.493-8.951,10.053-11.71,15.999
			c-4.908,10.578-5.718,35.492-0.694,28.866c7.707-10.166,23.881-12.358,22.267-11.53s-6.271,2.188-10.279,5.996
			c-0.192,0.171-0.394,0.327-0.581,0.506c-1.559,1.485-2.931,3.046-4.151,4.676c-0.753,0.959-1.482,1.947-2.175,2.981
			c-3.006,4.495-3.275,6.742-4.386,11.876c-0.54,2.496-1.349,7.487-1.037,10.24c0.339,2.997,4.657,11.794,9.763,11.832
			c3.238-6.105,10.061-9.386,16.272-10.525c12.259-2.245,18.226,0.926,18.226,0.926c0.711,0.539,1.367,1.143,1.949,1.829l0.667,1.717
			c-8.901,5.385-9.283,12.209-8.003,22.825c7.689-1.182,14.946-5.949,22.807-7.536c7.638-1.542,13.889,0.429,20.962,4.258
			c3.694,2.001,6.768,4.728,10.604,6.339c2.286,0.96,4.377,1.625,6.461,2.472c-0.018,0.794,0.351,2.521,0.629,3.045
			c4.654,8.771,7.654,5.354,14.737,5.646C178.392,261.358,224.476,260.774,228.371,263.607z"/>
		<path fill="#EA8735" d="M224.104,262.791c1.165-1.432,3.511-1.453,5.112-5.889c1.269-3.514,1.389-8.73,1.163-13.127
			c7.762-4.923,17.801-7.562,26.457-10.254c5.68-1.767,12.465-4.27,18.473-4.053c7.251,0.262,14.524,2.921,21.425,3.462
			c1.306-7.635-4.675-19.562-12.675-25.687c15.5-3,18.682,6.657,26.623,13.674c6.002-11.549,2.91-17.315-0.373-25.799
			c-3.182-8.22-12.853-14.864-21.375-18.375c4.003-3.128,11.095-1.609,16.439-0.195c3.979,2.045,7.488,4.782,12.335,7.709
			c0.55-12.364,0.876-24.327-8.401-33.262c-5.433-5.232-12.021-9.329-19.212-11.647c-6.619-2.135-15.549,0.197-17.519-8.002
			c7.07-6.596,15.952-11.541,22.585-18.166c6.86-6.853,10.875-14.351,16.163-21.871c5.314-7.558,7.218-18.942,9.133-28.183
			c2.256-10.892-1.378-20.231-6.148-29.833c-4.457-8.968-9.284-12.691-19.019-14.281c-10.187-1.663-14.786,3.063-22.666,9.63
			c-6.225,5.187-13.822,11.659-21.001,15.667c-6.84,3.817-16.156,6.296-23.966,5.647c-14.431-1.198-14.884-19.977-25.816-26.126
			c-4.894-2.753-12.803-2.448-18.017-1.355c-4.077,0.855-12.06,3.889-14.814,7.188c-4.469,5.349,2.791,7.698,8.567,8.797
			c-5.952,6.249-11.168,12.003-20.435,9.551c-4.47-1.183-8.129-3.186-12.668-4.148c-4.734-1.005-8.772-2.56-12.849-5.184
			c-11.425-7.355-17.964-21.676-30.726-27.083c-15.48-6.559-27.24,4.989-33.108,18.213c-4.804,10.825-3.276,19.209-1.985,30.686
			c1.107,9.855,3.967,17.563,7.985,26.651c4.72,10.673,9.759,17.762,18.683,24.016c3.408,2.388,6.628,5.042,10.072,7.376
			c2.648,1.795,11.007,4.537,12.266,7.267c2.745,5.958-4.845,14.126-9.655,16.004c-7.271,2.839-15.396,4.752-21.866,8.834
			c-5.243,3.306-10.145,9.974-12.732,15.602c-4.604,10.011-7.879,29.831-3.166,23.559c7.229-9.621,29.617-10.78,28.104-9.996
			s-8.836,4.456-12.597,8.061c-0.181,0.162-0.369,0.31-0.545,0.479c-1.462,1.405-2.749,2.883-3.895,4.426
			c-0.706,0.907-1.391,1.842-2.04,2.822c-2.82,4.253-4.18,9.43-5.221,14.289c-0.506,2.362-1.683,5.507-1.391,8.111
			c0.318,2.837,1.125,8.375,5.914,8.411c3.039-5.778,11.758-9.334,17.586-10.411c11.5-2.125,19.545,2.644,19.545,2.644
			c0.667,0.51,1.283,1.081,1.83,1.731l0.625,1.625c-8.352,5.096-10.125,10.875-8.924,20.923c7.215-1.118,13.55-6.421,20.924-7.923
			c7.164-1.459,14.917,1.876,21.552,5.5c3.466,1.894,6.349,4.475,9.948,6c2.145,0.908,4.106,1.537,6.061,2.338
			c-0.017,0.752-0.029,1.436-0.061,1.996c-0.249,4.554,4.582,5.935,5.963,9.827l0.315,2.052L224.104,262.791z"/>
	</g>
	<g id="Gesicht">
		<path fill="#E5BDA8" d="M212.059,262.015c6.948,0.186,12.996-12.965,18.32-18.24c7.762-4.923,17.801-7.562,26.457-10.254
			c5.68-1.767,12.465-4.27,18.473-4.053c7.251,0.262,14.524,2.921,21.425,3.462c1.306-7.635-4.675-19.562-12.675-25.687
			c15.5-3,18.682,6.657,26.623,13.674c6.002-11.549,2.91-17.315-0.373-25.799c-3.182-8.22-12.853-14.864-21.375-18.375
			c4.003-3.128,11.095-1.609,16.439-0.195c3.979,2.045,7.488,4.782,12.335,7.709c0.474-10.653,0.766-21.002-5.093-29.38
			c-7.043,2.273-12.905,7.342-19.308,11.047c-4.754,2.751-9.491,5.69-14.249,8.318c-4.411,2.436-7.317,4.071-12.5,3.306
			c-8.197-1.211-14.572-5.463-21.762-9.368c-7.91-4.296-16.043-5.108-24.25-0.5c-5.54,3.11-10.938,6.794-17.177,8.874
			c-3.288,1.096-7.057,1.908-10.562,1.426c-1.766-0.243-8.458-0.837-8.25-2.987l-3.75-5.25c-3.375-1.35-6.131-3.846-9.556-5.188
			c-3.737-1.464-8.354-1.354-12.445-1.313c-4.337,0.044-8.485,1.091-12.749,1.507c-3.975,0.388-8.344,0.521-12.249,1.494
			c-3.45,0.86-7.001,2.656-9.933,4.562c-3.042,1.978-5.995,4.694-9.569,5.492c-6.729,1.503-16.983-2.293-21.187-7.354
			c-4.461-5.369-6.152-12.795-12.443-16.357c-4.216,3.587-7.968,8.978-10.119,13.656c-4.604,10.011-7.879,29.831-3.166,23.559
			c7.229-9.621,29.617-10.78,28.104-9.996s-8.836,4.456-12.597,8.061c-0.181,0.162-0.369,0.31-0.545,0.479
			c-1.462,1.405-2.749,2.883-3.895,4.426c-0.706,0.907-1.391,1.842-2.04,2.822c-2.82,4.253-4.18,9.43-5.221,14.289
			c-0.506,2.362-1.683,5.507-1.391,8.111c0.318,2.837,1.125,8.375,5.914,8.411c3.039-5.778,11.758-9.334,17.586-10.411
			c11.5-2.125,19.545,2.644,19.545,2.644c0.667,0.51,1.283,1.081,1.83,1.731l0.625,1.625c-8.352,5.096-10.125,10.875-8.924,20.923
			c7.215-1.118,13.55-6.421,20.924-7.923c7.164-1.459,14.917,1.876,21.552,5.5c3.466,1.894,6.349,4.475,9.948,6
			c2.145,0.908,4.106,1.537,6.061,2.338c3.939,0.219,13.543,14.013,20.627,13.975C189.97,262.782,180.827,262.182,212.059,262.015z"
			/>
		<path fill="#271C14" d="M108.161,140.075c3.36,3.122,7.022,9.531,11.647,11.159c2.282,0.803,4.245,0.8,6.416,1.843
			c1.92,0.922,3.545,2.519,5.883,2.017c-2.137-2.324-4.01-5.123-5.549-7.926c-1.882-3.425-1.715-7.225-3-10.749
			c-1.25-3.427-2.345-6.302-3.749-9.592c-0.946-2.219-1.501-8.958-3.276-9.975c-0.893,3.651-0.703,7.003-1.965,10.642
			c-1.226,3.533-2.341,6.591-3.354,9.815L108.161,140.075z"/>
		<path fill="#271C14" d="M131.476,119.16c-3.169-2.075-7.073-12.296-8.166-15.785c-1.38-4.408,0.427-9.541,2.999-13.382
			c-0.146,3.828,2.559,10.077,3.834,13.5c1.342,3.603,1.291,7.611,2.333,11.333L131.476,119.16z"/>
		<path fill="#271C14" d="M166.143,94.16c-2.77-4.043-7.75-6.492-11.083-10.243c-3.57-4.019-8.494-12.753-11.866-16.723
			c2.799-4.791,6.74-13.951,13.367-16.201c-0.184,8.669,0.732,16.539,3.256,22.483c1.929,4.542,3.419,9.727,5.326,14.017
			L166.143,94.16z"/>
		<path fill="#271C14" d="M192.809,104.827c-1.561-10.723-4.708-20.156-6.918-30.667c-1.137-5.407-1.283-10.042-1.082-15.667
			c0.122-3.402-0.814-5.072,2.343-6.583c2.238-1.071,5.4-3.969,7.907-4.25c4.998-0.56,10.188-1.992,15.283-1.633
			c0.596,3.755-1.633,12.13-2.273,15.8c-0.741,4.246-2.264,8.152-3.26,12.341c-1.974,8.298-4.883,16.221-7,24.326L192.809,104.827z"
			/>
		<path fill="#271C14" d="M219.809,94.494c3.719-10.113,6.451-19.935,5.316-30.983c-0.528-5.144-2.294-15.942,5.142-13.352
			c3.715,1.294,10.003,4.759,11.399,8.584c1.984,5.438-2.615,16.449-5.589,20.75c-3.366,4.868-7.798,9.643-11.935,13.333
			L219.809,94.494z"/>
		<path fill="#271C14" d="M250.809,123.827c0-4.626-0.793-10.425,0.908-14.684c1.821-4.559,5.63-14.856,5.583-20.263
			c1.635,1.759,3.709,4.895,4.916,6.947c0.595,1.011,3.222,7.349,2.985,8.269c-0.545,2.125-6.152,7.158-7.651,8.138
			c-2.208,1.443-3.765,3.963-3.407,6.593L250.809,123.827z"/>
		<path fill="#271C14" d="M256.809,158.827c-0.54-2.507,2.827-5.824,3.686-8.315c1.097-3.185,1.648-6.777,2.297-10.036
			c1.143-5.737,4.608-17.429,7.055-22.386c2.955,2.997,2.242,10.128,3.213,13.987c0.472,1.876,1.105,3.208,2.826,4.146
			c1.558,0.849,4.761,0.563,4.907,1.621c0.448,3.227-7.546,9.808-9.566,11.984c-2.506,2.699-5.256,6.335-9.417,5.666L256.809,158.827
			z"/>
		<path fill="#E5BDA8" d="M244.184,59.244c11.392-0.128,18.019-8.965,26.533-14.833c3.868-2.665,7.767-6.992,12.166-8.843
			c4.654-1.959,7.524-3.688,12.593-3.908c1.292-0.056,5.416,0.583,6.942,1.542c3.752,4.024,6.579,8.563,7.391,14.292
			c0.744,5.25,1.353,14.129,0.414,19.25c-1.956,10.672-4.414,16.5-11.756,26.758c-4.125,5.763-6.609,8.43-11.408,13.465
			c-4.58,4.805-11.53,8.742-16.084,13.808c-2.295-4.669-1.424-5.833-3.499-10.614c-2.006-4.62-3.26-9.589-5.26-14.333
			c-3.844-9.118-8.55-18.035-12.823-27.008c-0.885-1.857-2.146-3.93-3.084-5.701L244.184,59.244z"/>
		<path fill="#E5BDA8" d="M117.143,111.827c-8.581-6.855-19.162-9.339-27.742-16.241c-3.735-3.005-5.282-6.842-7.582-11.019
			c-2.221-4.035-4.975-8.062-6.592-12.415c-1.699-4.575-2.168-9.417-2.658-14.326c-0.52-5.206-1.385-11.152-0.01-16.333
			c2.363-8.903,4.269-20.046,13.566-23.757c10.549-4.21,18.887,5.164,24.768,12.414c6.406,7.898,14.778,15.585,24.248,18.751
			c5.318,1.778,10.423,4.187,15.617,5.973c-0.402,3.967-5.073,8.679-7.698,11.609c-3.331,3.719-8.708,8.64-11.584,12.593
			c-5.347,7.347-7.804,14.674-10.927,23.158c-0.691,1.879-1.005,3.713-1.406,5.592L117.143,111.827z"/>
		<path fill="#583717" d="M170.558,252.544c-1.019-3.319-4.677-15.728,1.521-15.504c1.107,0.04,2.603,0.998,3.513,0.737
			c1.358-0.389,1.438-2.195,1.361-3.518c-0.153-2.656-1.523-5.684-2.268-8.155c-1.548-5.138-4.099-9.835-6.467-14.601
			c-0.547-1.101-1.099-2.263-1.655-3.344c-0.874-1.698-1.309-1.776-3.174-1.864c-2.645-0.125-10.393,1.076-16.016-0.894
			c-10.255-3.593-12.813-14.073-10.906-21.009c1.918-6.977,5.464-16.13,16.155-20.314c7.816-3.06,23.191-3.908,29.476,5.212
			c1.98,2.875,1.135,19.714,4.604,19.977c6.703,0.509,13.388,0.041,20.12,0.695c6.141,0.596,9.915-12.617,11.022-18.674
			c1.572-8.599,14.08-9.604,22.447-3.909c1.197,0.815,7.687,5.227,10.916,12.62c2.605,5.963,0.543,10.226-0.215,16.397
			c-0.916,7.463-8.258,8.759-10.209,9.005c-4.308,0.542-11.426,3.283-13.811,7.621c-1.208,2.199-2.079,5.151-2.91,7.514
			c-0.804,2.287-2.151,4.729-2.475,7.122c-0.332,2.459-0.235,4.893-0.486,7.278c-0.383,2.232,3.381-0.204,4.438,1.364
			c4.126,6.123,3.084,15.33-5.488,23.761c-3.444,3.387-9.903,6.351-14.662,7.421c-7.309,1.644-15.743,2.289-22.019-1.889
			C173.945,259.32,171.558,255.802,170.558,252.544z"/>
		<path fill="#281C13" d="M181.559,242.244c0.368-3.479-1.543-7.562-2.5-10.75c-0.994-3.314-1.957-6.86-3.438-10.062
			c-2.885-6.237-5.117-12.672-8.494-18.633c4.501-1.755,9.027-2.583,13.431-4.111c3.652-1.267,7.402-3.519,11.251-3.889
			c8.961-0.861,16.387,1.187,24.694,3.5c5.063,1.41,10.268,3.402,15.28,4.987c-0.536,3.089-4.738,5.13-6.663,7.506
			c-2.229,2.753-3.456,6.801-4.88,9.883c-1.532,3.314-2.697,7.405-2.932,11.068c-0.221,3.444,1.23,9.258-0.194,12.306
			c-0.134,0.286-0.021,0.598-0.095,0.9c-6.021,2.247-11.3,3.73-17.698,4.044c-2.788,0.137-5.837,0.047-8.519-0.494
			c-2.621-0.529-5.305-2.106-7.994-2.256L181.559,242.244z"/>
		<path fill="#E2A879" d="M172.476,238.161c0,9.035,2.226,21.386,11.399,25.742c9.154,4.348,21.944,3.908,29.935-2.075
			c3.989-2.986,6.915-5.384,8.323-10.351c1.019-3.593,2.13-10.517,0.618-14.258c-3.123-0.092-6.294,2.018-9.442,2.774
			c-3.898,0.938-9.667,2.304-13.666,2.333c-11.5,0.083-14.639-2.017-22.056-3.457L172.476,238.161z"/>
		<path fill="#EFD8DA" d="M175.309,203.744c1.723,2.803,3.842,4.936,5,8.256c0.705,2.021,1.342,9.046,4.062,6.307
			c1.866-1.879,1.369-6.54,2.126-9.068c0.87-2.906,2.733-6.297,2.275-9.457c-2.321-0.422-3.351-1.083-5.769-0.593
			c-1.929,0.392-4.556,0.522-6.194,1.806L175.309,203.744z"/>
		<path fill="#EFD8DA" d="M207.809,199.244c0,3.61,1.816,7.984,2.584,11.583c0.698,3.276,0.083,7,0.954,8.879
			c2.806,0.18,4.367-4.492,5.879-8.379c0.825-2.121,1.967-3.748,2.521-4.827c1.698-3.305,1.279-3.809-1.62-5.819
			c-2.297-1.593-4.759-2.95-7.818-2.688L207.809,199.244z"/>
		<path fill="#E2A879" d="M162.059,165.494c-1.646,0.004-3.484,1.285-5.056,1.694c-1.856,0.484-3.596,0.729-5.249,1.737
			c-3.4,2.075-5.734,5.519-7.758,8.811c-4.186,6.815-6.445,12.943-1.757,20.327c4.632,7.295,12.618,8.238,20.819,7.418
			c4.211-0.421,8.242-1.169,12.444-1.543c3.725-0.331,8.067-1.628,11.556-2.944c2.176-0.821,5.361-1.821,8.543-4.218
			c3.382,1.244,6.713,3.451,10.201,4.711c3.944,1.425,8.315,1.815,12.256,2.813c8.101,2.051,12.701,1.987,21-0.056
			c8.066-1.985,8.729-9.204,8.75-17c0.012-4.153-1.53-7.406-4.45-10.318c-2.353-2.346-4.655-5.478-7.362-7.12
			c-1.977-1.199-4.23-1.306-6.188-2.313c0,0-22,1-34,11.75C187.809,171.744,176.809,165.454,162.059,165.494z"/>
		<path fill="#281C13" d="M195.559,197.244c-3.115-0.178-6.357-2.732-9.068-4.188c-2.979-1.598-5.94-2.72-8.369-5.132
			c-2.281-2.266-4.416-5.125-5.549-8.194c-0.761-2.062-3.911-7.981-2.324-10.241c0.029-0.154,0.064-0.307,0.104-0.458
			c4.031-0.646,7.25-1.115,11.463-0.28c3.655,0.724,7.759,1.077,11.494,1.493c7.936,0.883,16.344,1.321,23.751-1.444
			c9.044-3.377,5.037,8.512,0.542,11.237c-1.244,3.731-5.34,7.182-7.987,10.013c-3.18,3.399-7.405,4.825-11.056,7.444
			L195.559,197.244z"/>
		<path fill="#B0646B" d="M215.309,235.244c-3.418,1.182-6.633,3.331-10,4.682c-4.305,1.727-7.255,0.913-11.487,0.306
			c-2.664-0.383-10.048-0.645-11.012-3.238c-1.355-3.645,3.835-6.79,6.499-7.443c5.041-1.236,8.504,2.177,13.014,0.445
			c5.659-2.173,7.424,0.33,11.736,3.249L215.309,235.244z"/>
		<path fill="#271B15" d="M172.809,153.827c1.215-5.025,0.158-11.254,0.668-16.425c0.553-5.6-0.321-10.771-1.677-16.077
			c-1.417-5.543-3.454-10.401-8.398-13.259c-4.994-2.887-11.05-3.36-15.935-0.01c-6.697,4.593-7.991,12.732-7.991,20.448
			c0,8.31,0.277,16.047,0.317,24.177c7.287-9.443,21.888-6.158,29.703-1.313L172.809,153.827z"/>
		<path fill="#E5CBBA" d="M172.809,153.827c1.215-4.696,0.158-10.517,0.668-15.349c0.553-5.233-0.321-10.065-1.677-15.023
			c-1.417-5.18-3.454-9.719-8.398-12.391c-4.994-2.698-11.05-3.14-15.935-0.009c-6.697,4.292-7.991,11.898-7.991,19.108
			c0,7.766,0.277,14.996,0.317,22.593c7.287-8.824,21.888-5.754,29.703-1.228L172.809,153.827z"/>
		<path fill="#271B15" d="M214.563,153.873c-3.483-6.886-2.079-17.972-0.996-25.464c1.146-7.938,3.959-16.102,12.215-18.847
			c7.706-2.563,15.151,2.786,18.093,9.725c3.184,7.512,4.078,18.169,3.508,26.811c-0.182,2.747-0.08,6.928-0.751,9.572
			c-5.513-5.818-13.517-6.467-16.444-6.623c-5.533-0.292-8.89-0.325-13.119,3.217L214.563,153.873z"/>
		<path fill="#E5CBBA" d="M214.559,153.994c-3.476-6.421-2.074-16.758-0.994-23.744c1.144-7.402,3.951-15.014,12.189-17.574
			c7.689-2.39,15.119,2.598,18.055,9.068c3.177,7.004,4.069,16.942,3.5,25c-0.181,2.561-0.08,6.46-0.749,8.925
			c-5.501-5.425-13.488-6.031-16.41-6.175c-5.521-0.273-8.871-0.303-13.091,3L214.559,153.994z"/>
		<path fill="#8C9CBF" d="M144.476,148.824c0-5.42,0.842-12.067,2.667-17.08c1.793-4.929,5.561-8.191,10.333-9.32
			c11.333-2.68,14.521,7.82,14.333,18.82c-0.06,3.47,0.006,7.234-1.168,11.097c-5.995-4.257-13.832-6.41-22.082-4.68L144.476,148.824
			z"/>
		<path fill="#8C9CBF" d="M215.309,153.583c0.003-7.04-2.532-15.987,1.194-22.806c5.821-10.653,16.007-6.312,19.796,1.027
			c3.05,5.907,1.593,13.011,1.666,18.964c-3.152-0.956-7.891-1.161-10.589-1.028c-3.796,0.188-6.897,0.328-9.943,2.467
			L215.309,153.583z"/>
		<path fill="#271C14" d="M151.309,147.22c0.436-4.346,0.848-10.945,5.626-12.934c5.277-2.197,10.749,1.352,11.041,7.041
			c0.18,3.506-0.167,5.597-1.028,8.816c-3.718-1.935-8.666-2.958-12.139-2.983L151.309,147.22z"/>
		<path fill="#271C14" d="M217.333,152.354c0.195-2.538-0.784-4.223-0.32-6.962c0.412-2.435,1.21-5.691,3.13-7.413
			c3.625-3.25,10.153-4.003,12.537,1.875c0.688,1.695,0.893,3.748,0.796,5.667c-0.087,1.723,0.02,2.818-0.559,4.417
			c-5.541-0.197-8-0.25-10.646,0.313C220.471,150.632,217.333,152.354,217.333,152.354z"/>
		<path fill="#996345" d="M252.809,75.494c24.375-7.375,30.685-19.216,42.083-27.833c0.417,0.021,2.863,0.455,3.25,0.75
			c0.213,4.211-2.497,9.643-4.666,13.167c-2.667,4.333-5.559,5.548-8.667,8.417c4.272-0.542,11.416-0.373,15.372-3.125
			c0.387,4.059-4.243,8.834-6.997,11.5c-1.735,1.68-4.038,3.961-6.375,5.125c-2.141,1.066-5.143,2.281-7,4.125
			c3.669-0.521,5.694,3.7,9.5,4.25c-6.379,7.263-18.634,3.806-26.648,6.98c0.247-3.718-2.71-4.854-4.436-8.04
			c-2.281-4.211-2.678-8.364-4.416-12.649L252.809,75.494z"/>
		<path fill="#996345" d="M143.975,65.827c-2.883,0.475-6.101,0.472-9.004,0.041c-2.571-0.382-5.764-0.608-7.95-1.917
			c-4.322-2.586-8.294-6.289-12.167-9.5c-3.664-3.037-8.133-5.013-11.004-8.962c-3.061-4.211-4.398-9.21-6.875-13.653
			c-2.193-3.934-2.863,1.532-3.037,3.482c-0.26,2.919,0.208,5.724,0.908,8.509c0.658,2.62,1.479,5.164,2.421,7.704
			c0.998,2.692,3.875,6.463,5.354,8.242c-2.979-0.11-5.287-1.118-7.063-1.779c-4.917-1.833-5.738-4.812-7.25-2.491
			c-2.393,3.673,0.933,7.982,5.203,13.783c2.111,2.867,5.595,4.682,9.004,5.833c1.691,0.571,3.52,0.561,5.297,0.708
			c2.198,0.183,4.492,0.834,6.604,0.824c-1.896,0.922-4.842,0.781-6.941,1.008c-2.373,0.257-5.98,0.173-8.416,0.417
			c-0.399,2.153,4.646,5.352,6.116,6.412c2.55,1.838,5.097,2.804,8.097,3.375c2.527,0.481,5.62,0.917,8.195,0.972
			c1.166,0.025,3.057,0.148,4.175-0.176c1.345-0.39,1.523-1.504,2.13-2.833c2.972-6.517,7.803-11.378,12.703-16.5L143.975,65.827z"/>
		<path fill="#573717" d="M143.159,103.794c-2.307-9.282,13.356-16.516,19.582-10.037c-1.466,1.762-6.794,0.375-9.142,1.179
			c-3.109,1.065-5.05,3.778-7.593,5.694L143.159,103.794z"/>
		<path fill="#573717" d="M224.633,94.356c0.201-0.869,0.365-1.516,1.219-1.942c0.691-0.346,1.688-0.543,2.484-0.465
			c0.845,0.083,1.56,0.548,2.307,0.864c0.691,0.292,1.402,0.602,2.068,0.954c2.801,1.478,6.066,3.033,7.835,5.794
			c0.771,1.203,1.639,2.664,1.798,4.075c0.046,0.405-0.004,0.846-0.003,1.254c0.001,0.444,0.055,1.152-0.504,0.764
			c-0.582-0.405-0.948-1.551-1.252-2.168c-0.686-1.39-1.61-2.47-2.958-3.273c-0.646-0.386-1.281-0.768-1.918-1.18
			c-0.665-0.432-1.159-1.15-1.784-1.579c-1.064-0.729-2.487-1.239-3.672-1.732c-1.341-0.558-2.561-0.713-4.014-0.713L224.633,94.356z
			"/>
		<path fill="#996345" d="M218.559,48.744c-5.718-14.174-20.357-28.747-37.006-26.494c-6.479,0.877-13.346,6.58-16.719,11.944
			c3.222,0.086,6.646,0.901,9.779,1.495c2.771,0.525,4.999,1.852,7.664,2.61c-2.854,2.617-7.358,2.913-10.157,5.993
			c-2.144,2.36-5.399,6.69-5.274,10.175c5.576-2.428,12.428-3.841,18.632-3.424c-5.824,5.211-10.71,10.055-11.613,18.2
			c-0.921,8.304,1.692,16.307,3.23,23.968c2.909-1.083,3.666-8.012,4.415-10.718c1.118-4.041,2.071-7.938,3.993-11.756
			c1.771-3.518,4.734-5.327,7.799-7.557c3.106-2.261,6.104-4.734,9.451-6.694c2.694-1.577,5.566-3.28,8.467-4.794
			c-1.914-1.912-4.124-3.942-6.836-4.454c3.821,0.472,7.091,1.377,10.675,2.505L218.559,48.744z"/>
		<path fill="#996345" d="M235.809,177.494c3.313-7.266,12.068-9.231,18.988-10.243c6.958-1.018,18.061-3.57,24.774,0.181
			c0.957,0.535,1.858,1.215,2.712,1.874c-1.177,1.128-9.39-1.692-11.475-2.006c-4.373-0.66-8.484,0.002-12.75,0.693
			c-4.246,0.688-7.733,2.325-11.751,3.751c-3.033,1.077-7.717,2.756-8.811,6.188c-0.092,0.289-0.138,0.468-0.188,0.812
			L235.809,177.494z"/>
		<path fill="#996345" d="M235.809,187.244c6.861-1.274,14.693-3.219,21.737-2.236c6.98,0.974,14.813,1.722,19.688,6.754
			c-2.051,0.001-6.912-2.268-13.176-3.51c-3.301-0.655-13.75-1.065-17.243-0.756c-3.206,0.283-6.551,1.25-9.757,1.249
			L235.809,187.244z"/>
		<path fill="#996345" d="M244.559,196.494c2.689,2.059,5.373,4.674,8.055,6.695c2.919,2.199,6.268,4.346,6.195,8.229
			c0.385-2.562-4.543-5.674-6.264-6.979c-2.304-1.748-4.976-5.054-7.736-5.945L244.559,196.494z"/>
		<path fill="#996345" d="M152.559,194.494c0.879-2.672-5.525-3.104-7.194-2.944c-2.726,0.261-6.954,1.812-9.306,3.195
			c-5.707,3.357-9.535,7.386-9.213,14.211c2.191,0.521,2.228-4.648,3.012-6.207c1.209-2.405,3.577-4.03,5.952-5.255
			c2.136-1.101,4.753-2.412,7-2.987c1.405-0.36,3.317-0.724,4.749-0.708c1.455,0.017,2.398,0.778,3.75,0.694H152.559z"/>
		<path fill="#996345" d="M152.309,185.244c-3.732-6.612-15.535-7-22.5-7c-8.711,0-14.645,2.219-22.056,6.194
			c-3.085,1.655-9.497,2.726-10.718,6.718c3.637-2.067,7.231-3.247,11.011-4.663c3.632-1.36,6.46-3.29,10.269-4.244
			c4.148-1.04,8.23-2.194,12.65-2.006c4.406,0.188,9.436,0.834,13.219,2.188c3.014,1.078,4.268,2.861,6.875,4.313L152.309,185.244z"
			/>
		<path fill="#996345" d="M158.059,180.494c0.443-3.878-4.078-6.299-6.944-8.068c-3.021-1.864-6.552-4.18-9.861-5.383
			c-7.6-2.761-17.582-2.238-25.5-2.993c-3.573-0.341-7.904-0.303-11.118,0.889c8.321,0.624,16.367,2.306,24.924,2.306
			c8.301,0,14.813,2.495,20.938,8.063c1.943,1.766,4.705,4.289,7.063,5.438L158.059,180.494z"/>
		<g>
			<path fill="#996345" d="M160.559,189.744c-2.411,0.475-4.016,2.239-2,4.298c1.584,1.619,4.652,0.816,4.25-1.798L160.559,189.744z"
				/>
			<path fill="#996345" d="M156.809,183.994c2.395-1.4,4.135-3.036,2.957-5.957c-3.017-0.594-4.384,1.367-4.207,4.207
				L156.809,183.994z"/>
			<path fill="#996345" d="M166.059,184.994c1.012-1.065,1.002-4.536-0.75-2.75L166.059,184.994z"/>
			<path fill="#996345" d="M148.726,193.077c0.546,0.822,1.574,1.856,2.587,1.667c0.912-0.171,2.044-1.316,1.393-2.316
				c-0.477-0.73-2.094-0.682-2.817-0.846c-0.721-0.164-1.939-0.737-2.495,0.079L148.726,193.077z"/>
			<path fill="#996345" d="M150.663,184.656c-0.326-0.979,0.033-1.981,1.019-2.231c1.346-0.342,1.016,0.799,1.502,1.629
				c0.44,0.752,1.48,0.976,1.484,1.935c0.004,1.071-1.17,1.111-2.005,1.167L150.663,184.656z"/>
			<path fill="#996345" d="M168.476,194.827c0.563,0.06,1.233-0.038,1.654-0.433c-0.372-1.1-0.777-1.762-1.821-2.075
				c-0.185,0.19-0.367,0.438-0.5,0.675L168.476,194.827z"/>
		</g>
		<g>
			<path fill="#996345" d="M217.976,196.577c1.015-0.251,2.098-0.385,3.083-0.727c1.103-0.383,1.634-0.778,0.979-1.852
				c-0.686-1.124-1.158-1.025-2.396-1.086c-0.982-0.048-2.097-0.157-2,1.165L217.976,196.577z"/>
			<path fill="#996345" d="M222.892,187.077c-0.108,1.078,0.565,1.745,1.667,1.5c0.847-0.188,1.422-0.935,1.583-1.75
				c0.149-0.756,0.199-2.071-0.168-2.748c-0.338-0.621-1.645-0.78-2.332-0.336L222.892,187.077z"/>
			<path fill="#996345" d="M232.081,195.182c0,1.061-0.035,2.545,1.502,1.771c0.799-0.403,1.255-1.297,1.165-2.188
				c-0.092-0.9-0.001-2.131-0.248-3.002c-0.27-0.953-1.413-1.158-2.002-0.331L232.081,195.182z"/>
			<path fill="#996345" d="M235.476,180.327c1.068-0.455,3.481-2.908,2.352-4.023c-0.619-0.61-1.891-0.158-2.458,0.25
				c-0.822,0.591-1.034,0.969-0.811,2.023L235.476,180.327z"/>
			<path fill="#996345" d="M243.809,190.91c-0.728-0.184-0.882-0.987-1.773-0.44c-0.693,0.426-0.695,1.095-0.727,1.857
				c-0.035,0.882-0.182,1.622,0.75,1.918c1.017,0.324,1.211-0.225,1.833-0.835L243.809,190.91z"/>
			<path fill="#996345" d="M233.254,184.097c2.083,0.207,1.393-4.421-1.084-1.917L233.254,184.097z"/>
		</g>
		<g>
			<path fill="none" d="M93.121,168.945c4.203,5.061,14.457,8.857,21.187,7.354c3.574-0.798,6.527-3.514,9.569-5.492
				c2.932-1.906,6.482-3.702,9.933-4.562c3.905-0.974,8.274-1.106,12.249-1.494c4.264-0.416,8.412-1.462,12.749-1.507
				c4.091-0.042,8.708-0.151,12.445,1.313c3.425,1.342,6.181,3.838,9.556,5.188l3.75,5.25c-0.208,2.15,6.484,2.744,8.25,2.987
				c3.505,0.482,7.273-0.33,10.562-1.426c6.239-2.08,11.637-5.764,17.177-8.874c8.207-4.608,16.34-3.795,24.25,0.5
				c7.189,3.905,13.564,8.157,21.762,9.368c5.183,0.766,8.089-0.87,12.5-3.306c4.758-2.628,9.495-5.567,14.249-8.318
				c6.402-3.705,12.265-8.774,19.308-11.047c-0.94-1.346-2.024-2.646-3.309-3.882c-5.433-5.232-12.021-9.329-19.212-11.647
				c-6.619-2.135-15.549,0.197-17.519-8.002c7.07-6.596,15.952-11.541,22.585-18.166c6.86-6.853,10.875-14.351,16.163-21.871
				c5.314-7.558,7.218-18.942,9.133-28.183c2.256-10.892-1.378-20.231-6.148-29.833c-4.457-8.968-9.284-12.691-19.019-14.281
				c-10.187-1.663-14.786,3.063-22.666,9.63c-6.225,5.187-13.822,11.659-21.001,15.667c-6.84,3.817-16.156,6.296-23.966,5.647
				c-14.431-1.198-14.884-19.977-25.816-26.126c-4.894-2.753-12.803-2.448-18.017-1.355c-4.077,0.855-12.06,3.889-14.814,7.188
				c-4.469,5.349,2.791,7.698,8.567,8.797c-5.952,6.249-11.168,12.003-20.435,9.551c-4.47-1.183-8.129-3.186-12.668-4.148
				c-4.734-1.005-8.772-2.56-12.849-5.184c-11.425-7.355-17.964-21.676-30.726-27.083c-15.48-6.559-27.24,4.989-33.108,18.213
				c-4.804,10.825-3.276,19.209-1.985,30.686c1.107,9.855,3.967,17.563,7.985,26.651c4.72,10.673,9.759,17.762,18.683,24.016
				c3.408,2.388,6.628,5.042,10.072,7.376c2.648,1.795,11.007,4.537,12.266,7.267c2.745,5.958-4.845,14.126-9.655,16.004
				c-7.271,2.839-15.396,4.752-21.866,8.834c-0.885,0.558-1.758,1.218-2.613,1.945C86.969,156.149,88.66,163.576,93.121,168.945z"/>
		</g>
	</g>
</svg>