<?xml version="1.0" encoding="utf-8"?>
<!-- Generator: Adobe Illustrator 16.0.0, SVG Export Plug-In . SVG Version: 6.00 Build 0)  -->
<!DOCTYPE svg PUBLIC "-//W3C//DTD SVG 1.1 Tiny//EN" "http://www.w3.org/Graphics/SVG/1.1/DTD/svg11-tiny.dtd">
<svg version="1.1" baseProfile="tiny" xmlns="http://www.w3.org/2000/svg" xmlns:xlink="http://www.w3.org/1999/xlink" x="0px"
	 y="0px" width="2425.335px" height="1080px" viewBox="0 0 2425.335 1080" xml:space="preserve">
	 <defs>
	 	<linearGradient id="treecolor">
	 		<stop stop-color="#808080"/>
		</linearGradient>

		<linearGradient id="leavecolor">
	 		<stop stop-color="#404040"/>
		</linearGradient>

		<linearGradient id="peoplecolor">
	 		<stop stop-color="#606060"/>
		</linearGradient>

		<linearGradient id="toycolor">
	 		<stop stop-color="#404040"/>
		</linearGradient>
	 </defs>
<g id="Background">
</g>
<g id="Tree">
	<path fill="url(#treecolor)" d="M1912.639,990.674c0,0,0.17-3.307,0.488-9.506c0.226-3.355,0.458-7.668,0.85-12.484c0.205-2.397,0.425-4.975,0.66-7.723
		c0.285-2.749,0.588-5.67,0.908-8.756c1.361-12.338,3.515-27.326,7.045-44.356c3.569-17.012,8.554-36.087,15.738-56.218
		c7.152-20.121,16.481-41.265,27.661-62.32c11.108-21.104,24.012-42.06,36.553-63.041c12.519-21.012,24.516-42.185,33.072-64.625
		c4.327-11.205,7.714-22.74,10.172-34.58c1.228-5.92,2.151-11.923,2.878-17.981c0.162-1.518,0.358-3.032,0.497-4.556l0.391-4.578
		c0.134-1.528,0.19-3.065,0.291-4.6l0.137-2.304c0.008,0.491,0.007-0.042,0.011-0.013l0.008-0.311l0.015-0.62l0.031-1.241
		l0.062-2.482c0.018-0.813,0.053-1.707,0.036-2.373l-0.015-4.306c-0.006-1.443-0.104-2.998-0.148-4.494
		c-0.036-1.512-0.134-3.021-0.253-4.527c-0.17-3.021-0.517-6.029-0.825-9.047c-0.411-3.004-0.779-6.019-1.324-9.012
		c-1.999-12.002-5.275-23.859-9.381-35.479c-8.272-23.251-20.098-45.375-32.492-66.495c-12.437-21.126-25.449-41.366-37.207-61.034
		c-5.883-9.837-11.484-19.514-16.653-29.03c-5.163-9.521-9.9-18.873-14.136-27.999c-8.495-18.245-14.882-35.615-19.333-51.305
		c-2.23-7.845-4.046-15.253-5.414-22.161c-0.372-1.719-0.696-3.412-0.983-5.075c-0.297-1.659-0.588-3.282-0.873-4.868
		c-0.467-3.19-1.008-6.211-1.347-9.106c-1.51-11.553-2.055-20.671-2.27-26.883c-0.142-3.104-0.117-5.488-0.164-7.091
		c-0.027-1.603-0.041-2.43-0.041-2.43s0.083,0.824,0.242,2.419c0.18,1.594,0.353,3.965,0.751,7.04
		c0.727,6.153,2.023,15.158,4.46,26.422c0.571,2.822,1.354,5.759,2.072,8.854c0.409,1.535,0.828,3.106,1.257,4.713
		c0.417,1.607,0.873,3.242,1.379,4.899c1.904,6.658,4.285,13.759,7.098,21.229c5.618,14.945,13.222,31.284,22.942,48.309
		c4.851,8.518,10.208,17.218,16.008,26.072c5.808,8.851,12.067,17.851,18.65,27.032c13.167,18.376,27.755,37.379,42.27,57.914
		c7.243,10.277,14.447,20.955,21.3,32.2c3.413,5.633,6.752,11.393,9.943,17.319c3.174,5.938,6.211,12.027,9.061,18.279
		c5.643,12.527,10.529,25.728,14.034,39.512c0.921,3.433,1.659,6.923,2.429,10.413c0.668,3.511,1.363,7.027,1.871,10.582
		c0.288,1.772,0.55,3.55,0.749,5.336c0.209,1.8,0.46,3.535,0.629,5.395l0.482,5.603c0.091,0.984,0.121,1.745,0.174,2.586
		l0.145,2.479l0.072,1.239l0.036,0.62l0.018,0.31c0.007,0.236,0.01-0.091,0.021,0.607l0.071,2.657
		c0.037,1.772,0.115,3.544,0.115,5.32l-0.002,5.333c-0.011,1.779-0.084,3.56-0.125,5.341c-0.241,7.121-0.729,14.259-1.578,21.356
		c-1.693,14.188-4.564,28.24-8.495,41.74c-3.892,13.519-8.71,26.519-13.941,38.887c-5.219,12.393-10.817,24.183-16.326,35.517
		c-5.512,11.333-10.949,22.218-16.009,32.776c-5.078,10.562-9.79,20.798-14.021,30.781c-8.507,19.945-14.969,38.915-19.641,56.686
		c-4.683,17.759-7.521,34.307-9.334,49.082c-1.77,14.786-2.53,27.793-2.796,38.55c-0.05,2.689-0.097,5.236-0.142,7.633
		c0,2.401,0,4.652,0,6.746c0.017,4.168,0.13,7.506,0.169,10.349c0.207,6.204,0.317,9.513,0.317,9.513L1912.639,990.674z"/>
	<path fill="url(#treecolor)" d="M1962.762,796.605c0,0,0.106-0.159,0.317-0.473c0.175-0.249,0.436-0.622,0.78-1.113c0.649-0.908,1.568-2.156,2.763-3.705
		c2.39-3.097,5.881-7.4,10.537-12.561c4.657-5.157,10.481-11.173,17.545-17.624c7.062-6.447,15.368-13.332,24.96-20.123
		c9.588-6.787,20.471-13.482,32.58-19.41c12.096-5.932,25.418-11.093,39.602-14.836c14.174-3.754,29.197-6.06,44.417-6.6
		c7.608-0.275,15.263-0.12,22.878,0.453c1.906,0.111,3.805,0.322,5.703,0.506c1.901,0.168,3.793,0.411,5.683,0.658l2.835,0.363
		l2.82,0.441l5.386,0.868c3.525,0.571,7.111,1.19,10.584,1.723c3.437,0.497,6.87,0.993,10.298,1.489
		c3.468,0.426,6.929,0.852,10.38,1.276c3.457,0.345,6.903,0.688,10.336,1.031c13.738,1.205,27.295,1.695,40.374,1.298
		c6.549-0.145,12.948-0.66,19.213-1.268c6.237-0.724,12.345-1.552,18.202-2.759c5.888-1.11,11.519-2.59,16.929-4.179
		c2.681-0.856,5.344-1.657,7.886-2.625c2.58-0.885,5.044-1.913,7.476-2.903c9.676-4.059,18.098-8.887,25.242-13.689
		c7.122-4.846,12.938-9.7,17.57-13.877c4.646-4.173,8.047-7.737,10.401-10.133c2.297-2.454,3.521-3.763,3.521-3.763
		s-1.077,1.436-3.097,4.127c-2.085,2.64-5.093,6.57-9.307,11.274c-4.201,4.708-9.547,10.264-16.304,16.026
		c-6.778,5.716-14.956,11.677-24.613,17.025c-2.425,1.312-4.899,2.672-7.499,3.895c-2.565,1.308-5.258,2.453-7.988,3.663
		c-5.501,2.292-11.282,4.5-17.351,6.346c-6.048,1.945-12.371,3.521-18.87,5c-6.511,1.358-13.208,2.634-20.053,3.535
		c-13.688,1.916-27.933,2.944-42.385,3.249c-3.612,0.033-7.239,0.065-10.877,0.099c-3.634-0.05-7.278-0.101-10.93-0.15
		c-3.682-0.13-7.37-0.26-11.063-0.391c-3.65-0.16-7.181-0.382-10.778-0.569l-2.773-0.153l-2.525-0.116l-2.521-0.116l-2.52-0.043
		c-1.678-0.034-3.353-0.066-5.023-0.027c-1.672,0.024-3.339,0.018-5.002,0.107c-6.651,0.231-13.228,0.825-19.67,1.774
		c-12.887,1.89-25.218,5.222-36.632,9.638c-11.421,4.408-21.928,9.882-31.366,15.88c-9.446,5.994-17.821,12.521-25.127,19.009
		c-14.62,13.004-24.947,25.78-31.491,34.86c-3.273,4.552-5.606,8.202-7.065,10.608c-0.729,1.203-1.239,2.097-1.538,2.642
		c-0.147,0.269-0.249,0.462-0.284,0.539c0.003,0.008,0.013-0.001,0.005,0.017c-0.026,0.049-0.04,0.074-0.04,0.074L1962.762,796.605z
		"/>
	<path fill="url(#treecolor)" d="M1998.652,739.716c0,0-0.006-0.024-0.019-0.072c0.003,0.001,0.014,0.021,0.018,0.011c-0.029-0.124-0.073-0.309-0.131-0.552
		c-0.142-0.551-0.395-1.462-0.781-2.696c-0.773-2.466-2.074-6.231-4.107-10.941c-2.045-4.701-4.811-10.357-8.577-16.474
		c-3.763-6.113-8.526-12.688-14.547-19.057c-6.02-6.357-13.318-12.482-21.996-17.558c-8.671-5.063-18.731-9.052-29.84-11.322
		c-5.547-1.148-11.338-1.913-17.299-2.218c-2.98-0.146-5.999-0.218-9.049-0.17c-1.525,0.051-3.058,0.033-4.597,0.141l-2.313,0.123
		c-0.411,0.025-0.717,0.03-1.216,0.072l-1.234,0.106c-13.315,1.191-27.023,1.966-40.695,2.12
		c-13.687,0.149-27.417-0.341-40.881-1.744c-13.458-1.399-26.657-3.714-39.127-7.224c-12.469-3.475-24.197-8.181-34.563-14.003
		c-10.387-5.787-19.344-12.724-26.624-20.008c-7.287-7.298-12.918-14.896-17.229-21.962c-4.328-7.07-7.367-13.606-9.617-19.06
		c-2.251-5.458-3.697-9.855-4.637-12.862c-0.489-1.496-0.802-2.664-1.04-3.441c-0.229-0.779-0.349-1.182-0.349-1.182
		s0.149,0.392,0.44,1.151c0.298,0.757,0.7,1.893,1.305,3.345c1.169,2.916,2.95,7.173,5.597,12.387
		c2.645,5.209,6.141,11.396,10.89,17.938c4.73,6.542,10.739,13.426,18.217,19.822c7.478,6.387,16.428,12.247,26.605,16.911
		c10.159,4.699,21.493,8.246,33.49,10.594c11.995,2.381,24.646,3.592,37.538,3.915c12.897,0.327,26.045-0.232,39.154-1.408
		c13.129-1.184,26.155-2.947,39.036-5.128c1.688-0.286,3.373-0.572,5.054-0.857c1.723-0.317,3.47-0.509,5.202-0.763
		c3.476-0.457,6.966-0.781,10.458-1.012c6.984-0.447,13.988-0.354,20.895,0.257c6.904,0.621,13.72,1.742,20.29,3.436
		c6.568,1.693,12.911,3.87,18.889,6.486c5.972,2.63,11.606,5.636,16.81,8.928c5.197,3.299,10.002,6.831,14.372,10.488
		c8.749,7.32,15.822,15.025,21.518,22.238c5.701,7.223,10.041,13.97,13.372,19.698c3.319,5.741,5.619,10.482,7.142,13.868
		c0.76,1.694,1.323,3.053,1.714,4.037c0.201,0.526,0.354,0.926,0.457,1.193c0.125,0.352,0.188,0.53,0.188,0.53L1998.652,739.716z"/>
	<path fill="url(#treecolor)" d="M2033.73,494.616c0,0,0.151-0.417,0.446-1.226c0.277-0.734,0.68-1.77,1.215-3.081c1.071-2.622,2.675-6.347,4.884-10.953
		c4.419-9.2,11.26-21.969,21.158-36.186c9.882-14.188,22.904-29.843,39.317-44.058c8.192-7.102,17.214-13.821,26.922-19.774
		c9.701-5.958,20.084-11.141,30.836-15.294l4.049-1.505c1.354-0.49,2.721-0.939,4.078-1.409c2.679-0.885,5.259-1.622,7.879-2.439
		c5.205-1.594,10.385-3.188,15.485-4.81c10.202-3.244,20.11-6.59,29.382-10.382c9.248-3.819,17.868-8.105,25.45-13.147
		c3.8-2.505,7.388-5.131,10.686-7.907c3.316-2.753,6.405-5.583,9.237-8.456c5.693-5.719,10.496-11.451,14.559-16.696
		c4.05-5.257,7.419-9.994,10.107-13.956c2.69-3.961,4.757-7.115,6.132-9.285c1.386-2.166,2.125-3.321,2.125-3.321
		s-0.613,1.227-1.763,3.527c-1.14,2.307-2.862,5.664-5.129,9.907c-2.267,4.244-5.133,9.342-8.656,15.082
		c-3.537,5.728-7.792,12.072-13.049,18.611c-2.612,3.281-5.518,6.576-8.697,9.843c-3.161,3.289-6.667,6.48-10.43,9.579
		c-7.514,6.236-16.245,11.798-25.521,16.833c-9.296,5.007-19.124,9.525-29.095,13.904c-4.988,2.189-10.013,4.34-15.058,6.492
		c-2.503,1.063-5.01,2.128-7.52,3.194c-1.198,0.509-2.404,0.995-3.594,1.52l-3.557,1.602c-9.427,4.393-18.403,9.661-26.712,15.568
		c-8.313,5.904-15.957,12.442-22.849,19.281c-13.804,13.684-24.543,28.512-32.554,41.847c-8.024,13.356-13.379,25.223-16.703,33.543
		c-1.662,4.165-2.817,7.452-3.543,9.64c-0.363,1.095-0.617,1.915-0.773,2.435c-0.128,0.449-0.194,0.681-0.194,0.681L2033.73,494.616
		z"/>
	<path fill="url(#treecolor)" d="M2117.366,706.742c0,0,0.826-0.783,2.377-2.252c1.568-1.521,3.868-3.75,6.796-6.588
		c5.833-5.728,14.123-14.006,23.755-24.208c9.608-10.208,20.633-22.324,31.408-35.896c5.353-6.789,10.67-13.959,15.263-21.449
		c2.272-3.736,4.392-7.574,5.956-11.353c0.388-0.94,0.749-1.878,1.053-2.795l1.072-3.384c0.336-1.104,0.75-2.319,1.153-3.515
		c0.398-1.199,0.805-2.389,1.24-3.543c3.374-9.312,7.628-18.464,13.203-26.736c5.508-8.295,12.568-15.518,20.312-20.897
		c7.74-5.438,15.925-9.026,23.352-12.31c7.448-3.268,14.221-6.465,19.652-10.626c5.467-4.098,9.471-9.091,12.3-13.977
		c1.422-2.441,2.585-4.843,3.521-7.129c0.968-2.274,1.7-4.435,2.346-6.394c1.253-3.934,1.942-7.123,2.445-9.287
		c0.439-2.181,0.675-3.343,0.675-3.343s-0.126,1.181-0.362,3.396c-0.3,2.206-0.691,5.459-1.584,9.548
		c-0.468,2.038-1.005,4.298-1.776,6.715c-0.74,2.426-1.704,5.013-2.95,7.699c-2.466,5.361-6.259,11.154-11.775,16.156
		c-5.465,5.06-12.425,9.147-19.559,13.105c-7.139,3.975-14.459,8.089-20.837,13.54c-6.396,5.413-11.812,12.111-15.955,19.81
		c-4.188,7.667-7.241,16.182-9.522,24.961c-0.302,1.1-0.562,2.187-0.813,3.268c-0.256,1.082-0.515,2.142-0.76,3.334l-0.749,3.481
		c-0.297,1.373-0.647,2.691-1.025,3.984c-1.524,5.158-3.522,9.82-5.638,14.319c-4.271,8.956-9.121,17.14-13.999,24.892
		c-9.811,15.447-19.816,29.067-28.57,40.59c-8.771,11.506-16.348,20.859-21.719,27.378c-2.714,3.25-4.847,5.805-6.301,7.546
		c-1.505,1.762-2.308,2.701-2.308,2.701L2117.366,706.742z"/>
	<path fill="url(#treecolor)" d="M1947.94,669.933c0,0-0.034-0.02-0.101-0.059c0.003,0.004,0.166,0.069,0.007-0.011c-0.088-0.051-0.216-0.121-0.424-0.217
		c-0.179-0.094-0.442-0.202-0.734-0.329c-1.179-0.505-3.219-1.218-6.056-1.83c-2.834-0.616-6.471-1.133-10.788-1.302
		c-4.315-0.172-9.31,0.007-14.799,0.675c-10.985,1.301-23.896,4.673-37.338,9.823c-6.739,2.532-13.567,5.631-20.441,8.953
		c-1.712,0.852-3.431,1.706-5.154,2.563c-1.704,0.903-3.413,1.809-5.126,2.717l-2.573,1.366l-2.543,1.436l-5.098,2.879l-5.035,3.005
		l-2.515,1.504l-1.354,0.807l-1.282,0.741c-1.634,0.983-3.593,1.989-5.454,2.969c-1.879,0.887-3.722,1.798-5.635,2.559
		c-7.572,3.208-15.492,5.13-23.15,6.065c-7.678,0.882-15.087,0.801-21.99,0.244c-6.911-0.55-13.338-1.521-19.227-2.518
		c-5.89-1-11.245-2.036-15.992-2.933c-4.746-0.903-8.884-1.668-12.298-2.27s-6.103-1.042-7.938-1.327s-2.815-0.437-2.815-0.437
		s0.989,0.067,2.844,0.192c1.854,0.127,4.574,0.335,8.033,0.643c3.458,0.306,7.656,0.714,12.464,1.207
		c4.808,0.485,10.228,1.058,16.129,1.543c5.899,0.484,12.286,0.889,18.986,0.845c6.696-0.035,13.705-0.58,20.711-2.003
		c6.989-1.479,13.963-3.831,20.502-7.295c1.652-0.823,3.244-1.797,4.848-2.725c1.531-0.994,3.019-1.898,4.676-3.097
		c3.24-2.271,6.493-4.551,9.746-6.831l5.023-3.342l2.512-1.669l2.552-1.604c1.703-1.067,3.402-2.133,5.098-3.195
		c1.725-1.021,3.444-2.038,5.157-3.052c6.901-3.981,13.82-7.749,20.782-10.965c13.874-6.507,27.672-11.271,40.177-13.699
		c6.244-1.227,12.146-1.891,17.484-2.071c5.339-0.187,10.111,0.111,14.105,0.673c3.998,0.558,7.209,1.375,9.516,2.146
		c0.579,0.194,1.086,0.365,1.559,0.552c0.449,0.167,0.865,0.339,1.213,0.489c0.28,0.113,0.765,0.349,0.987,0.459
		c0.149,0.073,0.226,0.11,0.226,0.11L1947.94,669.933z"/>
	<path fill="url(#treecolor)" d="M1965.425,675.049c0,0-0.39-0.127-1.146-0.373c-0.705-0.236-1.715-0.586-3.004-1.057c-2.577-0.942-6.271-2.369-10.86-4.358
		c-9.169-3.982-21.966-10.22-36.302-19.409c-14.309-9.174-30.172-21.377-44.74-36.954c-7.277-7.774-14.21-16.377-20.418-25.682
		c-6.211-9.299-11.689-19.299-16.176-29.708l-1.631-3.924c-0.533-1.311-1.025-2.639-1.539-3.955
		c-0.982-2.613-1.852-5.169-2.782-7.744c-1.831-5.129-3.662-10.234-5.519-15.266c-3.717-10.064-7.533-19.856-11.785-29.017
		c-4.278-9.137-9.017-17.646-14.467-25.067c-2.709-3.719-5.528-7.216-8.479-10.41c-2.93-3.213-5.922-6.189-8.939-8.901
		c-6.011-5.455-11.974-10.002-17.408-13.826c-5.446-3.812-10.333-6.962-14.413-9.467c-4.08-2.507-7.323-4.426-9.553-5.7
		c-2.225-1.285-3.411-1.97-3.411-1.97s1.232,0.6,3.542,1.725c2.316,1.115,5.688,2.801,9.948,5.021
		c4.261,2.218,9.379,5.027,15.137,8.478c5.747,3.466,12.107,7.636,18.657,12.784c3.285,2.558,6.583,5.403,9.854,8.516
		c3.29,3.093,6.485,6.524,9.589,10.208c6.245,7.353,11.836,15.913,16.925,25.045c5.063,9.154,9.658,18.871,14.126,28.759
		c2.233,4.946,4.432,9.938,6.632,14.95c1.091,2.493,2.184,4.99,3.278,7.49c0.536,1.21,1.05,2.43,1.604,3.632l1.687,3.593
		c4.621,9.522,10.13,18.582,16.281,26.954c6.149,8.377,12.935,16.064,20.014,22.978c14.164,13.848,29.436,24.545,43.141,32.488
		c13.727,7.955,25.896,13.219,34.457,16.488c4.286,1.634,7.679,2.77,9.961,3.489c2.303,0.726,3.41,1.009,3.343,0.99
		L1965.425,675.049z"/>
	<path fill="url(#treecolor)" d="M2041.606,649.325c0,0-0.046-0.155-0.135-0.456c-0.09-0.291-0.223-0.724-0.396-1.287c-0.388-1.193-0.972-2.978-1.81-5.262
		c-1.646-4.567-4.258-11.108-7.824-18.813c-1.799-3.846-3.818-7.992-6.094-12.315s-4.771-8.843-7.514-13.434
		c-0.686-1.147-1.378-2.306-2.075-3.472c-0.722-1.151-1.449-2.311-2.182-3.477c-1.441-2.353-3.016-4.653-4.558-7.012
		c-1.568-2.338-3.208-4.656-4.841-6.997c-1.698-2.289-3.346-4.642-5.104-6.905c-1.762-2.26-3.476-4.569-5.31-6.763
		c-1.804-2.222-3.601-4.439-5.472-6.562c-0.926-1.073-1.848-2.142-2.764-3.205c-0.945-1.038-1.886-2.071-2.82-3.099
		c-0.938-1.026-1.87-2.047-2.796-3.061c-0.954-0.986-1.901-1.965-2.841-2.936c-0.942-0.972-1.877-1.936-2.802-2.89
		c-0.938-0.943-1.894-1.846-2.826-2.757c-1.874-1.811-3.685-3.616-5.546-5.261c-1.848-1.66-3.605-3.331-5.386-4.852
		c-1.784-1.52-3.509-2.988-5.164-4.397c-1.659-1.409-3.321-2.666-4.867-3.914c-1.56-1.227-3.013-2.436-4.452-3.464
		c-2.86-2.085-5.307-3.992-7.417-5.417c-4.208-2.886-6.612-4.535-6.612-4.535s2.57,1.384,7.068,3.807
		c2.263,1.198,4.9,2.833,7.994,4.617c1.557,0.877,3.137,1.927,4.835,2.991c1.684,1.084,3.495,2.171,5.314,3.408
		c1.819,1.24,3.715,2.532,5.677,3.87c1.963,1.341,3.913,2.833,5.965,4.313c2.065,1.466,4.09,3.091,6.188,4.723
		c1.044,0.822,2.116,1.637,3.171,2.492c1.044,0.868,2.098,1.744,3.16,2.627c1.063,0.886,2.136,1.779,3.216,2.679
		c1.054,0.931,2.114,1.867,3.183,2.811c1.066,0.946,2.141,1.898,3.22,2.855c1.053,0.984,2.112,1.975,3.175,2.969
		c2.15,1.968,4.232,4.037,6.327,6.117c2.126,2.052,4.137,4.226,6.201,6.359c2.062,2.137,4.015,4.369,6.022,6.547
		c1.942,2.229,3.895,4.444,5.775,6.688c1.856,2.263,3.746,4.478,5.502,6.751c0.89,1.13,1.774,2.252,2.652,3.366
		c0.854,1.134,1.703,2.259,2.545,3.375c3.365,4.469,6.478,8.901,9.346,13.171c2.869,4.27,5.461,8.396,7.795,12.251
		c4.642,7.729,8.184,14.407,10.53,19.221c1.184,2.396,2.064,4.342,2.67,5.692c0.308,0.715,0.543,1.263,0.702,1.632
		c0.15,0.363,0.229,0.55,0.229,0.55L2041.606,649.325z"/>
	<path fill="url(#treecolor)" d="M2143.511,371.333c0,0,0.021-0.102,0.062-0.299c0.043-0.248,0.11-0.663,0.172-1.244c0.131-1.153,0.261-2.952,0.195-5.273
		c-0.058-2.319-0.315-5.166-1.02-8.36c-0.675-3.202-1.852-6.729-3.663-10.365c-1.823-3.626-4.373-7.308-7.662-10.783
		c-3.325-3.438-7.4-6.64-12.072-9.393c-1.153-0.711-2.395-1.31-3.606-1.984c-1.237-0.629-2.521-1.2-3.799-1.813
		c-2.563-1.08-5.413-2.05-8.266-3.099c-5.734-2.075-11.606-4.396-17.243-7.219c-5.638-2.82-11.067-6.108-16.007-9.88
		c-4.952-3.753-9.413-7.972-13.256-12.433c-3.847-4.46-7.095-9.144-9.75-13.799c-2.665-4.653-4.767-9.259-6.433-13.599
		c-1.682-4.335-2.907-8.413-3.867-12.048c-0.962-3.637-1.622-6.846-2.109-9.494c-0.251-1.323-0.451-2.508-0.607-3.542
		c-0.17-1.031-0.304-1.91-0.395-2.625c-0.196-1.427-0.301-2.188-0.301-2.188s0.15,0.753,0.432,2.166
		c0.134,0.707,0.319,1.575,0.55,2.593c0.218,1.02,0.489,2.188,0.818,3.489c0.643,2.604,1.49,5.751,2.658,9.292
		c1.166,3.54,2.617,7.489,4.523,11.642c1.891,4.158,4.215,8.53,7.067,12.881c2.843,4.355,6.241,8.668,10.17,12.706
		c3.927,4.039,8.398,7.782,13.295,11.049c4.885,3.285,10.192,6.078,15.694,8.429c5.509,2.355,11.209,4.226,16.96,5.924
		c2.882,0.865,5.768,1.663,8.746,2.687c1.462,0.518,2.931,0.997,4.369,1.547c1.42,0.599,2.861,1.125,4.241,1.783
		c5.561,2.53,10.709,5.728,15.148,9.446c4.405,3.754,8.089,8.001,10.883,12.344c2.788,4.351,4.779,8.724,6.089,12.737
		c1.341,4.012,2.069,7.647,2.472,10.679c0.41,3.034,0.502,5.47,0.496,7.19c0.002,0.857-0.028,1.542-0.056,2.035
		c-0.042,0.542-0.064,0.822-0.064,0.822L2143.511,371.333z"/>
	<path fill="url(#treecolor)" d="M1986.53,419.703c0,0-2.913-0.91-8.011-2.501c-2.526-0.756-5.687-1.84-9.295-3.069c-1.796-0.625-3.736-1.236-5.723-1.979
		c-1.989-0.736-4.08-1.51-6.263-2.317c-2.188-0.782-4.437-1.695-6.764-2.633c-2.322-0.954-4.75-1.854-7.187-2.949
		c-2.444-1.071-4.967-2.133-7.518-3.288c-2.534-1.19-5.124-2.405-7.757-3.641c-2.596-1.313-5.235-2.647-7.907-3.998
		c-2.628-1.438-5.318-2.825-7.966-4.346c-2.64-1.537-5.328-3.024-7.941-4.673c-1.313-0.809-2.629-1.62-3.946-2.431l-3.89-2.534
		c-5.169-3.403-10.223-6.967-15.048-10.645c-4.839-3.658-9.484-7.387-13.901-11.045c-8.85-7.289-16.887-14.245-24.623-18.881
		c-3.862-2.313-7.651-3.982-11.145-5.074c-3.484-1.163-6.687-1.56-9.316-1.878c-1.327-0.064-2.511-0.122-3.541-0.172
		c-1.033-0.057-1.911,0.038-2.625,0.041c-1.43,0.047-2.192,0.072-2.192,0.072s0.759-0.083,2.181-0.24
		c0.713-0.058,1.589-0.221,2.629-0.244c1.042-0.03,2.239-0.063,3.581-0.102c2.677,0.117,5.977,0.27,9.646,1.186
		c3.676,0.845,7.738,2.274,11.905,4.354c8.35,4.173,17.046,10.616,26.377,17.163c4.663,3.293,9.511,6.605,14.518,9.818
		c4.994,3.232,10.175,6.317,15.439,9.231l3.956,2.164c1.335,0.687,2.669,1.373,4.001,2.058c2.645,1.399,5.36,2.637,8.019,3.924
		c2.666,1.271,5.373,2.411,8.008,3.601c2.676,1.104,5.319,2.195,7.92,3.268c2.63,0.996,5.217,1.976,7.749,2.934
		c2.544,0.924,5.061,1.761,7.492,2.612c2.421,0.874,4.843,1.563,7.148,2.31c2.313,0.731,4.543,1.445,6.719,2.037
		c2.164,0.617,4.238,1.208,6.211,1.771c1.971,0.569,3.847,1.002,5.604,1.467c3.513,0.903,6.555,1.698,9.196,2.273
		c5.205,1.195,8.179,1.879,8.179,1.879L1986.53,419.703z"/>
	<path fill="url(#treecolor)" d="M2202.984,606.058c0,0,0.28-0.618,0.807-1.778c0.529-1.188,1.302-2.951,2.259-5.218c1.913-4.532,4.565-11.078,7.46-19.047
		c2.891-7.969,6.046-17.36,8.888-27.567c2.84-10.202,5.412-21.224,7.016-32.373c0.798-5.572,1.395-11.174,1.606-16.694
		c0.22-5.518,0.114-10.957-0.433-16.169c-0.571-5.204-1.584-10.177-3.087-14.72c-1.518-4.535-3.578-8.602-5.986-12.019
		c-2.403-3.423-5.171-6.165-7.902-8.239c-0.659-0.554-1.363-0.998-2.031-1.446c-0.666-0.452-1.309-0.89-1.972-1.236
		c-0.652-0.367-1.277-0.719-1.875-1.056c-0.623-0.292-1.216-0.57-1.779-0.833c-1.115-0.564-2.176-0.911-3.078-1.271
		c-0.9-0.37-1.694-0.602-2.337-0.794c-1.286-0.392-1.972-0.602-1.972-0.602s0.701,0.153,2.016,0.439
		c0.659,0.14,1.475,0.308,2.407,0.604c0.935,0.286,2.036,0.55,3.208,1.026c0.593,0.221,1.219,0.454,1.874,0.699
		c0.637,0.292,1.303,0.599,1.997,0.918c0.707,0.3,1.401,0.692,2.123,1.1c0.724,0.404,1.487,0.805,2.214,1.319
		c2.997,1.911,6.13,4.536,8.964,7.94c2.836,3.395,5.379,7.536,7.379,12.207c1.986,4.676,3.484,9.842,4.532,15.262
		c1.022,5.425,1.598,11.102,1.839,16.868c0.25,5.77,0.107,11.626-0.245,17.46c-0.716,11.673-2.437,23.23-4.495,33.954
		c-2.062,10.729-4.508,20.622-6.807,29.049c-2.302,8.428-4.478,15.383-6.077,20.248c-0.8,2.433-1.456,4.343-1.916,5.653
		c-0.478,1.333-0.732,2.044-0.732,2.044L2202.984,606.058z"/>
	<path fill="url(#treecolor)" d="M2150.516,363.116c0,0,0.326-0.552,0.938-1.585c0.557-0.972,1.641-2.699,2.942-4.723c1.29-1.953,2.872-4.28,4.709-6.871
		c1.839-2.554,3.914-5.436,6.178-8.579c2.261-3.113,4.694-6.461,7.218-10.02c2.537-3.554,5.122-7.331,7.749-11.271
		c2.59-3.955,5.205-8.077,7.697-12.351c2.46-4.286,4.909-8.682,7.053-13.212c0.565-1.122,1.092-2.258,1.594-3.404
		c0.508-1.144,1.038-2.279,1.526-3.428c0.925-2.313,1.922-4.602,2.716-6.933c1.738-4.624,3.049-9.301,4.162-13.875
		c0.463-2.301,1.031-4.558,1.326-6.803c0.176-1.122,0.35-2.23,0.522-3.327c0.11-1.104,0.221-2.193,0.329-3.269
		c0.445-4.307,0.492-8.417,0.37-12.21c-0.01-0.476-0.021-0.946-0.03-1.411c-0.039-0.463-0.077-0.92-0.115-1.373
		c-0.077-0.907-0.151-1.792-0.225-2.656c-0.098-1.737-0.401-3.356-0.621-4.891c-0.377-3.085-1.102-5.7-1.542-7.895
		c-0.523-2.172-1.083-3.842-1.396-5.002c-0.334-1.155-0.513-1.771-0.513-1.771s0.233,0.596,0.672,1.714
		c0.416,1.126,1.131,2.748,1.854,4.877c0.643,2.152,1.614,4.728,2.281,7.804c0.364,1.53,0.822,3.151,1.084,4.9
		c0.155,0.872,0.313,1.767,0.477,2.682c0.081,0.459,0.163,0.923,0.246,1.392c0.054,0.473,0.107,0.951,0.163,1.434
		c0.48,3.861,0.819,8.09,0.769,12.572c-0.011,1.122-0.021,2.26-0.031,3.411c-0.074,1.149-0.148,2.312-0.224,3.488
		c-0.095,2.364-0.463,4.743-0.729,7.187c-0.718,4.849-1.642,9.859-3.006,14.834c-0.609,2.513-1.42,4.979-2.168,7.485
		c-0.399,1.243-0.841,2.471-1.261,3.712c-0.415,1.243-0.855,2.478-1.334,3.695c-1.802,4.926-3.919,9.711-6.064,14.391
		c-2.176,4.665-4.482,9.163-6.774,13.478c-2.324,4.289-4.622,8.408-6.864,12.247c-2.231,3.85-4.376,7.452-6.341,10.755
		c-1.938,3.288-3.716,6.302-5.29,8.974c-1.541,2.659-2.816,4.964-3.83,6.854c-0.954,1.848-1.641,3.166-2.177,4.333
		c-0.516,1.085-0.79,1.665-0.79,1.665L2150.516,363.116z"/>
</g>
<g id="Leaves">
	<path fill="url(#leavecolor)" d="M1762.226,495.88c-12.591,16.606-16.109,39.471-23.784,51.194c-7.677,11.721-42.983,27.896-52.633,30.951
		c11.524-27.902,5.234-40.486,18.829-57.656C1718.234,503.199,1762.226,495.88,1762.226,495.88z"/>
	<path fill="url(#leavecolor)" d="M1680.801,485.986c0.899,15.54,8.356,30.071,9.538,40.439c1.183,10.368-8.308,36.954-11.439,43.453
		c-5.847-21.323-13.651-25.234-14.325-41.589C1663.904,511.934,1680.801,485.986,1680.801,485.986z"/>
	<path fill="url(#leavecolor)" d="M1720.574,449.494c-6.125,12.453-19.116,21.251-23.843,29.308c-4.722,8.059-3.095,34.108-1.803,40.827
		c13.466-15.104,23.326-14.975,29.471-28.199C1730.544,478.205,1720.574,449.494,1720.574,449.494z"/>
	<path fill="url(#leavecolor)" d="M2421.464,569.32c-8.067,19.213-5.793,42.234-10.312,55.502c-4.522,13.258-34.698,37.703-43.286,43.06
		c4.227-29.89-4.996-40.516,3.905-60.526S2421.464,569.32,2421.464,569.32z"/>
	<path fill="url(#leavecolor)" d="M2340.136,579.977c4.736,14.827,15.57,27.051,19.293,36.801c3.722,9.748,1.139,37.858-0.281,44.934
		c-10.963-19.201-19.495-21.05-24.212-36.724C2330.219,609.309,2340.136,579.977,2340.136,579.977z"/>
	<path fill="url(#leavecolor)" d="M2369.587,534.744c-2.835,13.586-13.23,25.334-15.808,34.315c-2.568,8.979,5.48,33.807,8.402,39.993
		c9.29-17.979,18.873-20.303,21.537-34.641C2386.385,560.075,2369.587,534.744,2369.587,534.744z"/>
	<path fill="url(#leavecolor)" d="M2003.25,149.476c-13.166,16.152-17.486,38.879-25.568,50.327c-8.081,11.445-43.936,26.37-53.686,29.084
		c12.497-27.481,6.65-40.278,20.842-56.959C1959.029,155.243,2003.25,149.476,2003.25,149.476z"/>
	<path fill="url(#leavecolor)" d="M1922.224,136.728c0.353,15.562,7.297,30.347,8.113,40.75c0.816,10.402-9.602,36.639-12.961,43.024
		c-5.095-21.515-12.757-25.699-12.855-42.066C1904.426,162.066,1922.224,136.728,1922.224,136.728z"/>
	<path fill="url(#leavecolor)" d="M1963.253,101.656c-6.56,12.229-19.85,20.566-24.859,28.451c-5,7.89-4.288,33.978-3.233,40.74
		c13.989-14.622,23.839-14.147,30.442-27.147C1972.208,130.7,1963.253,101.656,1963.253,101.656z"/>
	<path fill="url(#leavecolor)" d="M1813.374,227.524c9.189,17.242,27.271,29.217,34.237,40.355c6.962,11.138,6.864,47.546,5.676,56.96
		c-19.226-20.77-32.409-20.356-41.686-38.673C1802.324,267.848,1813.374,227.524,1813.374,227.524z"/>
	<path fill="url(#leavecolor)" d="M1769.042,290.22c14.487,5.693,30.807,5.011,40.717,8.28c9.909,3.271,30.073,23.025,34.663,28.593
		c-21.812-3.624-28.633,1.824-43.765-4.417C1785.524,316.434,1769.042,290.22,1769.042,290.22z"/>
	<path fill="url(#leavecolor)" d="M1752.572,238.819c8.74,10.779,11.286,26.259,16.621,33.928c5.34,7.664,29.675,17.099,36.316,18.742
		c-8.072-18.556-3.825-27.455-13.259-38.575C1782.818,241.793,1752.572,238.819,1752.572,238.819z"/>
	<path fill="url(#leavecolor)" d="M2395.391,325.567c-20.831-0.605-41.487,9.81-55.49,10.372c-13.999,0.559-47.672-18.789-55.764-24.87
		c29.407-6.823,35.997-19.254,57.871-18.159S2395.391,325.567,2395.391,325.567z"/>
	<path fill="url(#leavecolor)" d="M2356.154,253.537c-12.127,9.758-19.626,24.269-27.38,31.253c-7.753,6.982-34.906,14.699-42.019,15.923
		c13.963-17.144,12.615-25.769,25.537-35.815C2325.217,254.853,2356.154,253.537,2356.154,253.537z"/>
	<path fill="url(#leavecolor)" d="M2408.959,264.72c-13.695,2.246-28.401-3.219-37.706-2.387c-9.303,0.837-29.562,17.29-34.282,22.245
		c20.117,2.19,25.738,10.291,40.073,7.612C2391.378,289.512,2408.959,264.72,2408.959,264.72z"/>
	<path fill="url(#leavecolor)" d="M2091.934,183.126c19.752,6.647,42.547,2.702,56.104,6.244c13.556,3.543,40.133,31.862,46.1,40.036
		c-30.117-2.039-40.043,7.932-60.649,0.511C2112.881,222.497,2091.934,183.126,2091.934,183.126z"/>
	<path fill="url(#leavecolor)" d="M2177.216,138.449c5.417,15.774,19.041,28.313,23.406,38.642c4.365,10.331-0.639,41.007-2.916,48.781
		c-13.397-20.105-24.564-21.539-29.909-38.234C2162.454,170.942,2177.216,138.449,2177.216,138.449z"/>
	<path fill="url(#leavecolor)" d="M2357.512,395.911c-7.183,19.563-3.859,42.456-7.769,55.913c-3.911,13.455-32.943,39.25-41.276,44.992
		c2.858-30.05-6.839-40.244,1.14-60.642C2317.586,415.776,2357.512,395.911,2357.512,395.911z"/>
	<path fill="url(#leavecolor)" d="M2399.851,482.376c-15.916,4.984-28.82,18.263-39.266,22.344c-10.443,4.083-40.973-1.754-48.682-4.241
		c20.461-12.847,22.199-23.971,39.033-28.856C2367.772,466.735,2399.851,482.376,2399.851,482.376z"/>
	<path fill="url(#leavecolor)" d="M1755.554,314.125c3.943,20.461,18.604,38.356,22.203,51.9c3.592,13.542-7.962,50.621-12.135,59.841
		c-13.063-27.215-26.629-30.941-30.319-52.531C1731.607,351.749,1755.554,314.125,1755.554,314.125z"/>
	<path fill="url(#leavecolor)" d="M1693.793,368.102c12.161,9.713,27.959,13.872,36.462,19.919c8.501,6.049,21.943,30.873,24.69,37.544
		c-19.772-9.894-27.898-6.702-40.519-17.128C1701.811,398.009,1693.793,368.102,1693.793,368.102z"/>
	<path fill="url(#leavecolor)" d="M1693.209,314.129c5.175,12.878,3.044,28.418,5.88,37.32c2.843,8.896,23.311,25.09,29.171,28.618
		c-2.237-20.111,4.446-27.363-1.292-40.768C1721.237,325.89,1693.209,314.129,1693.209,314.129z"/>
	<path fill="url(#leavecolor)" d="M1628.566,653.761c19.714,6.758,42.531,2.938,56.066,6.554c13.539,3.62,39.957,32.085,45.88,40.289
		c-30.106-2.204-40.087,7.714-60.653,0.178C1649.293,693.248,1628.566,653.761,1628.566,653.761z"/>
	<path fill="url(#leavecolor)" d="M1983.357,275.94c4.295,20.393,19.261,38.031,23.091,51.511c3.824,13.479-7.091,50.75-11.104,60.04
		c-13.528-26.986-27.157-30.479-31.22-52C1960.06,313.967,1983.357,275.94,1983.357,275.94z"/>
	<path fill="url(#leavecolor)" d="M2065.13,326.752c-10.846,12.673-14.734,30.774-21.42,39.777c-6.685,9.005-35.658,20.261-43.51,22.244
		c10.523-21.748,6.091-32.099,17.764-45.175C2029.64,330.521,2065.13,326.752,2065.13,326.752z"/>
	<path fill="url(#leavecolor)" d="M1831.56,495.086c20.729,2.146,42.1-6.712,56.104-6.236c14.004,0.479,46.152,22.266,53.771,28.93
		c-29.831,4.628-37.322,16.536-59.057,13.825C1860.644,528.893,1831.56,495.086,1831.56,495.086z"/>
	<path fill="url(#leavecolor)" d="M1880.09,415.564c13.563,15.821,35.166,24.1,45,34.082c9.831,9.983,18.167,47.915,19.109,57.991
		c-24.831-17.169-38.461-13.682-52.364-30.606C1877.93,460.108,1880.09,415.564,1880.09,415.564z"/>
	<path fill="url(#leavecolor)" d="M2180.782,486.297c4.792,20.281,20.183,37.551,24.339,50.935c4.152,13.38-5.852,50.907-9.639,60.293
		c-14.18-26.651-27.891-29.81-32.476-51.228C2158.419,524.881,2180.782,486.297,2180.782,486.297z"/>
	<path fill="url(#leavecolor)" d="M2121.315,542.789c12.558,9.2,28.511,12.702,37.259,18.391c8.746,5.689,23.208,29.93,26.226,36.486
		c-20.166-9.066-28.151-5.538-41.19-15.432C2130.567,572.34,2121.315,542.789,2121.315,542.789z"/>
	<path fill="url(#leavecolor)" d="M2118.494,488.886c5.704,12.653,4.219,28.271,7.423,37.047c3.208,8.77,24.331,24.1,30.337,27.381
		c-3.075-20,3.303-27.522-2.984-40.679C2146.982,499.477,2118.494,488.886,2118.494,488.886z"/>
	<path fill="url(#leavecolor)" d="M2271.853,387.322c-3.182,20.595,4.595,42.383,3.418,56.345c-1.181,13.962-24.55,44.979-31.587,52.252
		c-3.128-30.023-14.647-38.102-10.849-59.673C2236.631,414.675,2271.853,387.322,2271.853,387.322z"/>
	<path fill="url(#leavecolor)" d="M2421.811,735.348c-20.823,0.821-40.716,12.625-54.647,14.145c-13.93,1.516-48.848-15.48-57.335-20.995
		c28.87-8.82,34.593-21.671,56.492-22.077C2388.218,706.017,2421.811,735.348,2421.811,735.348z"/>
	<path fill="url(#leavecolor)" d="M2358.034,807.466c-10.681-12.813-27.875-19.678-35.633-27.774c-7.76-8.098-14.007-38.544-14.649-46.62
		c19.681,14.017,30.626,11.379,41.565,25.074C2360.256,771.845,2358.034,807.466,2358.034,807.466z"/>
	<path fill="url(#leavecolor)" d="M1554.927,580.531c20.838-0.199,41.076-11.406,55.047-12.509c13.969-1.1,48.364,16.933,56.683,22.697
		c-29.121,7.952-35.224,20.628-57.126,20.38C1587.629,610.852,1554.927,580.531,1554.927,580.531z"/>
	<path fill="url(#leavecolor)" d="M1620.831,510.348c10.292,13.125,27.275,20.498,34.788,28.824c7.512,8.326,12.852,38.945,13.25,47.037
		c-19.253-14.596-30.271-12.288-40.797-26.305C1617.545,545.887,1620.831,510.348,1620.831,510.348z"/>
	<path fill="url(#leavecolor)" d="M2062.599,138.639c-1.086,20.811,8.851,41.702,9.09,55.712c0.236,14.01-19.882,47.229-26.147,55.176
		c-6.144-29.555-18.419-36.43-16.82-58.273C2030.32,169.409,2062.599,138.639,2062.599,138.639z"/>
	<path fill="url(#leavecolor)" d="M2296.8,190.2c-2.688,20.667,5.605,42.26,4.766,56.249c-0.848,13.986-23.469,45.553-30.329,52.994
		c-3.847-29.942-15.553-37.743-12.273-59.398C2262.244,218.388,2296.8,190.2,2296.8,190.2z"/>
	<path fill="url(#leavecolor)" d="M2255.001,141.828c-4.865,20.264,1.088,42.617-1.235,56.436c-2.324,13.818-28.171,42.805-35.782,49.475
		c-0.645-30.181-11.456-39.181-5.896-60.365C2217.647,166.187,2255.001,141.828,2255.001,141.828z"/>
	<path fill="url(#leavecolor)" d="M1837.255,127.338c13.717,15.688,35.399,23.756,45.331,33.642c9.927,9.888,18.63,47.736,19.672,57.802
		c-24.995-16.925-38.591-13.308-52.66-30.094C1835.529,171.9,1837.255,127.338,1837.255,127.338z"/>
	<path fill="url(#leavecolor)" d="M1644.699,740.808c12.823-7.052,21.616-20.71,29.889-26.034c8.275-5.324,35.545-5.605,42.606-4.806
		c-15.366,14.6-14.929,24.471-28.56,31.597C1675.005,748.689,1644.699,740.808,1644.699,740.808z"/>
</g>
<g id="People">
	<path fill="url(#peoplecolor)" stroke="url(#peoplecolor)" stroke-miterlimit="10" d="M688.877,621.868c22,3,28,74,28,112s19,120,17,134c-24,3-58,5-130,2
		c14-53,15.746-104.574,30-141c9-23-6-79,10-93S688.877,621.868,688.877,621.868z"/>
	<path fill="url(#peoplecolor)" stroke="url(#peoplecolor)" stroke-miterlimit="10" d="M642.377,638.868c0,0-24,42.5-43,89.5c-29.5,36.5-41.039,47.375-42.783,53.332
		c-1.77,6.048-14.846,5.173-14.145,8.923c2.875,4,16.955,8.481,21.026,4.396c15.12-15.168,38.735-40.334,47.401-52.151
		c11-15,50.5-78.5,50.5-78.5S655.877,647.868,642.377,638.868z"/>
	<path fill="url(#peoplecolor)" stroke="url(#peoplecolor)" stroke-miterlimit="10" d="M692.377,624.868c5.5-2,51-10,80.5-15.5s63.5-31.5,82-37.5
		c6-1.594,14.609-7.687,15.752-6.264c1.32,1.644-9.575,7.006-9.055,7.831c4.375,6.938-12.197,10.933-12.197,10.933s-44,35-72,41.5
		s-29.5,14.5-75.5,27C677.877,643.368,692.377,624.868,692.377,624.868z"/>
	<path fill="url(#peoplecolor)" stroke="url(#peoplecolor)" stroke-miterlimit="10" d="M692.543,624.868c0,0-11.391-24.392-2.471-25.64
		c22.805-3.193,7.98-15.537,12.805-18.61c5.793-3.69-6.75-7.625-10.038-19.569c1.66-6.641,1.671-21.16-20.462-16.181
		c-8.098,1.821-42.434,2.087-35.75,60.75c4.98,43.713-17.75,57.25-17.75,57.25s48.51,27.658,57.916-5.541
		C686.2,624.127,692.543,624.868,692.543,624.868z"/>
	<path fill="url(#peoplecolor)" stroke="url(#peoplecolor)" stroke-miterlimit="10" d="M642.377,865.868c0,0-11.018,21.337,1.5,57.5c9,26-0.104,38.493-0.666,49.167
		c-0.5,9.5,6.166,16.333,14.666,16.333s14.5-3,11-10s-5.5-18-7-31.5s-0.5-34,1-42s6.5-19,3.5-40.5S642.377,865.868,642.377,865.868z
		"/>
	<path fill="url(#peoplecolor)" stroke="url(#peoplecolor)" stroke-miterlimit="10" d="M682.877,862.868c-3.5,9-12.5,18.5-9.5,54s-4.5,41-6.5,45.5s-3.5,15.375,5,18
		c12.5,3,13.25,4.5,36.25,4c3.5-6.5-2.75-7-7.75-9s-17.5-19.5-14-30.5s21.5-54,19.5-104.5S682.877,862.868,682.877,862.868z"/>
	<path fill="url(#toycolor)" d="M439.242,775.873c-1.833-0.5-9.833-1.833-14.333,2.667s-8.5,6.667-10.167,17s-9.001,42.667,0.833,45.667s20,1,23-3.667
		S439.242,775.873,439.242,775.873z"/>
	<path fill="url(#peoplecolor)" d="M443.286,765.873c-4.387-6.215-15.996-20.732-5.212-36.635c5.892-8.688,37.299-7.989,46.431,4.752
		c-3.108,2.925-3.84,4.936-3.84,4.936s1.654,4.535,0.191,9.654c-1.462,5.118-0.619,6.178,0.844,6.543
		c1.463,0.366,1.309,2.903-1.25,4c-2.376,1.019,0.839,4.257-3,9.375s-8.725,2.181-8.725,2.181s-9.483-2.317-8.316,5.35
		c9.5,4.678,17.332,21.879,12.944,52.771c-4.387,30.892-1.097,45.881,1.097,49.902c-6.215-0.365-2.924,0.549-2.924,0.549
		s13.892,18.279,14.439,28.882c0.549,10.602-0.913,14.623-0.913,14.623l-25.774,5.301c0,0-3.29-6.397-4.387-8.591
		s-0.914,8.043-4.936,9.505c-4.021,1.463-30.161,0-38.204-4.569c1.646-8.957,6.764-16.817,9.14-22.118
		c-2.559-7.86-2.924-14.715-2.742-16.908c-2.132-0.548-3.655-0.823-3.655-0.823l3.474-48.684
		c4.387-33.208-2.248-44.72,21.813-61.176C444.45,773.623,443.286,765.873,443.286,765.873z"/>
	<path fill="url(#peoplecolor)" d="M468.052,922.024c-0.366,4.021-2.187,13.475,7.312,26.14c3.291,4.388,11.205,20.215,11.205,20.215s-4.55,5.461-3.327,8.661
		c3.833,10.035,3.667,12.5,14.5,8.784c15.181-5.207,23.415-10.779,27.5-16.784c2.743-4.033-4.86-6.715-8.333-6.166
		c-3.474,0.548-10,8.333-12,1c0-2.925-6.667-0.334-6.667-0.334s-10.63-17.752-13.372-43.343
		C474.084,904.477,468.052,922.024,468.052,922.024z"/>
	<path fill="url(#peoplecolor)" d="M433.321,926.412c-2.559,4.021-16.235,35.493-18.246,40.795c4.57,3.107,5.032-0.517,4.667,5.333
		c-0.366,5.849,10.876,6.704,14.167,8.167c3.289,1.462,0.754,7.292-5.834,7.751c-7.859,0.549-34.156,1.368-36.166-3.751
		c0.914-6.763,5.054-10.086,6.333-11c1.28-0.914-0.155-6.452,3.5-7c6.032-14.441,5.622-33.897,13.3-43.951
		S433.321,926.412,433.321,926.412z"/>
	<path fill="url(#peoplecolor)" d="M465.749,784.033c0,0,31.442,15.09,45.951,15.09c7.25,0,32.314-9.416,41.083-13.334c7.833-3.5,7.167,4.834,7.167,4.834
		s-33.852,15.762-47.094,18.339c-9.109,1.773-44.357-6.054-44.357-6.054"/>
	<path fill="url(#peoplecolor)" d="M434.249,781.7c-6,1.5-31.697,49.648-34,51.333c-6.833,5-44.508,22.34-44.508,22.34s-4.833,4.5,1.834,7
		c10.666,1.667,39.188-14.56,48.008-19.506c6.833-3.832,29.5-34.501,29.5-34.501L434.249,781.7z"/>
	<path fill="url(#peoplecolor)" d="M425.909,778.874c0,0,0.666-6.584,1.416-7.084s8.417-1.75,10.834,1.417c2.416,3.167,5.833,4.416,5,5.833
		c-0.834,1.417-6.251-2-6.834-2.833s-4.5-3.751-5.666-2.417c-1.167,1.334-0.667,3.083-1.167,4.25S425.909,778.874,425.909,778.874z"
		/>
	<path fill="url(#peoplecolor)" d="M267.543,794.204c-3.734,1.866-13.069,5.134-14.937,13.536c-1.866,8.401,2.334,70.012-3.733,99.885
		c6.067,13.302,42.24,2.101,60.678-0.467c5.135-7.468-4.668-25.205-7.002-51.81c-2.334-26.605,1.867-62.078-13.535-61.145
		C273.611,795.137,267.543,794.204,267.543,794.204z"/>
	<path fill="url(#peoplecolor)" d="M300.45,905.524c-4.201,5.601-0.234,31.505,0,37.341c0.232,5.834-3.034,18.436-2.801,31.505
		c9.102,8.401,15.637,14.236,13.069,16.337s-11.437,4.2-17.036,1.167c-5.602-3.034-7.002,1.867-7.469-11.903
		c-0.467-13.769-2.801-36.405-3.268-43.174s-3.967-15.87-3.967-21.704s-2.334-2.334-2.101,1.167s-3.562,15.857-3.268,21.236
		c0.934,17.037-1.815,15.072-1.167,30.807c0.934,22.638,4.668,22.638,4.201,24.738c-0.467,2.1-17.037,6.067-18.203,1.633
		c-1.168-4.434,1.896-13.256,2.1-15.17c1.635-15.402-3.967-28.237-3.733-36.405c0.233-8.169,2.8-27.772,2.101-31.74
		C258.208,907.392,300.45,905.524,300.45,905.524z"/>
	<path fill="url(#peoplecolor)" d="M267.543,797.004c-4.201,0-21.237-1.633-23.57,34.773c-4.201,12.602-12.369,21.005-17.037,23.338
		c-4.668,2.334,1.4,12.836,4.9,11.669c3.501-1.167,17.037-13.535,22.871-15.869S267.543,797.004,267.543,797.004z"/>
	<path fill="url(#peoplecolor)" d="M258.2,799.498c2.732-2.234,10.469-9.629,9.477-13.603c-0.994-3.974-12.668-12.169-4.223-32.288
		c6.818-16.245,25.201-11.159,30.549-6.085c4.844,4.595,4.098,14.902,2.359,17.635c-1.738,2.731,1.49,3.352,2.111,6.332
		c0.641,3.079-3.602,0.746-3.229,6.458c0.199,3.065,0,6.086-7.203,4.595c-7.203-1.49,0.408,10.956,4.533,13.581
		c2.258,1.437-3.788,13.367-3.788,13.367l-25.333-0.248L258.2,799.498z"/>
	<path fill="none" stroke="url(#toycolor)" stroke-width="2" stroke-miterlimit="10" d="M233.237,885.921
		c0.7-10.269,2.801-19.37-3.734-25.904c-6.533-6.535-0.934-26.839-1.166-35.24c-0.234-8.401-13.303-40.141-5.367-62.078
		c7.934-21.938-2.102-38.74-1.4-56.71"/>
	<path fill="url(#toycolor)" d="M217.834,708.556l6.768,0.233l-1.633-5.368c14.702-2.567,27.305-16.104,28.238-40.141
		c0.934-24.038-9.102-46.675-32.439-47.375s-30.807,23.57-31.74,45.041s14.471,42.94,32.207,42.708L217.834,708.556z"/>
	<path fill="url(#peoplecolor)" d="M295.617,759.195l5.216,0.994c0,0,7.823-21.856-22.354-22.477c-30.176-0.622-21.235,26.851-24.008,18.752
		c-10.93-23.017-1.656,1.158-5.92,3.849c-2.359,11.549,5.033,5.073,4.967,9.065c-0.124,7.45,4.098,17.634,4.347,7.575
		c0.188-7.572-0.249-7.203,1.862-2.731c2.111,4.471,5.217,15.771,7.949,4.967"/>
	<path fill="url(#peoplecolor)" d="M293.075,795.04c0,0,22.334,24.834,28,34.5c12.666,11.834,39.5,25.667,39.5,25.667s4.833,5.501,0.666,7.667
		c-4.166,2.166-45.166-24.167-45.166-24.167l-23.834-23.333"/>
	<path fill="url(#peoplecolor)" d="M120.553,960.886l-4.692,22.38c0,0,10.106,7.94,19.13,6.858c0,0,6.136,2.887-2.166,5.414
		c-8.302,2.527-23.102,0.361-27.072-1.443c-3.97-1.806,1.805-10.106,1.805-10.106v-23.823c0,0-5.053-57.393,1.444-59.198
		c0,0,0.361-19.853-2.166-19.853s-8.663,8.663-8.663,8.663l-6.497-6.497c0,0-14.799,21.656-15.882,28.876
		c-1.083,7.22-9.386-1.083-3.971-6.497s4.693-19.853,13.717-29.959c5.415-9.746,11.911-18.048,16.604-18.048
		c-0.722-4.332,2.166-9.386-8.663-15.161c-10.829-5.774-22.38-16.243-14.078-29.598c8.303-13.356,26.877-16.078,36.458-6.497
		c7.219,7.218,2.527,11.188,5.414,14.798c2.888,3.61,4.332,3.249,4.332,3.249s0.18,6.633-2.392,6.091
		c-2.572-0.541,4.332,7.58-0.135,9.882c-4.467,2.301-8.122,7.174-2.572,12.183c5.55,5.008,32.172,24.185,27.117,61.182
		c0,0-3.067-0.541-3.248,4.873c-0.182,5.415-17.146,39.345-17.688,40.788C126.148,960.886,120.553,960.886,120.553,960.886z"/>
	<path fill="url(#peoplecolor)" d="M71.644,914.143"/>
	<path fill="none" stroke="url(#toycolor)" stroke-width="2" stroke-miterlimit="10" d="M79.765,914.684
		c-2.707,0.18-4.332,0.541-6.678-4.693c-2.346-5.233-6.373-5.124-6.136,0.182c0.902,20.214-21.116,71.289-34.11,71.65"/>
	<path fill="url(#toycolor)" d="M5.453,978.935c-0.18,1.443,0.542,11.551,13.355,11.37c12.814-0.181,16.243-3.069,14.258-9.386s-0.196-10.725,1.805-9.204
		c2.256,1.715-0.427,2.153,1.488,3.429c2.166,1.444,10.603-8.662,0.136-11.73c-10.468-3.068-13.626,7.67-10.197,13.626
		c0,0-5.414-4.692-12.994-3.79C-2.624,975.099,5.453,978.935,5.453,978.935z"/>
	<path fill="url(#toycolor)" d="M13.55,986.565c-2.947-0.227-4.88,1.54-4.366,4.494c0.514,2.953,0.642,3.852,3.467,3.98
		c2.825,0.128,3.852-1.798,3.852-3.724C16.503,989.39,16.889,986.822,13.55,986.565z"/>
	<path fill="url(#toycolor)" d="M25.732,987.106c-2.947-0.227-4.88,1.541-4.366,4.494c0.514,2.954,0.642,3.852,3.467,3.98
		c2.825,0.128,3.852-1.798,3.852-3.724C28.686,989.931,29.071,987.363,25.732,987.106z"/>
	<path fill="url(#peoplecolor)" d="M120.2,856.281l29.539-4.868l23.369-5.962c0,0,8.885-4.611,11.711-4.236c1.751,0.233-2.775,5.712-7.988,7.622
		c-2.475,0.907-13.963,5.267-25.59,8.777c-12.852,3.878-25.178,8.756-25.178,8.756L120.2,856.281z"/>
	<path fill="url(#peoplecolor)" d="M123.253,853.213c6.222,0.592,26.546-1.872,26.546-1.872l2.32,11.27c0,0-14.032-0.328-20.419,3.459
		C125.313,869.857,117.032,852.622,123.253,853.213z"/>
	<path fill="url(#peoplecolor)" d="M144.508,903.553c3.288,4.307,11.631,41.313,12.125,42.772c0.496,1.461-3.836,5.003-3.836,5.003l10.533,20.295
		c0,0,12.851-0.249,19.152-6.799c0,0,6.577-1.649,1.75,5.562c-4.827,7.212-17.656,14.902-21.873,16.02
		c-4.216,1.114-4.999-8.967-4.999-8.967l-15.079-18.443c0,0-40.241-41.233-36.354-46.744"/>
	<polygon fill="url(#peoplecolor)" stroke="url(#peoplecolor)" stroke-miterlimit="10" points="463.575,779.38 492.823,795.04 492.823,810.623 468.575,805.123 	"/>
	<path fill="url(#peoplecolor)" d="M1794.989,213.382c3.032-6.514,1.123-16.734-4.886-22.238c-0.898,4.886-5.783,14.881-9.996,15.387
		c-2.021-10.557-10.5-12.635-14.039-12.635c-3.537,0-11.118,1.46-13.87,10.108h-6.907l6.121,5.391l-6.121,4.268l6.178,0.382
		c0,4.661,2.526,14.331,11.793,19.722c1.239,0.721,2.473,1.297,3.689,1.751l-4.532,5.717l-3.819,1.685l0.449,1.123l3.932-1.685
		l3.875,1.292l0.505-0.898l-3.538-1.46l4.342-5.36c1.535,0.476,3.038,0.764,4.488,0.905l0.223,7.209l-1.46,1.854l0.73,0.73
		l1.965-1.741l4.043,1.236l0.338-1.236l-4.156-1.348l-0.217-6.607c4.921,0.16,9.12-1.283,11.718-2.549
		c17.016-4.211,23.923-18.98,26.955-25.438C1811.892,210.182,1801.279,214.056,1794.989,213.382z"/>
</g>
</svg>
