<?xml version="1.0" encoding="UTF-8" standalone="no"?><!DOCTYPE svg PUBLIC "-//W3C//DTD SVG 1.1//EN" "http://www.w3.org/Graphics/SVG/1.1/DTD/svg11.dtd"><svg width="100%" height="100%" viewBox="0 0 3132 2162" version="1.1" xmlns="http://www.w3.org/2000/svg" xmlns:xlink="http://www.w3.org/1999/xlink" xml:space="preserve" xmlns:serif="http://www.serif.com/" style="fill-rule:evenodd;clip-rule:evenodd;stroke-linecap:round;stroke-linejoin:round;stroke-miterlimit:1.5;"><g id="Steffi-Singing" serif:id="Steffi Singing"><g id="Ground"><path d="M214.92,1992.38c0,-420.146 302.369,-808.413 651.828,-795.879c307.184,11.016 495.497,207.523 542.353,340.54c14.697,-66.362 127.833,-266.072 482.283,-213.505c258.433,38.327 336.108,199.271 365.47,289.717c22.988,-92.436 263.972,-153.703 429.611,-101.338c177.903,56.243 293.546,290.872 293.546,479.663l-2765.09,0.802Z" style="fill:#6d9971;"/><ellipse cx="1597.47" cy="1991.97" rx="1382.55" ry="169.459" style="fill:#6d9971;"/><ellipse cx="1597.47" cy="1968.9" rx="1362.98" ry="169.459" style="fill:#9aca9e;"/><ellipse cx="926.819" cy="1999.73" rx="159.272" ry="29.315" style="fill:#6d9971;"/><ellipse cx="2523.48" cy="1917.62" rx="159.272" ry="29.315" style="fill:#6d9971;"/><ellipse cx="2249.03" cy="1992.38" rx="115.305" ry="21.969" style="fill:#6d9971;"/><ellipse cx="1335.18" cy="1886.57" rx="201.629" ry="35.067" style="fill:#6d9971;"/></g><g id="Baby"><path id="Rope" d="M602.922,542.658c262.797,364.362 466.79,617.765 857.811,791.693c20.853,9.276 17.848,13.623 -1.879,5.53c-305.609,-125.378 -531.932,-321.06 -866.366,-787.803c-11.559,-16.131 -0.872,-25.095 10.434,-9.42Z" style="fill:#504642;"/><path id="Rope1" serif:id="Rope" d="M394.728,652.206c203.375,223.338 644.694,576.512 970.709,665.023c21.192,5.753 18.715,23.706 -6.239,14.972c-383.313,-134.159 -772.325,-456.657 -980.69,-673.756c-15.36,-16.004 -2.136,-26.397 16.22,-6.239Z" style="fill:#504642;"/><path d="M282.507,167.276c40.483,-16.523 99.142,-16.523 152.844,61.964c53.701,78.487 120.622,157.387 131.362,313.536c44.614,5.783 -41.309,-313.123 -137.146,-389.958c-95.837,-76.835 -158.626,-7.436 -171.845,6.61c-13.219,14.045 -15.698,24.372 24.785,7.848Z" style="fill:#b077a0;"/><path d="M346.698,117.303c48.17,-24.796 101.84,-30.79 157.226,45.429c90.053,123.927 128.224,175.392 84.27,384.381c-17.35,13.219 -46.266,-125.786 -81.792,-246.409c-35.526,-120.622 -73.206,-157.778 -159.704,-183.401Z" style="fill:#b67da7;"/><path d="M581.585,176.777c80.965,127.232 107.403,251.986 23.959,377.565c-21.481,9.914 -24.786,6.403 -15.698,-42.342c9.088,-48.744 23.134,-157.8 -20.654,-246.202c-43.788,-88.401 -109.056,-145.408 -123.927,-161.931c-14.871,-16.524 64.631,-39.744 136.32,72.91Z" style="fill:#c48db4;"/><path id="Bow" d="M613.238,534.922c25.95,-15.969 57.318,-13.118 72.146,-2.281c14.829,10.836 5.133,17.109 -1.711,21.102c-6.843,3.992 -46.481,34.219 -75.283,-5.133c-9.41,1.711 -18.535,1.711 -23.953,-5.418c-12.262,5.133 -44.486,6.273 -64.732,-24.524c-2.301,-3.499 2.283,-10.749 13.973,-10.551c16.824,0.285 35.93,1.425 54.466,17.395c10.266,-4.563 20.246,0.285 25.094,9.41Z" style="fill:#d29dc3;"/><path id="Pampers--Back" serif:id="Pampers; Back" d="M481.734,566.206c35.757,-21.231 107.052,-37.752 107.052,-37.752c0,0 -13.846,148.31 -207.174,115.773c36.139,-35.757 64.365,-56.791 100.122,-78.021Z" style="fill:#393230;"/><g id="Layer1"><path d="M567.964,509.181c0.969,-15.942 10.209,-72.029 11.91,-81.671c1.702,-9.642 -9.074,-44.239 -15.313,-60.119c-6.239,-15.881 2.268,-51.045 23.821,-63.522c21.552,-12.478 44.805,-18.15 59.552,11.91c14.746,30.06 1.701,49.343 -10.209,63.522c-11.911,14.179 -44.239,38.001 -45.94,49.911c-1.702,11.911 -9.075,71.462 -10.209,80.537c-1.135,9.074 -14.341,11.422 -13.612,-0.568Z" style="fill:#9a3737;"/><path d="M574.48,397.238c10.747,5.029 23.814,7.296 40.062,4.498c-11.216,10.37 -21.803,20.797 -22.757,27.476c-1.702,11.911 -9.075,71.462 -10.209,80.537c-1.135,9.074 -14.341,11.422 -13.612,-0.568c0.969,-15.942 10.209,-72.029 11.91,-81.671c0.912,-5.166 -1.759,-17.496 -5.394,-30.272Z" style="fill:#250f08;"/><path d="M568.339,328.292c26.367,13.507 52.091,18.119 86.161,12.756c0.07,10.265 -3.325,18.865 -7.882,26.251c-28.762,5.261 -58.377,0.899 -84.001,-14.7c0.332,-7.638 2.26,-16.261 5.722,-24.307Z" style="fill:#250f08;"/></g><path id="Hand" d="M424.448,530.824l-40.377,0.455c0,0 -2.456,-14.405 -14.273,-14.405c-11.817,0 -8.141,9.979 -5.515,12.605c-8.666,-4.99 -25.472,-1.313 -25.997,6.302c-0.526,7.616 8.403,6.303 11.029,6.828c-2.889,0.788 -10.242,6.04 -7.616,11.029c2.626,4.989 11.03,1.05 14.181,0.525c-1.313,1.313 -9.454,9.979 0.262,12.342c9.717,2.364 25.473,-9.453 28.099,-13.917c8.665,-0.526 44.379,-1.576 44.379,-1.576l-4.172,-20.188Z" style="fill:#fbc7b4;"/><path id="Hand1" serif:id="Hand" d="M526.906,486.369l36.615,-22.377c0,0 7.459,-18.307 21.359,-14.917c13.901,3.39 15.257,14.918 15.257,20.342c0,5.425 -5.086,16.952 -18.308,16.613c-13.222,-0.339 -13.561,-0.339 -17.291,1.695c-3.729,2.034 -28.817,13.9 -28.817,13.9l-8.815,-15.256Z" style="fill:#fbc7b4;"/><path id="Neck" d="M468.143,508.331l-7.94,-28.926l30.627,-14.746l9.074,32.896l-31.761,10.776Z" style="fill:#fbc7b4;"/><path id="Shirt" d="M412.361,519.81c0,0 35.935,-8.41 51.227,-16.056c12.233,5.352 35.936,-3.823 35.171,-15.292c13.763,-6.881 37.465,-16.056 37.465,-16.056l15.292,35.936l-16.821,18.35c0,0 4.587,37.465 43.581,58.108c38.994,20.644 -54.286,84.87 -119.275,73.401c-6.117,-32.877 -9.176,-100.161 -9.176,-100.161l-29.054,-3.058l-8.41,-35.172Z" style="fill:#848dd6;"/><path id="Pampers--Front" serif:id="Pampers; Front" d="M485.795,765.333c85.335,13.242 150.072,-29.426 163.314,-97.105c-7.357,-75.037 -29.426,-111.819 -60.323,-139.774c-30.898,92.692 -100.552,109.221 -209.428,116.577c30.897,67.68 50.527,89.405 106.437,120.302Z" style="fill:#f2ebe8;"/><path id="Pampers--Hole" serif:id="Pampers; Hole" d="M513.86,697.248c22.319,4.134 33.892,26.453 32.238,39.679c-2.937,23.502 -25.625,31.412 -46.291,28.105c-20.666,-3.306 -33.065,-26.452 -29.759,-45.465c3.307,-19.012 21.493,-26.452 43.812,-22.319Z" style="fill:#393230;"/><path id="Pampers--Hole1" serif:id="Pampers; Hole" d="M615.536,650.957c-10.194,11.326 -11.573,35.545 -5.787,47.118c5.787,11.573 19.839,26.452 29.759,-3.307c9.92,-29.758 -2.023,-68.199 -23.972,-43.811Z" style="fill:#393230;"/><path id="Foot" d="M625.455,659.671c-8.328,11.303 -11.791,21.764 -10.707,37.477c20.82,5.354 42.83,15.466 51.753,12.492c8.923,-2.974 27.364,-36.287 29.743,-66.03c1.19,-5.354 -31.528,-8.923 -35.692,-4.759c-4.164,4.164 -8.923,22.01 -10.707,24.984c-1.785,2.975 -10.708,-1.784 -24.39,-4.164Z" style="fill:#fbc7b4;"/><path id="Toe" d="M693.964,639.532c-11.302,-0.595 -14.826,-15.936 -4.759,-19.631c15.883,-5.828 16.062,20.226 4.759,19.631Z" style="fill:#fbc7b4;"/><path id="Toe1" serif:id="Toe" d="M674.829,637.513c-9.518,-1.19 -11.997,-12.988 -5.454,-18.936c6.544,-5.949 14.535,0.911 14.535,7.454c0,6.544 0.437,12.671 -9.081,11.482Z" style="fill:#fbc7b4;"/><path id="Foot1" serif:id="Foot" d="M495.313,706.734c-2.379,11.302 -16.79,18.968 -17.979,36.813c-1.19,17.846 0,48.185 8.328,65.436c8.328,17.251 22.605,6.543 31.528,-7.139c8.923,-13.682 15.466,-50.563 13.682,-58.891c-1.785,-8.329 -4.099,-26.636 -4.694,-33.774c-13.087,-2.974 -17.183,-4.825 -30.865,-2.445Z" style="fill:#fbc7b4;"/><path id="Ear" d="M531.578,304.375c4.841,-7.608 19.364,-2.767 22.822,13.14c3.458,15.906 1.383,29.046 -6.224,31.812c-7.608,2.767 -21.439,-37.345 -16.598,-44.952Z" style="fill:#fbc7b4;"/><path id="Head" d="M511.815,462.39c-47.642,22.12 -90.179,40.269 -132.149,27.791c-41.97,-12.477 -62.388,-43.104 -79.97,-88.477c-17.582,-45.373 -5.105,-124.776 44.239,-157.671c49.343,-32.895 104.925,-30.627 145.76,-1.702c40.836,28.926 59.356,93.079 68.06,121.94c10.776,35.732 -12.393,82.544 -45.94,98.119Z" style="fill:#fbc7b4;"/><path id="Ear1" serif:id="Ear" d="M315.114,388.747c-14.523,-8.299 -38.037,4.841 -38.037,22.131c0,17.289 15.907,37.345 33.888,32.504c17.981,-4.841 18.672,-46.336 4.149,-54.635Z" style="fill:#fbc7b4;"/><path id="Ear:-In" serif:id="Ear: In" d="M299.697,406.185c-5.144,7.349 3.519,17.414 15.065,14.697c6.246,-1.47 1.837,-9.92 -1.837,-13.962c-5.09,-5.598 -10.546,-4.566 -13.228,-0.735Z" style="fill:#ce9683;"/><path id="Mouth" d="M376.49,427.128c-6.247,5.879 -4.777,16.167 2.204,10.656c7.349,6.614 32.701,29.027 100.308,-2.572c67.607,-31.599 55.849,-48.501 54.747,-56.584c6.613,-2.205 0,-7.716 -6.247,-7.716c-6.246,0 -10.655,6.614 -1.469,8.083c2.572,8.084 0.367,25.72 -51.808,47.031c-41.339,16.885 -65.769,23.148 -87.447,6.981c7.348,-4.776 -4.042,-11.757 -10.288,-5.879Z" style="fill:#563d34;"/><path d="M488.555,462.493c29.284,-13.015 27.19,-27.557 27.925,-40.049c0.734,-12.493 -18.739,-33.804 -32.334,-36.008c-13.595,-2.205 -44.459,8.083 -52.175,22.413c-7.716,14.33 -9.553,45.928 9.186,54.379c18.739,8.451 34.682,4.917 47.398,-0.735Z" style="fill:#373469;"/><path d="M481.941,442.285c9.186,-4.409 9.921,-17.637 1.47,-24.618c-8.451,4.777 -16.167,11.758 -27.19,14.33c-1.837,10.288 16.535,14.697 25.72,10.288Z" style="fill:#f2ebe8;stroke:#000;stroke-width:1px;"/><path id="Nose" d="M435.645,378.995c8.451,4.042 15.8,-0.367 20.944,-6.981c5.144,-6.613 -4.042,-7.716 -13.962,-5.144c-9.921,2.572 -15.432,8.084 -6.982,12.125Z" style="fill:#ce9683;"/><path id="Eye:-Base" serif:id="Eye: Base" d="M408.823,361.359c-6.613,-19.474 -18.201,-30.872 -25.352,-29.027c-11.39,2.939 -23.295,18.267 -11.758,42.622c9.015,19.032 7.349,-0.735 19.106,-6.614c11.758,-5.879 24.618,12.493 18.004,-6.981Z" style="fill:#f2ebe8;"/><path id="Eye:-Dark" serif:id="Eye: Dark" d="M401.552,345.784c2.713,4.32 5.229,9.563 7.271,15.575c6.614,19.474 -6.246,1.102 -18.004,6.981c-1.209,0.605 -2.276,1.356 -3.228,2.197l0,0c-6.902,-11.03 -4.12,-23.14 13.961,-24.753Z" style="fill:#250f08;"/><path id="Eye:-Base1" serif:id="Eye: Base" d="M490.392,336.006c9.921,-4.041 20.576,11.391 16.534,-5.879c-4.041,-17.269 -11.022,-27.924 -23.147,-26.822c-12.126,1.103 -26.823,11.391 -12.86,40.05c10.174,20.885 9.553,-3.307 19.473,-7.349Z" style="fill:#f2ebe8;"/><path id="Eye:-Dark1" serif:id="Eye: Dark" d="M501.885,315.376c2.054,4.074 3.708,9.052 5.041,14.751c4.042,17.27 -6.613,1.838 -16.534,5.879c-2.805,1.143 -4.768,3.898 -6.37,6.789l0,0c-6.737,-18.931 3.431,-25.895 17.863,-27.419Z" style="fill:#250f08;"/><path id="Eyebrow" d="M366.748,321.494c-5.409,0 -11.179,3.246 -12.261,9.016c-1.082,5.77 -6.491,6.491 -3.246,-4.327c3.246,-10.819 7.573,-8.655 12.622,-8.295c5.049,0.361 8.294,3.606 2.885,3.606Z" style="fill:#563d34;"/><path id="Eyebrow1" serif:id="Eyebrow" d="M474.213,284.35c2.885,-3.966 7.213,-3.606 9.016,-1.803c1.803,1.803 9.376,0.361 3.967,-3.245c-5.41,-3.606 -15.146,-3.606 -17.671,-0.361c-2.524,3.246 1.803,9.376 4.688,5.409Z" style="fill:#563d34;"/><path id="Hair" d="M377.927,237.199c1.803,-9.737 5.77,-17.67 -6.851,-28.489c-12.622,-10.819 -25.244,-23.08 -13.704,-36.062c11.54,-12.983 11.179,-3.606 5.409,6.852c-5.77,10.458 2.525,14.425 13.343,24.883c10.819,10.458 16.589,14.785 12.983,29.571c-3.607,14.785 -12.983,12.982 -11.18,3.245Z" style="fill:#563d34;"/><path d="M293.179,14.272c-118.579,-51.205 -237.158,52.552 -274.888,148.223c-37.73,95.672 -25.602,313.965 146.876,412.332c172.479,98.367 224.681,80.152 224.681,80.152c0,0 -251.631,-109.797 -292.055,-221.638c-40.425,-111.842 2.013,-297.58 73.189,-346.766c112.626,-77.829 126.239,-65.566 122.197,-72.303Z" style="fill:#c48db4;"/><path d="M447.262,52.461c-61.107,-71.877 -194.217,-41.88 -265.925,17.058c-98.367,80.849 -152.266,260.065 -82.197,375.949c97.613,161.437 216.946,194.038 284.32,208.861c29.645,-9.433 -37.729,-25.602 -87.586,-79.502c-49.858,-53.9 -203.471,-199.428 -128.012,-370.559c75.46,-171.132 235.403,-148.653 279.4,-151.807Z" style="fill:#d29dc3;"/><path d="M391.885,646.324c-280.485,-186.99 -169.974,-399.567 -108.139,-480.123c91.353,-119.01 269.296,-27.484 336.67,80.315c-58.925,-121.5 -98.164,-190.809 -200.573,-197.547c-102.41,-6.737 -245.243,43.12 -269.498,196.734c-24.255,153.614 26.02,297.815 241.54,400.621Z" style="fill:#e0b1d3;"/><path id="Bow1" serif:id="Bow" d="M340.912,716.76c25.746,-5.281 46.262,-28.12 47.26,-42.425c6.32,-1.331 11.976,-6.321 14.97,-13.972c32.601,0.998 57.883,-13.306 66.533,-21.29c8.649,-7.984 23.951,-19.628 -9.648,-23.952c-33.599,-4.325 -59.879,5.655 -71.523,31.27c-5.322,-0.665 -13.972,2.662 -18.629,9.315c-14.637,-5.988 -38.049,7.646 -47.446,30.688c-12.172,29.846 -7.262,35.647 18.483,30.366Z" style="fill:#d29dc3;"/></g><g id="Boy"><path id="Legs" d="M877.479,1867.55c4.391,26.351 -6.149,55.337 -15.811,64.12c-9.662,8.784 -21.08,19.324 -38.648,21.081c-17.567,1.757 -12.297,14.932 -1.756,19.324c10.54,4.392 60.607,15.81 84.322,-11.419c23.716,-27.229 68.512,-72.025 76.417,-83.444c7.906,-11.419 31.092,-16.308 41.633,-12.794c10.54,3.513 -0.381,32.732 -18.827,42.394c-18.445,9.662 -28.972,14.563 -40.373,15.196c8.784,22.838 49.188,14.932 61.485,8.784c12.298,-6.149 55.337,-40.405 63.242,-79.052c7.906,-38.648 -33.377,-48.31 -50.944,-44.797c-8.172,1.634 -42.162,36.891 -71.148,47.432c-28.985,10.54 -58.85,19.324 -89.592,13.175Z" style="fill:#504642;"/><path id="Arm" d="M1022.96,1643.87c11.301,-20.718 55.562,-60.271 61.212,-72.513c5.651,-12.242 0,-46.145 29.194,-49.911c29.193,-3.767 64.037,45.202 8.475,66.862c-26.368,41.436 -71.571,94.172 -71.571,94.172c0,0 -38.61,-17.892 -27.31,-38.61Z" style="fill:#fbc7b4;"/><path id="Arm1" serif:id="Arm" d="M797.95,1746.49c0,0 -88.954,-7.891 -98.28,-18.652c-9.326,-10.76 -20.804,-25.108 -27.26,-23.673c-6.457,1.435 -11.215,8.402 -7.781,13.797c3.433,5.395 10.3,19.619 -4.905,10.3c-15.205,-9.319 -28.08,-11.956 -33.721,-7.296c-5.64,4.66 -2.943,14.469 7.603,22.317c10.545,7.848 1.962,7.112 -3.189,7.112c-5.15,0 -16.431,5.641 -13.243,15.205c3.189,9.565 20.601,6.622 25.996,5.15c5.395,-1.471 4.66,4.169 2.207,6.867c-2.452,2.698 -14.224,12.753 -1.226,17.903c12.998,5.15 24.524,-13.979 34.824,-11.772c10.301,2.207 116.49,15.695 116.49,15.695l2.485,-52.953Z" style="fill:#fbc7b4;"/><path id="Neck1" serif:id="Neck" d="M866.748,1709.86l4.601,44.173l66.259,6.442l34.97,-46.933l-26.687,-34.971l-79.143,31.289Z" style="fill:#fbc7b4;"/><path id="Shirt1" serif:id="Shirt" d="M986.478,1671.74c17.063,-18.428 27.983,-38.903 30.03,-48.458c20.475,30.03 34.808,49.823 51.188,64.155c-17.745,26.618 -47.093,58.695 -49.14,62.108c8.19,21.157 12.674,51.77 15.015,59.377c-34.321,40.47 -91.343,65.788 -155.616,60.773c-3.413,-22.523 -5.455,-48.488 -5.455,-48.488c0,0 -66.202,-11.602 -81.9,-17.062c-5.151,-1.792 0.594,-40.744 0.594,-61.857c27.068,-7.579 59.008,-7.967 77.956,-17.17c24.361,18.406 22.195,27.456 40.602,26.373c18.406,-1.082 43.85,-14.616 43.85,-31.94c0,-17.323 -2.166,-20.571 5.955,-25.985c8.12,-5.414 9.859,-3.399 26.921,-21.826Z" style="fill:#3f52ac;"/><path id="Head1" serif:id="Head" d="M746.256,1687.6c20.5,17.99 65.265,41.837 117.143,33.888c51.878,-7.949 95.807,-23.011 120.909,-69.45c25.102,-46.439 22.173,-96.643 12.551,-128.857c-9.623,-32.215 -27.612,-71.96 -46.439,-88.276c-18.827,-16.317 -190.776,-49.472 -228.429,58.885c-37.654,108.358 -33.352,143.248 24.265,193.81Z" style="fill:#fbc7b4;"/><path id="Mouth:-Base" serif:id="Mouth: Base" d="M907.423,1582.17c32.362,-13.419 68.671,-41.834 72.617,-52.095c9.472,4.736 9.472,47.359 3.947,74.196c-5.525,26.836 -30.783,63.934 -53.674,75.774c-22.89,11.84 -68.67,10.261 -104.189,-14.997c-35.52,-25.258 -54.463,-52.884 -46.57,-54.463c7.893,-1.578 45.059,5.921 127.869,-28.415Z" style="fill:#563d34;"/><path id="Mouth:-Teeth" serif:id="Mouth: Teeth" d="M890.543,1588.84c0,0 -1.04,17.062 7.702,17.062c11.097,0 19.756,-5.835 29.254,-8.07c5.717,-1.345 8.07,-16.14 -4.035,-22.529c-14.459,5.716 -32.921,13.537 -32.921,13.537Z" style="fill:#f2ebe8;"/><path id="Mouth:-Tongue" serif:id="Mouth: Tongue" d="M901.794,1635.93c18.493,-8.57 47.811,-8.57 54.126,4.06c6.314,12.629 -16.238,29.318 -29.769,35.632c-13.532,6.315 -52.322,13.983 -59.087,-3.157c-6.766,-17.14 16.237,-27.965 34.73,-36.535Z" style="fill:#a75069;"/><path id="Hair1" serif:id="Hair" d="M657.05,1608.14c-0.54,15.654 8.637,73.414 83.67,96.085c-13.495,-28.07 -24.157,-86.833 -12.415,-131.173c11.236,-42.432 61.992,-82.666 55.458,-85.305c-63.908,-25.815 -126.327,109.202 -126.713,120.393Z" style="fill:#a1784e;"/><path id="Cap:-Base" serif:id="Cap: Base" d="M715.287,1541.4c45.828,-43.836 114.114,-75.776 168.24,-92.013c39.88,-11.964 69.912,-12.179 69.912,-12.179c0,0 -32.475,-38.339 -109.153,-50.066c-53.117,-8.124 -78.933,-0.902 -78.933,-0.902c0,0 -18.493,-22.101 -39.241,-8.119c-20.748,13.983 -5.413,30.671 -5.413,30.671c0,0 -62.695,44.654 -66.304,111.86c-3.608,67.206 0.902,96.524 8.119,118.625c8.119,-37.888 31.021,-77.071 52.773,-97.877Z" style="fill:#373469;"/><path id="Cap:-Front" serif:id="Cap: Front" d="M792.535,1487.12c4.06,-31.573 8.45,-65.593 75.656,-86.792c67.206,-21.199 83.444,-29.769 110.056,-23.905c26.611,5.863 19.731,19.709 14.319,30.083c-5.413,10.374 -35.005,29.677 -37.712,31.03c-2.706,1.353 -59.48,2.676 -162.319,49.584Z" style="fill:#3f52ac;"/><path id="Ear:-Base" serif:id="Ear: Base" d="M756.375,1645.39c-10.257,19.433 -31.309,26.991 -58.3,17.274c-26.99,-9.716 -35.087,-33.468 -26.99,-50.202c8.097,-16.734 45.884,-16.734 57.22,0c11.336,16.734 38.326,13.495 28.07,32.928Z" style="fill:#fbc7b4;"/><path id="Ear:-In1" serif:id="Ear: In" d="M732.083,1633.52c2.941,6.371 -15.114,21.592 -28.07,8.637c-12.955,-12.956 21.592,-22.672 28.07,-8.637Z" style="fill:#ce9683;"/><path id="Nose1" serif:id="Nose" d="M882.709,1558.68c11.062,4.023 39.221,0.503 44.249,-21.622c-17.096,-0.503 -45.758,13.577 -44.249,21.622Z" style="fill:#ce9683;"/><path id="Eye" d="M825.11,1575.39c8.389,-5.033 6.482,-17.993 0.889,-31.414c-5.592,-13.421 -13.887,-15.854 -18.949,-13.685c-7.83,3.356 -12.052,16.895 -5.033,30.758c5.195,10.261 14.705,19.374 23.093,14.341Z" style="fill:#250f08;"/><path id="Light" d="M812.788,1538.47c-4.925,2.488 -5.733,7.478 -2.493,13.958c3.241,6.48 7.478,8.225 10.718,6.48c3.24,-1.744 2.89,-26.054 -8.225,-20.438Z" style="fill:#f2ebe8;"/><path id="Eyebrow2" serif:id="Eyebrow" d="M813.046,1516.43c-6.99,-0.499 -15.228,-2.995 -21.968,1.248c-6.741,4.244 -11.484,13.231 -11.484,19.472c-5.991,3.745 -4.493,-2.496 -3.744,-6.99c0.748,-4.493 5.492,-13.73 12.731,-17.724c7.24,-3.994 18.723,-3.994 25.214,-0.25c4.493,1.997 2.995,4.993 -0.749,4.244Z" style="fill:#563d34;"/><path id="Eye1" serif:id="Eye" d="M958.599,1523.02c9.032,-4.447 7.829,-17.336 4.473,-25.725c-3.355,-8.388 -10.919,-22.435 -23.061,-15.46c-7.401,4.253 -7.498,16.94 -3.583,25.328c3.914,8.388 13.722,20.015 22.171,15.857Z" style="fill:#250f08;"/><path id="Light1" serif:id="Light" d="M952.666,1505.13c5.159,-2.692 6.281,-6.954 4.038,-13.235c-2.244,-6.281 -11.441,-7.627 -13.011,-2.692c-1.57,4.935 3.813,18.619 8.973,15.927Z" style="fill:#f2ebe8;"/><path id="Eyebrow3" serif:id="Eyebrow" d="M924.198,1473.37c0,-2.995 4.244,-8.737 11.483,-11.733c7.24,-2.995 15.229,1.997 19.223,2.746c3.994,0.749 3.744,-2.746 0,-3.994c-3.745,-1.248 -15.728,-6.241 -21.22,-3.994c-5.492,2.247 -14.479,9.736 -13.73,16.226c0.749,6.491 4.244,3.745 4.244,0.749Z" style="fill:#563d34;"/></g><g id="Girl"><g id="Bear"><path id="Arm2" serif:id="Arm" d="M2298.5,1786.91c1.805,-15.342 11.733,-34.295 31.588,-46.028c19.855,-11.732 46.93,-21.66 55.956,-15.342c9.025,6.317 6.317,19.855 -4.513,28.88c-10.83,9.025 -46.93,35.198 -66.786,37.003c-19.855,1.805 -18.05,10.83 -16.245,-4.513Z" style="fill:#6f4b3e;"/><path id="Arm3" serif:id="Arm" d="M2245.25,1832.94c-18.05,9.928 -34.295,27.978 -39.71,49.638c-5.415,21.66 -5.415,31.588 -2.708,37.003c2.708,5.415 7.22,11.732 18.051,3.61c10.83,-8.123 26.172,-49.638 30.685,-65.883c4.512,-16.245 11.732,-34.295 -6.318,-24.368Z" style="fill:#6f4b3e;"/><path id="Leg" d="M2276.84,1906.05c0.903,19.855 -8.123,26.173 -18.05,36.101c-9.928,9.927 -15.343,29.782 0.902,35.197c16.246,5.415 37.003,-15.342 43.321,-30.685c6.317,-15.343 1.805,-44.223 1.805,-44.223c0,0 -28.88,-16.245 -27.978,3.61Z" style="fill:#6f4b3e;"/><path id="Leg1" serif:id="Leg" d="M2340.01,1878.07c5.415,13.537 3.61,24.367 -5.415,36.1c-9.026,11.732 -14.441,20.758 -5.415,27.075c9.025,6.318 31.587,0.903 41.515,-20.758c9.927,-21.66 0,-75.81 -20.758,-81.225c-20.757,-5.415 -15.342,25.27 -9.927,38.808Z" style="fill:#6f4b3e;"/><path id="Body" d="M2334.6,1904.24c-16.246,14.44 -56.858,27.075 -74.006,-2.707c-17.148,-29.783 -32.49,-55.053 -18.05,-83.933c14.44,-28.881 34.295,-46.028 56.858,-40.613c22.562,5.415 50.54,34.295 57.76,60.468c7.22,26.172 -6.317,52.345 -22.562,66.785Z" style="fill:#6f4b3e;"/><path d="M2296.82,1887.42c-17.148,-7.22 -23.588,-21.987 -19.075,-41.842c4.512,-19.855 19.131,-27.661 31.649,-12.013c13.879,17.352 12.324,30.283 9.616,40.21c-2.707,9.928 -13.927,17.124 -22.19,13.645Z" style="fill:#7c645b;"/><path id="Ear2" serif:id="Ear" d="M2226.3,1720.13c-3.61,-17.148 2.707,-37.003 17.147,-38.808c14.44,-1.805 39.711,8.122 37.906,25.27c-1.805,17.148 -13.538,30.685 -23.466,27.978c-9.927,-2.708 -27.977,2.707 -31.587,-14.44Z" style="fill:#6f4b3e;"/><path id="Ear:-In2" serif:id="Ear: In" d="M2237.59,1710.87c4.159,-6.469 11.09,-13.862 16.635,-13.4c5.545,0.462 8.318,10.628 6.007,15.711c-7.627,16.78 -26.8,4.158 -22.642,-2.311Z" style="fill:#7c645b;"/><path id="Ear3" serif:id="Ear" d="M2161.32,1763.45c-26.173,-5.415 -26.173,-0.902 -36.1,13.538c-9.928,14.44 -0.903,45.125 18.05,41.515c18.953,-3.61 31.588,-12.635 30.685,-18.953c-0.902,-6.317 13.538,-30.685 -12.635,-36.1Z" style="fill:#6f4b3e;"/><path id="Ear:-In3" serif:id="Ear: In" d="M2158.57,1777.41c-9.242,0.462 -18.483,6.007 -18.021,13.401c0.462,7.393 10.628,11.552 22.18,11.552c11.552,0 5.083,-25.415 -4.159,-24.953Z" style="fill:#7c645b;"/><path id="Head2" serif:id="Head" d="M2247.96,1834.75c-24.368,6.318 -55.956,8.123 -66.786,-3.61c-10.83,-11.732 -38.808,-41.515 -20.757,-82.128c18.05,-40.613 64.078,-46.028 91.153,-34.295c27.075,11.732 54.15,49.638 39.71,74.908c-14.44,25.27 -18.952,38.808 -43.32,45.125Z" style="fill:#6f4b3e;"/><path id="Eye2" serif:id="Eye" d="M2237.09,1749.4c-1.403,-1.967 -6.766,-2.884 -7.098,-2.899c-4.338,-0.197 -11.533,4.147 -7.852,9.301c2.221,3.108 9.904,5.25 13.234,3.208c3.155,-1.933 3.12,-7.643 1.716,-9.61Z" style="fill:#50382f;"/><path id="Eye3" serif:id="Eye" d="M2193.88,1785.91c-0.956,-0.438 -4.539,-0.68 -4.85,-0.68c-4.001,0 -11.124,2.277 -8.916,7.882c2.604,6.61 18.174,6.65 16.279,-1.877c0,0 -1.557,-4.886 -2.513,-5.325Z" style="fill:#50382f;"/><path id="Nose2" serif:id="Nose" d="M2216.92,1795.56c3.263,1.665 9.223,-0.54 11.751,-3.508c3.751,-4.403 6.206,-13.15 -1.376,-13.494c-5.002,-0.228 -8.602,4.863 -11.034,9.343c-2.023,3.727 -2.603,5.995 0.659,7.659Z" style="fill:#50382f;"/><path id="Mouth1" serif:id="Mouth" d="M2228.37,1808.67c-0.364,-1.014 -0.54,-1.717 -0.174,-2.786c1.535,-4.476 8.876,-3.174 12.091,-5.723c1.632,-1.295 3.158,-3.011 4.111,-4.868c0.889,-1.735 1.389,-4.077 3.013,-5.307c3.811,-2.887 7.23,3.698 7.162,6.76c-0.133,5.973 -5.303,11.831 -10.592,14.097c-2.453,1.051 -5.307,1.193 -7.934,1.287c-2.903,0.104 -7.312,-2.445 -7.677,-3.46Z" style="fill:#50382f;"/></g><path id="Legs1" serif:id="Legs" d="M2451.15,1816.51c31.588,30.46 37.47,36.363 44.239,43.132c6.768,6.769 8.953,17.865 4.271,27.941c-11.314,24.348 -6.101,41.051 14.294,23.559c12.73,-10.918 25.191,-25.815 25.191,-41.609c0,-15.794 -1.128,-38.357 22.563,-41.741c23.69,-3.385 22.868,20.729 16.462,31.883c-12.52,21.797 4.271,15.794 13.811,5.049c7.377,-8.308 26.133,-32.42 22.749,-56.111c-3.384,-23.69 -32.716,-24.819 -56.407,-23.69c-23.691,1.128 -138.76,1.128 -107.173,31.587Z" style="fill:#504642;"/><path id="Hand2" serif:id="Hand" d="M2431.09,1666.78c-9.242,13.863 -28.881,34.079 -43.898,42.166c-16.751,-4.044 -19.639,-1.733 -21.949,4.62c-2.311,6.354 0.768,9.621 3.797,12.043c-4.543,3.029 -8.025,10.751 -5.451,13.931c2.574,3.179 10.75,0 14.081,-2.423c-2.271,5.3 -1.817,8.631 0.909,9.993c2.725,1.363 9.085,-1.665 11.053,-7.722c-1.06,8.48 1.06,7.722 3.483,7.874c2.422,0.151 10.296,-8.934 10.599,-18.473c8.176,-7.419 39.368,-35.734 41.791,-40.579c2.422,-4.846 -5.174,-35.292 -14.415,-21.43Z" style="fill:#fbc7b4;"/><path id="Hand3" serif:id="Hand" d="M2559.2,1653.52c9.242,14.417 14.787,15.526 31.052,15.526c16.266,0 12.941,-4.941 21.178,-3.245c8.237,1.696 7.178,9.152 3.96,12.181c7.571,0.757 11.167,5.299 11.167,8.895c0,3.596 -4.164,5.489 -7.949,4.732c6.624,2.65 7.192,5.11 6.624,7.003c-0.567,1.893 -7.381,2.839 -11.166,1.514c3.785,4.353 0.567,8.139 -4.164,7.571c-4.732,-0.568 -13.439,-3.786 -15.71,-11.546c-9.463,-2.271 -33.879,1.136 -39.557,-5.488c-5.678,-6.625 -20.82,-23.47 -20.82,-23.47c0,0 20.871,-20.715 25.385,-13.673Z" style="fill:#fbc7b4;"/><path id="Neck2" serif:id="Neck" d="M2480.36,1641.75c5.776,-8.664 10.108,-22.383 7.942,-31.769c-2.166,-9.386 24.548,-5.054 24.548,-5.054c0,0 -3.61,21.66 3.61,33.935c7.22,12.274 -41.876,11.552 -36.1,2.888Z" style="fill:#fbc7b4;"/><path id="Skirt" d="M2525.24,1640.21c8.664,-7.509 12.708,-8.087 19.639,-0.578c6.931,7.509 21.371,17.328 15.595,21.371c-5.776,4.044 -12.707,12.13 -13.285,19.061c-0.577,6.932 -12.129,-1.733 -20.793,-10.974c-8.664,-9.242 -9.82,-21.372 -1.156,-28.88Z" style="fill:#92b65d;"/><path id="Skirt1" serif:id="Skirt" d="M2475.56,1637.32c-8.664,20.793 -24.259,68.735 -47.941,96.46c-23.682,27.725 -42.165,46.208 -31.768,61.803c10.397,15.596 42.743,45.631 136.892,16.751c58.503,-17.946 74.196,-64.093 59.494,-61.804c-3.868,0.602 -12.816,-8.545 -17.906,-13.285c-16.751,-15.595 -44.476,-42.743 -45.053,-97.037c-0.092,-8.639 -4.044,-10.397 -12.13,-6.354c-8.087,4.043 -19.639,9.242 -27.725,5.198c-8.087,-4.043 -10.855,-8.951 -13.863,-1.732Z" style="fill:#92b65d;"/><path id="Skirt2" serif:id="Skirt" d="M2480.18,1648.29c-8.229,-11.581 -21.949,-13.285 -31.768,-1.733c-9.819,11.552 -18.483,19.061 -21.371,19.639c-2.889,0.577 -2.311,3.465 4.62,12.129c6.932,8.665 5.776,12.13 8.664,16.751c2.888,4.621 5.199,5.198 13.285,0c8.087,-5.198 42.166,-24.837 26.57,-46.786Z" style="fill:#92b65d;"/><path id="Head3" serif:id="Head" d="M2446.6,1607.64c39.71,10.83 91.153,8.122 132.668,-27.075c41.516,-35.198 58.663,-90.251 46.931,-152.524c-11.733,-62.273 -79.421,-111.009 -142.596,-103.789c-63.176,7.22 -148.05,52.962 -145.304,138.084c1.805,55.956 33.844,124.997 108.301,145.304Z" style="fill:#fbc7b4;"/><path id="Hair2" serif:id="Hair" d="M2551.39,1311.95c6.654,-9.611 19.222,-29.573 0.369,-36.227c-18.853,-6.654 -28.834,6.654 -33.27,17.374c-4.436,10.721 -16.635,10.721 -9.611,-13.677c7.024,-24.398 51.384,-52.493 68.758,-12.199c-1.848,-22.92 -12.938,-21.071 -9.611,-31.792c3.327,-10.72 28.464,6.285 30.682,25.507c-2.972,-19.281 1.224,-39.134 13.006,-6.32c2.913,7.59 4.209,19.377 3.959,10.341c-0.295,-10.707 17.591,1.616 -2.918,22.965c6.654,-1.479 18.484,-2.218 2.958,14.417c-15.526,16.635 -21.441,30.313 -35.119,33.64c-21.629,5.261 -35.857,-14.417 -29.203,-24.029Z" style="fill:#ed8656;"/><path id="Hair3" serif:id="Hair" d="M2377.11,1584.17c-56.053,-56.541 -66.132,-141.97 -43.321,-195.845c42.418,-100.178 111.009,-95.665 123.644,-84.835c9.025,-12.635 130.864,-24.368 163.354,71.298c13.263,39.054 16.245,61.37 13.537,78.518c-2.707,17.148 -5.864,3.437 -9.191,-11.35c-3.327,-14.787 -6.654,-61.365 -46.208,-68.388c-18.006,-3.198 -32.161,8.502 -37.336,11.829c-5.176,3.327 -9.612,5.545 -19.223,-0.739c-9.612,-6.285 -34.01,-17.005 -60.626,-4.067c-26.616,12.939 -60.995,48.796 -65.061,109.791c-4.066,60.996 6.546,79.277 -2.118,91.406c-8.664,12.13 -11.591,8.293 -17.451,2.382Z" style="fill:#ed8656;"/><path d="M2341.71,1373.12c0.925,-9.928 23.292,-38.278 33.969,-42.178l-3.518,29.979l-30.451,12.199Z" style="fill:#5e7340;"/><path id="Hair4" serif:id="Hair" d="M2376.56,1354.72c-5.915,-26.986 -4.436,-73.194 -44.36,-93.156c-10.498,-5.249 -9.611,3.697 -7.393,25.137c-14.048,-19.592 -30.592,-19.769 -42.142,-7.393c-15.526,16.635 13.308,-1.479 15.895,22.919c-25.137,-5.545 -42.881,-1.478 -53.971,10.721c-11.09,12.199 -14.047,26.616 -14.417,38.445c-0.498,15.949 1.109,17.744 16.265,11.09c-9.611,14.417 -8.502,25.877 -1.848,52.493c6.654,26.616 3.697,26.246 0.739,34.379c-2.957,8.132 3.327,8.502 9.981,-0.37c6.654,-8.872 34.381,-35.731 35.49,-59.39c0.314,-6.708 19.962,-2.957 29.573,-28.094c2.767,-7.238 31.422,-7.763 34.749,16.635c0,0 27.354,3.57 21.439,-23.416Z" style="fill:#ed8656;"/><path d="M2341.71,1373.17c20.701,-17.374 24.915,-21.293 33.787,-42.364c14.787,9.981 21.071,15.896 21.071,15.896c-8.502,22.919 -7.911,23.511 -28.242,42.733l-26.616,-16.265Z" style="fill:#798a5f;"/><path d="M2555.45,1290.51c8.872,4.805 40.663,28.464 45.839,35.488c0,0 -2.391,8.418 -7.763,10.72c-9.242,-6.654 -29.574,-15.896 -45.1,-32.161l7.024,-14.047Z" style="fill:#798a5f;"/><path id="Mouth2" serif:id="Mouth" d="M2459.16,1536.03c-4.806,4.436 -12.694,1.199 -2.957,-6.653c11.459,-9.242 16.635,-5.915 9.241,2.587c14.417,18.483 34.888,38.482 68.019,36.597c24.815,-1.412 48.057,-26.616 62.104,-47.317c-14.417,-7.393 -2.588,-11.09 5.175,-8.502c7.763,2.587 11.09,12.568 0.74,8.872c-8.133,14.047 -21.441,34.748 -43.251,46.947c-21.811,12.199 -62.474,15.526 -99.071,-32.531Z" style="fill:#563d34;"/><path id="Tongue" d="M2561.66,1562.53c17.224,12.871 44.668,32.933 50.724,12.492c6.057,-20.441 -10.599,-27.255 -29.526,-33.122c-8.328,10.22 -11.545,13.059 -21.198,20.63Z" style="fill:#a75069;"/><path id="Lashes" d="M2485.62,1457.73c-4.525,-1.507 -13.284,-5.97 -17.519,-11.943c-4.236,-5.973 -4.406,8.469 14.852,14.727c0,0 7.191,-1.278 2.667,-2.784Z" style="fill:#250f08;"/><path id="Lashes1" serif:id="Lashes" d="M2482.57,1467.04c-4.732,-0.592 -14.195,-3.253 -19.518,-8.281c-5.324,-5.027 -2.662,9.168 17.448,11.534c0,0 6.802,-2.662 2.07,-3.253Z" style="fill:#250f08;"/><path id="Lashes2" serif:id="Lashes" d="M2584.03,1453.42c4.294,-1.482 12.586,-5.896 16.543,-11.837c3.956,-5.941 4.32,8.474 -13.96,14.629c0,0 -6.877,-1.31 -2.583,-2.792Z" style="fill:#250f08;"/><path id="Lashes3" serif:id="Lashes" d="M2588.15,1458.74c4.543,0.018 13.827,-1.412 19.523,-5.714c5.695,-4.303 1.281,9.424 -18.006,9.202c0,0 -6.059,-3.506 -1.517,-3.488Z" style="fill:#250f08;"/><path id="Eye4" serif:id="Eye" d="M2485.76,1453.32c-9.215,4.865 -9.937,19.4 -1.893,33.122c5.934,10.121 17.744,6.388 21.293,-0.947c2.533,-5.234 2.663,-14.233 -0.449,-21.814c-3.112,-7.58 -12.454,-13.792 -18.951,-10.361Z" style="fill:#250f08;"/><path id="Light2" serif:id="Light" d="M2498.94,1463.35c-2.159,0.487 -4.773,2.847 -4.361,7.722c0.363,4.3 2.392,10.297 5.269,7.571c2.877,-2.725 3.785,-16.353 -0.908,-15.293Z" style="fill:#f2ebe8;"/><path id="Eye5" serif:id="Eye" d="M2584.6,1445.45c-5.527,-0.178 -12.421,7.098 -12.716,19.814c-0.296,12.717 5.914,23.067 11.829,22.772c9.101,-0.455 12.717,-10.647 12.717,-20.702c0,-6.21 -2.662,-21.588 -11.83,-21.884Z" style="fill:#250f08;"/><path id="Light3" serif:id="Light" d="M2586.28,1457.39c-2.877,-0.605 -3.634,4.391 -3.937,6.814c-0.303,2.423 1.817,9.539 3.483,9.388c1.665,-0.152 4.088,-5.603 4.088,-9.237c0,-3.634 -0.757,-6.359 -3.634,-6.965Z" style="fill:#f2ebe8;"/><path id="Nose3" serif:id="Nose" d="M2542.9,1505.49c13.899,-0.296 14.491,1.774 10.646,6.21c-3.844,4.436 -13.604,5.028 -18.927,0.888c-5.323,-4.141 -5.619,-6.802 8.281,-7.098Z" style="fill:#ce9683;"/><g id="Freckets"><circle cx="2509.48" cy="1520.57" r="5.027" style="fill:#ce9683;"/><ellipse cx="2481.83" cy="1525.45" rx="4.88" ry="4.288" style="fill:#ce9683;"/><ellipse cx="2495.29" cy="1510.81" rx="5.027" ry="3.549" style="fill:#ce9683;"/><ellipse cx="2582.38" cy="1511.99" rx="4.288" ry="4.436" style="fill:#ce9683;"/><ellipse cx="2593.47" cy="1498.39" rx="5.027" ry="4.14" style="fill:#ce9683;"/></g></g><g id="Steffi"><path id="Backpack" d="M1311.64,1496.08c-25.011,-2.175 -30.878,-51.027 -26.037,-88.083c4.899,-37.51 18.95,-118.976 61.904,-115.713c42.953,3.262 179.407,-5.883 172.339,31.634c-27.727,147.167 -183.195,174.337 -208.206,172.162Z" style="fill:#504642;"/><path id="Legs2" serif:id="Legs" d="M1272.89,1606.96c2.474,42.064 -13.609,113.82 -25.981,141.038c-12.372,27.217 -43.446,100.78 -61.4,121.302c-10.263,11.731 12.091,21.15 20.847,6.159c10.157,-17.391 122.386,-112.539 133.904,-121.277c11.518,-8.738 56.003,-55.208 71.89,-57.194c15.887,-1.986 53.839,-13.13 48.059,31.377c-3.972,30.584 -21.845,49.648 -32.569,59.975c-10.724,10.327 -34.158,25.817 -44.087,28.994c-9.93,3.178 -1.986,20.257 9.929,19.462c11.916,-0.794 54.681,-14.55 97.74,-50.209c25.42,-21.05 61.281,-80.818 65.253,-109.415c3.971,-28.597 6.25,-56.071 -1.297,-67.59c-7.546,-11.518 -26.343,-31.264 -37.464,-28.988c-16.285,12.71 -130.13,55.001 -244.824,26.366Z" style="fill:#504642;"/><path d="M1380.68,1331.06l9.806,-66.19l102.145,4.903l-9.806,62.921l-102.145,-1.634Z" style="fill:#fbc7b4;"/><path id="Arm4" serif:id="Arm" d="M1689.13,1442.11c31.571,7.679 58.687,-0.743 58.687,-0.743l-23.029,36.401c0,0 -44.572,0.743 -75.03,-4.457c-30.458,-5.201 -20.801,-20.058 -20.801,-20.058l7.429,-20.8c0,0 25.258,2.971 52.744,9.657Z" style="fill:#fbc7b4;"/><path id="Hand4" serif:id="Hand" d="M1164.29,1482.97c-12.629,11.143 -40.858,35.658 -40.858,35.658c0,0 -14.857,-8.172 -26.743,5.2c-11.886,13.371 -8.829,18.631 -5.9,20.229c-3.461,3.194 -11.182,13.312 -7.455,17.971c3.727,4.659 20.367,-4.526 25.426,-10.117c-4.526,6.922 -17.838,26.091 -8.387,31.017c9.452,4.925 22.365,-9.718 27.423,-17.306c-4.526,9.585 -12.913,24.494 -3.328,28.754c9.585,4.26 24.361,-22.897 25.959,-28.754c1.73,7.588 1.198,12.247 7.587,11.848c6.39,-0.4 13.313,-10.783 9.985,-35.41c12.113,-13.978 63.296,-71.461 63.296,-71.461l-37.343,-19.605c0,0 -17.033,20.833 -29.662,31.976Z" style="fill:#fbc7b4;"/><path id="Shirt:-Arm" serif:id="Shirt: Arm" d="M1499.97,1376.53c0,0 -7.259,-38.372 -7.259,-49.638c0,-11.267 13.715,-22.701 34.103,-17.335c20.387,5.365 18.241,14.485 20.387,28.435c2.146,13.949 14.486,41.311 27.898,51.504c13.413,10.194 49.896,28.435 72.966,31.655c8.047,27.362 5.365,36.482 -11.267,50.968c-18.778,-4.829 -49.119,-10.849 -68.137,-24.68c-11.803,-8.584 -25.389,-10.549 -36.342,-26.956c-11.417,-17.102 -32.349,-43.953 -32.349,-43.953Z" style="fill:#d06944;"/><path id="Shirt:-Body" serif:id="Shirt: Body" d="M1384.68,1307.96c0,0 -42.485,6.07 -51.589,16.691c-9.104,10.622 -9.104,103.938 -30.347,147.183c-21.243,43.244 -66.764,86.489 -69.04,96.351c-2.276,9.863 28.83,47.797 70.557,62.212c41.727,14.415 150.531,18.374 214.151,-31.174c1.11,-31.759 -6.203,-54.826 -7.95,-87.583c-1.747,-32.757 6.115,-79.927 7.425,-89.099c1.31,-9.172 25.769,-81.893 17.034,-94.996c-8.736,-13.103 -34.495,-25.842 -43.677,-16.597c-32.288,32.51 -106.564,-2.988 -106.564,-2.988Z" style="fill:#d06944;"/><path id="Shirt:-Arm1" serif:id="Shirt: Arm" d="M1377.86,1355.56c3.715,17.086 0.743,40.115 -9.657,44.572c-10.4,4.457 -59.43,20.057 -73.544,32.686c-14.115,12.629 -63.887,40.858 -75.03,51.258c-18.572,-2.971 -32.686,-23.772 -38.629,-37.886c17.086,-12.629 78.744,-68.344 95.087,-85.43c16.343,-17.086 50.605,-45.698 72.131,-43.55c20.501,2.046 25.928,21.264 29.642,38.35Z" style="fill:#d06944;"/><path id="Backpack:-Rope" serif:id="Backpack: Rope" d="M1501.44,1308.87c8.982,48.827 -20.677,88.616 12.1,142.202c3.733,-2.625 6.116,-11.593 3.387,-19.116c-12.165,-33.547 0.951,-73.587 -1.981,-124.033c-4.604,-2.916 -12.07,-3.098 -13.506,0.947Z" style="fill:#504642;"/><path id="Backpack:-Rope1" serif:id="Backpack: Rope" d="M1358.93,1313.62c10.858,38.497 -1.316,101.51 -44.748,125.858c-5.594,2.303 -9.369,14.806 -4.433,14.477c37.509,-17.11 82.082,-53.23 61.242,-143.243c-5.865,-2.761 -11.038,0.839 -12.061,2.908Z" style="fill:#504642;"/><g id="Windmill"><path d="M1646.69,1602.19c46.092,-83.222 217.659,-339.291 235.583,-378.982c17.925,-39.691 42.252,-34.569 24.327,11.523c-17.925,46.093 -186.931,318.806 -226.621,366.179c-26.421,31.534 -48.525,28.79 -33.289,1.28Z" style="fill:#504642;"/><path d="M1739.66,1149.37l-42.593,136.472l420.715,-121.694l30.423,-135.603l-408.545,120.825Z" style="fill:#9a3737;"/><path d="M1739.66,1149.37l173.273,74.031l205.664,-59.399l-168.286,-77.255l-210.651,62.623Z" style="fill:#d97c7c;"/><path d="M1912.48,963.151l-140.897,-24.22l176.125,400.987l138.43,12.272l-173.658,-389.039Z" style="fill:#9a3737;"/><path d="M1912.48,963.151l-50.629,181.581l85.885,195.606l55.064,-175.327l-90.32,-201.86Z" style="fill:#d97c7c;"/><circle cx="1933.75" cy="1152.67" r="31.933" style="fill:#504642;"/></g><path id="Hand5" serif:id="Hand" d="M1788.96,1484.99c-4.369,15.293 -7.865,23.596 -19.226,26.654c-11.361,3.059 -29.277,6.992 -39.327,0c-10.614,-11.225 3.765,-22.218 15.259,-16.996c-13.834,-12.438 -7.48,-19.481 -5.645,-21.456c1.834,-1.976 4.233,-8.609 17.922,-5.081c-11.149,-7.479 -6.915,-15.382 -2.681,-20.604c4.233,-5.221 18.781,-11.339 30.906,5.222c5.786,7.903 7.162,16.967 2.792,32.261Z" style="fill:#fbc7b4;"/><path id="Head4" serif:id="Head" d="M1097.95,1009.51c32.902,87.052 72.679,156.34 157.711,212.461c81.716,53.932 211.644,80.082 280.286,53.933c68.641,-26.15 150.357,-113.585 175.689,-205.924c25.332,-92.339 49.029,-213.279 30.235,-312.972c-18.795,-99.693 -121.553,-233.912 -374.872,-214.3c-253.319,19.612 -327.312,312.652 -269.049,466.802Z" style="fill:#fbc7b4;"/><path id="Hair:-Back" serif:id="Hair: Back" d="M1401.66,355.278c13.497,-23.138 37.599,-54.953 24.102,-87.732c-13.497,-32.779 -28.923,-39.528 -40.492,-43.384c-1.928,18.318 -7.713,39.528 -15.425,47.24c-6.749,-23.138 -13.497,-53.024 -62.666,-69.414c-49.168,-16.389 -81.947,1.928 -94.48,6.749c22.174,21.21 50.132,30.85 53.989,65.558c-55.917,-21.21 -85.804,-27.959 -119.547,-3.857c-33.743,24.102 -56.881,90.624 -53.025,119.547c43.384,-11.569 26.995,19.281 19.282,27.958c-7.713,8.677 -27.958,61.702 -107.977,53.989c4.83,24.779 27.589,24.498 33.373,26.426c-17.549,17.262 -79.235,96.949 -140.6,96.454c51.962,27.713 78.191,12.372 82.645,11.382c-5.444,16.826 -12.372,54.932 -24.744,73.737c-12.372,18.806 -67.799,53.447 -64.334,63.84c3.464,10.392 65.324,0 118.771,-53.942c53.447,-53.942 377.63,-311.413 391.128,-334.551Z" style="fill:#6f4b3e;"/><path id="Plate" d="M1484.59,311.451l23.68,61.567c0,0 -526.296,175.142 -532.882,145.819c-6.586,-29.324 509.202,-207.386 509.202,-207.386Z" style="fill:#463d39;"/><path id="Hair:-Base" serif:id="Hair: Base" d="M1234.95,732.506c-20.444,10.903 -127.783,90.055 -154.164,225.22c-30.938,-62.609 -78.874,-186.56 -68.848,-286.815c10.025,-100.255 64.71,-228.08 235.143,-287.322c170.433,-59.241 318.993,30.988 375.5,82.027c56.507,51.039 78.381,117.572 86.584,161.319c-46.402,-54.135 -139.763,-13.53 -233.988,-11.004c-116.762,3.129 -232.948,-13.537 -240.227,116.575Z" style="fill:#563d34;"/><path id="Hair:-Front" serif:id="Hair: Front" d="M1485.87,664.303c-22.885,-55.577 -114.838,-44.659 -151.294,-30.077c-36.456,14.583 -103.901,73.825 -99.344,154.028c-57.418,-110.28 -41.924,-173.167 -16.405,-214.18c25.52,-41.014 110.28,-103.901 199.598,-38.28c37.593,27.619 59.242,70.179 59.242,70.179c0,0 13.671,-83.85 99.343,-89.318c85.673,-5.469 129.244,32.427 140.903,73.494c8.038,28.312 -5.562,66.627 5.834,100.585c6.333,18.871 20.051,43.747 50.128,48.304c-51.039,8.203 -80.476,-5.562 -92.324,-18.322c-11.848,-12.759 -19.78,-79.198 -68.084,-95.604c-48.305,-16.405 -95.698,11.849 -98.432,38.28c-2.735,12.759 -22.785,14.582 -29.165,0.911Z" style="fill:#6f4b3e;"/><path id="Ear:-Base1" serif:id="Ear: Base" d="M1129.89,847.885c-29.771,-22.586 -95.475,-9.24 -106.768,41.064c-11.293,50.305 9.24,95.476 42.091,110.875c32.852,15.399 60.48,13.261 74.944,-2.053c17.452,-18.479 19.505,-127.301 -10.267,-149.886Z" style="fill:#fbc7b4;"/><path id="Ear:-In4" serif:id="Ear: In" d="M1098.06,899.216c-10.266,10.266 -26.692,23.612 -18.479,40.038c8.213,16.426 22.586,17.452 29.772,7.186c7.186,-10.266 -7.186,-23.612 -10.266,-23.612c-3.08,0 9.239,-33.879 -1.027,-23.612Z" style="fill:#ce9683;"/><ellipse id="Cheeks" cx="1253.8" cy="981.504" rx="118.349" ry="92.46" style="fill:url(#_Radial1);"/><path id="Cheeks1" serif:id="Cheeks" d="M1709.53,1077.22c-24.633,7.948 -49.971,6.326 -70.641,-6.781c-43.096,-27.328 -49.686,-94.3 -14.707,-149.463c30.451,-48.021 82.43,-71.364 123.809,-58.575c-3.376,72.066 -19.505,146.15 -36.356,207.577c-0.664,2.417 -1.366,4.832 -2.105,7.242Z" style="fill:url(#_Radial2);"/><path id="Mouth:-Base1" serif:id="Mouth: Base" d="M1237.77,1052.29c21.527,51.78 101.816,144.288 133.234,166.978c31.417,22.691 96.66,51.352 153.597,21.527c73.308,-38.399 115.198,-127.416 139.052,-177.451c5.309,-11.135 3.491,-20.363 -1.745,-15.127c-5.236,5.236 -63.235,35.948 -127.959,46.341c-67.336,10.813 -114.344,3.863 -178.574,-10.597c-76.734,-17.276 -122.834,-44.248 -117.605,-31.671Z" style="fill:#563d34;"/><path id="Mouth:-Tongue1" serif:id="Mouth: Tongue" d="M1352.97,1196.47c53.004,-41.856 160.084,-39.614 218.445,2.383c-59.987,62.56 -144.069,67.863 -218.445,-2.383Z" style="fill:#a75069;"/><path id="Mouth:-Teeth1" serif:id="Mouth: Teeth" d="M1257.68,1053.78c0,0 -0.512,22.151 1.238,24.777c1.751,2.625 80.97,33.154 133.031,40.259c47.219,6.444 131.719,7.439 165.414,-0.875c33.695,-8.315 79.643,-28.882 86.207,-31.07c6.564,-2.188 8.403,-32.177 4.759,-30.445c-70.349,33.434 -176.066,75.614 -390.649,-2.646Z" style="fill:#f2ebe8;"/><path id="Nose4" serif:id="Nose" d="M1471.4,1020.53c0,10.596 32.543,29.516 47.679,28.759c15.136,-0.757 48.485,-26.823 49.193,-32.543c1.066,-8.61 -37.084,-2.27 -48.436,-1.513c-11.353,0.756 -48.436,-5.298 -48.436,5.297Z" style="fill:#ce9683;"/><path id="Lash" d="M1353.24,856.865c-1.338,6.468 -20.809,-3.634 -29.396,-19.818c-8.588,-16.185 19.06,18.456 29.396,19.818Z" style="fill:#250f08;"/><path id="Lash1" serif:id="Lash" d="M1345.09,867.382c-0.348,7.468 -20.821,3.564 -34.344,-8.798c-13.523,-12.362 13.036,9.029 34.344,8.798Z" style="fill:#250f08;"/><path id="Eye6" serif:id="Eye" d="M1359.02,940.167c16.968,0.98 32.939,-29.414 32.939,-44.122c0,-14.707 -5.989,-48.043 -26.95,-48.043c-20.961,0 -28.946,31.375 -28.946,49.024c0,17.648 5.988,42.16 22.957,43.141Z" style="fill:#250f08;"/><path d="M1372.97,873.654c9.124,1.303 10.428,11.08 10.428,17.597c0,6.518 -4.562,16.294 -8.473,16.946c-3.911,0.652 -11.08,-9.124 -11.08,-14.339c0,-5.214 0,-21.508 9.125,-20.204Z" style="fill:#f2ebe8;"/><path id="Lash2" serif:id="Lash" d="M1659.1,871.999c2.567,7.709 19.196,1.704 28.463,-13.618c9.267,-15.321 -10.608,8.786 -28.463,13.618Z" style="fill:#250f08;"/><path id="Lash3" serif:id="Lash" d="M1656.24,885.438c-0.358,3.67 16.423,9.208 29.653,-1.001c13.23,-10.208 -12.249,4.322 -29.653,1.001Z" style="fill:#250f08;"/><path id="Eye7" serif:id="Eye" d="M1651.95,861.485c16.372,0.963 20.224,31.781 20.224,51.042c0,19.261 -6.741,38.523 -26.965,37.56c-20.225,-0.964 -21.188,-25.04 -21.188,-43.338c0,-18.298 11.557,-46.227 27.929,-45.264Z" style="fill:#250f08;stroke:#000;stroke-width:0.75px;"/><path d="M1658.64,883.012c-9.124,1.304 -10.428,11.08 -10.428,17.598c0,6.517 4.562,16.294 8.473,16.946c3.911,0.651 11.08,-9.125 11.08,-14.339c0,-5.214 0,-21.508 -9.125,-20.205Z" style="fill:#f2ebe8;"/><path id="Eyebrow4" serif:id="Eyebrow" d="M1563.71,816.821c4.963,-9.926 45.774,-29.923 71.828,-31.784c26.054,-1.861 55.34,3.869 65.886,16.896c10.546,13.027 -32.013,-12.619 -63.6,-8.212c-31.586,4.408 -54.358,15.671 -65.621,27.669c-11.263,11.998 -13.455,5.356 -8.493,-4.569Z" style="fill:#563d34;"/><path id="Eyebrow5" serif:id="Eyebrow" d="M1433.68,799.353c-6.856,-4.407 -47.875,-23.8 -80.515,-27.36c-27.708,-3.022 -57.51,-0.961 -91.354,7.047c-12.662,2.996 -3.1,6.728 2.694,5.631c19.077,-3.609 57.336,-8.589 87.558,-4.108c27.523,4.081 60.192,19.28 72.435,24.911c12.242,5.632 16.038,-1.713 9.182,-6.121Z" style="fill:#563d34;"/></g><g id="Music"><path d="M1519.82,1143.46c150.565,-47.74 190.96,-82.627 231.355,-159.745c40.396,-77.119 99.152,-198.305 251.553,-269.915c152.401,-71.61 168.926,-143.22 235.028,-262.57c66.101,-119.35 86.299,-194.632 354.377,-330.507c268.078,-135.875 528.444,-78.186 538.481,60.978c13.69,189.814 -154.56,260.782 -261.996,267.693c-248.731,16 -300.355,95.48 -390.326,159.745c-89.972,64.266 -110.17,190.96 -262.57,236.864c-152.401,45.904 -194.632,86.299 -262.57,156.073c-67.938,69.774 -176.271,119.35 -277.259,139.548c-100.988,20.197 -306.637,49.576 -156.073,1.836Z" style="fill:url(#_Linear3);"/><path d="M1619.15,1129.83c-32.403,4.782 122.521,-16.37 176.839,-120.069c40.396,-77.118 83.717,-167.428 236.118,-239.038c152.4,-71.61 197.113,-134.547 263.215,-253.897c66.101,-119.35 93.617,-209.765 361.695,-345.64c268.078,-135.875 463.57,-127.129 473.597,10.517c13.69,187.931 -266.061,208.827 -330.813,212.992c-246.942,15.886 -284.545,99.998 -374.516,164.263c-89.972,64.265 -125.98,186.443 -278.38,232.346c-152.401,45.904 -188.608,88.899 -241.177,158.242c-107.525,141.836 -187.324,165.637 -286.578,180.284Z" style="fill:url(#_Linear4);"/><path d="M1951.94,600.748c1.147,-0.912 2.549,-1.241 3.819,-0.838l107.903,42.071c1.58,0.737 1.89,1.444 2.205,2.635c0.038,0.144 0.069,0.287 0.093,0.432l0.011,2.159l0,118.51c0.724,10.648 -11.068,21.784 -27.607,25.546c-17.625,4.008 -34.011,-1.866 -36.568,-13.109c-2.557,-11.244 9.676,-23.627 27.301,-27.635c10.18,-2.315 19.947,-1.334 26.874,2.075l0,-73.559l-96.204,-37.509l0,84.135c-0.017,0.318 -0.043,0.603 -0.079,0.861c-0.951,9.916 -12.215,19.767 -27.574,23.26c-17.625,4.009 -34.01,-1.865 -36.567,-13.109c-2.557,-11.243 9.676,-23.626 27.301,-27.635c10.202,-2.32 19.989,-1.329 26.919,2.098l0,-106.366c0.087,-1.672 0.922,-3.113 2.173,-4.022Zm7.827,30.044l96.204,37.51l0,-6.267l-96.204,-37.509l0,6.266Z" style="fill:#de865b;"/><path d="M2433.7,680.266c-0.017,0.318 -0.043,0.603 -0.079,0.861c-0.951,9.916 -12.216,19.767 -27.574,23.26c-17.625,4.009 -34.01,-1.865 -36.567,-13.109c-2.557,-11.243 9.676,-23.626 27.301,-27.635c10.202,-2.32 19.989,-1.329 26.919,2.098l0,-106.366c0,0 0,-0.04 0,-0.04c0.043,-1.148 0.153,-1.337 0.345,-1.826c0.52,-1.325 1.618,-2.34 2.961,-2.834c0.555,-0.233 1.136,-0.347 1.71,-0.327c0.118,-0.004 0.238,-0.003 0.357,0.001c2.273,0.256 4.233,2 4.571,4.241c0.049,0.329 0.043,0.413 0.056,0.745l0,120.931Z" style="fill:#de865b;"/><path d="M2533.82,215.857c-0.016,0.317 -0.043,0.602 -0.078,0.861c-0.952,9.915 -12.216,19.767 -27.574,23.26c-17.625,4.008 -34.01,-1.866 -36.568,-13.11c-2.557,-11.243 9.677,-23.626 27.302,-27.634c10.202,-2.321 19.988,-1.33 26.918,2.097l0,-106.366c0,0 0,-0.039 0,-0.039c0.043,-1.149 0.154,-1.337 0.346,-1.827c0.52,-1.325 1.617,-2.34 2.961,-2.833c0.555,-0.234 1.136,-0.348 1.71,-0.328c0.118,-0.003 0.237,-0.003 0.357,0.002c2.272,0.256 4.233,1.999 4.57,4.24c0.05,0.329 0.044,0.414 0.056,0.746l0,120.931Z" style="fill:#de865b;"/><path d="M2586.11,295.05c-0.017,0.318 -0.043,0.603 -0.078,0.861c-0.952,9.916 -12.216,19.767 -27.574,23.26c-17.625,4.009 -34.011,-1.865 -36.568,-13.109c-2.557,-11.244 9.677,-23.626 27.302,-27.635c10.202,-2.32 19.988,-1.329 26.918,2.098l0,-106.366c0,0 0,-0.04 0,-0.04c0.043,-1.148 0.154,-1.337 0.346,-1.827c0.52,-1.325 1.617,-2.34 2.961,-2.833c0.555,-0.234 1.135,-0.347 1.709,-0.328c0.119,-0.003 0.238,-0.002 0.358,0.002c2.272,0.256 4.232,1.999 4.57,4.241c0.05,0.329 0.044,0.413 0.056,0.745l0,120.931Z" style="fill:#de865b;"/><path d="M2830.76,389.178l0.006,-1.076c0.024,-0.144 0.055,-0.288 0.093,-0.431c0.315,-1.192 0.624,-1.899 2.205,-2.636l107.903,-42.07c1.27,-0.403 2.672,-0.074 3.819,0.838c0.067,0.049 0.132,0.098 0.196,0.15c1.023,0.771 1.758,1.898 1.953,3.191c0.049,0.329 0.043,0.414 0.056,0.746l0,120.931c-0.017,0.317 -0.043,0.602 -0.079,0.861c-0.951,9.915 -12.216,19.767 -27.574,23.26c-17.625,4.008 -34.01,-1.866 -36.567,-13.11c-2.557,-11.243 9.676,-23.626 27.301,-27.634c10.202,-2.321 19.989,-1.33 26.919,2.097l0,-69.831l-0.032,0.116l-96.204,37.51l0,88.153c-0.017,0.317 -0.043,0.603 -0.079,0.861c-0.951,9.916 -12.216,19.767 -27.574,23.26c-17.625,4.008 -34.01,-1.866 -36.567,-13.109c-2.557,-11.244 9.676,-23.627 27.301,-27.635c10.202,-2.32 19.989,-1.329 26.919,2.098l0,-105.456c0,0 0,-0.911 0,-0.911c0,0 0,-0.039 0,-0.039l0.005,-0.134Zm9.995,15.912l0,6.267l96.204,-37.51l0,-6.267l-96.204,37.51Z" style="fill:#de865b;"/></g><g id="Flowers"><g id="Flower"><path d="M1670.83,1994.13c2.31,-27.147 8.086,-59.493 11.552,-77.399c3.465,-17.906 8.664,-24.837 -5.199,-55.45c-13.862,-30.613 -18.483,-44.476 -16.75,-49.674c1.733,-5.199 10.974,15.018 17.906,33.501c6.931,18.483 19.638,41.01 16.75,55.45c-2.888,14.44 -15.018,75.089 -14.44,89.529c0.578,14.44 -10.628,13.548 -9.819,4.043Z" style="fill:#507e41;"/><path d="M1676.6,2000.81c21.956,-15.925 49.103,-58.09 61.81,-93.324c12.708,-35.234 4.044,-36.389 -16.75,-15.017c-50.217,51.612 -47.899,110.4 -45.06,108.341Z" style="fill:#507e41;"/><path d="M1678.34,1823.74c2.642,0 1.278,8.379 0.831,9.495c-1.932,4.83 -9.905,9.228 -14.833,9.589c-5.89,0.431 -11.264,-2.788 -16.715,-4.796c-1.756,-0.647 -2.525,-7.827 -4.391,-7.717c-1.736,0.102 -5.586,8.05 -8.074,9.259c-9.312,4.523 -18.935,3.053 -25.49,-4.763c-5.798,-6.913 -5.857,-16.87 -1.113,-24.325c1.859,-2.922 6.317,-6.704 6.317,-6.704c0,0 -9.056,3.181 -13.926,-3.466c-4.547,-6.207 -4.548,-16.71 -0.541,-23.669c3.165,-5.498 16.027,-8.062 21.26,-5.05c2.096,1.207 3.633,3.601 1.779,-0.346c-4.539,-9.662 0.698,-23.527 8.033,-26.897c11.908,-5.471 25.145,-9.175 34.825,3.03c1.756,2.214 2.925,5.296 3.235,8.087c0.093,0.842 -0.352,4.049 0.416,4.598c0.608,0.434 2.08,-2.974 2.241,-3.281c1.112,-2.123 2.975,-3.918 5.06,-5.083c6.414,-3.585 20.844,-1.59 25.114,4.713c4.532,6.69 3.469,17.144 0.439,24.213c-1.045,2.438 -4.127,5.67 -4.251,8.272c-0.149,3.13 6.495,6.162 8.433,8.409c5.813,6.743 3.647,17.788 -2.865,23.336c-4.155,3.539 -12.34,9.181 -17.467,8.155c-1.567,-0.313 -8.317,-5.059 -8.317,-5.059Z" style="fill:#d59c1a;"/><path d="M1671.68,1785.55c-5.57,-6.048 -18.618,-6.418 -26.02,-3.191c-8.687,3.787 -8.28,17.327 -1.572,22.736c3.515,2.835 7.996,3.172 12.345,3.172c4.403,0 8.965,0.186 12.961,-1.983c6.606,-3.586 7.855,-14.686 2.286,-20.734Z" style="fill:#e9e1ce;"/></g><path id="Grass" d="M1631.56,2028.79c-14.619,-0.384 -17.906,-8.664 -23.682,-28.302c-5.776,-19.639 -17.328,-61.226 -34.656,-70.468c-17.329,-9.242 35.811,2.31 48.518,32.923c5.776,-43.32 19.639,-56.027 27.725,-69.312c8.087,-13.285 16.173,-12.708 8.664,23.682c-7.508,36.389 -1.155,51.984 -1.155,51.984c0,0 27.148,-20.794 41.588,-24.837c14.44,-4.043 -24.837,25.415 -36.967,44.476c-12.13,19.06 -8.086,40.432 -30.035,39.854Z" style="fill:#608952;"/><g id="Flower1" serif:id="Flower"><path d="M1918.57,2021.33c-1.159,6.257 -5.872,5.487 -7.701,0c-11.552,-34.656 -47.653,-57.761 -57.279,-108.301c-2.166,-11.369 25.992,2.407 35.619,14.44c9.626,12.034 18.772,50.541 41.394,15.403c22.623,-35.138 48.615,-13.477 63.537,-7.22c14.921,6.257 -28.603,20.224 -39.47,29.843c-16.737,14.814 -28.88,16.847 -36.1,55.835Z" style="fill:#567d48;"/><path d="M1911.35,1967.9c-2.407,-21.179 10.589,-88.085 16.365,-102.525c5.776,-14.44 10.109,-4.814 1.926,27.917c-8.183,32.731 -10.59,74.608 -10.108,74.608c0.481,0 -7.54,5.659 -8.183,0Z" style="fill:#567d48;"/><path d="M1935.3,1864.88c0,1.258 -9.683,4.67 -15.239,5.484c-5.824,0.854 -15.953,-0.443 -20.428,-3.474c-6.124,-4.149 -7.377,-14.792 -8.11,-21.536c-1.149,-10.569 5.092,-27.407 17.502,-28.294c3.917,-0.279 8.302,-2.612 11.886,-1.163c0.817,0.33 -6.917,-2.851 -9.729,-6.113c-4.55,-5.278 -11.606,-11.719 -4.779,-24.167c8.625,-15.729 21.681,-17.576 32.438,-15.903c1.877,0.292 8.586,3.954 9.869,5.442c0.36,0.418 1.576,3.437 2.31,3.254c0.782,-0.196 1.298,-2.845 1.56,-3.446c1.146,-2.631 2.832,-4.98 4.929,-6.932c9.529,-8.872 21.481,-9.116 32.634,-3.061c10.735,5.828 17.979,20.041 20.486,31.46c1.091,4.973 1.872,10.036 0.058,14.96c-1.603,4.351 -5.446,9.008 -8.953,11.995c-0.628,0.535 -4.586,2.677 -4.371,3.466c0.491,1.799 7.239,2.76 8.857,3.639c9.061,4.918 13.32,15.721 7.353,27.341c-5.673,11.049 -10.946,18.177 -23.853,15.343c-5.425,-1.19 -7.613,-2.593 -12.153,-5.922c-1.359,-0.997 -1.462,-0.72 -0.997,0.166c2.978,5.687 6.169,13.131 1.289,18.791c-4.075,4.727 -13.76,8.362 -25.69,4.763c-22.002,-6.637 -16.869,-26.093 -16.869,-26.093Z" style="fill:#c06a64;"/><path d="M1967.56,1812.12c-7.763,-5.788 -22.554,-7.86 -31.645,2.708c-5.707,6.634 -6.233,25.016 1.478,30.313c11.992,8.238 29.493,3.801 34.01,-2.957c4.596,-6.877 5.825,-22.855 -3.843,-30.064Z" style="fill:#e3d3d2;"/></g><path id="Grass1" serif:id="Grass" d="M1778.19,2043.75c-4.813,-34.295 -22.863,-87.844 -42.117,-114.919c-19.253,-27.075 11.432,-12.635 28.88,6.017c7.822,-36.101 27.076,-66.786 46.931,-98.674c19.855,-31.889 28.278,-28.88 15.042,31.287c-13.237,60.167 -14.441,77.374 -14.441,85.798c13.478,-21.901 32.491,-29.241 49.337,-35.86c16.847,-6.618 -10.83,39.711 -29.481,63.176c-18.652,23.465 -31.889,34.295 -31.889,58.963c0,5.416 -21.387,10.444 -22.262,4.212Z" style="fill:#6c8e60;"/></g><g id="Flowers1" serif:id="Flowers"><path d="M592.587,2044.16c-12.222,-3.761 -16.922,0.94 -22.563,-20.683c-5.641,-21.622 -25.383,-53.586 -52.646,-88.37c-27.263,-34.784 46.065,2.82 63.927,24.443c5.815,-36.553 28.203,-71.449 51.706,-83.67c23.503,-12.222 -12.221,30.083 -16.922,89.31c43.375,-29.648 41.365,-20.682 53.587,-24.443c12.221,-3.76 0.94,15.042 -15.982,27.264c-16.922,12.221 -35.725,37.604 -41.365,56.406c-5.641,18.802 -7.521,23.503 -19.742,19.743Z" style="fill:#6c8e60;"/></g></g><defs><radialGradient id="_Radial1" cx="0" cy="0" r="1" gradientUnits="userSpaceOnUse" gradientTransform="matrix(102.378,48.0767,-28.6873,61.0888,1256.27,977.806)"><stop offset="0" style="stop-color:#e66b8b;stop-opacity:0.32549"/><stop offset="1" style="stop-color:#fbc7b4;stop-opacity:0.32549"/></radialGradient><radialGradient id="_Radial2" cx="0" cy="0" r="1" gradientUnits="userSpaceOnUse" gradientTransform="matrix(1.98564,85.81,-77.5497,45.3424,1717.79,972.027)"><stop offset="0" style="stop-color:#e66b8b;stop-opacity:0.32549"/><stop offset="1" style="stop-color:#fbc7b4;stop-opacity:0.32549"/></radialGradient><linearGradient id="_Linear3" x1="0" y1="0" x2="1" y2="0" gradientUnits="userSpaceOnUse" gradientTransform="matrix(157.641,-1147.64,1147.64,157.641,2201.05,1264.87)"><stop offset="0" style="stop-color:#f6cf68;stop-opacity:0"/><stop offset="0.31" style="stop-color:#eecb6c;stop-opacity:1"/><stop offset="0.55" style="stop-color:#eeaf63;stop-opacity:1"/><stop offset="1" style="stop-color:#f29a1f;stop-opacity:0"/></linearGradient><linearGradient id="_Linear4" x1="0" y1="0" x2="1" y2="0" gradientUnits="userSpaceOnUse" gradientTransform="matrix(643.118,-1002.21,1002.21,643.118,2104.53,1171.34)"><stop offset="0" style="stop-color:#fff;stop-opacity:0.3"/><stop offset="1" style="stop-color:#b3b3b3;stop-opacity:0"/></linearGradient></defs></svg>