<?xml version="1.0" encoding="utf-8"?>
<!-- Generator: Adobe Illustrator 16.0.0, SVG Export Plug-In . SVG Version: 6.00 Build 0)  -->
<!DOCTYPE svg PUBLIC "-//W3C//DTD SVG 1.1 Tiny//EN" "http://www.w3.org/Graphics/SVG/1.1/DTD/svg11-tiny.dtd">
<svg version="1.1" baseProfile="tiny" xmlns="http://www.w3.org/2000/svg" xmlns:xlink="http://www.w3.org/1999/xlink" x="0px"
	 y="0px" width="755.564px" height="623.681px" viewBox="0 0 755.564 623.681" xml:space="preserve">
<g id="Ebene_2">
	<g>
		<path fill="#FFFFFF" d="M326.779,389.771c0.177-1.51,0.344-2.937,0.415-4.374c0.019-0.536-0.193-2.707-0.333-4.143
			c-0.053-0.548-0.101-1.039-0.142-1.479c-1.745-0.161-4.095-0.066-6.281,0.051l-0.928,0.049c-0.822,0.042-1.652,0.071-2.485,0.101
			c-2.294,0.082-4.46,0.159-6.492,0.49c-2.105,0.343-4.116,0.502-6.327,0.502c-1.879,0-3.679-0.115-5.567-0.244
			c0.073,2.482,0.218,4.914,0.369,7.439c0.09,1.51,0.181,3.03,0.256,4.578c0.052,1.048,0.178,2.107,0.313,3.229
			c0.227,1.895,0.461,3.854,0.356,5.978c-0.017,0.598,0.266,2.847,0.46,4.34c1.579-0.05,3.175-0.176,4.843-0.308
			c2.187-0.173,4.447-0.352,6.74-0.352c3.502,0,10.824,0.002,14.813,0.005c-0.015-0.771-0.074-1.57-0.16-2
			c-0.609-3.051-0.458-6.551-0.27-9.592C326.45,392.582,326.617,391.153,326.779,389.771z"/>
		<path fill="#FFFFFF" d="M273.734,393.25c-0.052-1.045-0.178-2.103-0.312-3.223c-0.227-1.896-0.461-3.858-0.357-5.984
			c0.017-0.598-0.266-2.849-0.461-4.34c-1.579,0.05-3.175,0.176-4.844,0.308c-2.186,0.173-4.446,0.352-6.738,0.352
			c-3.503,0-10.828-0.003-14.815-0.005c0.016,0.771,0.074,1.571,0.16,2.003c0.607,3.039,0.458,6.542,0.27,9.588
			c-0.09,1.458-0.257,2.885-0.419,4.266c-0.177,1.512-0.344,2.939-0.415,4.377c-0.02,0.541,0.193,2.717,0.333,4.157
			c0.053,0.542,0.1,1.029,0.141,1.466c1.741,0.16,4.088,0.066,6.271-0.051l0.94-0.049c0.824-0.042,1.659-0.072,2.497-0.102
			c2.289-0.082,4.451-0.158,6.479-0.488c2.105-0.343,4.116-0.502,6.328-0.502c1.878,0,3.677,0.116,5.565,0.244
			c-0.073-2.477-0.218-4.904-0.368-7.425C273.901,396.326,273.81,394.802,273.734,393.25z"/>
		<path fill="#FFFFFF" d="M252.133,345.642c2.711-0.417,9.545-1.335,16.992-1.335c4.594,0,9.421,0.35,13.657,1.382
			c9.126,2.225,17.305,2.382,26.776,1.936c6.067-0.287,19.925-0.131,28.295,0.122c-2.349-2.933-9.637-12.408-12.225-15.943
			l-1.443-1.975c-10.811-14.811-16.892-22.904-18.073-24.055c-3.743-3.504-11.685-12.675-13.2-15.873
			c-1.212-2.559-3.175-5.986-4.656-8.117c-4.701,4.255-14.875,14.085-17.579,17.485c-1.714,2.157-9.084,10.615-11.362,12.829
			c-3.228,3.137-5.276,6.457-7.649,10.301c-0.616,0.999-1.243,2.014-1.904,3.046c-3.11,4.862-7.159,9.192-11.039,13.21
			c-1.805,1.87-3.536,3.86-5.143,5.916c-0.462,0.592-0.903,1.211-1.344,1.855c1.156-0.003,2.306,0.004,3.439,0.01
			C241.301,346.464,246.609,346.49,252.133,345.642z"/>
		<path fill="#FFFFFF" d="M296.943,463.285c0-3.706-0.523-12.882-0.812-14.229c-0.418-1.623-0.583-3.253-0.742-4.829l-0.038-0.372
			c-0.315-3.08-0.302-6.084-0.291-8.989l0.005-1.479c0-0.078-0.002-0.156-0.007-0.236c-1.043,0.036-2.071,0.062-2.89,0.08
			c-1.621,0.037-2.96,0.06-4.313,0.083c-1.679,0.029-3.377,0.059-5.669,0.115c-1.196,0.029-2.27-0.133-3.216-0.275
			c-0.358-0.054-0.705-0.106-1.042-0.146c0.053,0.86,0.109,1.728,0.166,2.602c0.338,5.246,0.688,10.669,0.473,15.908
			c-0.049,1.2-0.02,2.436,0.011,3.744c0.046,1.944,0.093,3.955-0.119,6.022c-0.146,1.421-0.072,2.781,0.031,4.664
			c0.005,0.098,0.011,0.205,0.016,0.305c5.933-0.191,11.924-0.139,17.928,0.454c0.193,0.019,0.382,0.035,0.575,0.054
			C296.976,465.608,296.943,464.455,296.943,463.285z"/>
		<path fill="#FFFFFF" d="M340.561,405.573c-0.046-4.951-0.173-10.018-0.308-15.382c-0.294-11.717-0.598-23.795-0.046-35.364
			c-6.972-0.261-23.116-0.551-30.318-0.209c-10.077,0.475-18.825,0.295-28.764-2.127c-9.851-2.4-23.868-0.552-27.929,0.071
			c-6.07,0.932-11.908,0.903-17.554,0.874c-2.286-0.011-4.625-0.022-6.984,0.029c-0.007,0.287-0.012,0.605-0.016,0.963l-0.002,0.193
			c-0.032,2.877,0.186,5.738,0.416,8.768c0.127,1.67,0.259,3.396,0.343,5.12c0.389,7.905-0.017,15.92-0.41,23.671l-0.097,1.925
			c-0.188,3.766,0.075,7.38,0.354,11.208c0.311,4.273,0.633,8.692,0.256,13.256c-1.191,14.408-1.163,41.198-1.125,49.239
			c2.584,0.648,6.305,0.541,9.419,0.449c1.139-0.033,2.234-0.064,3.242-0.064c7.172,0,14.451-0.518,21.491-1.019
			c2.969-0.211,5.967-0.421,8.984-0.598c-0.004-0.082-0.009-0.168-0.013-0.248c-0.115-2.119-0.207-3.792-0.004-5.759
			c0.167-1.628,0.127-3.335,0.084-5.142c-0.032-1.361-0.065-2.769-0.007-4.196c0.201-4.87-0.137-10.106-0.464-15.17
			c-0.079-1.213-0.156-2.415-0.226-3.598l-0.016-0.265c-0.083-1.319-0.196-3.127,1.23-4.637c1.36-1.44,3.281-1.609,4.925-1.616
			c1.121,0.006,2.115,0.156,2.992,0.288c0.759,0.115,1.423,0.213,2,0.199c2.312-0.057,4.025-0.086,5.719-0.116
			c1.341-0.023,2.669-0.046,4.277-0.083c1.43-0.032,3.512-0.086,5.096-0.182c0.686-0.042,2.505-0.152,3.827,1.298
			c1.251,1.375,1.001,2.986,0.919,3.516l-0.005,0.033c0.019,0.168,0.04,0.333,0.061,0.497c0.073,0.57,0.156,1.217,0.156,1.997
			l-0.005,1.504c-0.012,2.848-0.023,5.537,0.254,8.249l0.039,0.38c0.139,1.377,0.27,2.677,0.564,3.82
			c0.564,2.187,1.025,13.009,1.025,15.94c0,1.249,0.036,2.483,0.071,3.711c0.003,0.124,0.003,0.247,0.007,0.371
			c7.053,0.534,13.769,0.806,20.356,0.824c5.194,0.027,9.325-0.232,13.697-0.493c2.241-0.134,4.534-0.271,7.024-0.374
			c-0.216-2.652-0.566-6.515-0.948-10.728C342.769,441.361,340.679,418.335,340.561,405.573z M281.39,412.675l-3.658-0.185
			c-1.237-0.063-2.394-0.141-3.506-0.217c-1.892-0.129-3.678-0.251-5.432-0.251c-1.826,0-3.479,0.131-5.204,0.412
			c-2.464,0.401-4.95,0.489-7.355,0.575c-0.801,0.028-1.6,0.057-2.389,0.097l-0.922,0.048c-1.416,0.076-2.88,0.154-4.366,0.154
			c-1.339,0-2.529-0.065-3.628-0.198h-5.843l0.403-3.799c0.005-0.56-0.189-2.554-0.319-3.883c-0.252-2.587-0.404-4.222-0.357-5.179
			c0.082-1.674,0.271-3.289,0.454-4.85c0.157-1.346,0.306-2.618,0.385-3.883c0.161-2.604,0.295-5.57-0.148-7.786
			c-0.013-0.063-1.144-6.327,0.985-8.922c0.758-0.924,1.862-1.455,3.03-1.455c0.616,0.003,12.684,0.008,17.504,0.008
			c2.016,0,4.042-0.16,6.186-0.33c2.792-0.221,5.716-0.447,8.657-0.309l3.074,0.146l0.249,3.067
			c0.034,0.417,0.146,1.255,0.275,2.232c0.396,3.009,0.65,5.067,0.593,6.22c-0.075,1.535,0.115,3.125,0.316,4.808
			c0.143,1.189,0.29,2.42,0.353,3.71c0.075,1.529,0.164,3.028,0.253,4.519c0.221,3.708,0.449,7.541,0.429,11.587L281.39,412.675z
			 M334.185,385.737c-0.083,1.676-0.271,3.288-0.454,4.847c-0.158,1.348-0.307,2.621-0.385,3.888
			c-0.161,2.602-0.296,5.563,0.147,7.787c0.012,0.059,1.146,6.32-0.984,8.92c-0.758,0.925-1.863,1.456-3.031,1.456
			c-0.621-0.004-12.685-0.009-17.502-0.009c-2.017,0-4.043,0.16-6.189,0.33c-2.192,0.173-4.459,0.352-6.764,0.352
			c-0.63,0-1.261-0.013-1.892-0.043l-3.074-0.146l-0.249-3.067c-0.034-0.416-0.146-1.253-0.275-2.229
			c-0.395-3.011-0.65-5.07-0.593-6.224c0.075-1.533-0.115-3.121-0.316-4.802c-0.143-1.191-0.29-2.424-0.353-3.717
			c-0.075-1.523-0.164-3.018-0.253-4.503c-0.221-3.712-0.45-7.55-0.43-11.602l0.018-3.662l3.658,0.184
			c1.238,0.063,2.396,0.142,3.509,0.217c1.892,0.129,3.678,0.251,5.431,0.251c1.825,0,3.479-0.13,5.203-0.411
			c2.466-0.402,4.958-0.49,7.368-0.576c0.797-0.028,1.592-0.057,2.378-0.097l0.909-0.048c1.419-0.076,2.886-0.155,4.375-0.155
			c1.339,0,2.53,0.065,3.63,0.198h5.846l-0.406,3.801c-0.005,0.562,0.189,2.562,0.32,3.895
			C334.079,383.154,334.231,384.783,334.185,385.737z"/>
		<path fill="#FFFFFF" d="M519.084,229.5c-14.456-0.253-20.252,2.791-25.31,5.453c-3.56,1.874-6.923,3.644-12.176,3.858
			c-0.441,0.018-0.854,0.027-1.242,0.027c-1.645,0-6.012,0-7.48-3.365c-1.518-3.478,1.407-6.63,4.503-9.968l0.891-0.964
			c3.6-3.936,4.087-4.624,4.805-9.432c1.481-9.925,3.012-20.189-4.441-26.913c-7.739-6.983-16.302-9.834-26.398-8.791
			c-9.271,0.958-13.919,1.802-18.254,10.472c-1.27,2.54-0.961,4.782-0.57,7.62c0.202,1.463,0.41,2.976,0.41,4.63
			c0,8.86-5.122,10.055-10.132,10.055c-0.561,0-1.154-0.01-1.778-0.021c-0.608-0.011-1.249-0.022-1.918-0.023
			c-4.325,0-7.671,1.393-8.107,2.694c-0.23,0.687,0.435,1.794,0.949,2.206l4.28-0.268c0.393-0.016,0.983-0.131,1.505-0.232
			c0.919-0.179,1.961-0.382,3.013-0.382c1.118,0,2.107,0.238,2.941,0.707l5.104,2.87l-4.944,3.137
			c-1.163,0.737-2.333,1.359-3.465,1.961c-3.31,1.759-4.176,2.425-4.206,3.102c0.333,0.081,0.859,0.164,1.591,0.164
			c2.83,0,6.289-1.18,9.25-3.155c3.351-2.234,4.738-3.16,6.526-3.16c2.375,0,3.547,1.761,4.11,2.607
			c0.584,0.877,1.383,2.079,3.943,3.565l2.101,1.22l-0.409,2.395c-0.163,0.952-0.291,1.957-0.426,3.021
			c-0.325,2.548-0.661,5.182-1.537,7.637c-0.885,2.48-2.21,4.588-3.492,6.627c-1.152,1.833-2.241,3.564-2.869,5.366
			c-1.279,3.667-1.2,7.735-1.117,12.042c0.022,1.118,0.043,2.238,0.042,3.357c-0.009,8.927,4.473,14.233,15.47,18.314
			c8.096,3.004,16.675,4.403,26.999,4.403c9.139,0,18.585-1.134,27.721-2.231c3.571-0.429,7.265-0.872,10.913-1.246
			c2.093-0.214,4.063-0.408,5.919-0.591c16.578-1.635,22.458-2.423,25.332-6.809c0.317-0.484,0.652-0.983,1-1.501
			c4.134-6.154,9.795-14.583,5.342-29.908C549.547,236.546,538.299,229.824,519.084,229.5z M449.364,212.138l-0.23,0.003
			c-2.534,0-5.063-1.097-6.938-3.01c-2.13-2.172-3.265-5.229-3.198-8.607c0.128-6.391,3.613-10.206,9.322-10.206
			c5.134,0,9.005,4.327,9.005,10.064C457.324,208.043,454.646,211.999,449.364,212.138z"/>
		<path fill="#FFFFFF" d="M607.09,505.052c-2.972,13.154,1.831,22.388,15.112,29.06c2.499,1.256,9.271,2.316,14.788,2.316h0
			c1.534,0,2.845-0.09,3.693-0.253c0.741-0.142,1.485-0.271,2.23-0.398c3.009-0.519,5.851-1.008,8.163-2.438
			c5.428-3.354,8.924-10.245,9.981-15.585c1.31-6.608-0.066-13.254-3.875-18.714c-4.216-6.045-11.074-10.215-18.816-11.442
			c-1.096-0.174-2.359-0.262-3.754-0.262c-5.4,0-11.572,1.306-16.51,3.494C612.513,493.305,608.602,498.356,607.09,505.052z"/>
		<path fill="#FFFFFF" d="M528.562,393.356l-11.685-2.303l11.073-4.385c4.074-1.614,7.263-4.994,8.321-8.822
			c0.624-2.257,0.784-5.71-2-9.34c-2.529-3.299-7.031-5.516-11.201-5.516c-2.833,0-6.772,1.01-9.45,5.824l-6.662,11.973
			l0.103-13.701c0.067-8.95-4.148-19.047-16.184-20.544c-12.391-1.54-18.375,2.672-19.71,14.178l-1.782,15.348l-5.006-14.618
			c-2.212-6.459-9.079-9.401-14.522-9.401c-2.204,0-4.317,0.451-6.109,1.305c-8.223,3.916-14.958,13.035-11.243,22.224l4.451,11.007
			l-9.71-6.833c-1.791-1.26-3.745-1.899-5.81-1.899c-4.493,0-8.801,2.932-10.903,5.655c-1.789,2.318-2.557,5.994-2.006,9.594
			c0.518,3.382,2.084,6.208,4.297,7.753l9.955,6.953l-12.127-0.587c-4.095-0.206-6.381,3.222-7.352,5.239
			c-2.028,4.216-1.926,9.439,0.239,12.149c2.639,3.305,6.577,5.283,11.088,5.568c0.73,0.046,1.399,0.069,2.043,0.069
			c4.067,0,9.089-0.8,15.497-6.735l11.305-10.471l-5.672,14.327c-1.146,2.895-0.766,6.304,1.042,9.354
			c1.601,2.7,4.157,4.697,6.362,4.971c0.525,0.065,1.033,0.098,1.509,0.098c4.48,0,6.559-2.897,9.846-8.018
			c0.949-1.479,1.93-3.007,3.056-4.491l5.666-7.47l0.615,9.356c0.735,11.191,0.466,24.113-0.759,36.385
			c-0.634,6.352-0.45,10.424-0.272,14.363c0.221,4.869,0.429,9.468-0.818,17.363c-0.488,3.089-0.849,6.721-1.232,10.567
			c-0.518,5.201-1.053,10.579-1.96,15.002c-1.267,6.174-4.233,12.65-6.9,17.461c2.258,0.059,4.891,0.107,7.396,0.107
			c4.718,0,6.898-0.172,7.896-0.316c5.002-0.727,8.341-0.871,12.105-0.871c0.636,0,1.272,0.004,1.921,0.008
			c1.159,0.006,2.325,0.016,3.732-0.002c-3.437-6.206-6.495-14.128-9.122-23.645c-3.015-10.921-3.634-19.896-4.352-30.288
			c-0.184-2.67-0.375-5.43-0.615-8.335c-0.462-5.579-0.757-11.364-1.043-16.958l-0.228-4.402c-0.078-1.462-0.222-3.162-0.375-4.961
			c-0.562-6.622-1.199-14.127,0.426-19.354l3.085-9.922l3.547,9.767c1.881,5.179,8.547,8.795,16.212,8.795
			c1.271,0,2.523-0.106,3.721-0.316c3.453-0.605,6.496-2.698,8.568-5.891c2.646-4.079,3.426-9.358,2.138-14.483l-1.727-6.872
			l6.507,2.805c3.532,1.522,7.377,2.327,11.12,2.327c6.718,0,12.371-2.579,15.121-6.898c2.303-3.617,2.795-7.028,1.463-10.139
			C539.345,397.535,533.293,394.288,528.562,393.356z"/>
		<path fill="#FFFFFF" d="M482.61,93.381c-6.797,0.151-11.204,3.463-14.705,6.581c0.211,7.878,2.646,10.544,8.876,13.674
			c1.859,0.934,8.482,1.657,10.906,1.195l0.66,3.437l-0.659-3.438c0.477-0.091,0.957-0.174,1.437-0.257
			c1.861-0.32,3.468-0.597,4.724-1.373l0.615-0.375c3.089-1.876,5.768-3.528,5.5-13.145
			C496.211,96.358,491.491,93.174,482.61,93.381z"/>
		<path fill="#FFFFFF" d="M448.319,197.317c-1.161,0-2.256,0-2.323,3.346c-0.038,1.899,0.63,2.988,1.198,3.567
			c0.559,0.57,1.284,0.911,1.94,0.911l0.046-0.001c0.946-0.024,1.145-2.601,1.145-4.758
			C450.324,198.577,449.5,197.317,448.319,197.317z"/>
		<path fill="#FFFFFF" d="M148.767,260.711c6.17,6.425,15.093,6.475,24.539,6.528l0.63,0.003c1.422,0.011,3.101-0.047,4.542-0.417
			c-4.564-15.311-15.207-23.565-33.168-26.503c-0.608-0.1-1.296-0.175-2.019-0.238C142.822,247.21,144.258,256.016,148.767,260.711z
			"/>
		<path fill="#FFFFFF" d="M331.277,327.668c0.642,0.876,1.603,2.158,2.708,3.615c-0.155-1.867-0.277-3.774-0.277-5.74
			c0-0.487,0.027-1.606,0.065-3.089c0.078-3.069,0.292-11.552,0.093-15c-1.641-0.169-4.535-0.017-5.775,0.048
			c-1.188,0.062-2.126,0.112-2.811,0.075c-0.277-0.015-0.668-0.055-1.128-0.105c-0.294-0.032-0.811-0.089-1.338-0.128
			c0.014,0.288,0.029,0.56,0.041,0.78c0.087,1.588,0.127,2.449,0.021,3.16c-0.14,0.937-0.063,1.917,0.027,3.052
			c0.049,0.621,0.094,1.321,0.114,2.054c1.991,2.703,4.244,5.778,6.823,9.311L331.277,327.668z"/>
		<path fill="#FFFFFF" d="M129.197,438.983c-14.45-0.244-20.253,2.791-25.311,5.453c-3.56,1.874-6.922,3.644-12.175,3.859
			c-0.441,0.018-0.854,0.027-1.241,0.027c-1.645,0-6.013,0-7.481-3.365c-1.518-3.478,1.406-6.63,4.501-9.967l0.892-0.966
			c3.601-3.937,4.088-4.624,4.805-9.432c1.481-9.925,3.013-20.188-4.44-26.913c-7.74-6.983-16.3-9.834-26.398-8.791
			c-9.271,0.958-13.919,1.802-18.254,10.472c-1.27,2.54-0.961,4.782-0.57,7.62c0.201,1.463,0.41,2.976,0.41,4.629
			c0,8.861-5.123,10.056-10.134,10.056c-0.56,0-1.152-0.01-1.776-0.021c-0.608-0.011-1.249-0.022-1.919-0.023
			c-4.326,0-7.671,1.393-8.107,2.693c-0.23,0.687,0.435,1.794,0.949,2.206l4.28-0.268c0.392-0.016,0.982-0.131,1.503-0.232
			c0.919-0.18,1.962-0.383,3.014-0.383c1.118,0,2.107,0.238,2.941,0.707l5.104,2.87l-4.945,3.136
			c-1.162,0.737-2.333,1.359-3.465,1.961c-3.31,1.759-4.176,2.425-4.206,3.102c0.333,0.081,0.86,0.164,1.592,0.164
			c2.83,0,6.288-1.179,9.25-3.154c3.351-2.234,4.737-3.16,6.526-3.16c2.375,0,3.547,1.761,4.11,2.607
			c0.583,0.877,1.383,2.079,3.943,3.565l2.101,1.221l-0.409,2.395c-0.163,0.952-0.291,1.957-0.426,3.021
			c-0.325,2.547-0.661,5.182-1.537,7.637c-0.885,2.48-2.21,4.589-3.492,6.628c-1.152,1.833-2.241,3.564-2.869,5.366
			c-1.279,3.667-1.2,7.734-1.117,12.041c0.022,1.118,0.043,2.238,0.042,3.357c-0.009,8.927,4.473,14.233,15.47,18.314
			c8.095,3.004,16.673,4.402,26.999,4.402c9.138,0,18.582-1.134,27.715-2.229c3.574-0.429,7.269-0.873,10.919-1.247
			c2.091-0.214,4.061-0.408,5.916-0.591c16.581-1.635,22.461-2.423,25.335-6.809c0.317-0.484,0.653-0.984,1.001-1.502
			c4.134-6.154,9.794-14.583,5.342-29.907C159.66,446.029,148.412,439.307,129.197,438.983z M59.477,421.621l-0.23,0.003
			c-2.534,0-5.063-1.097-6.938-3.01c-2.129-2.172-3.265-5.229-3.198-8.607c0.128-6.391,3.613-10.207,9.322-10.207
			c5.134,0,9.005,4.327,9.005,10.064C67.437,417.527,64.759,421.482,59.477,421.621z"/>
		<path fill="#FFFFFF" d="M69.53,22.209c-2.212-6.459-9.079-9.401-14.522-9.401c-2.204,0-4.317,0.451-6.109,1.305
			c-8.223,3.916-14.958,13.035-11.243,22.224l4.451,11.007l-9.71-6.833c-1.791-1.26-3.745-1.899-5.81-1.899
			c-4.493,0-8.801,2.932-10.903,5.655c-1.789,2.318-2.557,5.994-2.006,9.594c0.518,3.381,2.084,6.207,4.297,7.752l9.955,6.952
			l-12.127-0.586c-4.101-0.201-6.38,3.222-7.351,5.239c-2.029,4.216-1.926,9.44,0.238,12.15c2.639,3.305,6.577,5.282,11.088,5.568
			c0.73,0.046,1.399,0.069,2.043,0.069c4.067,0,9.089-0.8,15.497-6.735l11.305-10.471l-5.672,14.327
			c-1.146,2.895-0.766,6.304,1.042,9.354c1.601,2.699,4.157,4.696,6.362,4.969c0.525,0.065,1.033,0.098,1.51,0.098
			c4.48,0,6.559-2.897,9.845-8.018c0.949-1.479,1.93-3.007,3.056-4.492l5.666-7.471l0.615,9.356
			c0.735,11.192,0.465,24.114-0.759,36.385c-0.634,6.352-0.45,10.424-0.272,14.363c0.221,4.869,0.429,9.468-0.818,17.363
			c-0.488,3.088-0.849,6.721-1.232,10.567c-0.518,5.202-1.053,10.58-1.96,15.002c-1.267,6.174-4.233,12.65-6.9,17.46
			c2.258,0.06,4.891,0.109,7.396,0.109c4.718,0,6.898-0.173,7.896-0.318c5.002-0.726,8.341-0.872,12.105-0.872
			c0.636,0,1.272,0.004,1.921,0.008c1.159,0.008,2.326,0.017,3.732-0.001c-3.437-6.206-6.495-14.128-9.122-23.644
			c-3.015-10.921-3.634-19.896-4.352-30.288c-0.184-2.67-0.375-5.43-0.615-8.335c-0.462-5.579-0.757-11.364-1.043-16.958
			l-0.228-4.402c-0.078-1.462-0.222-3.162-0.375-4.961c-0.562-6.622-1.199-14.127,0.426-19.354l3.085-9.923l3.547,9.767
			c1.88,5.179,8.546,8.795,16.21,8.795c1.271,0,2.523-0.106,3.721-0.316c3.454-0.605,6.497-2.697,8.568-5.89
			c2.647-4.079,3.426-9.358,2.139-14.483l-1.727-6.873l6.507,2.806c3.532,1.523,7.378,2.328,11.121,2.328
			c6.717,0,12.37-2.579,15.12-6.899c2.303-3.617,2.795-7.028,1.463-10.139c-2.109-4.925-8.161-8.172-12.892-9.104l-11.685-2.303
			l11.073-4.385c4.074-1.614,7.263-4.994,8.321-8.822c0.624-2.257,0.784-5.71-2-9.34c-2.529-3.299-7.031-5.516-11.201-5.516
			c-2.833,0-6.772,1.01-9.45,5.824l-6.662,11.973l0.103-13.701c0.067-8.95-4.148-19.047-16.184-20.544
			C83.635,5.76,77.653,9.973,76.317,21.479l-1.782,15.348L69.53,22.209z"/>
		<path fill="#FFFFFF" d="M58.432,406.8c-1.161,0-2.256,0-2.323,3.346c-0.038,1.899,0.63,2.989,1.198,3.567
			c0.559,0.57,1.284,0.911,1.939,0.911l0.046-0.001c0.946-0.024,1.145-2.602,1.145-4.759C60.437,408.06,59.613,406.8,58.432,406.8z"
			/>
		<path fill="#FFFFFF" d="M273.985,179.957c2.499,1.255,9.27,2.315,14.787,2.315c0,0,0.001,0,0.001,0
			c1.534,0,2.845-0.089,3.693-0.252c0.741-0.142,1.486-0.271,2.23-0.399c3.009-0.519,5.851-1.008,8.163-2.437
			c5.427-3.354,8.923-10.245,9.98-15.585c1.31-6.608-0.066-13.254-3.874-18.714c-4.216-6.045-11.074-10.216-18.817-11.443
			c-1.095-0.174-2.357-0.262-3.751-0.262c-5.401,0-11.574,1.306-16.512,3.494c-5.59,2.476-9.501,7.527-11.013,14.224
			C255.901,164.051,260.703,173.285,273.985,179.957z"/>
		<path fill="#FFFFFF" d="M156.619,292.457c-6.342,4.569-9.837,15.457-7.633,23.775c0.199,0.623,1.156,2.258,1.959,3.469
			c0.407-0.071,0.811-0.148,1.218-0.218c4.74-0.816,9.217-1.588,13.022-3.939c8.849-5.47,15.683-15.889,15.896-24.234
			c0.008-0.316,0.007-0.621,0.013-0.934C173.094,285.919,162.932,287.908,156.619,292.457z"/>
		<path fill="#FFFFFF" d="M123.656,301.145c7.61-1.474,9.628-6.092,12.971-13.743l0.596-1.361
			c3.234-7.342-2.187-16.518-9.074-20.162c-3.629-1.919-6.765-2.904-10.823-3.398c-1.028-0.125-2.122-0.188-3.252-0.188
			c-4.134,0-7.644,0.832-9.155,1.605c-2,1.023-3.355,3.119-4.551,4.968l-0.195,0.301c-1.779,2.738-2.798,5.135-3.211,7.544
			c-0.446,2.611-0.916,6.026-0.587,9.278c0.317,3.154,1.16,4.007,3.95,6.836l0.401,0.407c2.452,2.491,6.124,4.914,9.823,6.481
			C115.129,301.652,118.909,302.064,123.656,301.145z"/>
		<path fill="#FFFFFF" d="M142.219,318.025c-2.922-11.029,1.702-25.046,10.308-31.248c8.323-5.998,19.441-7.416,28.46-4.097
			c-0.163-3.21-0.482-6.213-0.952-9.029c-2.018,0.492-4.07,0.592-5.839,0.592c-0.102,0-0.202,0-0.301-0.001l-0.628-0.004
			c-9.997-0.056-21.328-0.12-29.548-8.679c-6.278-6.537-7.933-17.184-7.442-25.548c-7.22,0.369-17.165,1.976-25.385,5.618
			c-5.168,2.289-9.385,7.801-12.059,14.043c0.844-0.746,1.79-1.439,2.897-2.006c2.862-1.464,7.592-2.374,12.344-2.374
			c1.412,0,2.791,0.081,4.099,0.24c4.905,0.597,8.868,1.841,13.25,4.159c9.814,5.191,17.061,18.152,12.207,29.171l-0.588,1.341
			c-3.514,8.042-6.833,15.639-18.054,17.812c-2.036,0.395-3.94,0.586-5.821,0.586c0,0,0,0,0,0c-3.803,0-7.409-0.776-11.347-2.443
			c-1.718-0.728-3.438-1.616-5.079-2.607c3.78,5.253,9.258,9.407,16.888,13.24c4.066,2.042,14.492,3.705,23.241,3.705
			c0,0,0.001,0,0.001,0c0.137,0,0.268-0.002,0.402-0.003C142.778,319.551,142.391,318.674,142.219,318.025z"/>
		<path fill="#FFFFFF" d="M597.078,93.381c-8.653,0.249-12.943,3.281-16.155,6.554c0.166,8.077,2.581,10.774,8.878,13.937
			c1.859,0.934,8.487,1.66,10.908,1.195v0c0.479-0.092,0.96-0.175,1.441-0.258c1.858-0.321,3.463-0.597,4.719-1.373l0.615-0.376
			c3.076-1.868,5.746-3.511,5.504-13.024C608.899,96.528,604.11,93.185,597.078,93.381z"/>
		<path fill="#FFFFFF" d="M741.319,341.453c2.241-0.134,4.534-0.271,7.024-0.374c-0.216-2.652-0.566-6.515-0.948-10.727
			c-1.382-15.237-3.472-38.263-3.59-51.025c-0.046-4.951-0.173-10.018-0.308-15.382c-0.294-11.717-0.598-23.795-0.046-35.364
			c-6.971-0.261-23.115-0.55-30.318-0.209c-10.077,0.476-18.825,0.295-28.764-2.127c-9.852-2.4-23.868-0.552-27.929,0.071
			c-6.07,0.932-11.905,0.903-17.554,0.874c-2.284-0.011-4.625-0.024-6.984,0.029c-0.007,0.287-0.012,0.605-0.016,0.963l-0.002,0.193
			c-0.032,2.877,0.186,5.738,0.416,8.768c0.127,1.67,0.259,3.396,0.343,5.12c0.389,7.905-0.017,15.92-0.41,23.671l-0.097,1.925
			c-0.188,3.766,0.075,7.38,0.354,11.208c0.311,4.273,0.633,8.692,0.256,13.256c-1.191,14.408-1.163,41.198-1.125,49.239
			c2.584,0.648,6.305,0.541,9.419,0.449c1.139-0.033,2.234-0.064,3.242-0.064c7.172,0,14.451-0.518,21.491-1.019
			c2.969-0.211,5.967-0.421,8.984-0.598c-0.004-0.081-0.009-0.168-0.013-0.248c-0.115-2.119-0.207-3.792-0.004-5.759
			c0.167-1.628,0.127-3.335,0.084-5.142c-0.032-1.361-0.065-2.769-0.007-4.196c0.201-4.87-0.137-10.106-0.464-15.17
			c-0.079-1.213-0.156-2.415-0.226-3.598l-0.016-0.265c-0.083-1.319-0.196-3.127,1.23-4.637c1.36-1.44,3.267-1.606,4.925-1.616
			c1.121,0.006,2.115,0.156,2.992,0.288c0.759,0.115,1.422,0.213,2,0.199c2.312-0.057,4.025-0.086,5.719-0.116
			c1.341-0.023,2.669-0.046,4.277-0.083c1.43-0.032,3.512-0.086,5.096-0.182c0.685-0.04,2.506-0.152,3.827,1.298
			c1.251,1.375,1.001,2.986,0.919,3.516l-0.005,0.033c0.019,0.168,0.04,0.333,0.061,0.497c0.073,0.57,0.156,1.217,0.156,1.997
			l-0.005,1.504c-0.012,2.848-0.023,5.537,0.254,8.249l0.039,0.38c0.139,1.377,0.27,2.677,0.564,3.82
			c0.564,2.187,1.025,13.009,1.025,15.94c0,1.249,0.036,2.483,0.071,3.711c0.003,0.124,0.003,0.247,0.007,0.371
			c7.053,0.534,13.769,0.806,20.356,0.824C732.813,341.96,736.947,341.714,741.319,341.453z M684.634,286.43l-3.658-0.185
			c-1.237-0.063-2.395-0.141-3.506-0.217c-1.892-0.129-3.678-0.251-5.432-0.251c-1.826,0-3.479,0.131-5.204,0.412
			c-2.464,0.401-4.95,0.489-7.355,0.575c-0.801,0.028-1.6,0.057-2.389,0.097l-0.922,0.048c-1.416,0.076-2.88,0.154-4.366,0.154
			c-1.339,0-2.529-0.065-3.628-0.198h-5.843l0.403-3.799c0.005-0.56-0.189-2.554-0.319-3.883c-0.252-2.587-0.404-4.222-0.357-5.179
			c0.082-1.674,0.271-3.289,0.454-4.85c0.157-1.346,0.306-2.618,0.385-3.883c0.161-2.604,0.295-5.57-0.148-7.786
			c-0.013-0.063-1.144-6.327,0.985-8.922c0.758-0.924,1.862-1.455,3.03-1.455c0.616,0.003,12.684,0.008,17.504,0.008
			c2.016,0,4.042-0.16,6.186-0.33c2.792-0.221,5.716-0.448,8.657-0.309l3.074,0.146l0.249,3.067
			c0.034,0.417,0.146,1.255,0.275,2.232c0.396,3.009,0.65,5.067,0.593,6.22c-0.075,1.535,0.115,3.125,0.316,4.808
			c0.143,1.189,0.29,2.42,0.353,3.71c0.075,1.529,0.164,3.028,0.253,4.519c0.221,3.708,0.449,7.541,0.429,11.587L684.634,286.43z
			 M709.031,286.711c-2.192,0.173-4.459,0.352-6.764,0.352c-0.63,0-1.261-0.013-1.892-0.043l-3.074-0.146l-0.249-3.067
			c-0.034-0.416-0.146-1.253-0.275-2.229c-0.395-3.011-0.65-5.07-0.593-6.224c0.075-1.533-0.115-3.121-0.316-4.802
			c-0.143-1.191-0.29-2.424-0.353-3.717c-0.075-1.523-0.164-3.018-0.253-4.503c-0.221-3.712-0.45-7.55-0.43-11.602l0.018-3.662
			l3.658,0.184c1.238,0.063,2.396,0.142,3.509,0.217c1.892,0.129,3.678,0.251,5.431,0.251c1.825,0,3.479-0.13,5.203-0.411
			c2.466-0.402,4.958-0.49,7.368-0.576c0.797-0.028,1.592-0.057,2.378-0.097l0.909-0.048c1.419-0.076,2.886-0.155,4.375-0.155
			c1.339,0,2.53,0.065,3.63,0.198h5.846l-0.406,3.801c-0.005,0.562,0.189,2.562,0.32,3.895c0.251,2.58,0.403,4.209,0.357,5.163
			c-0.083,1.675-0.271,3.288-0.454,4.847c-0.158,1.348-0.307,2.621-0.385,3.888c-0.161,2.602-0.296,5.563,0.147,7.787
			c0.012,0.059,1.146,6.32-0.984,8.92c-0.758,0.925-1.863,1.456-3.031,1.456c-0.621-0.004-12.685-0.009-17.502-0.009
			C713.203,286.381,711.177,286.542,709.031,286.711z"/>
		<path fill="#FFFFFF" d="M661.341,76.193c-2.225-5.864-2.876-6.713-9.125-8.448c-2.374-0.66-4.96-0.724-7.699-0.792
			c-4.578-0.114-9.766-0.243-14.381-3.492c-5.735-4.038-8.718-9.771-11.602-15.315c-2.623-5.042-5.1-9.804-9.54-13.392
			c-9.655-7.804-21.264-9.298-32.372-9.751c-2.891-0.118-6.343-0.178-10.261-0.178c-15.01,0-32.885,0.855-39.873,1.223
			c-12.779,0.673-24.157,7.867-30.436,19.245c-5.864,10.625-16.749,17.814-22.233,19.851c-6.432,2.389-22.103,4.191-36.45,4.191
			c-5.873,0-17.084,2.526-22.5,7.948c-1.995,1.998-2.963,4.133-2.96,6.53c0.001,0.634-0.013,1.361-0.028,2.153
			c-0.071,3.637-0.232,11.925,2.451,13.698c2.72,0.019,12.167,0.08,21.371,0.099h0.103c2.752,0,5.561-0.217,8.535-0.448
			c3.021-0.234,6.146-0.476,9.26-0.476c1.594,0,3.047,0.062,4.445,0.189c0.616-0.113,2.437-1.778,3.767-2.995
			c4.102-3.752,10.301-9.423,20.642-9.652c13.22-0.297,19.779,5.811,24.079,9.82c1.719,1.603,3.343,3.117,4.324,3.117
			c0.725-0.025,1.381-0.036,2.014-0.036c3.063,0,5.622,0.261,8.096,0.514c2.523,0.258,5.132,0.524,8.402,0.524
			c5.498,0,10.461,0.347,15.261,0.683c4.779,0.334,9.293,0.65,14.297,0.65c3.492,0,6.847-0.158,10.257-0.481
			c1.244-0.118,2.422-1.38,4.396-3.599c3.825-4.3,9.605-10.797,23.294-11.191c0.277-0.008,0.548-0.012,0.82-0.012
			c10.501,0,17.111,5.887,21.938,10.186c2.502,2.229,4.866,4.334,6.576,4.472c7.004,0.566,10.498,0.849,13.998,0.849
			c3.382,0,6.867-0.271,13.478-0.847c4.963-0.432,9.924-4.236,9.634-9.854c-0.084-1.631-0.115-3.025-0.143-4.287
			C663.088,82.878,663.039,80.667,661.341,76.193z M560.458,59.102c-0.39,4.463-5.948,4.463-7.774,4.463
			c-1.007,0-2.078-0.042-3.09-0.083c-0.815-0.033-1.588-0.066-2.242-0.066h-22.373c-6.948,0-23.417,0.207-23.583,0.208l-4.507,0.057
			l1.061-4.38c1.222-5.043,7.662-17.923,9.545-20.765c4.594-6.932,12.477-8.842,18.007-9.676c3.88-0.584,19.011-1.088,22.695-1.089
			c10.5,0,10.812,5.309,11.283,13.346c0.075,1.277,0.159,2.708,0.282,4.312c0.041,0.53,0.102,1.215,0.17,1.998
			C560.342,52.053,560.689,56.429,560.458,59.102z M612.877,60.813c-1.492,3.45-5.66,3.45-7.03,3.45
			c-1.578,0-3.297-0.185-4.814-0.348c-1.164-0.125-2.264-0.243-2.975-0.243l-0.195,0.004c-0.792,0.036-1.835,0.053-3.188,0.053
			c-2.416,0-5.381-0.056-7.998-0.106c-1.875-0.036-3.561-0.068-4.697-0.072c-1.884-0.007-4.757-0.186-7.535-0.36
			c-2.57-0.161-5.227-0.326-6.834-0.337l-3.165-0.022l-0.296-3.151c-0.209-2.236-2.044-21.949-1.82-25.63l0.01-0.166
			c0.223-3.759,1.485-6.186,7.083-6.664c0.709-0.061,1.425-0.09,2.186-0.09c2.068,0,4.012,0.222,5.891,0.437
			c1.267,0.145,2.464,0.282,3.631,0.343c1,0.052,1.987,0.04,2.954,0.028c0.436-0.005,0.867-0.01,1.294-0.01
			c2.794,0,6.014,0.174,8.856,2.255c1.538,1.125,7.339,8.432,10.658,12.968C613.953,55.534,613.805,58.667,612.877,60.813z"/>
		<path fill="#FFFFFF" d="M676.979,267.004c-0.052-1.045-0.178-2.103-0.312-3.223c-0.227-1.896-0.461-3.858-0.357-5.984
			c0.017-0.598-0.266-2.849-0.461-4.34c-1.579,0.05-3.175,0.176-4.844,0.308c-2.186,0.173-4.446,0.352-6.738,0.352
			c-3.503,0-10.828-0.003-14.815-0.005c0.016,0.771,0.074,1.571,0.16,2.003c0.607,3.039,0.458,6.542,0.27,9.588
			c-0.09,1.458-0.257,2.885-0.419,4.266c-0.177,1.512-0.344,2.939-0.415,4.377c-0.02,0.541,0.193,2.717,0.333,4.157
			c0.053,0.542,0.1,1.029,0.141,1.466c1.742,0.161,4.088,0.067,6.271-0.051l0.94-0.049c0.824-0.042,1.659-0.072,2.496-0.102
			c2.289-0.082,4.451-0.158,6.479-0.488c2.105-0.343,4.116-0.502,6.328-0.502c1.878,0,3.677,0.116,5.565,0.244
			c-0.073-2.477-0.218-4.904-0.368-7.425C677.145,270.081,677.054,268.557,676.979,267.004z"/>
		<path fill="#FFFFFF" d="M699.678,340.46c0.193,0.019,0.382,0.035,0.575,0.054c-0.033-1.151-0.066-2.305-0.066-3.474
			c0-3.706-0.523-12.882-0.812-14.229c-0.418-1.623-0.583-3.253-0.742-4.829l-0.038-0.372c-0.315-3.08-0.302-6.084-0.291-8.989
			l0.005-1.479c0-0.078-0.002-0.156-0.007-0.236c-1.043,0.036-2.071,0.062-2.89,0.08c-1.621,0.037-2.96,0.06-4.313,0.083
			c-1.679,0.029-3.377,0.059-5.669,0.115c-1.2,0.028-2.27-0.133-3.216-0.275c-0.358-0.054-0.705-0.106-1.042-0.146
			c0.053,0.86,0.109,1.728,0.166,2.602c0.338,5.246,0.688,10.669,0.473,15.908c-0.049,1.2-0.02,2.436,0.011,3.744
			c0.046,1.944,0.093,3.955-0.119,6.022c-0.146,1.421-0.072,2.781,0.031,4.664c0.005,0.098,0.011,0.205,0.016,0.305
			C687.684,339.815,693.674,339.868,699.678,340.46z"/>
		<path fill="#FFFFFF" d="M750.495,263.769c0.135,5.394,0.263,10.487,0.31,15.494c0.115,12.478,2.189,35.333,3.561,50.457
			c0.787,8.674,1.198,13.269,1.198,14.74V0H91.508c1.68,0,3.491,0.12,5.384,0.355c11.051,1.375,18.894,8.703,21.435,19.399
			c2.831-1.967,6.188-3.004,9.894-3.004c6.334,0,12.911,3.241,16.756,8.256c3.539,4.616,4.672,10.108,3.191,15.465
			c-0.983,3.555-3.028,6.773-5.817,9.313c4.368,2.207,8.561,5.712,10.688,10.68c1.58,3.688,2.516,9.572-1.994,16.654
			c-4.042,6.349-11.901,10.139-21.024,10.139c-2.763,0-5.566-0.349-8.303-1.023c0.118,5.041-1.206,9.957-3.865,14.055
			c-3.142,4.843-7.841,8.03-13.232,8.975c-1.595,0.28-3.254,0.422-4.929,0.422c-5.736,0-12.126-1.713-16.853-5.398
			c0.076,2.831,0.331,5.831,0.559,8.521c0.158,1.856,0.307,3.609,0.39,5.181l0.229,4.417c0.283,5.54,0.575,11.269,1.028,16.738
			c0.243,2.938,0.436,5.73,0.623,8.431c0.691,10.015,1.288,18.665,4.116,28.907c3.227,11.686,7.058,20.679,11.388,26.73l3.66,5.116
			l-6.277,0.413c-3.438,0.226-6.021,0.256-8.095,0.256c-0.715,0-1.402-0.004-2.076-0.008c-0.634-0.004-1.256-0.008-1.878-0.008
			c-2.83,0-6.018,0.062-11.1,0.799c-1.809,0.262-4.721,0.39-8.901,0.39c-6.402,0-13.361-0.303-13.654-0.316l-6.282-0.277
			l3.545-5.193c2.421-3.547,7.426-12.332,9.038-20.189c0.834-4.069,1.352-9.265,1.852-14.29c0.393-3.949,0.764-7.679,1.284-10.965
			c1.136-7.195,0.952-11.254,0.739-15.955c-0.181-3.993-0.385-8.518,0.299-15.375c0.818-8.197,1.198-16.684,1.122-24.708
			c-2.839,3.632-6.526,6.642-12.579,6.642c-0.764,0-1.562-0.051-2.372-0.151c-4.375-0.542-8.79-3.74-11.521-8.346
			c-1.265-2.134-2.087-4.403-2.454-6.691c-4.273,2.493-8.693,3.646-13.697,3.646c-0.793,0-1.606-0.027-2.485-0.083
			C12.83,97.51,7.106,94.603,3.22,89.736c-3.852-4.824-4.295-12.865-1.076-19.554c1.714-3.563,4.269-6.239,7.282-7.764
			c-1.323-2.188-2.244-4.742-2.666-7.498c-0.844-5.51,0.42-11.091,3.383-14.93c3.218-4.171,9.551-8.379,16.445-8.379
			c1.026,0,2.033,0.09,3.019,0.269C29.162,21.43,36.797,12.122,45.889,7.792c2.727-1.298,5.88-1.985,9.119-1.985
			c6.422,0,12.301,2.464,16.393,6.561C74.731,4.241,81.56,0,91.508,0H0v623.681h300.75c-1.24-0.003-2.553-0.157-3.943-0.624
			c-1.35-0.453-2.601-1.023-3.812-1.572c-1.1-0.5-2.139-0.973-3.141-1.307c-3.064-1.02-6.07-2.135-8.977-3.211
			c-1.048-0.389-2.094-0.777-3.141-1.16c-1.571-0.574-3.147-1.143-4.727-1.713c-7.552-2.727-15.361-5.545-22.856-9.043
			c-2.502-1.168-5.016-2.438-7.447-3.668c-2.922-1.477-5.904-2.98-8.904-4.326c-0.922-0.014-1.99,0.016-8.649-0.047
			c-7.441-0.07-14.391-0.031-21.114,0.004c-12.806,0.07-24.901,0.135-39.023-0.514c-1.067-0.049-2.626-0.084-4.544-0.129
			c-22.429-0.529-44.037-2.027-50.23-9.354c-1.549-1.832-2.195-3.998-1.867-6.264c1.313-9.07,10.78-12.66,17.693-15.281
			c1.114-0.422,2.17-0.82,3.114-1.219c0.894-0.375,1.947-0.885,3.167-1.475c3.721-1.803,8.818-4.271,14.99-5.553
			c8.35-1.734,22.834,1.348,32.419,3.389c2.859,0.607,5.328,1.133,6.335,1.232c15.55,1.537,23.06,1.24,35.502,0.748
			c2.966-0.117,6.203-0.244,9.88-0.361c20.177-0.637,40.479-0.35,59.544,0c25.559,0.467,36.068-0.563,38.794-3.797
			c3.102-3.682,8.647-9.938,13.541-15.459c3.707-4.182,7.208-8.133,8.265-9.416c0.126-0.153,0.243-0.306,0.36-0.457
			c2.938-3.798,6.243-5.176,19.137-3.875l3.143,0.317l0.006,3.158c0.028,14.739-2.763,28.485-7.285,35.874
			c-1.743,2.848-3.009,5.125-4.127,7.135c-4.689,8.428-6.449,10.877-19.369,16.816c-7.865,3.613-9.938,3.564-23.449,3.254
			c-4.126-0.096-9.237-0.214-15.92-0.275c0.636,0.363,1.258,0.718,1.854,1.057l0.609,0.348c4.054,2.309,7.447,4.201,11.107,5.785
			c3.585,1.551,11.109,6.266,14.155,9.602c2.514,2.752,3.246,5.273,2.174,7.496c-1.833,3.799-7.093,3.441-12.179,3.096
			c-1.046-0.072-2.128-0.139-2.667-0.123c-1.759,0.07-3.472,0.082-5.128,0.094c-2.896,0.021-5.632,0.041-8.452,0.355
			c-0.428,0.049-0.846,0.104-1.258,0.158c-1.099,0.146-2.271,0.301-3.518,0.304h454.751V347.878l-3.417,0.081
			c-3.846,0.091-7.184,0.29-10.411,0.482c-4.484,0.268-8.715,0.53-14.133,0.505c-9.132-0.025-18.491-0.522-28.611-1.52
			c-10.864-1.071-21.481-0.315-32.721,0.484c-7.161,0.509-14.566,1.036-21.987,1.036c-0.945,0-1.971,0.03-3.039,0.062
			c-1.252,0.037-2.546,0.074-3.846,0.074c-3.939,0-7.936-0.346-11.01-2.118l-1.734-1l-0.018-2.001
			c-0.013-1.417-0.297-34.901,1.134-52.217c0.333-4.022,0.044-7.98-0.261-12.171c-0.282-3.869-0.573-7.87-0.364-12.065l0.097-1.931
			c0.384-7.579,0.781-15.417,0.41-22.972c-0.081-1.629-0.208-3.309-0.332-4.933c-0.232-3.045-0.471-6.194-0.437-9.377l0.002-0.191
			c0.028-2.526,0.056-5.139,2.113-7.926c0.605-0.818,1.175-1.672,1.779-2.576c0.788-1.18,1.604-2.4,2.533-3.589
			c1.756-2.246,3.647-4.421,5.621-6.466c3.635-3.765,7.415-7.802,10.178-12.121c0.64-1,1.247-1.983,1.843-2.951
			c2.508-4.064,4.877-7.902,8.727-11.644c1.91-1.856,9.035-9.992,10.762-12.165c3.404-4.281,18.803-19.136,21.416-20.875
			l1.829-1.216l1.891,1.117c3.797,2.244,8.699,12.529,8.905,12.965c0.801,1.69,7.507,9.874,11.666,13.766
			c0.702,0.657,2.237,2.543,4.876,6.012c-0.059-1.802,0.035-2.849,0.563-3.8c1.727-3.118,5.846-2.667,8.571-2.368
			c0.302,0.033,0.558,0.064,0.741,0.074c0.312,0.015,1.245-0.033,2.067-0.076c5.463-0.288,11.113-0.586,12.637,3.479
			c0.561,1.495,0.766,4.666,0.413,18.64c-0.036,1.398-0.063,2.454-0.063,2.913c0,2.618,0.238,5.158,0.491,7.847
			c0.24,2.56,0.48,5.204,0.508,7.939c0.946,1.211,1.68,2.139,2.021,2.547c0.994,1.193,1.852,2.8,2.628,4.491l1.238,0.186
			l-0.206,3.208C749.843,237.825,750.174,251.015,750.495,263.769z M164.053,493.344c-0.333,0.496-0.654,0.974-0.958,1.437
			c-4.855,7.41-13.426,8.254-30.502,9.939c-1.847,0.182-3.808,0.375-5.89,0.588c-3.59,0.368-7.254,0.808-10.798,1.233
			c-9.337,1.12-18.993,2.279-28.549,2.279c-11.029,0-20.657-1.583-29.434-4.84c-9.336-3.465-20.051-9.425-20.035-24.884
			c0.001-1.072-0.02-2.144-0.041-3.215c-0.091-4.734-0.186-9.63,1.506-14.481c0.889-2.55,2.243-4.704,3.552-6.786
			c1.131-1.799,2.199-3.499,2.826-5.255c0.621-1.741,0.908-3.993,1.186-6.17c0.042-0.335,0.086-0.675,0.131-1.016
			c-1.591-1.158-2.611-2.249-3.309-3.137c-0.596,0.385-1.268,0.833-1.839,1.213c-4.127,2.752-8.914,4.331-13.133,4.331
			c-3.059,0-5.491-0.835-7.034-2.417l-0.439-0.449l-0.255-0.574c-1.458-3.281-1.03-5.787,0.239-7.741
			c-2.02-0.57-3.907-2.147-5.096-4.273c-1.263-2.259-1.563-4.823-0.821-7.034c1.845-5.507,8.806-7.469,14.705-7.469
			c0.762,0.001,1.438,0.013,2.081,0.024c0.581,0.01,1.132,0.02,1.654,0.02c2.093,0,2.615-0.202,2.742-0.29
			c-0.005,0,0.392-0.528,0.392-2.766c0-1.174-0.167-2.388-0.344-3.674c-0.444-3.22-0.996-7.227,1.244-11.706
			c6.246-12.493,14.771-13.373,23.796-14.305c1.579-0.163,3.153-0.246,4.677-0.246c10.199,0,19.073,3.533,27.129,10.802
			c10.241,9.241,8.264,22.494,6.674,33.143c-0.956,6.409-2.174,8.324-6.563,13.123l-0.925,1.002
			c-0.428,0.462-0.94,1.014-1.424,1.559c0.075-0.002,0.15-0.005,0.227-0.008c3.675-0.15,5.993-1.37,9.2-3.059
			c5.505-2.898,12.388-6.531,28.689-6.258c22.374,0.377,36.165,8.989,40.991,25.597C175.671,476.047,168.68,486.456,164.053,493.344
			z M188.079,291.487c-0.323,12.659-10.186,24.431-19.213,30.011c-4.959,3.065-10.325,3.989-15.514,4.883
			c-1.076,0.185-2.151,0.37-3.22,0.576c-1.869,0.358-4.312,0.541-7.261,0.541c0,0-0.001,0-0.002,0c-8.496,0-20.63-1.56-26.383-4.45
			c-16.292-8.185-24.382-18.339-26.912-35.111c-0.022-0.141-0.044-0.283-0.064-0.429c-0.6-4.16-0.868-8.718-0.834-13.756
			c0.084-12.511,7.518-29.268,19.38-34.522c10.506-4.654,23.479-6.305,31.397-6.305c2.647,0,4.998,0.165,6.987,0.49
			C176.133,238.271,188.975,256.181,188.079,291.487z M341.749,134.033c2.705-0.683,5.237-1.75,7.6-2.786
			c0.889-0.39,1.866-0.73,2.811-1.059c1.451-0.505,3.095-1.078,3.927-1.696l4.172,5.621c-1.691,1.255-3.872,2.015-5.797,2.685
			c-0.855,0.298-1.664,0.58-2.303,0.86c-2.517,1.103-5.471,2.347-8.695,3.162c-6.007,1.517-11.43,3.692-16.118,6.465l-3.563-6.025
			C329.047,138.146,335.092,135.715,341.749,134.033z M309.62,105.438c2.399-4.764,4.88-9.689,7.781-14.343l5.94,3.703
			c-2.733,4.383-5.141,9.165-7.47,13.789c-2.542,5.046-5.17,10.264-8.295,15.152l-5.897-3.771
			C304.611,115.382,307.157,110.327,309.62,105.438z M274.722,89.548c0.152,0.841,0.286,1.697,0.42,2.558
			c0.244,1.569,0.475,3.051,0.823,4.442c0.208,0.83,0.474,1.677,0.756,2.575c0.562,1.789,1.144,3.638,1.371,5.678
			c0.291,2.621,0.774,5.128,1.245,7.471c0.104,0.522,0.351,1.239,0.612,1.999c0.639,1.859,1.364,3.967,1.104,6.145l-6.951-0.828
			c0.07-0.588-0.437-2.064-0.773-3.041c-0.324-0.942-0.659-1.917-0.856-2.897c-0.501-2.495-1.017-5.174-1.339-8.075
			c-0.152-1.363-0.608-2.815-1.092-4.353c-0.3-0.954-0.61-1.941-0.869-2.972c-0.425-1.702-0.692-3.412-0.949-5.067
			c-0.125-0.803-0.249-1.603-0.391-2.388L274.722,89.548z M267.051,130.274c5.872-2.602,12.924-4.093,19.347-4.093
			c1.76,0,3.391,0.117,4.848,0.348c9.612,1.524,18.164,6.756,23.462,14.354c4.906,7.035,6.682,15.586,4.999,24.078
			c-1.65,8.334-6.818,16.255-13.167,20.18c-3.467,2.143-7.286,2.8-10.655,3.381c-0.702,0.121-1.402,0.241-2.099,0.375
			c-1.306,0.25-2.993,0.377-5.013,0.377c0,0-0.001,0-0.001,0c-5.882,0-13.93-1.051-17.93-3.061
			c-16.164-8.12-22.488-20.521-18.798-36.856C254.027,140.575,259.497,133.62,267.051,130.274z M312.841,223.315
			c-0.054-0.176-0.32-0.638-0.496-0.943c-0.314-0.545-0.671-1.163-0.937-1.871c-0.43-1.139-0.856-2.269-1.309-3.357l-0.797-1.93
			c-0.686-1.667-1.395-3.392-2.129-5.041c-0.257-0.578-0.511-1.185-0.77-1.805c-0.676-1.621-1.376-3.296-2.199-4.497l-0.421-0.609
			c-1.432-2.061-3.215-4.625-3.392-8.043l6.99-0.363c0.074,1.425,1.036,2.809,2.15,4.412l0.447,0.647
			c1.23,1.795,2.109,3.899,2.885,5.757c0.237,0.568,0.469,1.125,0.705,1.654c0.774,1.74,1.503,3.512,2.208,5.225l0.786,1.903
			c0.482,1.159,0.938,2.361,1.396,3.578c0.066,0.175,0.279,0.544,0.45,0.841c0.548,0.95,1.229,2.131,1.375,3.614l-6.967,0.685
			C312.822,223.22,312.827,223.268,312.841,223.315z M274.927,197.792c-0.613,0.76-0.961,3.293-1.168,4.807
			c-0.108,0.79-0.212,1.533-0.335,2.175c-0.469,2.454-0.904,4.856-1.331,7.346c-0.672,3.922-1.961,9.693-4.289,14.915l-6.394-2.851
			c2.032-4.558,3.179-9.719,3.783-13.246c0.434-2.534,0.877-4.98,1.355-7.479c0.102-0.535,0.185-1.155,0.275-1.812
			c0.365-2.662,0.82-5.976,2.656-8.251L274.927,197.792z M230.286,102.771c4.019,1.285,6.71,4.804,8.385,7.338
			c1.322,2.001,3.025,3.673,4.801,5.351c0.76,0.717,1.585,1.396,2.458,2.114c1.406,1.157,2.86,2.353,4.2,3.845
			c1.09,1.213,2.08,2.501,3.037,3.746c1.034,1.345,2.011,2.616,3.07,3.751l-5.119,4.774c-1.286-1.379-2.412-2.843-3.5-4.259
			c-0.917-1.193-1.784-2.321-2.696-3.335c-0.987-1.099-2.178-2.079-3.438-3.116c-0.926-0.761-1.883-1.549-2.818-2.432
			c-2.003-1.892-4.103-3.958-5.835-6.581c-1.687-2.553-3.259-4.077-4.676-4.53L230.286,102.771z M250.12,183.868
			c-2.205,1.163-3.987,3.546-5.875,6.069c-1.659,2.218-3.374,4.511-5.61,6.304c-0.793,0.636-1.61,1.214-2.401,1.772
			c-1.192,0.843-2.318,1.638-3.195,2.513c-0.418,0.417-0.88,1.079-1.37,1.779c-0.952,1.362-2.03,2.905-3.67,3.989l-3.86-5.84
			c0.527-0.348,1.199-1.31,1.792-2.159c0.612-0.876,1.306-1.869,2.163-2.725c1.298-1.294,2.722-2.301,4.099-3.274
			c0.738-0.521,1.435-1.014,2.063-1.518c1.542-1.237,2.923-3.082,4.384-5.036c2.163-2.892,4.615-6.17,8.215-8.068L250.12,183.868z
			 M215.83,159.678c-1.292-0.021-2.577-0.043-3.853-0.047l0.024-7c1.307,0.005,2.623,0.026,3.945,0.048
			c3.721,0.063,7.567,0.126,11.233-0.227c2.656-0.256,5.393-0.313,8.365-0.179c0.781,0.036,1.573,0.115,2.371,0.196
			c1.517,0.154,2.95,0.299,4.099,0.055l1.464,6.845c-2.223,0.477-4.374,0.257-6.27,0.065c-0.667-0.068-1.331-0.137-1.983-0.167
			c-2.636-0.118-5.048-0.07-7.373,0.154c-2.512,0.242-5.02,0.309-7.494,0.309C218.833,159.728,217.322,159.703,215.83,159.678z
			 M352.32,474.124l-3.417,0.081c-3.846,0.091-7.184,0.29-10.411,0.482c-4.484,0.267-8.705,0.527-14.133,0.505
			c-9.132-0.025-18.491-0.522-28.611-1.52c-10.865-1.071-21.48-0.316-32.721,0.484c-7.161,0.509-14.566,1.036-21.987,1.036
			c-0.945,0-1.971,0.03-3.039,0.062c-1.252,0.037-2.546,0.074-3.846,0.074c-3.939,0-7.936-0.346-11.01-2.118l-1.734-1l-0.018-2.001
			c-0.013-1.417-0.297-34.901,1.134-52.217c0.333-4.022,0.044-7.98-0.261-12.171c-0.282-3.869-0.573-7.87-0.364-12.065l0.097-1.931
			c0.384-7.579,0.781-15.417,0.41-22.972c-0.081-1.629-0.208-3.309-0.332-4.933c-0.232-3.045-0.471-6.194-0.437-9.377l0.002-0.191
			c0.028-2.526,0.056-5.139,2.113-7.926c0.605-0.818,1.175-1.672,1.779-2.576c0.788-1.18,1.604-2.4,2.533-3.589
			c1.756-2.246,3.647-4.421,5.621-6.466c3.635-3.765,7.415-7.802,10.178-12.121c0.64-1,1.247-1.983,1.843-2.951
			c2.508-4.064,4.877-7.902,8.727-11.644c1.91-1.856,9.035-9.992,10.762-12.165c3.404-4.281,18.803-19.136,21.416-20.875
			l1.829-1.216l1.891,1.117c3.797,2.244,8.699,12.529,8.905,12.965c0.801,1.69,7.507,9.874,11.666,13.766
			c0.702,0.657,2.237,2.543,4.876,6.012c-0.059-1.802,0.035-2.849,0.563-3.8c1.727-3.118,5.846-2.667,8.571-2.368
			c0.302,0.033,0.558,0.064,0.741,0.074c0.313,0.016,1.245-0.032,2.067-0.076c5.462-0.288,11.113-0.586,12.637,3.479
			c0.561,1.495,0.766,4.666,0.413,18.64c-0.036,1.398-0.063,2.454-0.063,2.913c0,2.618,0.238,5.158,0.491,7.847
			c0.24,2.56,0.48,5.205,0.508,7.939c0.946,1.211,1.68,2.14,2.021,2.548c0.994,1.193,1.852,2.8,2.628,4.491l1.238,0.186
			l-0.206,3.208c-0.79,12.31-0.458,25.499-0.138,38.253c0.135,5.394,0.263,10.487,0.31,15.494
			c0.115,12.478,2.189,35.333,3.561,50.457c0.787,8.674,1.198,13.269,1.198,14.74V474.124z M359.902,188.782
			c-0.654-0.39-1.761-0.626-2.932-0.877c-1.268-0.271-2.704-0.579-4.094-1.191c-2.192-0.965-4.48-1.653-6.902-2.381l-0.68-0.204
			c-0.684-0.207-1.377-0.419-2.079-0.634c-5.741-1.762-11.67-3.569-17.406-3.483l-0.121-6.999c6.839-0.133,13.608,1.958,19.58,3.79
			c0.691,0.212,1.374,0.421,2.047,0.625l0.673,0.203c2.518,0.757,5.122,1.539,7.708,2.678c0.735,0.324,1.708,0.532,2.738,0.752
			c1.597,0.341,3.406,0.729,5.05,1.708L359.902,188.782z M545.895,416.358c-4.042,6.348-11.902,10.138-21.025,10.139
			c-2.763,0-5.565-0.348-8.302-1.022c0.118,5.041-1.206,9.957-3.865,14.055c-3.142,4.843-7.842,8.03-13.232,8.975
			c-1.595,0.28-3.253,0.421-4.929,0.421c-5.736,0-12.127-1.713-16.854-5.398c0.076,2.831,0.331,5.831,0.559,8.521
			c0.158,1.856,0.307,3.609,0.39,5.181l0.229,4.417c0.283,5.54,0.575,11.269,1.028,16.738c0.243,2.938,0.436,5.73,0.623,8.431
			c0.691,10.015,1.288,18.664,4.116,28.906c3.227,11.686,7.058,20.68,11.388,26.732l3.66,5.115l-6.277,0.412
			c-3.438,0.227-6.021,0.258-8.095,0.258c-0.715,0-1.402-0.004-2.076-0.008c-0.634-0.004-1.256-0.008-1.878-0.008
			c-2.83,0-6.018,0.061-11.1,0.799c-1.809,0.262-4.721,0.389-8.901,0.389c-6.402,0-13.361-0.303-13.654-0.314l-6.282-0.277
			l3.545-5.193c2.421-3.547,7.426-12.332,9.038-20.189c0.834-4.068,1.352-9.265,1.852-14.289c0.393-3.949,0.764-7.679,1.284-10.966
			c1.136-7.195,0.952-11.254,0.739-15.955c-0.181-3.993-0.385-8.518,0.299-15.375c0.818-8.197,1.198-16.685,1.122-24.709
			c-2.839,3.632-6.526,6.643-12.58,6.643c-0.763,0-1.561-0.051-2.371-0.151c-4.376-0.543-8.791-3.741-11.522-8.347
			c-1.265-2.134-2.087-4.403-2.454-6.691c-4.272,2.492-8.694,3.646-13.697,3.646c-0.793,0-1.606-0.027-2.485-0.083
			c-6.506-0.412-12.229-3.319-16.115-8.186c-3.852-4.823-4.295-12.864-1.077-19.553c1.714-3.563,4.269-6.239,7.282-7.765
			c-1.323-2.187-2.244-4.742-2.666-7.498c-0.844-5.51,0.421-11.091,3.383-14.93c3.218-4.171,9.551-8.379,16.445-8.379
			c1.026,0,2.033,0.09,3.019,0.269c-0.444-10.451,7.191-19.759,16.283-24.088c2.727-1.298,5.88-1.985,9.119-1.985
			c6.422,0,12.301,2.464,16.393,6.561c3.33-8.127,10.159-12.368,20.107-12.368c1.68,0,3.491,0.12,5.384,0.355
			c11.051,1.375,18.894,8.703,21.435,19.399c2.831-1.967,6.188-3.004,9.894-3.004c6.334,0,12.911,3.241,16.756,8.256
			c3.539,4.616,4.672,10.108,3.191,15.465c-0.983,3.555-3.028,6.773-5.817,9.313c4.368,2.207,8.561,5.712,10.688,10.68
			C549.469,403.393,550.405,409.276,545.895,416.358z M552.983,285.298c-4.855,7.409-13.425,8.254-30.5,9.938
			c-1.848,0.182-3.809,0.375-5.893,0.589c-3.588,0.367-7.25,0.807-10.792,1.232c-9.339,1.121-18.997,2.281-28.554,2.281
			c-11.029,0-20.657-1.583-29.435-4.84c-9.336-3.464-20.051-9.424-20.035-24.884c0.001-1.071-0.02-2.144-0.041-3.215
			c-0.091-4.734-0.186-9.63,1.506-14.482c0.89-2.551,2.243-4.704,3.552-6.786c1.131-1.799,2.199-3.498,2.826-5.255
			c0.621-1.741,0.908-3.993,1.186-6.17c0.042-0.336,0.086-0.675,0.131-1.016c-1.591-1.159-2.611-2.249-3.309-3.138
			c-0.596,0.385-1.268,0.833-1.839,1.213c-4.127,2.752-8.915,4.331-13.134,4.332c-3.058,0-5.49-0.835-7.033-2.417l-0.439-0.449
			l-0.255-0.574c-1.458-3.28-1.029-5.787,0.239-7.742c-2.02-0.57-3.907-2.146-5.096-4.271c-1.264-2.259-1.563-4.824-0.821-7.036
			c1.845-5.507,8.807-7.469,14.707-7.469c0.76,0.001,1.435,0.013,2.078,0.024c0.582,0.01,1.134,0.02,1.656,0.02
			c2.091,0,2.613-0.203,2.741-0.29c-0.005,0,0.392-0.528,0.392-2.766c0-1.174-0.167-2.389-0.344-3.675
			c-0.444-3.22-0.996-7.228,1.244-11.706c6.246-12.492,14.771-13.372,23.796-14.304c1.579-0.163,3.153-0.246,4.677-0.246
			c10.199,0,19.073,3.533,27.129,10.802c10.241,9.24,8.264,22.494,6.675,33.144c-0.957,6.409-2.175,8.325-6.563,13.123l-0.924,1
			c-0.429,0.462-0.94,1.014-1.425,1.56c0.074-0.002,0.15-0.005,0.227-0.008c3.675-0.15,5.993-1.37,9.201-3.059
			c5.505-2.898,12.381-6.542,28.689-6.257c22.374,0.376,36.166,8.988,40.991,25.597c5.366,18.466-1.626,28.876-6.253,35.764
			C553.607,284.358,553.286,284.835,552.983,285.298z M564.054,513.833c-1.293-0.021-2.582-0.044-3.86-0.048l0.024-7
			c1.309,0.005,2.628,0.026,3.952,0.049c3.719,0.06,7.562,0.126,11.226-0.228c2.662-0.256,5.397-0.315,8.365-0.179
			c0.78,0.036,1.572,0.114,2.368,0.195c1.519,0.154,2.953,0.299,4.1,0.055l1.467,6.844c-2.226,0.479-4.377,0.26-6.275,0.065
			c-0.667-0.067-1.329-0.137-1.98-0.167c-2.634-0.119-5.045-0.07-7.373,0.154c-2.511,0.242-5.019,0.309-7.492,0.309
			C567.053,513.883,565.544,513.857,564.054,513.833z M576.372,463.594l2.131-6.668c4.019,1.285,6.71,4.803,8.385,7.338
			c1.322,2.001,3.025,3.673,4.801,5.351c0.761,0.718,1.586,1.397,2.459,2.115c1.406,1.156,2.859,2.352,4.198,3.843
			c1.09,1.213,2.08,2.501,3.037,3.746c1.034,1.345,2.011,2.616,3.07,3.751l-5.119,4.774c-1.286-1.379-2.412-2.843-3.5-4.259
			c-0.917-1.193-1.784-2.321-2.696-3.335c-0.986-1.099-2.177-2.078-3.437-3.114c-0.927-0.762-1.885-1.55-2.82-2.434
			c-2.002-1.892-4.103-3.958-5.834-6.581C579.361,465.57,577.788,464.046,576.372,463.594z M592.463,544.094
			c-1.659,2.217-3.374,4.51-5.61,6.303c-0.793,0.637-1.61,1.215-2.401,1.773c-1.192,0.842-2.318,1.639-3.195,2.512
			c-0.418,0.418-0.88,1.08-1.37,1.781c-0.951,1.361-2.03,2.904-3.669,3.988l-3.861-5.838c0.527-0.35,1.199-1.313,1.792-2.16
			c0.612-0.877,1.306-1.869,2.163-2.725c1.298-1.295,2.722-2.301,4.099-3.275c0.738-0.521,1.435-1.014,2.063-1.518
			c1.542-1.236,2.922-3.082,4.384-5.036c2.163-2.892,4.615-6.17,8.215-8.068l3.265,6.191
			C596.133,539.187,594.35,541.57,592.463,544.094z M621.976,556.754c-0.108,0.791-0.212,1.533-0.335,2.176
			c-0.468,2.447-0.903,4.85-1.331,7.346c-0.672,3.922-1.962,9.695-4.289,14.914l-6.394-2.852c2.032-4.555,3.179-9.717,3.783-13.244
			c0.435-2.541,0.878-4.986,1.355-7.479c0.102-0.535,0.185-1.154,0.275-1.813c0.365-2.662,0.82-5.975,2.656-8.252l5.448,4.396
			C622.531,552.709,622.184,555.24,621.976,556.754z M661.059,577.471c-0.054-0.176-0.32-0.639-0.496-0.943
			c-0.314-0.545-0.671-1.164-0.937-1.871c-0.43-1.139-0.856-2.268-1.309-3.357l-0.797-1.93c-0.686-1.668-1.395-3.393-2.129-5.041
			c-0.257-0.578-0.511-1.186-0.77-1.805c-0.677-1.621-1.376-3.295-2.199-4.496L652,557.418c-1.432-2.061-3.214-4.625-3.391-8.043
			l6.99-0.363c0.074,1.426,1.036,2.809,2.149,4.412l0.448,0.648c1.229,1.793,2.108,3.896,2.883,5.752
			c0.238,0.568,0.47,1.127,0.706,1.656c0.775,1.742,1.503,3.514,2.208,5.225l0.786,1.904c0.482,1.16,0.937,2.361,1.396,3.578
			c0.066,0.176,0.279,0.545,0.45,0.842c0.548,0.949,1.229,2.131,1.375,3.615l-6.967,0.684
			C661.039,577.375,661.044,577.424,661.059,577.471z M708.12,542.938c-0.654-0.391-1.76-0.627-2.931-0.877
			c-1.268-0.271-2.705-0.58-4.096-1.192c-2.189-0.965-4.475-1.652-6.894-2.379l-0.688-0.207c-0.682-0.206-1.375-0.418-2.076-0.633
			c-5.742-1.762-11.677-3.56-17.408-3.484l-0.121-6.998c6.845-0.14,13.609,1.957,19.583,3.79c0.69,0.212,1.372,0.421,2.044,0.624
			l0.682,0.205c2.515,0.756,5.116,1.538,7.699,2.676c0.735,0.324,1.709,0.532,2.739,0.753c1.596,0.341,3.405,0.729,5.049,1.708
			L708.12,542.938z M689.966,488.188c2.705-0.684,5.237-1.751,7.599-2.786c0.889-0.39,1.866-0.73,2.811-1.059
			c1.451-0.506,3.096-1.079,3.928-1.696l4.171,5.622c-1.691,1.254-3.872,2.014-5.796,2.685c-0.855,0.298-1.664,0.58-2.304,0.86
			c-2.517,1.103-5.47,2.347-8.694,3.162c-6.008,1.517-11.43,3.692-16.118,6.465L672,495.416
			C677.264,492.301,683.309,489.87,689.966,488.188z M657.836,459.594c2.4-4.764,4.881-9.69,7.783-14.344l5.94,3.703
			c-2.733,4.384-5.142,9.166-7.471,13.791c-2.542,5.045-5.169,10.262-8.294,15.15l-5.897-3.771
			C652.828,469.537,655.374,464.482,657.836,459.594z M639.463,480.684c9.611,1.523,18.163,6.754,23.461,14.352
			c4.907,7.036,6.682,15.586,5,24.079c-1.649,8.333-6.818,16.255-13.167,20.18c-3.467,2.143-7.286,2.801-10.655,3.381
			c-0.701,0.121-1.402,0.24-2.099,0.375c-1.306,0.25-2.993,0.377-5.013,0.377c0,0,0,0,0,0c-5.882,0-13.93-1.051-17.93-3.061
			c-16.164-8.12-22.489-20.52-18.798-36.857c1.983-8.78,7.453-15.735,15.006-19.081c5.872-2.601,12.923-4.093,19.345-4.093
			C636.375,480.335,638.006,480.453,639.463,480.684z M624.938,453.277c0.563,1.789,1.144,3.638,1.371,5.678
			c0.291,2.622,0.775,5.128,1.245,7.471c0.104,0.522,0.351,1.239,0.612,1.998c0.639,1.859,1.364,3.967,1.104,6.146l-6.951-0.828
			c0.07-0.589-0.438-2.065-0.773-3.042c-0.324-0.942-0.659-1.917-0.856-2.896c-0.5-2.495-1.017-5.173-1.339-8.075
			c-0.152-1.363-0.608-2.816-1.092-4.354c-0.3-0.954-0.61-1.94-0.869-2.971c-0.426-1.702-0.692-3.413-0.949-5.068
			c-0.125-0.803-0.249-1.602-0.391-2.387l6.888-1.246c0.152,0.841,0.286,1.697,0.42,2.558c0.244,1.569,0.475,3.051,0.823,4.442
			C624.39,451.533,624.656,452.38,624.938,453.277z M654.292,108.005c-6.816,0.594-10.428,0.874-14.085,0.874
			c-3.782,0-7.595-0.308-14.519-0.868c-2.179-0.176-4.109-1.075-5.953-2.331c-0.989,7.981-4.622,10.935-8.619,13.363l-0.569,0.348
			c-2.41,1.488-4.959,1.928-7.209,2.316c-0.438,0.076-0.875,0.151-1.311,0.234l-0.661-3.437l0.659,3.438
			c-0.901,0.173-2.087,0.255-3.414,0.255c-4.024,0-9.344-0.76-11.954-2.07c-7.106-3.569-10.709-7.473-12.077-13.808
			c-1.348,0.957-2.878,1.648-4.735,1.824c-3.632,0.344-7.203,0.512-10.917,0.512c-5.249,0-10.097-0.339-14.786-0.667
			c-4.68-0.328-9.519-0.666-14.772-0.666c-3.627,0-6.416-0.285-9.113-0.56c-2.898-0.296-5.592-0.573-9.109-0.447
			c-1.648,0.062-3.083-0.361-4.408-1.067c-0.954,8.129-4.613,11.113-8.643,13.561l-0.569,0.347c-2.41,1.49-4.963,1.929-7.216,2.317
			c-0.436,0.075-0.872,0.15-1.306,0.233v0c-0.901,0.173-2.088,0.256-3.416,0.256c-4.023,0-9.341-0.76-11.951-2.07
			c-7.435-3.735-11.032-7.84-12.249-14.709c-1.057,0.53-2.163,0.846-3.384,0.846c-0.199,0-0.398-0.009-0.597-0.027
			c-1.183-0.108-2.429-0.16-3.809-0.16c-2.843,0-5.831,0.231-8.719,0.455c-2.976,0.23-6.053,0.468-9.075,0.468h-0.118
			c-10.921-0.022-22.182-0.104-22.182-0.104l-0.616-0.004l-0.578-0.214c-7.776-2.888-7.56-13.982-7.431-20.61
			c0.015-0.739,0.028-1.417,0.027-2.008c-0.005-4.289,1.679-8.153,5.007-11.485c7.276-7.286,20.7-10.001,27.452-10.001
			c14.768,0,29.154-1.948,34.013-3.753c3.681-1.367,13.458-7.462,18.541-16.671c7.456-13.509,20.987-22.052,36.197-22.853
			c7.044-0.371,25.065-1.233,40.241-1.233c4.013,0,7.561,0.062,10.546,0.184c11.72,0.478,25.22,2.194,36.487,11.301
			c5.575,4.506,8.51,10.148,11.349,15.605c2.612,5.022,5.08,9.765,9.421,12.822c2.88,2.028,6.423,2.116,10.526,2.218
			c3.043,0.076,6.19,0.154,9.398,1.045c8.714,2.419,10.879,5.021,13.797,12.709c2.125,5.6,2.193,8.715,2.288,13.027
			c0.026,1.201,0.055,2.528,0.135,4.08C670.818,100.659,662.565,107.285,654.292,108.005z"/>
		<path fill="#FFFFFF" d="M730.023,263.525c0.177-1.51,0.344-2.937,0.415-4.374c0.019-0.536-0.193-2.707-0.333-4.143
			c-0.053-0.548-0.101-1.038-0.142-1.479c-1.745-0.16-4.095-0.066-6.281,0.051l-0.928,0.049c-0.822,0.042-1.651,0.071-2.485,0.101
			c-2.293,0.082-4.46,0.159-6.492,0.49c-2.105,0.343-4.116,0.502-6.327,0.502c-1.879,0-3.679-0.115-5.567-0.244
			c0.073,2.482,0.218,4.914,0.369,7.439c0.09,1.51,0.181,3.03,0.256,4.578c0.052,1.048,0.178,2.107,0.313,3.229
			c0.227,1.895,0.461,3.854,0.356,5.978c-0.017,0.598,0.266,2.847,0.46,4.34c1.579-0.05,3.175-0.176,4.843-0.308
			c2.187-0.173,4.447-0.352,6.74-0.352c3.502,0,10.824,0.002,14.813,0.005c-0.015-0.771-0.074-1.57-0.16-2
			c-0.609-3.051-0.458-6.551-0.27-9.592C729.694,266.336,729.861,264.907,730.023,263.525z"/>
		<path fill="#FFFFFF" d="M253.114,598.707c7.209,3.365,14.868,6.129,22.273,8.803c1.588,0.574,3.174,1.146,4.753,1.723
			c1.056,0.387,2.112,0.777,3.17,1.17c2.853,1.057,5.803,2.15,8.758,3.135c1.351,0.451,2.607,1.021,3.822,1.574
			c1.099,0.498,2.136,0.971,3.146,1.311c1.274,0.426,2.574,0.256,4.373,0.016c0.461-0.061,0.928-0.123,1.405-0.176
			c3.18-0.354,6.228-0.377,9.176-0.398c1.6-0.01,3.254-0.023,4.899-0.088c0.916-0.043,2.077,0.041,3.422,0.133
			c0.852,0.059,2.165,0.148,3.385,0.174c-2.698-2.373-8.036-5.768-10.792-6.959c-3.985-1.725-7.548-3.709-11.792-6.125l-0.608-0.348
			c-5.89-3.354-13.956-7.945-19.168-11.771c-2.506-1.838-12.106-7.1-15.65-8.939l3.226-6.213c2.719,1.412,13.345,7.146,16.566,9.508
			c1.393,1.023,3.033,2.119,4.792,3.238c13.003-0.031,21.61,0.168,27.926,0.314c13.18,0.305,13.968,0.322,20.364-2.617
			c11.372-5.227,12.105-6.545,16.174-13.859c1.094-1.965,2.455-4.412,4.273-7.385c3.518-5.748,5.877-16.9,6.214-29.01
			c-8.115-0.586-8.956,0.502-9.707,1.473c-0.16,0.206-0.322,0.415-0.494,0.624c-1.137,1.381-4.517,5.194-8.429,9.608
			c-4.866,5.49-10.38,11.713-13.427,15.328c-4.623,5.484-14.144,6.832-44.274,6.283c-18.977-0.348-39.179-0.633-59.194-0.002
			c-3.657,0.117-6.875,0.244-9.826,0.359c-12.743,0.506-20.435,0.809-36.467-0.775c-1.395-0.137-3.79-0.646-7.104-1.354
			c-8.464-1.801-22.632-4.816-29.538-3.381c-5.325,1.105-9.782,3.264-13.364,4.998c-1.255,0.607-2.44,1.182-3.504,1.629
			c-1.015,0.428-2.149,0.857-3.346,1.313c-5.58,2.115-12.524,4.748-13.247,9.736c-0.023,0.162-0.05,0.346,0.285,0.744
			c5.014,5.93,35.147,6.639,45.049,6.873c1.985,0.045,3.598,0.084,4.702,0.135c13.942,0.641,25.95,0.576,38.664,0.506
			c3.437-0.018,6.936-0.036,10.529-0.041c-0.297-0.082-0.603-0.179-0.894-0.252l-0.633-0.156
			c-4.229-1.043-11.306-2.791-13.076-8.328l6.668-2.131c0.579,1.811,6.032,3.156,8.085,3.662l0.662,0.164
			c3.372,0.848,6.833,2.152,10.181,3.416c1.547,0.582,3.074,1.158,4.554,1.672c5.457,1.895,10.708,4.551,15.787,7.117
			C248.248,596.342,250.712,597.586,253.114,598.707z M167.585,578.648c-0.939,0.434-2.054,0.625-3.613,0.625
			c-0.531,0-1.069-0.021-1.583-0.043c-0.398-0.018-0.779-0.035-1.122-0.035l-2.449,0.01c-1.537,0-3.346-0.023-5.114-0.199
			c-1.249-0.123-2.813-0.223-4.47-0.33c-7.591-0.486-9.66-0.779-10.847-2.064c-0.91-0.986-1.202-2.314-0.801-3.643
			c0.945-3.139,5.704-5.766,8.103-6.355c3.265-0.801,6.456-0.949,9.553-0.445c0.346,0.057,0.788,0.113,1.295,0.182
			c4.427,0.586,13.64,1.805,13.642,8.203C170.179,576.396,169.234,577.889,167.585,578.648z"/>
		<path fill="#FFFFFF" d="M734.521,201.423c0.642,0.876,1.603,2.157,2.708,3.615c-0.155-1.866-0.277-3.774-0.277-5.74
			c0-0.487,0.027-1.606,0.065-3.089c0.078-3.069,0.292-11.552,0.093-15c-1.642-0.168-4.535-0.017-5.775,0.048
			c-1.188,0.062-2.125,0.111-2.811,0.075c-0.277-0.015-0.668-0.055-1.128-0.105c-0.294-0.032-0.811-0.089-1.338-0.128
			c0.014,0.288,0.029,0.56,0.041,0.78c0.087,1.588,0.127,2.449,0.021,3.16c-0.14,0.937-0.063,1.917,0.027,3.052
			c0.049,0.621,0.094,1.321,0.114,2.054c1.991,2.704,4.244,5.778,6.823,9.312L734.521,201.423z"/>
		<path fill="#FFFFFF" d="M155.881,571.307c-0.565-0.076-1.056-0.141-1.441-0.203c-2.457-0.4-4.921-0.279-7.559,0.365
			c-1.051,0.26-2.356,1.02-3.3,1.742c1.773,0.207,4.252,0.365,5.973,0.475c1.701,0.109,3.307,0.213,4.642,0.344
			c1.552,0.154,3.208,0.176,4.622,0.176l2.436-0.01c0.421,0,0.874,0.02,1.348,0.039c0.444,0.02,0.91,0.039,1.37,0.039
			c0.526,0,0.881-0.031,1.116-0.066C164.693,573.4,162.814,572.223,155.881,571.307z"/>
		<path fill="#FFFFFF" d="M696.157,163.656c-1.212-2.559-3.175-5.986-4.656-8.117c-4.701,4.255-14.875,14.085-17.579,17.485
			c-1.714,2.157-9.084,10.615-11.362,12.829c-3.228,3.137-5.276,6.457-7.649,10.301c-0.616,0.999-1.243,2.014-1.904,3.046
			c-3.11,4.862-7.159,9.192-11.039,13.21c-1.805,1.87-3.536,3.86-5.143,5.916c-0.462,0.592-0.903,1.211-1.344,1.855
			c1.159-0.002,2.306,0.004,3.439,0.009c5.624,0.031,10.932,0.056,16.456-0.793c2.711-0.417,9.545-1.335,16.992-1.335
			c4.594,0,9.421,0.35,13.657,1.382c9.125,2.224,17.305,2.383,26.776,1.936c6.067-0.287,19.926-0.132,28.295,0.122
			c-2.349-2.933-9.637-12.408-12.225-15.943l-1.443-1.975c-10.811-14.811-16.892-22.904-18.073-24.055
			C705.614,176.024,697.673,166.853,696.157,163.656z"/>
		<path fill="#FFFFFF" d="M590.006,35.766c-1.027-0.694-2.54-0.836-4.626-0.836c-0.401,0-0.807,0.005-1.216,0.009
			c-1.111,0.013-2.25,0.022-3.398-0.038c-1.381-0.072-2.742-0.228-4.059-0.378c-1.762-0.201-3.427-0.392-5.097-0.392
			c-0.56,0-1.08,0.021-1.589,0.065c-0.276,0.023-0.503,0.049-0.69,0.074c0,0.01-0.001,0.019-0.002,0.029l-0.01,0.175
			c-0.127,2.094,0.775,13.244,1.521,21.492c1.248,0.064,2.626,0.151,4.043,0.239c2.677,0.167,5.446,0.34,7.124,0.346
			c1.162,0.004,2.886,0.037,4.805,0.073c3.936,0.075,8.764,0.149,10.733,0.059c0.163-0.007,0.334-0.011,0.514-0.011
			c1.086,0,2.367,0.137,3.723,0.283c1.348,0.145,2.74,0.294,3.912,0.307C603.085,51.747,592.597,38.225,590.006,35.766z"/>
		<path fill="#FFFFFF" d="M552.783,45.965c-0.127-1.651-0.213-3.125-0.291-4.438c-0.159-2.711-0.339-5.783-0.813-6.354
			c-0.043-0.031-0.61-0.402-3.468-0.402c-3.76,0.001-18.457,0.527-21.666,1.011c-6.783,1.022-10.859,3.065-13.216,6.622
			c-1.17,1.765-4.815,8.924-7.004,14.162c5.483-0.062,14.093-0.15,18.653-0.15h22.373c0.736,0,1.607,0.034,2.526,0.072
			c0.919,0.037,1.892,0.078,2.806,0.078c0.324,0,0.604-0.005,0.844-0.015c-0.043-2.563-0.36-6.149-0.568-8.509
			C552.889,47.228,552.826,46.516,552.783,45.965z"/>
	</g>
</g>
</svg>