<?xml version="1.0" standalone="no"?>
<!DOCTYPE svg PUBLIC "-//W3C//DTD SVG 20010904//EN"
 "http://www.w3.org/TR/2001/REC-SVG-20010904/DTD/svg10.dtd">
<svg version="1.0" xmlns="http://www.w3.org/2000/svg"
 width="512.000000pt" height="512.000000pt" viewBox="0 0 512.000000 512.000000"
 preserveAspectRatio="xMidYMid meet">
<metadata>
Created by potrace 1.11, written by Peter Selinger 2001-2013
</metadata>
<g transform="translate(0.000000,512.000000) scale(0.100000,-0.100000)"
fill="#000000" stroke="none">
<path d="M435 5093 c-209 -75 -384 -315 -426 -585 -19 -119 11 -440 57 -618
44 -167 150 -418 250 -587 102 -174 208 -264 555 -473 109 -65 132 -95 126
-162 -9 -107 -91 -173 -317 -253 -175 -62 -278 -110 -334 -155 -77 -61 -174
-220 -215 -352 -48 -157 -66 -441 -31 -483 12 -14 17 -12 45 15 29 28 31 35
27 83 -2 29 3 92 13 141 47 254 152 454 291 556 69 52 138 84 324 153 80 30
152 57 160 61 11 5 41 -22 103 -89 85 -91 91 -96 160 -116 40 -12 93 -32 119
-45 77 -39 98 -30 55 23 -63 78 -89 132 -112 240 -9 39 -32 111 -51 160 -19
48 -44 123 -55 165 -22 88 -39 129 -49 123 -4 -2 -10 -30 -14 -62 -11 -90 -16
-107 -30 -89 -6 8 -60 41 -121 73 -122 65 -325 213 -412 301 -30 31 -72 81
-93 112 -85 125 -196 383 -239 555 -51 202 -70 524 -37 645 42 159 153 331
267 415 82 60 140 78 243 74 74 -4 92 -9 172 -48 81 -40 100 -56 214 -175 301
-314 353 -355 495 -397 39 -12 132 -41 208 -66 164 -54 177 -53 308 12 l89 45
-36 -47 c-64 -83 -95 -172 -56 -160 101 33 171 49 242 54 l85 6 -56 -56 c-32
-30 -71 -75 -87 -100 -91 -131 -95 -284 -16 -626 5 -22 6 -22 24 -6 23 21 34
49 60 155 12 47 33 121 47 165 l26 80 12 -55 c6 -30 34 -154 62 -275 28 -121
55 -240 60 -265 l9 -45 49 63 c49 63 51 67 138 375 48 172 99 368 113 437 15
69 30 126 35 128 4 2 5 18 2 37 l-5 33 41 -10 c37 -9 111 -4 111 8 0 3 -9 22
-20 44 -11 22 -20 41 -20 44 0 3 35 -16 78 -43 42 -26 85 -51 96 -54 18 -7 18
-8 0 -28 -17 -19 -19 -41 -20 -263 0 -227 -2 -247 -27 -341 -14 -55 -35 -127
-46 -159 -12 -33 -19 -61 -17 -64 3 -2 21 1 40 8 46 15 218 195 269 281 78
132 120 284 103 372 -8 45 -66 101 -151 148 l-66 36 65 7 c105 11 253 53 325
92 94 51 170 107 349 257 250 208 284 227 408 227 158 0 284 -64 365 -185 98
-147 166 -338 176 -490 4 -76 0 -114 -26 -245 -51 -250 -87 -344 -197 -515
-174 -270 -250 -356 -459 -516 -66 -51 -138 -107 -159 -126 -22 -18 -43 -33
-46 -33 -4 0 -10 32 -13 70 -4 43 -15 88 -28 116 l-23 45 -14 -26 c-26 -50
-90 -260 -116 -380 -41 -186 -47 -206 -83 -271 -18 -33 -33 -71 -33 -83 0 -21
1 -21 44 9 25 16 53 30 63 30 10 0 36 9 58 19 52 23 259 238 276 286 l13 36
56 -7 c163 -19 343 -115 482 -257 95 -98 134 -192 147 -359 8 -91 4 -248 -5
-248 -2 0 -53 31 -113 70 -90 57 -124 72 -185 85 -95 19 -147 19 -194 -1 l-37
-15 72 -38 c146 -77 251 -172 306 -280 98 -188 112 -349 44 -485 l-19 -40
-102 107 c-134 142 -182 163 -346 158 l-44 -1 40 -42 c122 -128 194 -277 194
-402 l0 -48 -47 7 c-27 3 -104 18 -173 32 -180 36 -267 30 -465 -31 -374 -117
-536 -184 -581 -240 l-24 -31 0 53 c0 56 -34 151 -54 153 -6 1 -23 0 -38 -1
l-28 -2 0 77 c0 63 7 96 39 188 55 157 65 179 103 216 41 40 134 84 213 101
66 14 109 32 141 61 20 19 21 18 75 -27 30 -25 70 -60 89 -77 29 -28 32 -29
19 -7 -9 14 -45 50 -80 80 -35 30 -63 61 -62 70 1 8 6 33 11 55 6 22 15 73 22
113 l12 72 72 0 c87 0 163 -13 274 -46 45 -14 87 -24 93 -22 17 6 -73 58 -126
73 -70 20 -219 45 -270 45 -40 0 -43 2 -49 33 -9 49 -50 129 -86 171 -19 21
-29 41 -24 45 18 16 179 62 273 77 104 17 147 14 275 -17 45 -10 92 -19 106
-19 l25 1 -30 25 c-67 55 -196 67 -394 38 -133 -19 -226 -40 -269 -60 -32 -15
-34 -15 -66 14 -19 16 -60 42 -92 58 -52 26 -70 29 -154 29 -99 0 -131 -11
-170 -58 -20 -24 -138 -54 -243 -63 -82 -6 -272 7 -397 28 -50 8 -74 19 -104
44 -149 128 -420 125 -611 -6 l-45 -31 -63 24 c-34 14 -87 30 -117 36 -72 14
-309 31 -430 30 -95 0 -151 -11 -120 -22 26 -10 301 -37 434 -43 120 -5 247
-31 260 -52 2 -4 -9 -28 -26 -52 -17 -25 -37 -59 -44 -77 l-14 -32 -132 0
c-172 1 -253 -18 -403 -93 -39 -19 -91 -43 -116 -52 -45 -17 -125 -74 -116
-83 3 -2 29 7 58 21 291 135 448 181 593 173 48 -3 90 -8 92 -10 2 -2 -3 -34
-12 -70 -13 -53 -15 -79 -7 -127 l10 -61 -41 -29 c-89 -61 -136 -133 -136
-205 0 -53 15 -42 34 24 9 32 25 70 36 84 29 37 123 94 128 79 11 -34 73 -100
121 -129 70 -42 127 -53 277 -53 l125 0 69 -143 c69 -145 140 -345 140 -394 0
-48 -12 -56 -65 -49 -37 6 -51 4 -65 -9 -29 -26 -33 -89 -12 -187 l18 -87 -33
25 c-19 14 -72 41 -118 59 -47 18 -124 58 -173 89 -104 66 -237 130 -305 147
-27 6 -82 10 -130 7 -75 -4 -94 -10 -227 -70 -80 -37 -159 -69 -176 -73 -31
-6 -31 -6 -38 45 -8 60 8 159 35 211 10 21 43 59 74 86 30 26 55 56 55 65 0
43 -128 95 -260 104 -141 11 -318 -48 -414 -136 -52 -48 -63 -76 -13 -34 76
65 215 104 367 103 112 0 183 -21 213 -61 l20 -27 -60 -58 c-84 -81 -102 -145
-95 -326 l2 -59 33 7 c17 4 95 31 172 60 189 72 237 85 315 85 119 0 215 -36
390 -145 47 -30 117 -66 155 -81 39 -15 98 -45 132 -65 34 -21 84 -49 110 -63
27 -13 91 -56 143 -95 125 -95 192 -116 329 -108 120 7 194 26 296 76 86 42
160 106 206 180 16 24 45 55 66 69 21 13 52 37 68 52 66 59 196 117 436 193
248 79 288 88 409 94 96 4 142 1 275 -21 88 -15 170 -28 182 -30 30 -4 37 32
23 116 -20 125 -80 252 -167 347 l-54 61 33 -6 c46 -9 116 -40 155 -70 18 -14
66 -66 107 -117 40 -51 85 -103 100 -116 l26 -24 34 74 c82 176 93 330 35 484
-47 125 -188 276 -325 347 -35 18 -64 36 -64 41 0 7 28 11 65 8 33 -3 162 -71
296 -157 l126 -81 12 99 c50 437 -61 677 -383 833 -66 32 -125 51 -215 69 -68
14 -136 33 -150 42 -38 24 -71 56 -71 68 0 13 74 73 245 196 214 155 239 186
451 537 135 224 160 286 214 523 67 293 51 432 -80 706 -69 143 -133 220 -222
265 -133 67 -293 77 -401 24 -31 -16 -144 -100 -250 -187 -105 -87 -230 -185
-277 -217 -167 -115 -391 -211 -526 -226 -77 -8 -145 8 -277 67 -91 40 -104
49 -175 127 -82 91 -186 165 -280 202 -46 19 -77 23 -167 23 -107 1 -112 0
-175 -34 -68 -37 -190 -149 -190 -175 0 -10 10 -15 33 -15 52 -1 207 -37 207
-49 0 -4 -53 -25 -117 -46 -179 -58 -244 -58 -453 -5 -187 48 -284 89 -367
159 -32 26 -123 119 -203 205 -171 186 -271 270 -396 333 -84 42 -99 46 -180
50 -68 3 -101 -1 -139 -14z m1750 -3151 c64 -13 75 -17 55 -23 -14 -4 -42 -7
-63 -8 -30 -1 -39 -6 -46 -25 -25 -63 75 -278 165 -358 19 -17 108 -68 231
-134 l62 -33 -54 -27 c-36 -17 -55 -32 -55 -44 0 -10 -9 -47 -20 -82 -11 -34
-25 -92 -30 -128 -15 -92 -28 -122 -54 -118 -16 2 -25 18 -41 78 -23 82 -91
200 -115 200 -8 0 -60 -7 -115 -15 -207 -30 -334 -15 -417 48 -56 43 -108 125
-87 137 25 16 102 23 141 13 28 -8 42 -7 55 2 24 18 10 41 -30 48 -36 6 -149
-6 -179 -18 -14 -6 -18 -2 -19 16 -3 48 3 95 18 142 13 42 18 47 36 41 34 -10
79 -34 115 -61 17 -13 36 -22 41 -18 5 3 12 1 16 -5 9 -15 35 -12 41 4 9 23
-36 77 -59 70 -10 -3 -26 1 -35 9 -9 9 -37 23 -62 33 -25 9 -47 19 -49 21 -7
5 71 113 81 113 6 0 42 -28 81 -61 60 -52 71 -66 69 -89 -5 -41 19 -55 52 -29
34 26 38 89 6 89 -11 0 -25 9 -32 21 -7 11 -44 41 -81 67 l-68 46 27 21 c15
11 69 34 118 52 102 36 150 36 301 5z m1120 -33 c53 -20 115 -62 115 -79 0 -4
-18 -27 -41 -50 -32 -33 -39 -47 -35 -66 6 -21 10 -23 26 -14 11 6 22 21 26
34 3 13 17 35 31 48 l25 23 40 -45 c37 -41 88 -130 88 -155 0 -6 -50 -19 -111
-29 -99 -17 -109 -20 -95 -34 13 -13 26 -14 98 -4 46 7 89 12 96 12 15 0 16
-80 1 -150 -9 -44 -13 -49 -26 -38 -14 11 -15 9 -9 -18 18 -81 -148 -142 -359
-131 l-103 5 -35 -72 c-19 -39 -47 -97 -62 -129 -23 -50 -58 -87 -71 -74 -2 2
-9 46 -14 98 -5 52 -18 125 -28 162 l-19 69 -54 22 c-30 12 -72 31 -93 43
l-39 20 84 51 c90 54 217 174 258 242 13 22 36 54 51 70 37 40 63 110 58 155
-4 38 -2 40 67 48 62 8 76 6 130 -14z m-180 -1349 c9 -53 -2 -149 -27 -230
-17 -54 -30 -74 -87 -130 -111 -112 -239 -158 -409 -147 -265 16 -396 157
-418 453 l-7 81 56 -8 c31 -5 103 -21 159 -35 152 -38 304 -43 442 -15 59 12
135 33 169 46 34 13 74 24 89 25 23 0 27 -5 33 -40z"/>
<path d="M2047 1653 c-2 -4 -1 -17 3 -28 7 -19 8 -19 15 -2 8 18 -9 46 -18 30z"/>
<path d="M1919 1491 c-20 -16 -22 -22 -12 -44 17 -37 52 -45 75 -17 17 21 17
23 -4 51 -26 34 -29 35 -59 10z"/>
<path d="M2096 1452 c-7 -12 3 -42 14 -42 18 0 22 22 7 37 -9 9 -17 11 -21 5z"/>
<path d="M3304 1656 c-6 -17 2 -36 17 -36 12 0 12 37 -1 45 -6 3 -13 -1 -16
-9z"/>
<path d="M3141 1621 c-6 -4 -14 -24 -18 -44 -4 -29 -2 -38 12 -43 23 -9 45 20
45 57 0 28 -18 42 -39 30z"/>
<path d="M3471 1486 c-19 -23 -10 -61 14 -61 16 0 20 7 20 34 0 38 -15 50 -34
27z"/>
<path d="M3300 1465 c-13 -34 -13 -82 0 -90 33 -21 57 79 25 105 -12 10 -16 8
-25 -15z"/>
<path d="M3024 1436 c-12 -32 1 -51 31 -48 44 5 61 25 40 46 -20 20 -64 21
-71 2z"/>
<path d="M722 4513 c-4 -10 -7 -58 -7 -108 0 -118 45 -263 110 -361 l45 -67
-42 6 c-24 3 -81 25 -127 48 -80 41 -84 42 -97 24 -21 -29 -17 -68 15 -128 50
-95 108 -165 164 -197 63 -37 96 -46 211 -61 51 -7 83 -15 76 -19 -7 -5 -69
-11 -137 -15 -91 -6 -123 -11 -123 -20 0 -18 93 -98 149 -128 60 -33 180 -57
280 -57 l81 0 34 68 c43 86 103 167 197 265 l74 78 95 -143 c92 -139 131 -184
274 -316 l68 -63 -8 58 c-3 32 -33 131 -66 221 -79 219 -87 254 -101 415 l-12
139 -49 -34 c-35 -23 -53 -44 -62 -70 -13 -38 -51 -96 -102 -157 -28 -33 -29
-33 -111 -33 -164 1 -220 23 -356 137 -44 37 -124 101 -177 141 -112 85 -136
117 -211 277 -55 115 -71 134 -85 100z"/>
<path d="M4295 4054 c-215 -196 -335 -275 -531 -345 -76 -28 -84 -33 -79 -53
4 -11 22 -70 41 -131 l35 -109 -16 -77 c-8 -42 -35 -134 -59 -205 -48 -137
-64 -244 -51 -329 l7 -47 34 50 c19 28 34 61 34 72 0 27 26 77 46 88 26 15
143 134 149 152 3 9 -2 36 -10 60 -8 23 -15 47 -15 52 0 16 47 26 180 38 141
12 227 35 266 71 l23 22 -58 37 c-32 21 -68 41 -80 45 -30 9 -20 19 62 62 121
64 267 219 283 302 l7 33 -30 -15 c-28 -15 -99 -29 -207 -41 l-50 -6 77 72
c63 61 83 88 119 162 30 63 42 102 42 135 1 44 0 46 -29 49 -26 2 -50 -16
-190 -144z"/>
<path d="M1276 3338 c-39 -88 -38 -159 3 -261 55 -138 107 -227 132 -227 4 0
10 22 14 48 9 65 -16 190 -65 332 -22 63 -40 127 -40 143 0 44 -15 32 -44 -35z"/>
<path d="M1751 3348 c-77 -40 -121 -95 -128 -162 -3 -25 -3 -46 -1 -46 3 0 36
29 72 66 95 93 117 104 202 104 42 0 77 5 88 13 17 12 16 15 -10 32 -19 13
-52 21 -94 23 -58 3 -72 0 -129 -30z"/>
<path d="M3167 3352 c-26 -28 -20 -41 21 -47 97 -16 226 -97 256 -160 33 -70
60 -44 32 30 -24 61 -80 113 -169 158 -85 41 -116 46 -140 19z"/>
<path d="M1772 3096 c-59 -19 -122 -74 -154 -133 -32 -58 -58 -152 -57 -203 0
-29 3 -24 14 26 17 80 46 136 96 184 57 55 112 74 199 68 190 -14 283 -137
324 -433 2 -16 2 2 0 40 -7 139 -60 295 -124 368 -64 74 -206 113 -298 83z"/>
<path d="M3167 3033 c-61 -21 -125 -77 -160 -141 -29 -54 -68 -188 -66 -231 0
-14 9 7 20 47 48 188 158 283 310 269 168 -15 269 -163 298 -436 7 -67 8 -70
10 -25 1 65 -31 244 -56 310 -40 104 -110 177 -200 210 -50 17 -97 16 -156 -3z"/>
<path d="M1854 2771 c-119 -54 -179 -180 -198 -415 l-5 -68 27 7 c15 4 67 9
115 12 102 6 188 -12 282 -57 40 -19 63 -26 70 -19 6 6 10 81 10 182 0 140 -3
182 -18 227 -22 66 -57 114 -97 135 -40 21 -136 19 -186 -4z m93 -33 c32 -30
30 -72 -4 -105 -29 -26 -98 -62 -121 -63 -22 0 -62 51 -62 80 0 79 131 141
187 88z"/>
<path d="M3112 2737 c-44 -14 -107 -87 -129 -150 -14 -42 -18 -79 -16 -187 1
-74 5 -149 8 -167 l6 -32 71 31 c70 29 74 30 210 26 l138 -3 1 85 c2 210 -11
261 -86 335 -68 68 -128 87 -203 62z m52 -69 c27 -38 19 -67 -28 -115 -38 -37
-50 -44 -78 -41 -26 2 -37 10 -50 37 -14 29 -15 39 -4 65 27 66 128 100 160
54z"/>
<path d="M2933 2595 c0 -22 2 -30 4 -17 2 12 2 30 0 40 -3 9 -5 -1 -4 -23z"/>
<path d="M2923 2505 c0 -27 2 -38 4 -22 2 15 2 37 0 50 -2 12 -4 0 -4 -28z"/>
<path d="M3573 2270 c0 -30 2 -43 4 -27 2 15 2 39 0 55 -2 15 -4 2 -4 -28z"/>
<path d="M585 1685 c-145 -27 -302 -95 -345 -151 -14 -18 -14 -18 5 -3 41 32
114 69 188 94 108 36 132 32 54 -9 -88 -45 -128 -79 -193 -160 -76 -95 -108
-163 -133 -283 -29 -143 -28 -227 5 -289 39 -74 72 -113 111 -132 l35 -17 28
35 29 35 -28 12 c-63 26 -91 101 -91 236 0 78 27 192 62 261 59 117 187 245
335 334 l88 52 -40 -1 c-22 -1 -72 -7 -110 -14z"/>
</g>
</svg>
